<svg width="199" height="233" viewBox="0 0 199 233" fill="none" xmlns="http://www.w3.org/2000/svg">
<g id="Layer_1" clipPath="url(#clip0_1619_42631)">
<path id="Vector" fill-rule="evenodd" clip-rule="evenodd" d="M127.465 197.856C125.659 190.578 122.314 183.253 119.495 178.923C123.409 196.208 110.044 214.642 119.178 218.052C121.248 218.051 122.912 217.684 124.223 217.024C126.778 215.738 128.093 213.193 128.55 210.001C129.055 206.474 128.541 202.195 127.465 197.856Z" fill="#F9BF3B"/>
<path id="Vector_2" fill-rule="evenodd" clip-rule="evenodd" d="M94.714 187.952C98.4512 181.679 100.271 176.997 100.756 166.229C97.9461 176.083 81.5701 185.797 90.2096 197.862C90.6682 194.744 92.5735 191.545 94.714 187.952Z" fill="#F9BF3B"/>
<path id="Vector_3" fill-rule="evenodd" clip-rule="evenodd" d="M76.3586 164.433C75.772 159.12 73.2671 153.209 71.0817 148.053C69.1713 143.544 68.0134 142.582 67.874 139.599C65.5775 147.979 73.8077 157.757 72.3986 167.352C73.2216 168.376 75.2132 170.072 76.3586 164.433Z" fill="#F9BF3B"/>
<path id="Vector_4" fill-rule="evenodd" clip-rule="evenodd" d="M74.168 139.026C75.473 148.908 83.1238 150.915 84.4717 159.886C85.3455 160.482 87.2775 161.323 86.8404 156.71C85.1443 152.752 81.8299 148.783 78.9388 145.321C76.4108 142.294 74.9738 141.293 74.168 139.026Z" fill="#F9BF3B"/>
<path id="Vector_5" fill-rule="evenodd" clip-rule="evenodd" d="M30.8461 146.071C33.7453 142.299 37.7598 140.581 42.1157 138.718C46.0568 137.032 48.6589 135.872 52.3556 132.208C51.8971 132.656 46.2372 134.16 43.8532 135.081C39.2552 136.858 33.9839 138.895 30.2653 141.78C27.4025 145.958 29.695 146.178 30.8461 146.071" fill="#F9BF3B"/>
<path id="Vector_6" fill-rule="evenodd" clip-rule="evenodd" d="M28.1704 133.865C31.2878 131.637 34.7838 131.253 38.5773 130.836C42.0095 130.46 44.9314 129.96 48.6382 128.002C46.164 128.122 43.1773 128.262 40.7679 128.441C36.808 128.734 32.2687 129.069 28.7276 130.422C25.5431 132.971 27.2582 133.678 28.1704 133.865Z" fill="#F9BF3B"/>
<path id="Vector_7" fill-rule="evenodd" clip-rule="evenodd" d="M155.536 100.336C136.531 96.9645 97.6888 99.3031 82.0898 100.445C99.82 114.674 136.245 113.55 155.536 100.336Z" fill="#E0E0E0"/>
<path id="Vector_8" fill-rule="evenodd" clip-rule="evenodd" d="M95.2275 95.8765C115.053 94.7935 144.439 93.9778 159.295 97.4095C167.527 95.564 177.572 93.2042 184.54 88.0865C169.172 79.8665 122.163 89.3906 95.2275 95.8765Z" fill="#E0E0E0"/>
<path id="Vector_9" fill-rule="evenodd" clip-rule="evenodd" d="M99.7314 91.0372C127.982 84.5818 172.027 76.6486 187.409 85.633C191.755 81.2688 194.077 75.2591 192.477 66.7324C167.908 66.1337 125.534 80.9626 99.7314 91.0372Z" fill="#E0E0E0"/>
<path id="Vector_10" fill-rule="evenodd" clip-rule="evenodd" d="M120.771 79.3713C130.064 72.2916 140.948 60.3759 144.399 51.0107C132.93 54.9418 112.18 74.5301 96.5195 88.3583C103.584 85.5942 111.897 82.4649 120.771 79.3713Z" fill="#E0E0E0"/>
<path id="Vector_11" fill-rule="evenodd" clip-rule="evenodd" d="M99.1124 76.7566C114.294 64.5495 132.388 51.2042 143.02 47.5668C147.986 41.6975 153.761 33.7628 156.276 25.9829C142.104 26.525 117.196 54.7773 99.1124 76.7566Z" fill="#E0E0E0"/>
<path id="Vector_12" fill-rule="evenodd" clip-rule="evenodd" d="M88.8341 79.1264C108.194 56.2748 139.889 22.3038 157.203 22.3371C158.47 15.3392 156.496 8.75965 148.196 4.27979C128.657 18.2138 103.84 55.0205 88.834 79.1265" fill="#E0E0E0"/>
<path id="Vector_13" fill-rule="evenodd" clip-rule="evenodd" d="M127.914 118.167C125.868 118.353 123.81 118.46 121.748 118.487C118.282 127.461 106.715 141.162 100.236 148.421C102.837 151.644 105.546 154.335 108.29 156.821C116.954 151.056 134.319 138.248 139.001 125.435C135.808 122.853 132.134 120.414 127.914 118.167Z" fill="#F9BF3B"/>
<path id="Vector_14" fill-rule="evenodd" clip-rule="evenodd" d="M97.1548 144.027C102.915 137.035 111.663 125.672 114.249 118.23C110.348 117.909 106.477 117.293 102.702 116.372C92.0626 121.393 90.8517 133.345 97.1548 144.027Z" fill="#F9BF3B"/>
<path id="Vector_15" fill-rule="evenodd" clip-rule="evenodd" d="M142.938 128.917C137.06 142.252 120.717 154.626 112.31 160.341C114.436 162.163 116.561 163.958 118.651 165.876C128.124 161.779 147.462 152.038 151.322 139.405C149.146 135.794 146.392 132.264 142.938 128.917Z" fill="#F9BF3B"/>
<path id="Vector_16" fill-rule="evenodd" clip-rule="evenodd" d="M154.279 145.12C147.854 157.093 131.444 165.76 122.6 169.733C124.602 171.837 126.549 174.153 128.408 176.823C135.481 175.503 149.06 171.866 158.534 162.494C158.093 156.898 156.839 150.971 154.279 145.12Z" fill="#F9BF3B"/>
<path id="Vector_17" fill-rule="evenodd" clip-rule="evenodd" d="M158.706 168.996C149.294 176.674 137.968 179.968 131.25 181.329C132.666 183.809 134.014 186.569 135.276 189.681C140.405 189.477 149.85 188.164 157.216 181.798C157.972 178.136 158.592 173.768 158.706 168.996Z" fill="#F9BF3B"/>
<path id="Vector_18" fill-rule="evenodd" clip-rule="evenodd" d="M155.168 189.565C149.288 193.026 143.078 194.283 138.447 194.689C141.775 198.971 147.36 202.904 153.998 192.809C154.16 192.412 154.608 191.283 155.168 189.565Z" fill="#F9BF3B"/>
<path id="Vector_19" fill-rule="evenodd" clip-rule="evenodd" d="M73.2478 108.116C70.8649 108.116 68.7062 107.15 67.1435 105.588C65.5813 104.025 64.6151 101.867 64.6151 99.4834C64.6151 97.0998 65.5813 94.9419 67.1435 93.3791C68.7062 91.817 70.8649 90.8507 73.2478 90.8507C75.6307 90.8507 77.7897 91.817 79.3521 93.3791C79.7921 93.8192 80.1848 94.3068 80.5219 94.8332C81.7007 94.339 83.0339 93.7846 84.5058 93.179C81.4973 90.7127 77.8345 88.8328 73.7029 87.8139C66.9345 86.1448 60.2076 87.1031 54.8042 90.0011C54.4832 90.1731 54.1669 90.3522 53.8557 90.538C53.6411 94.0202 52.4476 97.6593 50.6778 101.236C50.3206 101.958 49.9396 102.678 49.5381 103.393C50.0863 124.162 61.7988 140.023 81.8325 129.278C87.1769 126.411 91.2219 121.643 92.6989 115.654C92.8939 114.864 93.0392 114.072 93.137 113.28C88.2396 111.274 83.6326 108.672 79.4878 105.449C79.4431 105.496 79.3978 105.542 79.3521 105.588C77.7897 107.15 75.6315 108.116 73.2478 108.116" fill="#F9BF3B"/>
<path id="Vector_20" fill-rule="evenodd" clip-rule="evenodd" d="M41.166 88.0886C41.5761 89.9019 41.4253 92.1042 40.6159 94.2647C39.8044 96.4311 38.4702 98.1936 36.9706 99.29C35.2443 100.552 33.2676 100.993 31.4506 100.312C29.6299 99.6305 28.4271 97.998 27.9552 95.9115C27.5446 94.0983 27.6956 91.8959 28.5051 89.7355C29.3166 87.5689 30.6508 85.8065 32.1507 84.7101C33.8769 83.4477 35.8536 83.0073 37.6707 83.6878C39.4914 84.3699 40.6941 86.0023 41.166 88.0886ZM33.3943 114.566C38.9524 109.263 43.939 106.47 47.3436 99.5893C50.5166 93.1768 51.591 86.6571 47.3597 81.986C47.273 81.8897 47.1476 81.7592 46.9912 81.6006C42.834 77.3908 37.0564 78.5471 33.7765 79.7227C32.8302 80.062 32.0915 80.4026 31.6597 80.6167C19.1313 101.524 29.7856 110.76 33.3943 114.566Z" fill="#F9BF3B"/>
<path id="Vector_21" fill-rule="evenodd" clip-rule="evenodd" d="M34.771 96.2889C35.7236 95.5925 36.5869 94.4302 37.1345 92.9682C37.6846 91.4997 37.7987 90.054 37.5388 88.9045C37.3408 88.0283 36.9367 87.3801 36.3748 87.1697C35.8093 86.958 35.0768 87.1804 34.3511 87.7111C33.3985 88.4075 32.5354 89.5699 31.9876 91.0319C31.4373 92.5 31.3232 93.9461 31.5833 95.0955C31.7815 95.9717 32.1854 96.6199 32.7475 96.8303C33.3128 97.042 34.0452 96.8196 34.771 96.2889Z" fill="#FEFEFE"/>
<path id="Vector_22" d="M99.7 147.748C111.552 162.864 125.804 166.336 135.275 189.681C136.355 191.316 143.976 208.05 153.997 192.809C155.272 189.699 174.122 141.498 126.369 117.366C125.877 117.118 125.387 116.885 124.897 116.667C126.645 116.338 128.423 115.855 130.216 115.185C179.804 142.038 157.433 194.242 157.369 194.395L157.309 194.539L157.209 194.693C143.456 215.881 129.127 193.099 129.086 193.034L128.985 192.877L128.926 192.728C121.915 175.201 98.8089 160.759 98.7424 160.717L98.6444 160.655L98.5673 160.593C94.5354 157.353 91.5583 154.306 89.371 151.516C86.6241 148.012 85.1138 144.895 84.3219 142.295C82.8413 137.433 83.6478 132.01 86.1611 127.037C88.7277 123.623 90.5759 121.576 93.7232 118.899C95.9325 117.019 93.8426 113.265 96.5943 112.028C97.9977 112.7 104.165 114.423 106.148 115.09C106.001 115.132 105.854 115.175 105.708 115.22C90.877 119.736 89.992 135.368 99.7 147.748" fill="#332C2B"/>
<path id="Vector_23" d="M49.5392 103.392C50.0874 124.162 61.7999 140.023 81.8336 129.278C87.178 126.411 91.2231 121.643 92.7 115.654C93.0243 114.339 93.2115 113.019 93.2704 111.706C94.4184 112.212 95.631 112.664 96.9082 113.037C96.7978 114.204 96.6013 115.374 96.3132 116.543C94.5715 123.605 89.8389 129.208 83.5965 132.556C77.4129 135.873 69.7402 136.976 62.0465 135.078C54.3492 133.18 48.0681 128.636 44.1366 122.824C41.7164 119.247 40.1831 115.188 39.75 110.964C41.1016 110.427 48.4805 104.141 49.5393 103.392M74.5926 84.2004C82.2899 86.0987 88.571 90.6431 92.5023 96.4545C92.7714 96.8522 93.029 97.2558 93.2759 97.665L88.9732 97.9087C85.5162 93.1312 80.1871 89.4123 73.704 87.8137C66.9356 86.1445 60.2087 87.1028 54.8053 90.0008C53.5124 90.6943 52.2958 91.4994 51.173 92.406C51.266 90.6359 51.2128 89.0614 51.1242 87.8539C51.7458 87.4525 52.3856 87.0752 53.0425 86.7227C59.226 83.4059 66.8987 82.3031 74.5926 84.2004Z" fill="#332C2B"/>
<path id="Vector_24" d="M31.6588 80.6167C19.1304 101.524 29.7847 110.76 33.3934 114.566C38.9515 109.263 43.9381 106.47 47.3426 99.5892C50.5157 93.1768 51.5901 86.657 47.3588 81.9859C47.272 81.8897 47.1467 81.7592 46.9903 81.6006C41.6338 76.176 33.5871 79.661 31.6588 80.6167ZM31.43 122.573C31.3741 122.525 11.6201 106.261 28.7413 78.2451L28.9959 77.8284L29.426 77.5896C29.4606 77.5704 41.5262 70.7744 49.6419 78.9928C49.7736 79.1266 49.9296 79.2925 50.1122 79.4946C55.6239 85.579 54.4811 93.5517 50.6788 101.236C47.0846 108.5 41.0699 115.528 36.3129 120.225C35.4885 121.04 34.6662 121.815 33.8775 122.529L32.6681 123.624L31.4299 122.573H31.43Z" fill="#332C2B"/>
<path id="Vector_25" d="M192.479 66.7328C159.429 65.9274 94.1608 93.0388 80.3505 98.9404C98.4667 115.797 140.827 113.825 159.297 97.41C174.751 93.945 196.596 88.6678 192.479 66.7328ZM74.4852 97.4096C74.7214 97.3067 156.448 61.3847 193.722 63.0482L194.761 63.0947L195.266 63.9953C195.312 64.0778 211.845 92.6042 165.911 103.117C154.019 113.485 136.266 118.92 118.673 118.469C101.928 118.039 85.2776 112.289 73.8876 100.403L72.041 98.4768L74.4852 97.4096Z" fill="#332C2B"/>
<path id="Vector_26" d="M74.7227 97.3217C75.016 97.2393 176.866 68.4067 191.251 89.0403L188.192 91.1671C175.338 72.7296 76.0136 100.825 75.7277 100.905L74.7227 97.3216V97.3217Z" fill="#332C2B"/>
<path id="Vector_27" d="M75.0684 97.2563C75.286 97.2378 150.816 90.6243 165.987 99.8285L164.064 103.005C149.96 94.4476 75.6032 100.953 75.3891 100.971L75.0684 97.2562V97.2563Z" fill="#332C2B"/>
<path id="Vector_28" d="M91.877 150.226C91.9405 150.147 112.436 127.212 114.776 116.388L122.533 115.945C119.945 127.915 95.808 153.252 95.7422 153.334L91.877 150.226Z" fill="#332C2B"/>
<path id="Vector_29" d="M103.311 159.984C103.394 159.934 133.914 141.974 139.361 124.372L144.1 125.829C138.086 145.267 107.259 163.609 107.171 163.663L103.311 159.984Z" fill="#332C2B"/>
<path id="Vector_30" d="M113.406 167.99C113.497 167.957 146.54 156.123 151.406 139.123L156.185 140.483C150.618 159.931 116.838 172.122 116.741 172.158L113.406 167.99Z" fill="#332C2B"/>
<path id="Vector_31" d="M123.721 177.515C123.78 177.51 145.528 175.643 158.823 162.203L162.339 165.699C147.743 180.454 125.485 182.223 125.421 182.228L123.721 177.515Z" fill="#332C2B"/>
<path id="Vector_32" d="M131.559 189.642C131.602 189.646 146.646 190.998 157.288 181.736L160.044 186.059C147.77 196.743 131.212 194.709 131.162 194.705L131.559 189.642Z" fill="#332C2B"/>
<path id="Vector_33" d="M78.8282 88.3861C92.2314 66.0043 123.407 16.6877 146.98 0.587058L147.839 0L148.783 0.417515C148.87 0.455872 179.216 13.3466 148.789 49.3275C146.769 58.8115 141.859 68.1332 135.046 76.2778C132.719 77.0408 119.254 81.3241 116.741 82.1974C127.557 75.3321 143.007 59.1051 145.235 48.1304L142.656 47.9963C152.962 35.9263 167.256 14.5674 148.197 4.28017C125.532 20.444 95.764 67.3858 82.4473 89.5777C81.1704 89.0296 79.9415 88.6495 78.8281 88.3862" fill="#332C2B"/>
<path id="Vector_34" d="M80.7129 88.9193C98.8907 66.5465 141.985 16.7229 160.611 22.8562L159.441 26.3939C143.044 20.9943 105.294 69.1286 87.2074 91.409C85.9986 90.7483 81.8405 89.2928 80.713 88.9193" fill="#332C2B"/>
<path id="Vector_35" d="M83.2305 89.9317C100.487 75.2048 133.996 47.9258 146.877 46.6528L147.245 50.3474C135.516 51.5064 108.31 78.4015 91.0986 93.076C89.9819 92.2502 84.3413 90.4626 83.2305 89.9317Z" fill="#332C2B"/>
<path id="Vector_36" d="M89.5746 176.724C92.5836 171.796 96.005 166.192 97.3162 159.096L97.8258 156.337L102.03 159.11L103.323 160.964L103.407 161.236C107.347 174.016 102.139 182.756 97.9064 189.861C94.6883 194.648 92.9045 199.167 93.558 202.217C93.9672 204.127 99.8866 209.818 98.1635 210.577C96.8482 212.107 91.6849 204.942 90.8086 204.13C79.3389 193.491 83.7687 186.234 89.5746 176.724M100.758 166.229C97.948 176.083 81.5721 185.797 90.2116 197.862C90.6701 194.744 92.5755 191.545 94.7159 187.952C98.4532 181.68 100.273 176.997 100.758 166.229Z" fill="#332C2B"/>
<path id="Vector_37" d="M66.0147 153.676C64.0385 148.51 61.9002 142.921 62.2608 135.745L62.3142 134.676L66.3254 133.413L71.3484 134.262L71.0905 135.711C70.7333 137.716 72.475 141.825 74.4996 146.603C76.8296 152.1 79.5066 158.416 80.0905 164.341L80.1163 164.605L80.0668 164.865C79.5107 167.741 78.8253 169.766 78.0708 171.142C77.1339 172.851 74.8084 182.988 73.794 183.241C70.0681 184.167 72.449 172.974 71.3817 171.968C69.8799 170.551 68.8285 168.767 68.8455 168.754L68.4721 168.142L68.6056 167.446C69.4989 162.786 67.8316 158.426 66.0146 153.676M72.397 167.352C73.22 168.376 75.2116 170.072 76.357 164.434C75.7704 159.12 73.2655 153.209 71.0801 148.053C69.1697 143.545 68.0118 142.582 67.8723 139.599C65.5759 147.979 73.8061 157.757 72.397 167.352Z" fill="#332C2B"/>
<path id="Vector_38" d="M76.3488 150.84C73.6165 147.322 70.6599 143.515 69.2579 137.9L69.0488 137.064L71.9874 134.186L75.9145 134.63L76.0549 135.806C76.2488 137.436 78.5532 140.195 81.232 143.403C84.3148 147.094 87.8567 151.335 89.6936 155.764L89.7754 155.962L89.7981 156.174C90.043 158.521 89.9888 160.241 89.7293 161.479C89.4074 163.015 89.9884 171.372 89.2657 171.804C86.6112 173.39 85.8258 164.207 84.7676 163.681C83.2782 162.941 82.0502 161.812 82.0607 161.798L81.6293 161.414L81.5693 160.846C81.1671 157.045 78.8612 154.076 76.3487 150.84M84.4692 159.886C85.3431 160.482 87.275 161.323 86.838 156.709C85.1418 152.752 81.8274 148.783 78.9363 145.321C76.4084 142.293 74.9714 141.292 74.1655 139.026C75.4705 148.908 83.1213 150.914 84.4692 159.886Z" fill="#332C2B"/>
<path id="Vector_39" d="M43.4021 141.728C47.8782 139.813 52.7217 137.741 57.0372 133.117L57.6802 132.429L56.0218 129.119L52.4076 126.464L51.65 127.514C50.6012 128.968 46.9363 130.385 42.676 132.031C37.7733 133.925 32.1403 136.103 28.0373 139.363L27.8544 139.508L27.7203 139.698C26.2428 141.812 25.3826 143.486 24.9747 144.806C24.4685 146.445 19.4845 154.125 19.9462 154.921C21.643 157.844 27.2602 149.482 28.5506 149.54C30.3661 149.622 32.1384 149.193 32.1354 149.175L32.7518 149.036L33.1099 148.525C35.5085 145.106 39.2862 143.489 43.4021 141.728ZM52.3562 132.209C48.6595 135.872 46.0574 137.032 42.1163 138.718C37.7604 140.581 33.7459 142.299 30.8466 146.071C29.6955 146.178 27.403 145.958 30.2658 141.78C33.9844 138.895 39.2557 136.858 43.8537 135.081C46.2377 134.16 51.8977 132.656 52.3562 132.209Z" fill="#332C2B"/>
<path id="Vector_40" d="M38.8654 133.457C42.7635 133.029 46.9813 132.566 51.3899 130.013L52.0466 129.633L52.0658 126.012L49.3794 123.802L48.5498 124.434C47.4011 125.309 44.2449 125.543 40.5764 125.814C36.3542 126.126 31.5033 126.485 27.5778 128.037L27.403 128.106L27.2551 128.222C25.6216 129.505 24.5669 130.593 23.9433 131.515C23.1696 132.66 17.5304 137.412 17.7 138.133C18.3234 140.783 24.6099 135.654 25.5908 136.001C26.971 136.489 28.4372 136.573 28.4391 136.559L28.9467 136.596L29.3422 136.286C31.9914 134.212 35.2811 133.851 38.8655 133.457M48.6403 128.002C44.9336 129.96 42.0116 130.459 38.5794 130.836C34.7859 131.253 31.2899 131.637 28.1726 133.865C27.2603 133.678 25.5452 132.971 28.7297 130.422C32.2708 129.069 36.8102 128.733 40.77 128.44C43.1794 128.262 46.1661 128.122 48.6403 128.002Z" fill="#332C2B"/>
<path id="Vector_41" d="M111.957 165.679C132.111 185.337 107.614 213.735 119.179 218.051C121.248 218.05 122.912 217.684 124.224 217.024C126.778 215.738 128.094 213.193 128.551 210.001C129.056 206.474 128.542 202.195 127.465 197.856C125.301 189.135 120.927 180.345 117.897 176.725L120.753 174.335C124.052 178.278 128.782 187.711 131.078 196.967C132.26 201.729 132.815 206.49 132.237 210.525C131.611 214.894 129.692 218.437 125.899 220.346C124.001 221.302 125.935 233.036 123.085 232.989C117.599 222.814 117.72 222.641 114.372 219.649C109.763 215.529 110.426 209.15 111.533 201.024C112.956 190.575 113.929 175.252 102.127 163.74L111.957 165.679Z" fill="#332C2B"/>
<path id="Vector_42" d="M37.5371 88.9046C37.3391 88.0285 36.935 87.3802 36.3731 87.1699C35.8076 86.9581 35.0751 87.1805 34.3494 87.7112C33.3968 88.4076 32.5337 89.57 31.9859 91.0321C31.4356 92.5001 31.3215 93.9463 31.5816 95.0956C31.7798 95.9718 32.1837 96.62 32.7458 96.8304C33.3111 97.0422 34.0435 96.8197 34.7693 96.2891C35.7218 95.5926 36.5852 94.4303 37.1328 92.9684C37.6829 91.4999 37.797 90.0541 37.5371 88.9046ZM37.6695 83.688C39.4902 84.37 40.6929 86.0024 41.1648 88.0887C41.5749 89.9019 41.4241 92.1043 40.6147 94.2648C39.8032 96.4312 38.469 98.1937 36.9694 99.2901C35.2431 100.552 33.2664 100.993 31.4494 100.312C29.6287 99.6305 28.4259 97.9981 27.954 95.9116C27.5434 94.0983 27.6945 91.896 28.5039 89.7356C29.3155 87.569 30.6496 85.8066 32.1495 84.7102C33.8757 83.4478 35.8524 83.0075 37.6695 83.688Z" fill="#332C2B"/>
<path id="Vector_43" d="M28.5927 78.3771C28.6017 78.3268 32.0126 60.6488 2.2648 72.5477L0.880859 69.0951C36.9177 54.6808 32.2762 78.9488 32.264 79.0179L28.5927 78.3771Z" fill="#332C2B"/>
<path id="Vector_44" d="M30.6274 77.5842C30.6658 77.5505 44.3562 65.8578 13.6807 56.6094L14.7517 53.0474C51.9123 64.251 33.8282 79.6763 33.7754 79.7229L30.6274 77.5841L30.6274 77.5842Z" fill="#332C2B"/>
<path id="Vector_45" d="M73.2489 90.8506C75.6326 90.8506 77.791 91.8171 79.3532 93.379C80.9152 94.9415 81.8816 97.1 81.8816 99.4833C81.8816 101.867 80.9152 104.025 79.3532 105.588C77.791 107.15 75.6326 108.116 73.2489 108.116C70.8652 108.116 68.7071 107.15 67.1446 105.588C65.5828 104.025 64.6162 101.867 64.6162 99.4833C64.6162 97.0996 65.5828 94.9415 67.1446 93.379C68.7071 91.8171 70.8657 90.8506 73.2489 90.8506Z" fill="#332C2B"/>
<path id="Vector_46" opacity="0.68" fill-rule="evenodd" clip-rule="evenodd" d="M117.793 144.599C108.531 136.532 125.346 121.224 128.506 118.485C128.31 118.379 128.113 118.273 127.914 118.167C125.868 118.353 123.81 118.46 121.748 118.487C118.282 127.461 106.715 141.162 100.236 148.421C102.837 151.644 105.546 154.335 108.29 156.821C114.028 153.003 123.582 146.097 130.74 138.145C123.624 141.722 117.793 144.599 117.793 144.599Z" fill="#C72C1C"/>
<path id="Vector_47" opacity="0.68" fill-rule="evenodd" clip-rule="evenodd" d="M125.081 150.607C120.339 154.679 115.685 158.046 112.31 160.341C114.436 162.163 116.561 163.958 118.651 165.876C125.196 163.045 136.45 157.52 144.054 150.209C141.932 152.14 132.101 155.289 132.101 155.289C127.332 152.493 125.081 150.607 125.081 150.607" fill="#C72C1C"/>
<path id="Vector_48" opacity="0.68" fill-rule="evenodd" clip-rule="evenodd" d="M135.292 163.066C130.606 165.942 126.033 168.191 122.6 169.733C124.602 171.837 126.549 174.153 128.408 176.823C133.547 175.864 142.122 173.682 150.061 168.964C144.419 170.14 137.858 170.338 137.858 170.338C137.283 167.789 135.289 163.068 135.292 163.066Z" fill="#C72C1C"/>
<path id="Vector_49" opacity="0.68" fill-rule="evenodd" clip-rule="evenodd" d="M140.002 178.99C136.69 180.097 133.671 180.838 131.25 181.329C132.666 183.809 134.014 186.569 135.276 189.681C139.3 189.521 145.983 188.678 152.233 185.247C150.326 185.601 143.532 185.88 143.532 185.88C142.627 184.153 140.002 178.99 140.002 178.99Z" fill="#C72C1C"/>
<path id="Vector_50" opacity="0.68" fill-rule="evenodd" clip-rule="evenodd" d="M147.797 192.837C144.396 193.925 141.152 194.452 138.447 194.689C140.975 197.942 144.805 200.993 149.41 197.848C147.287 196.785 147.797 192.837 147.797 192.837Z" fill="#C72C1C"/>
<path id="Vector_51" opacity="0.68" fill-rule="evenodd" clip-rule="evenodd" d="M97.1528 144.027C102.913 137.035 111.661 125.673 114.247 118.23C110.346 117.909 106.475 117.293 102.7 116.372C92.0608 121.393 90.8497 133.345 97.1528 144.027Z" fill="#C72C1C"/>
<path id="Vector_52" fill-rule="evenodd" clip-rule="evenodd" d="M128.505 118.485L134.074 127C134.074 127 132.364 136.284 130.776 138.104C134.411 134.06 137.424 129.748 139 125.434C135.957 122.975 132.477 120.643 128.505 118.485Z" fill="#FDE3A7"/>
<path id="Vector_53" fill-rule="evenodd" clip-rule="evenodd" d="M142.938 128.917C139.77 136.103 133.564 143.009 127.198 148.745C126.493 149.381 125.786 150.002 125.081 150.607C125.081 150.607 125.931 150.043 127.275 149.116C131.438 146.247 140.341 139.899 143.449 136.045C143.449 136.045 145.179 138.902 146.738 142.131C146.738 142.131 145.646 146.283 144.054 150.21C147.457 146.939 150.129 143.31 151.322 139.405C149.146 135.794 146.392 132.264 142.938 128.917Z" fill="#FDE3A7"/>
<path id="Vector_54" fill-rule="evenodd" clip-rule="evenodd" d="M154.278 145.12C150.347 152.446 142.678 158.534 135.291 163.066C135.291 163.066 148.055 156.768 152.989 152.985C152.989 152.985 154.633 156.521 154.551 160.797C154.551 160.797 151.901 167.346 150.06 168.964C153.047 167.189 155.944 165.056 158.534 162.494C158.092 156.898 156.839 150.971 154.278 145.12" fill="#FDE3A7"/>
<path id="Vector_55" fill-rule="evenodd" clip-rule="evenodd" d="M158.706 168.996C152.684 173.907 145.881 177.025 140.001 178.99C140.001 178.99 152.658 175.928 155.948 174.366C155.948 174.366 154.437 182.806 152.232 185.247C153.947 184.305 155.629 183.169 157.215 181.798C157.972 178.136 158.591 173.768 158.706 168.996Z" fill="#FDE3A7"/>
<path id="Vector_56" fill-rule="evenodd" clip-rule="evenodd" d="M155.168 189.565C153.449 190.577 151.701 191.401 149.974 192.069C149.974 192.069 150.971 194.136 151.146 196.392C152.071 195.471 153.023 194.291 153.998 192.809C154.16 192.412 154.609 191.283 155.168 189.565Z" fill="#FDE3A7"/>
<path id="Vector_57" fill-rule="evenodd" clip-rule="evenodd" d="M73.2479 108.116C70.865 108.116 68.7063 107.15 67.1436 105.588C65.5814 104.025 64.6152 101.867 64.6152 99.4835C61.9297 112.837 77.0039 114.418 77.0039 114.418C58.1155 121.268 53.7326 105.126 53.7326 105.126C56.1996 98.2183 53.8557 90.5381 53.8557 90.5381C53.6414 94.0202 52.4476 97.6594 50.6778 101.236C50.3206 101.958 49.9396 102.678 49.5381 103.393C49.7245 110.454 51.2029 116.948 53.8589 122.021C53.9417 122.164 54.0215 122.313 54.0988 122.469C54.4142 123.046 54.7443 123.606 55.0908 124.143C60.6727 131.807 75.3575 128.888 75.3575 128.888C71.4103 129.382 64.4205 126.504 64.4205 126.504C84.7055 130.182 93.137 113.28 93.137 113.28C88.2396 111.274 83.6326 108.672 79.4878 105.449C79.4431 105.496 79.3978 105.542 79.3521 105.588C77.7897 107.15 75.6315 108.116 73.2478 108.116" fill="#D75B25"/>
<path id="Vector_58" fill-rule="evenodd" clip-rule="evenodd" d="M74.0771 90.8896C76.1302 91.085 77.9737 91.9995 79.3531 93.3787C79.7931 93.8187 80.1857 94.3063 80.5229 94.8327C81.7017 94.3386 83.0348 93.7842 84.5068 93.1786C81.4983 90.7123 77.8354 88.8323 73.7039 87.8135C73.1901 87.6868 72.6767 87.5753 72.1641 87.4785C74.7861 89.717 74.0771 90.8896 74.0771 90.8896Z" fill="#D75B25"/>
<path id="Vector_59" fill-rule="evenodd" clip-rule="evenodd" d="M36.9706 99.2903C35.2443 100.552 33.2676 100.993 31.4506 100.312C29.6299 99.6308 28.4271 97.9983 27.9552 95.9118C27.5447 94.0985 27.6957 91.8962 28.5051 89.7358C28.5974 89.4898 28.6961 89.2492 28.8013 89.0141C27.564 91.0389 27.5762 89.0049 27.5762 89.0049C22.0767 104.092 30.3095 111.313 33.3943 114.567C38.9524 109.263 43.939 106.47 47.3436 99.5896C48.7737 96.6995 49.7774 93.7874 50.0615 91.0327C44.5883 105.498 36.9705 99.2903 36.9705 99.2903" fill="#D75B25"/>
<path id="Vector_60" fill-rule="evenodd" clip-rule="evenodd" d="M32.1498 84.7101C33.8761 83.4477 35.8527 83.0073 37.6698 83.6878C38.7792 84.1033 39.6592 84.8717 40.284 85.8806C42.5734 87.3568 44.1031 90.0164 42.8779 94.4337C42.8779 94.4337 49.2914 92.6474 49.9495 87.2498C49.6043 85.3359 48.7816 83.5564 47.3589 81.986C47.2722 81.8897 47.1468 81.7592 46.9904 81.6006C42.8332 77.3908 37.0556 78.5471 33.7757 79.7227C32.8293 80.062 32.0907 80.4026 31.6589 80.6167C30.7821 82.0802 30.0185 83.4867 29.3584 84.8381C29.3584 84.8381 29.5118 85.9318 32.1499 84.7101" fill="#FDE3A7"/>
<path id="Vector_61" fill-rule="evenodd" clip-rule="evenodd" d="M54.1191 90.3828C55.3067 91.535 60.3863 97.0309 59.0767 105.617C59.0767 105.617 62.3628 100.415 62.2016 92.0482C62.2016 92.0482 64.3467 92.9758 66.2447 94.4354C66.5163 94.0591 66.8172 93.7059 67.1443 93.3787C67.9398 92.5836 68.8892 91.943 69.9443 91.5054C70.3092 91.3541 70.6869 91.2269 71.075 91.1263C71.8125 90.6707 72.5686 89.6702 72.1639 87.4785C65.9218 86.301 59.7984 87.3225 54.805 90.0006C54.5741 90.1245 54.3456 90.2519 54.1192 90.3827" fill="#FDE3A7"/>
<path id="Vector_62" fill-rule="evenodd" clip-rule="evenodd" d="M147.681 104.57C98.8949 113.455 106.018 99.0742 106.018 99.0742C96.2601 99.4741 87.5042 100.048 81.8271 100.463C97.4378 112.992 127.54 113.618 147.681 104.57Z" fill="#A0A0A0"/>
<path id="Vector_63" fill-rule="evenodd" clip-rule="evenodd" d="M94.9629 95.8958C107.104 95.2324 122.83 94.6695 136.61 95.1211C119.184 92.748 133.057 88.0742 133.057 88.0742C119.351 90.3028 105.594 93.3359 94.9629 95.8958Z" fill="#A0A0A0"/>
<path id="Vector_64" fill-rule="evenodd" clip-rule="evenodd" d="M99.4668 91.0566C108.526 88.9867 119.208 86.7646 130.049 84.9973C119.138 86.2168 124.091 81.9851 124.091 81.9854C115.095 85.0873 106.64 88.2557 99.4668 91.0566Z" fill="#A0A0A0"/>
<path id="Vector_65" fill-rule="evenodd" clip-rule="evenodd" d="M112.124 53.4141C104.187 61.3466 102.451 60.3311 102.316 58.295C97.3328 65.6823 92.7495 72.8368 88.834 79.1268C95.4986 71.26 103.625 62.0756 112.124 53.4141Z" fill="#A0A0A0"/>
<path id="Vector_66" fill-rule="evenodd" clip-rule="evenodd" d="M116.966 55.9676C110.714 62.8418 104.599 70.0878 99.1123 76.7564C110.508 67.5934 123.544 57.7897 133.834 51.9312C112.589 61.6611 116.148 56.9079 116.966 55.9676Z" fill="#A0A0A0"/>
<path id="Vector_67" fill-rule="evenodd" clip-rule="evenodd" d="M117.441 69.8498C110.273 75.9996 102.965 82.6668 96.5195 88.3584C103.584 85.5942 111.897 82.465 120.771 79.3713C125.028 76.1284 129.618 71.8709 133.675 67.3086C114.532 81.8772 117.441 69.8498 117.441 69.8498" fill="#A0A0A0"/>
<path id="Vector_68" fill-rule="evenodd" clip-rule="evenodd" d="M111.424 45.2105C127.922 24.5252 151.666 18.5303 151.666 18.5303C133.565 27.0414 119.571 43.7652 113.313 52.2085C129.165 36.2109 146.127 22.3159 157.204 22.3371C158.47 15.3392 156.496 8.75965 148.196 4.27979C136.74 12.4499 123.468 28.484 111.424 45.2105Z" fill="#FEFEFE"/>
<path id="Vector_69" fill-rule="evenodd" clip-rule="evenodd" d="M156.279 25.983C147.273 26.3273 133.93 37.8636 120.759 51.8688C129.874 43.4356 147.968 32.5929 147.968 32.5929C148.215 35.8822 143.023 47.5668 143.023 47.5668C147.989 41.6975 153.765 33.763 156.279 25.9829" fill="#FEFEFE"/>
<path id="Vector_70" fill-rule="evenodd" clip-rule="evenodd" d="M192.478 66.7324C176.064 66.3324 151.705 72.8179 129.649 80.171C151.291 73.7755 186.944 69.6798 186.944 69.6798C187.438 74.4491 182.915 80.1231 182.915 80.1231C158.081 74.8606 129.139 85.0897 129.139 85.0897C129.429 85.0631 129.733 85.0323 130.05 84.9969C129.766 85.0432 129.483 85.0897 129.2 85.1364L129.227 85.1569C152.531 81.2893 176.795 79.4329 187.41 85.6329C191.755 81.2687 194.078 75.2591 192.478 66.7324Z" fill="#FEFEFE"/>
<path id="Vector_71" fill-rule="evenodd" clip-rule="evenodd" d="M184.543 88.0864C175.282 83.1331 154.531 84.6232 133.607 88.0089C152.751 85.7671 173.214 86.8659 173.214 86.8659C170.334 91.4812 159.234 94.8424 159.234 94.8424C152.899 93.4848 138.545 94.8325 136.211 95.0652C136.258 95.0716 136.305 95.0784 136.352 95.0851C145.279 95.3598 153.424 96.0527 159.298 97.4095C167.529 95.5639 177.574 93.2041 184.543 88.0864Z" fill="#FEFEFE"/>
<path id="Vector_72" fill-rule="evenodd" clip-rule="evenodd" d="M153.157 99.9575C143.954 98.6462 131.111 98.4273 118.51 98.6776C131.633 99.6323 147.608 101.437 147.68 104.57C147.681 104.603 147.682 104.636 147.683 104.668C150.399 103.465 152.937 102.086 155.238 100.539L153.157 99.9575Z" fill="#FEFEFE"/>
</g>
<defs>
<clipPath id="clip0_1619_42631">
<rect width="197.319" height="232.989" fill="white" transform="translate(0.880859)"/>
</clipPath>
</defs>
</svg>
