<svg width="253" height="320" viewBox="0 0 253 320" fill="none" xmlns="http://www.w3.org/2000/svg">
<path d="M157.691 201.037C158.869 200.788 160.051 200.504 161.233 200.17L169.735 186.208H164.365L157.691 201.037Z" fill="#BCB9AF"/>
<path d="M202.387 144.178C202.451 144.042 202.533 143.914 202.63 143.799C215.793 128.005 206.457 113.321 204.386 110.451C202.267 111.278 200.105 111.992 197.91 112.59C195.203 113.317 192.473 113.944 189.72 114.395C186.968 114.847 184.206 115.23 181.435 115.483C178.665 115.736 175.89 115.885 173.115 115.889C175.881 115.7 178.633 115.357 181.368 114.923C184.102 114.49 186.81 113.94 189.49 113.294C192.171 112.649 194.81 111.859 197.405 110.97C199.539 110.227 201.631 109.37 203.673 108.403C203.673 108.349 203.7 108.294 203.718 108.24C207.035 98.5745 206.105 90.0683 200.961 82.9701C198.675 79.814 195.754 77.1704 192.387 75.2086C191.958 75.4387 191.525 75.6598 191.083 75.8719C190.208 76.3232 189.314 76.7022 188.416 77.0768C186.611 77.8304 184.806 78.4802 182.952 79.0668C181.097 79.6534 179.242 80.1498 177.361 80.5695C176.427 80.7996 175.479 80.9575 174.54 81.1606C173.602 81.3637 172.645 81.481 171.702 81.6434C172.605 81.3907 173.552 81.1516 174.473 80.8853C175.393 80.6191 176.309 80.3438 177.207 80.0234C179.012 79.4278 180.817 78.7374 182.559 78.0108C184.301 77.2843 186.025 76.4495 187.685 75.5515C188.515 75.1003 189.337 74.649 190.131 74.1436C190.51 73.909 190.889 73.6698 191.259 73.4216C191.191 58.8912 177.329 58.0519 176.738 58.0203C176.479 58.0073 176.225 57.9396 175.993 57.8218C166.827 61.7582 156.945 63.7555 146.969 63.6881C142.682 63.685 138.4 63.3531 134.163 62.6953C127.899 61.7602 121.76 60.1192 115.865 57.8037C115.63 57.9345 115.367 58.0087 115.098 58.0203C114.511 58.0519 100.581 58.8957 100.581 73.5209C100.584 73.5569 100.584 73.5931 100.581 73.6292L100.739 73.76C101.191 74.0849 101.597 74.4144 102.048 74.7212C102.499 75.0281 102.95 75.3304 103.424 75.6237L104.859 76.4495C105.333 76.7293 105.843 76.9549 106.335 77.2076C106.827 77.4603 107.319 77.722 107.837 77.9296L109.372 78.593C109.624 78.7013 109.882 78.8186 110.139 78.9224L110.924 79.2067C115.132 80.7869 119.476 81.9757 123.902 82.758L125.562 83.0784C126.117 83.1912 126.677 83.2499 127.236 83.3356L130.589 83.814C131.149 83.9042 131.708 83.9493 132.272 84.0035L133.96 84.1614C135.084 84.2652 136.216 84.3826 137.34 84.4728C139.596 84.5766 141.852 84.712 144.109 84.7887L150.904 84.8293L144.104 85.0685C141.848 85.0685 139.569 85.0459 137.295 85.0369C136.162 84.9917 135.038 84.9195 133.892 84.8654L132.191 84.7751C131.623 84.7436 131.054 84.721 130.49 84.6533L127.092 84.3149C126.523 84.2472 125.955 84.2156 125.395 84.1253L123.703 83.8726C119.165 83.2587 114.693 82.2316 110.342 80.8041L109.521 80.5379C109.25 80.4431 108.984 80.3348 108.713 80.2355L107.097 79.6128C106.556 79.4233 106.037 79.1615 105.505 78.9314C104.972 78.7013 104.444 78.4802 103.93 78.1959L102.391 77.3926C101.881 77.1083 101.385 76.797 100.879 76.4901C100.374 76.1833 99.8955 75.8358 99.4082 75.4929L99.2096 75.3439C96.4345 76.9188 80.8079 86.9005 88.1271 108.254C88.1712 108.385 88.1999 108.522 88.2128 108.66L88.4159 108.782C88.9032 109.057 89.3906 109.332 89.9005 109.585C90.4104 109.838 90.9203 110.072 91.4302 110.321L93.0005 110.997C95.1297 111.86 97.3068 112.6 99.521 113.213C101.737 113.858 103.997 114.35 106.29 114.811C107.427 115.032 108.573 115.212 109.715 115.415L113.162 115.903L109.683 115.695C108.523 115.587 107.364 115.496 106.204 115.37C103.894 115.09 101.574 114.784 99.2818 114.31C96.963 113.869 94.6714 113.295 92.4184 112.59L90.7353 112.022C90.1847 111.805 89.6207 111.616 89.0702 111.377C88.5197 111.137 87.9691 110.925 87.4231 110.655L87.3419 110.614C85.0857 113.827 76.2729 128.294 89.2146 143.804C89.3613 143.978 89.4731 144.178 89.544 144.395C92.9283 145.591 102.973 148.763 118.681 150.509C136.496 152.472 165.407 152.951 202.387 144.178ZM124.159 102.37C124.159 102.053 124.243 101.742 124.401 101.468C124.56 101.194 124.787 100.966 125.061 100.808L143.562 90.1315C143.837 89.9731 144.148 89.8897 144.465 89.8897C144.782 89.8897 145.093 89.9731 145.367 90.1315L163.868 100.808C164.143 100.966 164.37 101.194 164.529 101.468C164.687 101.742 164.771 102.053 164.771 102.37V123.714C164.771 124.031 164.688 124.343 164.53 124.618C164.371 124.893 164.143 125.121 163.868 125.28L145.367 135.952C145.093 136.11 144.782 136.194 144.465 136.194C144.148 136.194 143.837 136.11 143.562 135.952L125.061 125.28C124.787 125.121 124.559 124.893 124.4 124.618C124.242 124.343 124.158 124.031 124.159 123.714V102.37Z" fill="#EFB534"/>
<path d="M203.131 209.383C203.301 209.252 203.428 209.074 203.495 208.87C203.562 208.666 203.565 208.447 203.506 208.241L196.94 184.176C196.876 183.946 196.739 183.743 196.549 183.598C196.359 183.453 196.127 183.374 195.889 183.373H182.351C179.75 184.79 176.92 185.738 173.99 186.175L165.565 200.001C183.163 200.904 195.834 206.269 201.962 209.478C202.144 209.581 202.353 209.627 202.561 209.61C202.77 209.593 202.968 209.514 203.131 209.383Z" fill="#BCB9AF"/>
<path d="M145.922 19.1238C145.524 19.1206 145.126 19.092 144.731 19.0381V33.9656C145.083 33.934 145.43 33.9204 145.773 33.9204H145.809C146.248 33.9246 146.686 33.9653 147.118 34.0423V19.0381C146.722 19.0918 146.322 19.1205 145.922 19.1238Z" fill="#BCB9AF"/>
<path d="M171.941 182.595H173.502C184.91 180.758 188.926 172.311 190.135 168.714C189.147 168.936 188.154 169.125 187.161 169.301C183.957 169.861 180.74 170.231 177.523 170.528C174.305 170.826 171.083 171.025 167.862 171.174C164.64 171.323 161.418 171.413 158.196 171.431C161.409 171.223 164.617 170.944 167.816 170.61C171.016 170.276 174.211 169.883 177.387 169.409C180.564 168.936 183.705 168.371 186.823 167.64C188.177 167.329 189.49 166.977 190.789 166.571C190.989 166.208 191.308 165.924 191.692 165.768C204.092 160.917 203.135 149.906 202.495 146.463C178.357 152.162 157.627 153.945 141.125 153.945C133.496 153.96 125.872 153.553 118.288 152.727C103.004 151.021 93.1715 148.047 89.2682 146.693C88.641 150.362 87.9732 161.021 100.098 165.768C100.399 165.887 100.663 166.085 100.861 166.341C103.031 166.869 105.22 167.365 107.404 167.83C110.562 168.493 113.721 169.112 116.88 169.635C120.039 170.158 123.238 170.614 126.442 170.921C129.645 171.246 132.865 171.386 136.085 171.341C132.862 171.574 129.629 171.622 126.401 171.485C123.17 171.363 119.948 171.084 116.731 170.754C113.514 170.425 110.305 169.982 107.106 169.5C105.277 169.22 103.452 168.919 101.632 168.597C102.792 172.117 106.768 180.74 118.328 182.586H171.941V182.595Z" fill="#EFB534"/>
<path d="M161.129 122.673V103.413L144.433 93.7834L127.737 103.413V122.673L144.433 132.307L161.129 122.673ZM130.706 120.98V105.11L144.451 97.1724L158.196 105.11V120.98L144.451 128.914L130.706 120.98Z" fill="#E5E5E5"/>
<path d="M174.364 56.0551C165.687 45.8252 150.399 37.5537 145.796 37.5537H145.769C139.203 37.5537 128.653 45.8568 121.659 52.2781C121.726 52.2661 121.794 52.2586 121.862 52.2556C122.256 52.2547 122.641 52.3707 122.969 52.5891C123.297 52.8074 123.553 53.1181 123.704 53.4819C123.855 53.8458 123.895 54.2463 123.818 54.6327C123.742 55.0192 123.552 55.3742 123.273 55.6527C122.995 55.9313 122.64 56.1209 122.253 56.1976C121.867 56.2742 121.467 56.2344 121.103 56.0833C120.739 55.9321 120.428 55.6763 120.21 55.3484C119.992 55.0204 119.875 54.635 119.876 54.2411C119.877 54.1288 119.889 54.017 119.912 53.9071C119.087 54.6923 118.338 55.4234 117.656 56.0912C124.993 58.8348 149.604 66.5287 174.364 56.0551ZM169.716 52.233C170.11 52.233 170.495 52.3498 170.822 52.5687C171.15 52.7876 171.405 53.0986 171.555 53.4625C171.706 53.8264 171.745 54.2268 171.668 54.6129C171.591 54.9991 171.401 55.3537 171.122 55.6318C170.843 55.9099 170.488 56.0991 170.102 56.1754C169.715 56.2516 169.315 56.2116 168.952 56.0603C168.588 55.909 168.278 55.6532 168.06 55.3253C167.841 54.9975 167.725 54.6123 167.726 54.2185C167.726 53.9574 167.778 53.6988 167.878 53.4576C167.978 53.2165 168.125 52.9974 168.309 52.8129C168.494 52.6285 168.714 52.4823 168.955 52.3828C169.197 52.2833 169.455 52.2324 169.716 52.233ZM160.949 54.2185C161.342 54.2176 161.728 54.3336 162.055 54.5517C162.383 54.7698 162.639 55.0803 162.79 55.4439C162.942 55.8074 162.982 56.2077 162.905 56.594C162.829 56.9803 162.64 57.3353 162.362 57.6141C162.084 57.8929 161.729 58.0828 161.343 58.16C160.957 58.2371 160.557 58.198 160.193 58.0475C159.829 57.897 159.518 57.642 159.299 57.3146C159.08 56.9872 158.963 56.6023 158.963 56.2085C158.963 55.6815 159.172 55.176 159.544 54.803C159.917 54.4299 160.422 54.2197 160.949 54.2185ZM150.908 55.4143C151.301 55.4143 151.685 55.5308 152.012 55.7489C152.338 55.9671 152.593 56.2772 152.743 56.64C152.893 57.0028 152.932 57.4021 152.856 57.7872C152.779 58.1724 152.59 58.5261 152.312 58.8038C152.035 59.0815 151.681 59.2706 151.296 59.3472C150.911 59.4238 150.511 59.3845 150.149 59.2342C149.786 59.0839 149.476 58.8295 149.258 58.5029C149.039 58.1764 148.923 57.7925 148.923 57.3998C148.923 56.8733 149.132 56.3682 149.505 55.9959C149.877 55.6235 150.382 55.4143 150.908 55.4143ZM129.727 58.194C129.333 58.1949 128.948 58.0789 128.62 57.8606C128.292 57.6422 128.036 57.3315 127.885 56.9677C127.734 56.6038 127.694 56.2033 127.771 55.8169C127.847 55.4305 128.037 55.0754 128.315 54.7969C128.594 54.5183 128.949 54.3287 129.335 54.252C129.722 54.1754 130.122 54.2152 130.486 54.3663C130.85 54.5175 131.161 54.7733 131.379 55.1012C131.597 55.4292 131.713 55.8146 131.713 56.2085C131.711 56.7348 131.502 57.2391 131.13 57.6112C130.758 57.9833 130.253 58.1929 129.727 58.194ZM139.262 59.3854C138.869 59.3854 138.485 59.2689 138.159 59.0507C137.832 58.8326 137.578 58.5225 137.428 58.1597C137.277 57.7969 137.238 57.3976 137.315 57.0125C137.391 56.6273 137.58 56.2736 137.858 55.9959C138.136 55.7182 138.489 55.5291 138.875 55.4525C139.26 55.3759 139.659 55.4152 140.022 55.5655C140.384 55.7157 140.695 55.9702 140.913 56.2968C141.131 56.6233 141.247 57.0071 141.247 57.3998C141.246 57.9261 141.037 58.4304 140.664 58.8025C140.292 59.1746 139.788 59.3842 139.262 59.3854Z" fill="#BCB9AF"/>
<path d="M135.332 186.204L139.19 202.241C140.156 202.299 141.152 202.342 142.177 202.372V186.204H135.332Z" fill="#BCB9AF"/>
<path d="M144.433 186.207V202.393C145.444 202.393 146.473 202.362 147.524 202.312L151.4 186.202L144.433 186.207Z" fill="#BCB9AF"/>
<path d="M153.72 186.207L149.88 202.163C151.552 202.028 153.255 201.822 154.988 201.545L161.892 186.202L153.72 186.207Z" fill="#BCB9AF"/>
<path d="M91.8047 183.373C91.5657 183.373 91.3334 183.452 91.1435 183.597C90.9536 183.742 90.8165 183.945 90.7533 184.176L84.1877 208.259C84.128 208.465 84.1317 208.684 84.1986 208.888C84.2654 209.092 84.3921 209.27 84.5622 209.401C84.7236 209.536 84.922 209.619 85.1314 209.639C85.3408 209.659 85.5513 209.615 85.7354 209.514C93.1178 205.628 105.094 200.94 121.109 200.037L111.894 184.537C111.075 184.196 110.275 183.811 109.498 183.382L91.8047 183.373Z" fill="#BCB9AF"/>
<path d="M118.184 186.205C118.093 186.212 118.001 186.212 117.909 186.205L116.966 186.033L125.404 200.135C126.108 200.316 127.358 200.618 129.014 200.938L122.376 186.187L118.184 186.205Z" fill="#BCB9AF"/>
<path d="M124.84 186.204L131.69 201.42C133.215 201.659 134.939 201.871 136.825 202.056L133.012 186.204H124.84Z" fill="#BCB9AF"/>
<path d="M145.922 15.5138C147.032 15.5111 148.116 15.1796 149.037 14.5612C149.959 13.9427 150.676 13.0651 151.099 12.0391C151.522 11.0131 151.631 9.88481 151.413 8.79677C151.195 7.70873 150.659 6.70975 149.873 5.92603C149.088 5.14231 148.088 4.60901 146.999 4.3935C145.911 4.17799 144.783 4.28995 143.758 4.71522C142.733 5.1405 141.857 5.86001 141.241 6.78287C140.624 7.70572 140.295 8.79052 140.295 9.9002C140.296 10.6384 140.442 11.3692 140.725 12.0509C141.008 12.7325 141.423 13.3518 141.946 13.8731C142.468 14.3944 143.088 14.8076 143.771 15.0892C144.453 15.3707 145.184 15.515 145.922 15.5138Z" fill="#BCB9AF"/>
<path d="M172.947 303.022C174.239 302.697 175.548 302.445 176.869 302.268C177.528 302.196 178.191 302.133 178.85 302.074C179.508 302.015 180.172 301.997 180.831 301.975C181.489 301.952 182.162 301.975 182.825 301.975C183.488 301.975 184.156 302.02 184.82 302.097C185.483 302.173 186.151 302.228 186.81 302.354L187.802 302.516C188.132 302.584 188.461 302.661 188.791 302.737C191.428 303.329 193.948 304.354 196.25 305.77C198.529 307.188 200.52 309.026 202.116 311.185C202.897 312.245 203.572 313.38 204.128 314.574C204.691 315.744 205.098 316.984 205.338 318.261C202.98 313.922 199.331 310.424 194.896 308.252C190.596 306.162 185.767 305.468 180.934 305.544C178.509 305.576 176.092 305.832 173.715 306.311L172.812 306.492L171.941 306.713C171.354 306.848 170.79 307.038 170.208 307.205C169.069 307.578 167.953 308.016 166.865 308.518C164.671 309.55 162.637 310.89 160.822 312.498C158.94 314.142 157.341 316.084 156.089 318.247C156.362 316.976 156.808 315.75 157.416 314.601C158.012 313.427 158.724 312.316 159.541 311.284C161.218 309.2 163.249 307.428 165.542 306.05C166.572 305.433 167.642 304.887 168.746 304.416C155.809 237.888 157.465 212.257 158.738 204.509C153.879 205.544 148.923 206.057 143.955 206.038C139.067 206.032 134.189 205.591 129.38 204.721C130.63 212.726 132.164 238.529 119.299 304.624C119.786 304.84 120.283 305.043 120.752 305.305C122.857 306.355 124.827 307.657 126.618 309.181C128.427 310.658 129.996 312.405 131.27 314.362C130.819 314.005 130.368 313.649 129.917 313.328C129.465 313.008 128.987 312.679 128.527 312.358C127.57 311.758 126.627 311.162 125.648 310.63C123.726 309.556 121.719 308.643 119.646 307.9C117.61 307.155 115.513 306.588 113.379 306.208C112.327 305.973 111.244 305.901 110.179 305.756C109.647 305.693 109.105 305.689 108.568 305.653C108.031 305.616 107.485 305.571 106.962 305.58C102.744 305.506 98.5968 306.672 95.0355 308.933C93.2018 310.097 91.5102 311.47 89.9951 313.026C88.4 314.627 86.9601 316.375 85.6947 318.247C85.9802 317.123 86.3731 316.029 86.868 314.98C87.3585 313.917 87.9271 312.891 88.5691 311.911C89.8831 309.912 91.5015 308.131 93.3659 306.632C95.2669 305.09 97.4255 303.897 99.742 303.107C102.075 302.324 104.524 301.941 106.984 301.975C107.598 301.975 108.18 302.043 108.789 302.074C109.399 302.106 109.981 302.133 110.567 302.223L112.336 302.507C112.63 302.561 112.927 302.593 113.216 302.661L114.087 302.877C114.665 303.026 115.242 303.162 115.815 303.329L115.888 303.351C116.342 300.996 116.781 298.691 117.205 296.438C115.042 292.116 111.676 288.512 107.512 286.059C102.467 283.09 96.5426 281.935 90.7441 281.962C87.8697 282.011 84.9998 282.381 82.4142 283.446C81.113 283.948 79.8804 284.612 78.7456 285.423C78.4748 285.635 78.1815 285.815 77.9198 286.046L77.1211 286.727C76.6195 287.202 76.1435 287.704 75.6951 288.23C73.8873 290.375 72.5086 292.847 71.6339 295.513C71.1727 296.856 70.8122 298.232 70.5555 299.628C70.4246 300.328 70.3163 301.032 70.2351 301.736C70.1945 302.088 70.1584 302.44 70.1313 302.787C70.1042 303.135 70.0862 303.509 70.0816 303.789C70.0793 304.01 70.0333 304.229 69.9463 304.433C69.8593 304.637 69.733 304.822 69.5746 304.977C69.4162 305.132 69.2288 305.254 69.0232 305.337C68.8175 305.42 68.5976 305.461 68.3759 305.459C68.1216 305.456 67.8713 305.394 67.6449 305.278L67.5818 305.246C67.4283 305.165 67.1847 305.043 66.9726 304.944C66.7605 304.845 66.5213 304.741 66.3047 304.646C65.8535 304.452 65.4023 304.272 64.9194 304.1C63.9837 303.75 63.0303 303.448 62.063 303.198C60.1336 302.708 58.1553 302.435 56.1653 302.385C52.2098 302.273 48.2923 303.185 44.7939 305.034C41.2998 306.75 38.4516 309.546 36.6715 313.008C35.8051 314.748 35.213 316.611 34.9162 318.531C34.7613 319.499 34.6738 320.476 34.6544 321.455C34.6544 321.947 34.6544 322.435 34.6544 322.922C34.6544 323.161 34.6815 323.405 34.6996 323.64C34.7176 323.874 34.7492 324.136 34.7718 324.298V324.366C34.805 324.585 34.7946 324.809 34.741 325.024C34.6875 325.24 34.5919 325.442 34.4598 325.621C34.3277 325.799 34.1617 325.949 33.9713 326.063C33.7809 326.177 33.5699 326.252 33.3503 326.284C33.2333 326.295 33.1154 326.295 32.9984 326.284C27.1051 325.887 21.1577 325.634 15.2599 325.611C12.3389 325.563 9.41745 325.684 6.51031 325.972C5.82401 326.049 5.14291 326.166 4.47068 326.324C4.19088 326.391 3.91638 326.479 3.64941 326.586C3.74376 326.666 3.84325 326.74 3.94724 326.807C4.50648 327.167 5.10063 327.469 5.72063 327.71C7.06222 328.244 8.43503 328.696 9.83147 329.064C11.2439 329.452 12.6788 329.79 14.1228 330.106C17.0108 330.735 19.9213 331.3 22.8544 331.803C27.7549 332.636 32.675 333.388 37.6146 334.059C40.0964 333.572 42.5783 333.156 45.0737 332.759C51.8423 331.717 58.611 330.828 65.3797 330.052C68.767 329.658 72.1574 329.282 75.5507 328.924C78.9441 328.566 82.3254 328.244 85.6947 327.958C82.3194 328.448 78.9486 328.955 75.5823 329.479C72.216 330.002 68.8483 330.527 65.479 331.054C58.7509 332.137 52.0274 333.233 45.3489 334.524C42.0097 335.169 38.675 335.837 35.399 336.645C33.7885 337.028 32.2006 337.501 30.6429 338.062C30.4443 338.134 30.2503 338.215 30.0653 338.296L30.3315 338.35C31.953 338.563 33.5879 338.655 35.223 338.626C36.9016 338.626 38.5893 338.567 40.2769 338.49C43.6568 338.337 47.0456 338.093 50.4345 337.822C63.9944 336.694 77.5723 335.372 91.1819 334.267C97.9866 333.716 104.803 333.265 111.632 332.913C118.469 332.583 125.314 332.362 132.191 332.462C133.91 332.489 135.634 332.552 137.353 332.628L142.475 332.913L152.682 333.486L173.096 334.609L213.925 336.929L234.339 338.044C241.144 338.414 247.953 338.766 254.745 338.973L257.281 339.018C257.968 339.043 258.656 339.031 259.343 338.982C258.641 338.634 257.921 338.325 257.186 338.057C254.027 336.884 250.751 335.954 247.484 335.029C244.217 334.104 240.905 333.278 237.588 332.502C235.934 332.105 234.272 331.733 232.602 331.388C231.772 331.216 230.932 331.054 230.093 330.909C229.257 330.751 228.411 330.644 227.562 330.589C228.416 330.599 229.269 330.66 230.116 330.774C230.964 330.873 231.808 330.99 232.652 331.117C234.339 331.374 236.022 331.663 237.701 331.965C241.058 332.594 244.4 333.292 247.728 334.059C248.053 334.131 248.368 334.212 248.689 334.289C254.144 333.54 259.586 332.728 264.997 331.803C267.927 331.3 270.837 330.735 273.728 330.106C275.172 329.79 276.607 329.452 278.02 329.064C279.416 328.696 280.789 328.244 282.131 327.71C282.751 327.469 283.345 327.167 283.904 326.807C284.008 326.74 284.107 326.666 284.202 326.586C283.935 326.478 283.661 326.39 283.38 326.324C282.708 326.166 282.027 326.049 281.341 325.972C278.434 325.684 275.512 325.563 272.591 325.611C266.693 325.611 260.746 325.887 254.853 326.284C254.631 326.3 254.408 326.272 254.197 326.201C253.987 326.131 253.792 326.02 253.624 325.874C253.456 325.728 253.319 325.55 253.22 325.351C253.121 325.152 253.063 324.935 253.048 324.713C253.036 324.599 253.036 324.485 253.048 324.371V324.294C253.048 324.131 253.102 323.865 253.12 323.635C253.138 323.405 253.156 323.157 253.165 322.918C253.165 322.43 253.192 321.943 253.165 321.451C253.146 320.471 253.058 319.494 252.903 318.527C252.607 316.606 252.014 314.743 251.148 313.003C249.369 309.541 246.521 306.744 243.026 305.03C239.527 303.18 235.61 302.267 231.654 302.381C229.664 302.431 227.686 302.703 225.757 303.193C224.789 303.444 223.836 303.745 222.9 304.096C222.449 304.267 221.971 304.448 221.515 304.642C221.289 304.736 221.064 304.84 220.847 304.94C220.63 305.039 220.396 305.161 220.238 305.242L220.184 305.273C219.988 305.378 219.773 305.442 219.553 305.463C219.332 305.484 219.109 305.462 218.897 305.397C218.685 305.332 218.488 305.226 218.317 305.085C218.146 304.944 218.004 304.77 217.9 304.574C217.775 304.334 217.707 304.069 217.702 303.798C217.702 303.518 217.675 303.135 217.652 302.796C217.63 302.458 217.589 302.097 217.553 301.745C217.467 301.041 217.359 300.337 217.233 299.637C216.971 298.242 216.611 296.866 216.154 295.522C215.277 292.857 213.899 290.385 212.093 288.239C211.645 287.713 211.169 287.211 210.667 286.736L209.882 286.064C209.625 285.833 209.327 285.653 209.056 285.441C207.928 284.63 206.703 283.965 205.41 283.46C202.824 282.395 199.954 282.025 197.08 281.975C191.281 281.948 185.348 283.103 180.312 286.073C176.263 288.459 172.965 291.935 170.795 296.104C171.228 298.42 171.679 300.791 172.149 303.216C172.437 303.135 172.69 303.062 172.947 303.022ZM138.323 232.852C138.229 236.462 138.03 240.027 137.665 243.601C137.33 247.186 136.815 250.753 136.121 254.286C135.99 252.481 135.963 250.676 135.927 248.871L135.9 246.164C135.9 245.261 135.9 244.359 135.9 243.483C135.9 239.905 135.972 236.34 136.063 232.775L136.306 222.094C136.306 220.316 136.36 218.534 136.342 216.756C136.369 214.969 136.293 213.182 136.117 211.404C136.459 212.244 136.728 213.112 136.92 213.998C137.128 214.901 137.286 215.772 137.439 216.661C137.592 217.55 137.683 218.466 137.804 219.346C137.926 220.226 137.971 221.151 138.057 222.053C138.346 225.663 138.382 229.26 138.323 232.852ZM143.811 226.828C143.656 228.855 143.354 230.868 142.908 232.852C142.462 230.868 142.16 228.855 142.006 226.828C141.837 224.824 141.757 222.817 141.766 220.808C141.766 218.804 141.843 216.796 142.01 214.788C142.165 212.762 142.467 210.751 142.913 208.768C143.354 210.751 143.656 212.763 143.815 214.788C143.977 216.796 144.054 218.804 144.059 220.808C144.063 222.811 143.977 224.824 143.811 226.828ZM150.872 272.377C150.295 269.512 149.875 266.619 149.555 263.718C148.887 257.914 148.652 252.084 148.553 246.259C148.553 243.348 148.553 240.437 148.607 237.527C148.661 234.616 148.77 231.71 148.959 228.809C149.289 223.001 149.776 217.198 150.611 211.431C150.71 217.256 150.71 223.055 150.71 228.854L150.737 237.549C150.737 240.446 150.737 243.339 150.805 246.231C150.872 249.124 150.882 252.017 150.972 254.909C150.999 256.353 151.053 257.797 151.103 259.241L151.306 263.569C151.369 265.017 151.491 266.452 151.585 267.896L151.752 270.053L151.969 272.21C152.241 275.094 152.693 277.957 153.323 280.784C152.242 278.065 151.422 275.251 150.872 272.377Z" fill="#E5E5E5"/>
<path d="M114.547 57.231C114.547 57.231 100.631 64.6631 107.828 77.9164C107.828 77.9164 87.7613 80.4751 87.3417 110.605C87.3417 110.605 78.768 86.3594 97.9549 74.2839C97.9549 74.2839 100.698 55.2139 114.547 57.231Z" fill="#F2CC81"/>
<path d="M175.398 57.3213C175.398 57.3213 185.885 61.3826 187.063 69.275C188.868 81.4588 171.72 81.6348 171.72 81.6348C171.72 81.6348 199.372 75.9175 207.174 93.7871C207.174 93.7871 206.755 79.9426 193.741 74.4328C193.723 74.4328 194.165 53.8421 175.398 57.3213Z" fill="#F2CC81"/>
<path d="M87.3418 110.604C87.3418 110.604 87.5629 144.899 110.279 149.362C110.279 149.362 98.6094 153.937 105.64 167.439C112.67 180.94 118.442 184.135 118.442 184.135C118.442 184.135 102.125 183.093 98.0814 165.634C98.0814 165.634 83.7454 165.21 88.2578 143.906C88.2578 143.906 72.3785 125.445 87.3418 110.604Z" fill="#F2CC81"/>
<path d="M148.923 4.29459C148.923 4.29459 141.121 8.49125 142.926 16.4784C142.926 16.4784 131.974 2.1737 148.923 4.29459Z" fill="#DDDBD7"/>
<path d="M144.731 35.195C144.731 35.195 124.502 51.0385 132.624 61.3948C132.624 61.3948 114.245 58.421 115.477 55.1855C116.709 51.95 136.198 34.3105 144.731 35.195Z" fill="#DDDBD7"/>
<path d="M116.98 186.021C116.98 186.021 101.29 185.466 97.576 191.116C93.8623 196.765 82.3149 212.203 82.3149 212.203L89.025 182.163H111.267L116.98 186.021Z" fill="#DDDBD7"/>
<path d="M204.02 109.96C204.02 109.96 204.314 147.026 175.028 151.588C175.028 151.588 189.107 157.481 179.964 169.002C170.822 180.522 151.897 184.142 151.897 184.142C151.897 184.142 181.3 192.756 191.963 168.275C191.963 168.275 205.252 163.84 204.282 146.047C204.282 146.047 219.566 126.986 204.02 109.96Z" fill="#C8921A"/>
<path d="M124.84 184.402C124.84 184.402 150.701 182.827 158.196 179.763C169.396 175.187 182.712 168.595 182.712 168.595L191.963 168.274C191.963 168.274 187.031 178.987 178.381 182.597C169.73 186.207 124.84 184.402 124.84 184.402Z" fill="#C8921A"/>
<path d="M125.404 200.138C125.404 200.138 150.728 189.678 154.473 184.71C154.473 184.71 169.545 185.418 178.389 182.58C187.234 179.741 196.724 182.129 196.724 182.129L205.902 209.614L203.546 212.187C203.546 212.187 194.386 204.47 185.077 204.515C175.768 204.56 161.892 201.041 161.892 201.041C161.892 201.041 135.093 209.438 125.404 200.138Z" fill="#918F88"/>
<path d="M151.897 206.039C151.897 206.039 150.543 255.74 156.084 274.81C161.626 293.88 161.892 301.957 161.892 301.957L147.903 282.228L154.893 310.102C154.893 310.102 148.355 317.895 150.927 323.897C150.927 323.897 158.598 309.457 172.695 305.892C186.792 302.327 199.769 310.102 199.769 310.102L213.758 327.958L202.815 330.964C202.815 330.964 227.016 328.798 243.17 333.897L248.675 334.307C248.675 334.307 289.382 331.55 284.477 326.311C279.572 321.072 254.501 324.957 254.501 324.957C254.501 324.957 255.561 303.342 239.316 301.943C223.072 300.545 219.186 303.748 219.186 303.748C219.186 303.748 221.055 286.019 202.815 280.757C184.576 275.495 171.679 294.525 171.679 294.525L169.712 298.135C169.712 298.135 160.687 253.998 159.699 229.251C158.711 204.504 159.699 201.652 159.699 201.652L151.387 203.66L151.897 206.039Z" fill="#BCBCBC"/>
<path d="M132.281 254.149L129.014 297.063L134.1 275.606L135.341 291.4L135.905 260.489C135.905 260.489 131.907 273.684 132.651 271.771C133.396 269.857 132.281 254.149 132.281 254.149Z" fill="#BCBCBC"/>
<path d="M85.6948 318.247L71.9229 319.66C71.9229 319.66 79.8287 317.913 83.4702 313.658C87.1118 309.403 95.6538 301.375 106.19 303.771C106.19 303.771 94.1873 304.475 85.6948 318.247Z" fill="#BCBCBC"/>
<path d="M58.0606 128.607C58.4818 128.607 58.8858 128.774 59.1837 129.072C59.4816 129.37 59.6489 129.774 59.6489 130.195V288.942H56.4902V130.195C56.4902 129.777 56.6551 129.376 56.9491 129.078C57.243 128.781 57.6424 128.612 58.0606 128.607Z" fill="url(#paint0_linear_5719_33942)"/>
<path d="M219.358 73.7148H219.809C220.168 73.7148 220.513 73.8575 220.767 74.1114C221.02 74.3652 221.163 74.7096 221.163 75.0686V190.901H218.004V75.0731C218.004 74.7141 218.147 74.3697 218.401 74.1159C218.655 73.862 218.999 73.7194 219.358 73.7194V73.7148Z" fill="url(#paint1_linear_5719_33942)"/>
<path d="M76.0515 54.4507H76.5027C76.8618 54.4507 77.2061 54.5933 77.46 54.8472C77.7138 55.1011 77.8565 55.4454 77.8565 55.8044V171.641H74.6978V55.809C74.6978 55.4499 74.8404 55.1056 75.0943 54.8517C75.3481 54.5978 75.6925 54.4552 76.0515 54.4552V54.4507Z" fill="url(#paint2_linear_5719_33942)"/>
<path d="M234.682 192.918H235.134C235.493 192.918 235.837 193.061 236.091 193.314C236.345 193.568 236.487 193.913 236.487 194.272V310.104H233.329V194.272C233.329 193.913 233.471 193.568 233.725 193.314C233.979 193.061 234.323 192.918 234.682 192.918Z" fill="url(#paint3_linear_5719_33942)"/>
<path d="M173.643 186.206H118.185C118.093 186.213 118.001 186.213 117.91 186.206C103.47 183.95 98.9572 172.285 97.9555 168.797C83.6781 162.669 85.1582 149.149 85.8666 145.431C77.9292 135.503 78.015 125.878 79.5492 119.507C80.4857 115.582 82.1328 111.863 84.4091 108.532C80.2532 95.5089 84.012 86.3213 87.9559 80.8657C90.3931 77.5118 93.4581 74.6629 96.9808 72.4769C97.5764 57.4637 110.825 54.9051 114.169 54.4989C117.327 51.2635 134.696 33.9443 145.756 33.9443H145.792C151.83 33.9443 168.666 43.3214 177.745 54.5125C181.242 54.9637 194.242 57.6126 194.833 72.4769C198.355 74.664 201.42 77.5127 203.858 80.8657C207.802 86.3213 211.561 95.5089 207.4 108.532C209.682 111.863 211.334 115.584 212.274 119.511C213.781 125.883 213.871 135.49 205.934 145.436C206.642 149.154 208.118 162.673 193.845 168.801C192.821 172.29 188.34 183.959 173.891 186.211C173.808 186.215 173.725 186.213 173.643 186.206ZM118.343 182.596H173.503C187.78 180.299 190.483 167.642 190.591 167.1C190.646 166.799 190.777 166.517 190.971 166.28C191.166 166.043 191.417 165.859 191.702 165.747C206.187 160.083 202.446 146.009 202.279 145.413C202.2 145.131 202.191 144.834 202.252 144.548C202.313 144.262 202.443 143.995 202.631 143.77C216.998 126.546 204.558 110.608 204.021 109.926C203.83 109.689 203.702 109.408 203.649 109.108C203.596 108.808 203.62 108.5 203.718 108.212C207.035 98.5458 206.105 90.0397 200.961 82.9415C198.647 79.7484 195.676 77.088 192.248 75.1393C191.951 74.9877 191.702 74.757 191.528 74.4726C191.355 74.1883 191.263 73.8615 191.264 73.5283C191.264 58.9032 177.334 58.0593 176.738 58.0277C176.476 58.018 176.219 57.9512 175.985 57.8319C175.751 57.7127 175.546 57.5439 175.385 57.3373C166.946 46.5343 150.566 37.5634 145.783 37.5499H145.756C137.119 37.5499 121.583 51.9223 116.317 57.4682C115.994 57.8074 115.552 58.008 115.085 58.0277C114.498 58.0593 100.568 58.9032 100.568 73.5283C100.57 73.8605 100.48 74.1867 100.308 74.471C100.136 74.7552 99.8885 74.9865 99.5935 75.1393C98.8038 75.5454 80.2757 85.3692 88.1229 108.261C88.222 108.55 88.2462 108.859 88.1933 109.16C88.1405 109.461 88.0122 109.743 87.8205 109.981C87.2881 110.648 74.8427 126.587 89.2149 143.825C89.403 144.05 89.5334 144.318 89.5947 144.605C89.6561 144.892 89.6465 145.189 89.5668 145.472C89.3999 146.063 85.6591 160.137 100.14 165.778C100.425 165.89 100.677 166.074 100.872 166.311C101.067 166.547 101.199 166.83 101.254 167.132C101.362 167.646 104.065 180.281 118.343 182.596Z" fill="#572721"/>
<path d="M144.732 16.4585H141.122V35.1945H144.732V16.4585Z" fill="#572721"/>
<path d="M150.729 16.4585H147.119V35.1945H150.729V16.4585Z" fill="#572721"/>
<path d="M145.922 19.1245C144.098 19.1254 142.314 18.5852 140.797 17.5722C139.279 16.5593 138.097 15.119 137.398 13.4337C136.699 11.7484 136.516 9.8937 136.871 8.1042C137.226 6.31469 138.104 4.67078 139.394 3.38038C140.684 2.08998 142.327 1.21107 144.117 0.85481C145.906 0.498549 147.761 0.680943 149.446 1.37892C151.132 2.07691 152.573 3.25912 153.586 4.77603C154.6 6.29295 155.141 8.07642 155.141 9.90087C155.139 12.3456 154.167 14.6896 152.439 16.4187C150.71 18.1478 148.367 19.1209 145.922 19.1245ZM145.922 4.29179C144.812 4.2909 143.726 4.61948 142.802 5.23597C141.878 5.85246 141.158 6.72914 140.732 7.75507C140.307 8.781 140.195 9.91008 140.412 10.9994C140.628 12.0888 141.163 13.0894 141.948 13.8748C142.734 14.6601 143.734 15.1949 144.824 15.4113C145.913 15.6278 147.042 15.5162 148.068 15.0908C149.094 14.6654 149.971 13.9452 150.587 13.0213C151.204 12.0975 151.532 11.0115 151.531 9.90087C151.529 8.41398 150.937 6.98868 149.886 5.93729C148.834 4.8859 147.409 4.29418 145.922 4.29179Z" fill="#572721"/>
<path d="M143.95 206.039C137.112 206.064 130.3 205.19 123.689 203.44C123.253 203.309 122.883 203.019 122.652 202.627L111.583 184L114.687 182.158L125.404 200.136C128.847 201.039 145.087 204.703 161.256 200.136L171.955 182.56L175.041 184.437L163.972 202.614C163.74 202.997 163.373 203.28 162.943 203.408C156.771 205.188 150.374 206.074 143.95 206.039Z" fill="#572721"/>
<path d="M123.814 183.946L121.757 184.873L130.22 203.668L132.277 202.742L123.814 183.946Z" fill="#572721"/>
<path d="M134.839 184.131L132.645 184.658L137.414 204.476L139.607 203.948L134.839 184.131Z" fill="#572721"/>
<path d="M162.919 183.947L154.456 202.743L156.513 203.669L164.976 184.873L162.919 183.947Z" fill="#572721"/>
<path d="M151.895 184.129L147.126 203.946L149.32 204.474L154.089 184.656L151.895 184.129Z" fill="#572721"/>
<path d="M144.433 184.402H142.177V204.19H144.433V184.402Z" fill="#572721"/>
<path d="M85.2439 213.223C84.5224 213.217 83.8119 213.046 83.167 212.722C82.5222 212.399 81.9602 211.931 81.5243 211.356C81.0884 210.781 80.7902 210.114 80.6528 209.406C80.5153 208.698 80.5422 207.967 80.7314 207.271L87.2925 183.206C87.5662 182.216 88.1547 181.344 88.969 180.719C89.7832 180.095 90.7788 179.752 91.805 179.744H109.936V183.354H91.805C91.566 183.355 91.3337 183.434 91.1438 183.579C90.9539 183.724 90.8168 183.927 90.7536 184.158L84.188 208.259C84.1282 208.465 84.132 208.684 84.1988 208.888C84.2657 209.091 84.3924 209.27 84.5625 209.401C84.7238 209.536 84.9222 209.619 85.1316 209.639C85.341 209.659 85.5516 209.615 85.7357 209.514C93.5784 205.385 106.61 200.371 124.155 199.92L124.249 203.53C107.4 203.981 94.9186 208.76 87.4189 212.708C86.7459 213.053 85.9997 213.229 85.2439 213.223Z" fill="#572721"/>
<path d="M202.468 213.224C201.703 213.222 200.95 213.033 200.275 212.673C195.347 210.092 181.81 203.996 162.993 203.513L163.083 199.903C181.968 200.39 195.546 206.121 201.958 209.496C202.142 209.598 202.353 209.642 202.562 209.622C202.772 209.601 202.97 209.518 203.131 209.383C203.301 209.253 203.428 209.074 203.495 208.871C203.562 208.667 203.566 208.448 203.506 208.242L196.94 184.176C196.876 183.946 196.739 183.743 196.549 183.598C196.36 183.453 196.128 183.374 195.889 183.373H181.9V179.763H195.889C196.919 179.766 197.92 180.106 198.738 180.731C199.557 181.356 200.149 182.232 200.424 183.224L206.985 207.29C207.174 207.986 207.201 208.716 207.064 209.425C206.926 210.133 206.628 210.8 206.192 211.375C205.756 211.95 205.194 212.417 204.549 212.741C203.905 213.065 203.194 213.236 202.473 213.242L202.468 213.224Z" fill="#572721"/>
<path d="M118.911 306.589L115.369 305.894C131.686 222.926 125.404 203.071 125.314 202.882L128.73 201.708C129.014 202.525 135.413 222.674 118.911 306.589Z" fill="#572721"/>
<path d="M169.175 306.589C152.673 222.656 159.076 202.525 159.356 201.708L162.777 202.868C162.709 203.067 156.518 223.531 172.704 305.894L169.175 306.589Z" fill="#572721"/>
<path d="M131.271 314.363C130.819 314.007 130.368 313.65 129.917 313.33C129.466 313.009 128.987 312.68 128.527 312.36C127.57 311.759 126.627 311.164 125.648 310.631C123.726 309.558 121.719 308.644 119.646 307.901C117.61 307.156 115.513 306.59 113.379 306.209C112.327 305.974 111.244 305.902 110.179 305.758C109.647 305.695 109.105 305.69 108.568 305.654C108.031 305.618 107.485 305.573 106.962 305.582C102.744 305.507 98.5969 306.673 95.0356 308.935C93.2019 310.098 91.5103 311.472 89.9952 313.027C88.4001 314.628 86.9602 316.376 85.6948 318.248C85.9803 317.124 86.3732 316.03 86.8681 314.981C87.3586 313.918 87.9273 312.892 88.5693 311.913C89.8832 309.914 91.5016 308.132 93.366 306.633C95.267 305.092 97.4256 303.899 99.7421 303.109C102.075 302.325 104.524 301.942 106.985 301.976C107.598 301.976 108.18 302.044 108.79 302.076C109.399 302.107 109.981 302.134 110.567 302.224L112.336 302.509C112.63 302.563 112.927 302.594 113.216 302.662L114.087 302.879C114.665 303.028 115.242 303.163 115.815 303.33C116.388 303.497 116.944 303.714 117.503 303.903C118.063 304.093 118.613 304.354 119.159 304.566C119.705 304.779 120.251 305.018 120.77 305.316C122.875 306.366 124.845 307.667 126.636 309.192C128.438 310.667 130.001 312.411 131.271 314.363Z" fill="#572721"/>
<path d="M118.442 299.511C116.534 293.854 112.644 289.077 107.49 286.064C102.445 283.095 96.5203 281.94 90.7218 281.967C87.8474 282.016 84.9774 282.386 82.3918 283.451C81.0987 283.953 79.8737 284.616 78.7458 285.423C78.475 285.635 78.1817 285.816 77.92 286.046L77.1213 286.727C76.6197 287.203 76.1437 287.704 75.6953 288.23C73.8875 290.375 72.5088 292.848 71.6341 295.513C71.1729 296.856 70.8125 298.232 70.5557 299.629C70.4248 300.328 70.3165 301.032 70.2353 301.736C70.1947 302.088 70.1586 302.44 70.1315 302.788C70.1044 303.135 70.0864 303.51 70.0819 303.789C70.0795 304.011 70.0335 304.23 69.9465 304.434C69.8595 304.638 69.7332 304.822 69.5748 304.977C69.4164 305.133 69.229 305.255 69.0234 305.337C68.8177 305.42 68.5978 305.461 68.3762 305.459C68.1218 305.456 67.8715 305.395 67.6451 305.278L67.582 305.247C67.4285 305.166 67.1849 305.044 66.9728 304.945C66.7607 304.845 66.5215 304.741 66.3049 304.647C65.8537 304.453 65.4025 304.272 64.9196 304.101C63.9839 303.75 63.0305 303.449 62.0632 303.198C60.1338 302.708 58.1555 302.436 56.1655 302.386C52.21 302.273 48.2925 303.186 44.7941 305.035C41.3 306.751 38.4518 309.547 36.6717 313.008C35.8053 314.748 35.2132 316.611 34.9164 318.532C34.7615 319.499 34.674 320.476 34.6546 321.456C34.6546 321.948 34.6546 322.435 34.6546 322.922C34.6546 323.162 34.6817 323.405 34.6998 323.64C34.7178 323.875 34.7494 324.136 34.772 324.299V324.367C34.8052 324.586 34.7948 324.81 34.7412 325.025C34.6877 325.24 34.5921 325.443 34.46 325.621C34.3279 325.799 34.1619 325.95 33.9715 326.063C33.7811 326.177 33.5701 326.252 33.3505 326.284C33.2335 326.296 33.1156 326.296 32.9986 326.284C27.1053 325.887 21.1579 325.635 15.2601 325.612C12.3391 325.563 9.41764 325.684 6.5105 325.973C5.8242 326.049 5.1431 326.167 4.47087 326.325C4.17802 326.393 3.89126 326.485 3.61351 326.6L3.45557 326.672C3.41449 326.691 3.37522 326.714 3.33825 326.74C3.25702 326.781 3.29763 326.79 3.33825 326.704C3.3724 326.643 3.39327 326.575 3.39949 326.505C3.40571 326.435 3.39714 326.364 3.37435 326.298C3.37435 326.239 3.37435 326.271 3.40593 326.334C3.5676 326.511 3.75465 326.663 3.96096 326.785C4.52021 327.145 5.11436 327.447 5.73436 327.688C7.07595 328.222 8.44876 328.674 9.84519 329.041C11.2576 329.43 12.6925 329.768 14.1365 330.084C17.0245 330.713 19.935 331.278 22.8681 331.781C28.7343 332.782 34.623 333.658 40.5344 334.452C37.5501 334.344 34.5719 334.177 31.5997 333.951C28.6215 333.735 25.6478 333.5 22.6786 333.148C19.7094 332.796 16.7357 332.457 13.7755 331.952C12.2955 331.704 10.8154 331.424 9.33529 331.099C7.83225 330.776 6.34958 330.365 4.89504 329.867C4.11162 329.6 3.35601 329.257 2.63882 328.843C2.20494 328.592 1.81479 328.272 1.48363 327.895C1.25124 327.632 1.07333 327.325 0.960187 326.993C0.816748 326.495 0.866715 325.962 1.10007 325.499C1.20267 325.317 1.32857 325.148 1.47461 324.998L1.66864 324.809L1.85365 324.664C1.96861 324.586 2.08928 324.517 2.21465 324.457C2.32369 324.391 2.43672 324.332 2.55308 324.281C2.95594 324.095 3.37415 323.944 3.80303 323.83C4.57466 323.618 5.3582 323.452 6.1495 323.333C9.16142 322.927 12.1943 322.694 15.2331 322.638C18.2383 322.548 21.2346 322.575 24.2309 322.638C27.2271 322.701 30.2099 322.787 33.2197 322.932L31.4463 324.922C31.3831 324.561 31.3515 324.303 31.3199 324.019C31.2883 323.735 31.2613 323.441 31.2432 323.157C31.2116 322.584 31.1891 322.015 31.1981 321.442C31.2124 320.303 31.3059 319.166 31.4779 318.04C31.816 315.764 32.5024 313.554 33.513 311.488C34.0258 310.445 34.6298 309.45 35.318 308.514C35.9923 307.573 36.7473 306.693 37.5742 305.883C39.218 304.278 41.0936 302.929 43.138 301.881C47.1865 299.777 51.7096 298.754 56.2693 298.911C58.5197 298.983 60.7551 299.306 62.9341 299.872C64.019 300.155 65.0884 300.494 66.138 300.888C66.6614 301.086 67.1804 301.303 67.6948 301.538C67.9505 301.655 68.2077 301.777 68.4664 301.903C68.7326 302.034 68.9628 302.151 69.2741 302.327L66.7381 303.776C66.7381 303.325 66.7878 302.941 66.8239 302.53C66.86 302.12 66.9141 301.745 66.9638 301.353C67.0721 300.567 67.2074 299.796 67.3654 299.024C67.6762 297.47 68.1 295.941 68.6334 294.448C69.6927 291.423 71.3363 288.636 73.4707 286.245C74.0167 285.649 74.5951 285.084 75.2035 284.552L76.1511 283.799C76.4625 283.542 76.8099 283.348 77.1393 283.099C78.4796 282.205 79.9275 281.483 81.4487 280.951C82.1985 280.68 82.9622 280.448 83.7365 280.256C84.1246 280.171 84.5127 280.103 84.9007 280.026C85.2864 279.941 85.6766 279.878 86.0695 279.837C86.8475 279.728 87.6308 279.662 88.4159 279.638L89.5892 279.598L90.7579 279.638C93.8393 279.757 96.8966 280.232 99.8685 281.055C102.84 281.894 105.661 283.193 108.23 284.904C110.776 286.617 112.987 288.781 114.755 291.29C115.629 292.531 116.384 293.851 117.011 295.234C117.65 296.6 118.13 298.036 118.442 299.511Z" fill="#572721"/>
<path d="M169.396 299.511C169.708 298.035 170.188 296.6 170.826 295.233C171.455 293.852 172.211 292.532 173.083 291.289C174.849 288.778 177.06 286.613 179.608 284.9C182.176 283.186 184.998 281.887 187.969 281.05C190.941 280.227 193.998 279.751 197.08 279.633L198.244 279.593L199.417 279.633C200.202 279.657 200.986 279.723 201.764 279.832C202.157 279.873 202.547 279.936 202.933 280.021C203.321 280.098 203.709 280.166 204.097 280.252C204.872 280.443 205.637 280.675 206.389 280.947C207.908 281.479 209.355 282.201 210.694 283.095C211.023 283.329 211.375 283.546 211.687 283.794L212.63 284.548C213.238 285.079 213.817 285.644 214.363 286.24C216.499 288.632 218.144 291.421 219.204 294.448C219.745 295.929 220.178 297.448 220.499 298.992C220.657 299.764 220.793 300.535 220.901 301.321C220.955 301.713 221 302.106 221.041 302.498C221.082 302.891 221.113 303.275 221.127 303.744L218.591 302.295C218.902 302.119 219.132 302.002 219.398 301.871C219.665 301.74 219.913 301.623 220.17 301.506C220.684 301.271 221.203 301.054 221.727 300.856C222.778 300.461 223.849 300.122 224.935 299.841C227.113 299.274 229.347 298.951 231.596 298.879C236.155 298.722 240.678 299.745 244.727 301.849C246.772 302.896 248.648 304.245 250.291 305.851C251.118 306.661 251.872 307.541 252.547 308.482C253.235 309.418 253.839 310.413 254.352 311.456C255.364 313.522 256.051 315.732 256.387 318.008C256.561 319.134 256.655 320.271 256.667 321.41C256.667 321.984 256.667 322.552 256.622 323.125C256.622 323.409 256.576 323.698 256.545 323.987C256.513 324.276 256.482 324.547 256.419 324.89L254.65 322.9C257.655 322.755 260.638 322.66 263.634 322.606C266.63 322.552 269.626 322.53 272.636 322.606C275.673 322.672 278.702 322.913 281.711 323.328C282.502 323.447 283.286 323.613 284.057 323.825C284.486 323.939 284.904 324.09 285.307 324.276C285.424 324.327 285.537 324.386 285.646 324.452C285.77 324.519 285.889 324.596 286.002 324.682L286.187 324.826L286.381 325.016C286.529 325.165 286.655 325.333 286.756 325.517C286.991 325.979 287.042 326.512 286.9 327.01C286.784 327.342 286.605 327.649 286.372 327.913C286.041 328.289 285.651 328.609 285.217 328.861C284.5 329.274 283.744 329.617 282.961 329.885C281.506 330.383 280.024 330.794 278.521 331.117C277.04 331.442 275.56 331.722 274.08 331.97C271.12 332.475 268.146 332.832 265.177 333.166C262.208 333.5 259.234 333.752 256.256 333.969C253.278 334.185 250.304 334.361 247.321 334.47C253.233 333.676 259.126 332.8 264.988 331.798C267.918 331.296 270.828 330.73 273.719 330.102C275.163 329.786 276.598 329.447 278.011 329.059C279.407 328.692 280.78 328.24 282.121 327.705C282.741 327.465 283.336 327.163 283.895 326.803C284.101 326.681 284.288 326.529 284.45 326.352C284.504 326.288 284.495 326.257 284.481 326.316C284.46 326.382 284.452 326.453 284.458 326.522C284.464 326.592 284.484 326.66 284.518 326.722C284.545 326.807 284.585 326.798 284.518 326.758C284.481 326.732 284.441 326.709 284.4 326.69C284.35 326.662 284.297 326.638 284.242 326.618C283.965 326.502 283.678 326.41 283.385 326.343C282.713 326.185 282.032 326.067 281.345 325.991C278.438 325.702 275.517 325.581 272.596 325.63C266.698 325.63 260.75 325.905 254.857 326.302C254.635 326.318 254.413 326.29 254.202 326.22C253.991 326.149 253.796 326.038 253.628 325.892C253.461 325.746 253.323 325.568 253.225 325.369C253.126 325.17 253.067 324.953 253.052 324.732C253.041 324.618 253.041 324.503 253.052 324.389V324.312C253.052 324.15 253.106 323.883 253.124 323.653C253.142 323.423 253.161 323.175 253.17 322.936C253.17 322.448 253.197 321.961 253.17 321.469C253.15 320.49 253.063 319.512 252.908 318.545C252.611 316.624 252.019 314.761 251.153 313.022C249.374 309.559 246.525 306.762 243.03 305.048C239.532 303.198 235.614 302.286 231.659 302.399C229.669 302.449 227.69 302.721 225.761 303.211C224.794 303.462 223.84 303.763 222.905 304.114C222.453 304.285 221.975 304.466 221.519 304.66C221.294 304.755 221.068 304.858 220.851 304.958C220.635 305.057 220.4 305.179 220.242 305.26L220.188 305.292C219.992 305.396 219.778 305.46 219.557 305.481C219.336 305.503 219.114 305.48 218.901 305.415C218.689 305.35 218.492 305.244 218.321 305.103C218.15 304.962 218.009 304.788 217.905 304.592C217.779 304.352 217.711 304.087 217.706 303.816C217.706 303.536 217.679 303.153 217.657 302.814C217.634 302.476 217.593 302.115 217.557 301.763C217.472 301.059 217.363 300.355 217.237 299.655C216.976 298.26 216.615 296.884 216.158 295.54C215.282 292.875 213.903 290.403 212.097 288.257C211.649 287.731 211.173 287.229 210.671 286.754L209.886 286.082C209.629 285.852 209.331 285.671 209.06 285.459C207.933 284.649 206.708 283.983 205.414 283.478C202.829 282.413 199.959 282.043 197.084 281.993C191.286 281.966 185.352 283.122 180.316 286.091C175.18 289.105 171.303 293.87 169.396 299.511Z" fill="#572721"/>
<path d="M156.089 318.248C156.362 316.977 156.808 315.75 157.416 314.602C158.012 313.428 158.724 312.317 159.541 311.285C161.218 309.2 163.25 307.428 165.543 306.05C166.7 305.36 167.907 304.757 169.153 304.245C170.395 303.743 171.67 303.328 172.97 303.004C174.262 302.68 175.571 302.428 176.892 302.251C177.551 302.179 178.214 302.115 178.873 302.057C179.532 301.998 180.195 301.98 180.854 301.958C181.512 301.935 182.185 301.958 182.848 301.958C183.511 301.958 184.179 302.003 184.843 302.079C185.506 302.156 186.174 302.21 186.833 302.337L187.825 302.499C188.155 302.567 188.484 302.643 188.814 302.72C191.444 303.32 193.957 304.35 196.25 305.771C198.53 307.189 200.52 309.027 202.116 311.186C202.898 312.246 203.572 313.381 204.129 314.575C204.692 315.745 205.098 316.985 205.338 318.261C202.98 313.922 199.331 310.424 194.896 308.253C190.596 306.163 185.768 305.468 180.935 305.545C178.51 305.576 176.093 305.833 173.715 306.312L172.812 306.493L171.942 306.714C171.355 306.849 170.791 307.039 170.209 307.206C169.07 307.579 167.953 308.017 166.865 308.519C164.672 309.551 162.637 310.891 160.823 312.499C158.941 314.143 157.342 316.085 156.089 318.248Z" fill="#572721"/>
<path d="M150.611 211.415C150.711 217.24 150.711 223.039 150.711 228.838L150.738 237.533C150.738 240.43 150.738 243.323 150.805 246.215C150.873 249.108 150.882 252.001 150.972 254.893C150.999 256.337 151.053 257.781 151.103 259.225L151.306 263.553C151.369 265.001 151.491 266.436 151.586 267.88L151.753 270.037L151.97 272.194C152.241 275.078 152.693 277.941 153.323 280.768C152.238 278.051 151.413 275.238 150.859 272.366C150.282 269.5 149.862 266.608 149.542 263.706C148.874 257.903 148.639 252.073 148.54 246.247C148.54 243.336 148.54 240.426 148.594 237.515C148.648 234.605 148.757 231.699 148.946 228.797C149.289 222.998 149.772 217.195 150.611 211.415Z" fill="#572721"/>
<path d="M136.121 211.415C136.464 212.255 136.732 213.123 136.925 214.01C137.132 214.912 137.29 215.783 137.444 216.672C137.597 217.561 137.687 218.477 137.809 219.357C137.931 220.237 137.976 221.162 138.062 222.064C138.346 225.674 138.382 229.257 138.324 232.849C138.265 236.441 138.03 240.024 137.665 243.598C137.33 247.184 136.815 250.75 136.121 254.284C135.991 252.479 135.964 250.674 135.927 248.869L135.9 246.161C135.9 245.259 135.9 244.356 135.9 243.481C135.9 239.902 135.973 236.338 136.063 232.773L136.307 222.091C136.307 220.314 136.361 218.531 136.343 216.753C136.37 214.971 136.296 213.189 136.121 211.415Z" fill="#572721"/>
<path d="M142.927 208.77C143.368 210.752 143.67 212.764 143.829 214.789C143.991 216.797 144.068 218.805 144.073 220.809C144.077 222.813 143.996 224.825 143.829 226.829C143.674 228.856 143.373 230.869 142.927 232.853C142.48 230.869 142.179 228.856 142.024 226.829C141.856 224.825 141.776 222.819 141.785 220.809C141.785 218.805 141.862 216.797 142.029 214.789C142.182 212.764 142.482 210.752 142.927 208.77Z" fill="#572721"/>
<path d="M77.41 194.312C77.8613 197.989 78.123 201.667 78.3125 205.345C78.502 209.022 78.5562 212.696 78.5607 216.373C78.5652 220.051 78.493 223.729 78.3125 227.406C78.132 231.084 77.9019 234.757 77.41 238.435C76.9588 234.757 76.6971 231.084 76.5301 227.406C76.3632 223.729 76.2864 220.051 76.2819 216.373C76.2774 212.696 76.3541 209.018 76.5346 205.345C76.7151 201.671 76.9453 197.989 77.41 194.312Z" fill="#DBDBDB"/>
<path d="M82.3421 216.382C82.7933 220.06 83.0505 223.737 83.2175 227.415C83.3845 231.093 83.4657 234.766 83.4702 238.444C83.4747 242.121 83.398 245.799 83.222 249.477C83.046 253.155 82.8114 256.832 82.3195 260.505C81.8683 256.832 81.602 253.155 81.4396 249.477C81.2771 245.799 81.1914 242.121 81.1914 238.444C81.1914 234.766 81.2636 231.093 81.4396 227.415C81.6156 223.737 81.8728 220.051 82.3421 216.382Z" fill="#DBDBDB"/>
<path d="M213.772 194.312C214.223 197.989 214.485 201.667 214.647 205.345C214.81 209.022 214.895 212.696 214.9 216.373C214.904 220.051 214.832 223.729 214.652 227.406C214.471 231.084 214.241 234.757 213.772 238.435C213.32 234.757 213.059 231.084 212.892 227.406C212.725 223.729 212.644 220.051 212.644 216.373C212.644 212.696 212.716 209.018 212.896 205.345C213.077 201.671 213.307 197.989 213.772 194.312Z" fill="#DBDBDB"/>
<path d="M208.84 216.382C209.291 220.06 209.553 223.737 209.742 227.415C209.932 231.093 209.986 234.766 209.99 238.444C209.995 242.121 209.923 245.799 209.747 249.477C209.571 253.155 209.336 256.832 208.844 260.505C208.393 256.832 208.131 253.155 207.964 249.477C207.797 245.799 207.721 242.121 207.721 238.444C207.721 234.766 207.788 231.093 207.969 227.415C208.149 223.737 208.375 220.051 208.84 216.382Z" fill="#DBDBDB"/>
<path d="M144.452 136.194C144.135 136.195 143.824 136.112 143.549 135.955L125.048 125.283C124.773 125.124 124.545 124.896 124.387 124.621C124.228 124.346 124.145 124.034 124.146 123.717V102.373C124.146 102.056 124.229 101.745 124.388 101.471C124.546 101.197 124.774 100.97 125.048 100.811L143.549 90.1346C143.823 89.9762 144.135 89.8928 144.452 89.8928C144.768 89.8928 145.08 89.9762 145.354 90.1346L163.855 100.811C164.129 100.97 164.357 101.197 164.515 101.471C164.674 101.745 164.757 102.056 164.758 102.373V123.717C164.758 124.034 164.675 124.346 164.516 124.621C164.358 124.896 164.13 125.124 163.855 125.283L145.354 135.955C145.079 136.112 144.768 136.195 144.452 136.194ZM127.755 122.656L144.452 132.291L161.148 122.656V103.415L144.452 93.7853L127.755 103.415V122.656Z" fill="#572721"/>
<path d="M146.969 63.6762C142.681 63.6732 138.4 63.3413 134.163 62.6834C122.552 60.8784 114.868 57.3767 114.547 57.2278L115.495 55.1836C115.797 55.3235 146.301 69.0912 176.35 55.1836L177.297 57.2278C166.666 62.1509 156.044 63.6762 146.969 63.6762Z" fill="#572721"/>
<path d="M121.862 56.2044C122.959 56.2044 123.848 55.3155 123.848 54.2189C123.848 53.1223 122.959 52.2334 121.862 52.2334C120.766 52.2334 119.877 53.1223 119.877 54.2189C119.877 55.3155 120.766 56.2044 121.862 56.2044Z" fill="#572721"/>
<path d="M169.716 56.2044C170.813 56.2044 171.702 55.3155 171.702 54.2189C171.702 53.1223 170.813 52.2334 169.716 52.2334C168.62 52.2334 167.731 53.1223 167.731 54.2189C167.731 55.3155 168.62 56.2044 169.716 56.2044Z" fill="#572721"/>
<path d="M129.727 58.1937C130.824 58.1937 131.713 57.3047 131.713 56.2082C131.713 55.1116 130.824 54.2227 129.727 54.2227C128.631 54.2227 127.742 55.1116 127.742 56.2082C127.742 57.3047 128.631 58.1937 129.727 58.1937Z" fill="#572721"/>
<path d="M160.949 58.1937C162.045 58.1937 162.934 57.3047 162.934 56.2082C162.934 55.1116 162.045 54.2227 160.949 54.2227C159.852 54.2227 158.963 55.1116 158.963 56.2082C158.963 57.3047 159.852 58.1937 160.949 58.1937Z" fill="#572721"/>
<path d="M139.262 59.3841C140.359 59.3841 141.248 58.4952 141.248 57.3986C141.248 56.302 140.359 55.4131 139.262 55.4131C138.166 55.4131 137.277 56.302 137.277 57.3986C137.277 58.4952 138.166 59.3841 139.262 59.3841Z" fill="#572721"/>
<path d="M150.909 59.3841C152.005 59.3841 152.894 58.4952 152.894 57.3986C152.894 56.302 152.005 55.4131 150.909 55.4131C149.812 55.4131 148.923 56.302 148.923 57.3986C148.923 58.4952 149.812 59.3841 150.909 59.3841Z" fill="#572721"/>
<path d="M99.598 72.7383L99.7018 72.8466L99.8417 72.9775C99.9364 73.0632 100.022 73.1534 100.121 73.2392L100.731 73.7491C101.182 74.074 101.588 74.4034 102.039 74.7103C102.49 75.0171 102.942 75.3195 103.416 75.6128L104.85 76.4386C105.324 76.7183 105.834 76.944 106.326 77.1967C106.818 77.4494 107.31 77.7111 107.829 77.9187L109.363 78.582C109.616 78.6903 109.873 78.8076 110.13 78.9114L110.915 79.1957C115.123 80.776 119.467 81.9648 123.893 82.7471L125.554 83.0675C126.109 83.1803 126.668 83.239 127.228 83.3247L130.58 83.803C131.14 83.8933 131.7 83.9384 132.264 83.9925L133.951 84.1505C135.075 84.2543 136.207 84.3716 137.331 84.4619C139.587 84.5656 141.844 84.701 144.1 84.7777L150.895 84.8183L144.095 85.0575C141.839 85.0575 139.56 85.0349 137.286 85.0259C136.153 84.9808 135.03 84.9086 133.884 84.8544L132.182 84.7642C131.614 84.7326 131.045 84.71 130.481 84.6424L127.083 84.3039C126.515 84.2362 125.946 84.2046 125.387 84.1144L123.694 83.8617C119.157 83.2478 114.684 82.2207 110.333 80.7932L109.512 80.5269C109.241 80.4322 108.975 80.3239 108.704 80.2246L107.089 79.6019C106.547 79.4123 106.028 79.1506 105.496 78.9205C104.963 78.6903 104.435 78.4692 103.921 78.1849L102.391 77.3952C101.881 77.1109 101.385 76.7996 100.88 76.4927C100.374 76.1859 99.8958 75.8384 99.4085 75.4954L98.691 74.9449C98.5691 74.8502 98.4518 74.7418 98.3345 74.6426L98.1585 74.4891L97.96 74.2951L99.598 72.7383Z" fill="#572721"/>
<path d="M193.723 74.4325C192.868 74.9543 191.987 75.4317 191.083 75.863C190.208 76.3143 189.314 76.6933 188.416 77.0679C186.611 77.8215 184.806 78.4713 182.952 79.0579C181.097 79.6445 179.242 80.1409 177.361 80.5606C176.427 80.7907 175.479 80.9487 174.54 81.1517C173.602 81.3548 172.645 81.4721 171.702 81.6346C172.605 81.3819 173.552 81.1427 174.473 80.8765C175.393 80.6102 176.309 80.3349 177.207 80.0146C179.012 79.4189 180.817 78.7285 182.559 78.002C184.301 77.2754 186.025 76.4406 187.685 75.5426C188.516 75.0914 189.337 74.6401 190.131 74.1347C190.925 73.6293 191.733 73.1149 192.41 72.5959L193.723 74.4325Z" fill="#572721"/>
<path d="M158.196 120.979V105.104L144.451 97.1709L130.707 105.104V120.979L144.451 128.912L158.196 120.979Z" fill="#572721"/>
<path d="M87.0713 107.908C87.2338 108.035 87.4819 108.197 87.703 108.36C87.9242 108.522 88.1769 108.644 88.4115 108.788C88.8989 109.064 89.3862 109.339 89.8961 109.592C90.406 109.844 90.9159 110.079 91.4258 110.327L92.9961 111.004C95.1254 111.867 97.3025 112.607 99.5166 113.22C101.732 113.865 103.993 114.357 106.285 114.817C107.422 115.038 108.569 115.219 109.71 115.422L113.158 115.909L109.679 115.702C108.519 115.593 107.359 115.503 106.2 115.377C103.889 115.097 101.57 114.79 99.2775 114.316C96.96 113.874 94.67 113.298 92.4186 112.592L90.7354 112.024C90.1849 111.807 89.6208 111.618 89.0703 111.379C88.5198 111.139 87.9693 110.927 87.4233 110.657C87.1525 110.517 86.8818 110.39 86.6065 110.246C86.3313 110.102 86.0786 109.962 85.7627 109.759L87.0713 107.908Z" fill="#572721"/>
<path d="M173.115 115.892C175.881 115.703 178.633 115.36 181.368 114.926C184.103 114.493 186.81 113.943 189.49 113.297C192.171 112.652 194.811 111.862 197.405 110.973C199.983 110.073 202.504 109.018 204.955 107.815L205.902 109.859C203.297 110.934 200.628 111.847 197.911 112.593C195.203 113.32 192.473 113.947 189.721 114.398C186.968 114.85 184.206 115.233 181.436 115.486C178.665 115.739 175.89 115.888 173.115 115.892Z" fill="#572721"/>
<path d="M141.153 153.944C133.524 153.959 125.9 153.552 118.315 152.725C98.5011 150.514 87.8427 146.173 87.396 145.988L88.2579 143.903C88.3662 143.948 99.1464 148.326 118.681 150.496C136.731 152.495 166.116 152.969 203.749 143.849L204.282 146.042C179.382 152.075 158.038 153.944 141.153 153.944Z" fill="#572721"/>
<path d="M98.0818 165.634C101.164 166.441 104.309 167.163 107.445 167.831C110.581 168.499 113.763 169.113 116.921 169.636C120.08 170.16 123.279 170.615 126.483 170.922C129.687 171.247 132.906 171.387 136.126 171.342C132.904 171.575 129.671 171.623 126.443 171.486C123.212 171.364 119.99 171.085 116.772 170.755C113.555 170.426 110.347 169.984 107.147 169.501C103.948 169.018 100.767 168.472 97.5674 167.836L98.0818 165.634Z" fill="#572721"/>
<path d="M158.196 171.433C161.409 171.226 164.617 170.946 167.817 170.612C171.016 170.278 174.211 169.885 177.388 169.412C180.564 168.938 183.705 168.374 186.823 167.643C188.376 167.282 189.914 166.876 191.403 166.379C192.869 165.922 194.284 165.318 195.627 164.574L196.715 166.551C195.193 167.283 193.601 167.859 191.963 168.27C190.37 168.694 188.768 169.019 187.162 169.299C183.958 169.858 180.74 170.228 177.523 170.526C174.306 170.824 171.084 171.023 167.862 171.172C164.64 171.32 161.418 171.415 158.196 171.433Z" fill="#572721"/>
<defs>
<linearGradient id="paint0_linear_5719_33942" x1="58.0606" y1="125.43" x2="58.0606" y2="278.364" gradientUnits="userSpaceOnUse">
<stop stop-color="#D6D6D6"/>
<stop offset="0.12" stop-color="#D6D6D6" stop-opacity="0.98"/>
<stop offset="0.25" stop-color="#D6D6D6" stop-opacity="0.92"/>
<stop offset="0.38" stop-color="#D6D6D6" stop-opacity="0.82"/>
<stop offset="0.52" stop-color="#D6D6D6" stop-opacity="0.68"/>
<stop offset="0.66" stop-color="#D6D6D6" stop-opacity="0.5"/>
<stop offset="0.8" stop-color="#D6D6D6" stop-opacity="0.28"/>
<stop offset="0.94" stop-color="#D6D6D6" stop-opacity="0.02"/>
<stop offset="0.95" stop-color="#D6D6D6" stop-opacity="0"/>
</linearGradient>
<linearGradient id="paint1_linear_5719_33942" x1="219.588" y1="71.3909" x2="219.588" y2="183.175" gradientUnits="userSpaceOnUse">
<stop stop-color="#D6D6D6"/>
<stop offset="0.09" stop-color="#D6D6D6" stop-opacity="0.96"/>
<stop offset="0.23" stop-color="#D6D6D6" stop-opacity="0.87"/>
<stop offset="0.4" stop-color="#D6D6D6" stop-opacity="0.71"/>
<stop offset="0.6" stop-color="#D6D6D6" stop-opacity="0.49"/>
<stop offset="0.81" stop-color="#D6D6D6" stop-opacity="0.21"/>
<stop offset="0.95" stop-color="#D6D6D6" stop-opacity="0"/>
</linearGradient>
<linearGradient id="paint2_linear_5719_33942" x1="76.2816" y1="52.1267" x2="76.2816" y2="163.911" gradientUnits="userSpaceOnUse">
<stop stop-color="#D6D6D6"/>
<stop offset="0.09" stop-color="#D6D6D6" stop-opacity="0.96"/>
<stop offset="0.23" stop-color="#D6D6D6" stop-opacity="0.87"/>
<stop offset="0.4" stop-color="#D6D6D6" stop-opacity="0.71"/>
<stop offset="0.6" stop-color="#D6D6D6" stop-opacity="0.49"/>
<stop offset="0.81" stop-color="#D6D6D6" stop-opacity="0.21"/>
<stop offset="0.95" stop-color="#D6D6D6" stop-opacity="0"/>
</linearGradient>
<linearGradient id="paint3_linear_5719_33942" x1="234.917" y1="190.594" x2="234.917" y2="302.374" gradientUnits="userSpaceOnUse">
<stop stop-color="#D6D6D6"/>
<stop offset="0.09" stop-color="#D6D6D6" stop-opacity="0.96"/>
<stop offset="0.23" stop-color="#D6D6D6" stop-opacity="0.87"/>
<stop offset="0.4" stop-color="#D6D6D6" stop-opacity="0.71"/>
<stop offset="0.6" stop-color="#D6D6D6" stop-opacity="0.49"/>
<stop offset="0.81" stop-color="#D6D6D6" stop-opacity="0.21"/>
<stop offset="0.95" stop-color="#D6D6D6" stop-opacity="0"/>
</linearGradient>
</defs>
</svg>
