<svg width="32" height="27" viewBox="0 0 32 27" fill="none" xmlns="http://www.w3.org/2000/svg">
<mask id="mask0_3_3216" style="mask-type:luminance" maskUnits="userSpaceOnUse" x="0" y="0" width="32" height="27">
<path d="M31.4353 0.986328H0.564697V26.2099H31.4353V0.986328Z" fill="white"/>
</mask>
<g mask="url(#mask0_3_3216)">
<path d="M18.3656 13.9697L18.1799 15.2139L15.9982 13.93L13.8165 15.2139L13.6308 13.9697L15.9982 12.5551L18.3656 13.9697Z" fill="#459C6E"/>
<path d="M18.1709 20.7878L15.9986 21.5208L13.8263 20.7878L14.4658 19.5926L15.9986 20.2182L17.5315 19.5926L18.1709 20.7878Z" fill="#58C88D"/>
<path d="M15.9988 12.5527L18.3663 13.9698L23.8347 10.0502L22.732 8.8316C21.3238 10.0992 19.4172 10.8462 17.5176 10.8976L15.9988 9.96144L14.4801 10.8976C12.5805 10.8462 10.6739 10.0992 9.26565 8.8316L8.16309 10.0502L13.6314 13.9698L15.9988 12.5527Z" fill="#459C6E"/>
<path d="M22.7309 8.83209C21.3204 10.1021 19.416 10.8444 17.5164 10.8981L15.9977 9.96433L14.479 10.8981C12.5794 10.8444 10.6752 10.1021 9.26453 8.83209C9.96989 8.0524 10.701 7.24472 11.4063 6.46501L13.4563 5.82068L15.9977 7.61355L18.5391 5.82068L20.5892 6.46501C21.2944 7.24472 22.0256 8.0524 22.7309 8.83209Z" fill="#58C88D"/>
<path d="M18.1809 15.2156L17.5321 19.5926L15.9992 20.2183L14.4664 19.5926L13.8175 15.2156L15.9992 13.9316L18.1809 15.2156Z" fill="#459C6E"/>
<path d="M19.857 23.9752L18.2559 25.74L15.999 25.0467L13.7421 25.74L12.1411 23.9752L13.8267 20.7864L15.999 21.5193L18.1713 20.7864L19.857 23.9752Z" fill="#295C41"/>
<path d="M18.2564 25.739L17.8379 26.2083H14.161L13.7426 25.739L15.9994 25.0457L18.2564 25.739Z" fill="#58C88D"/>
<path d="M12.5804 14.6284L9.27726 12.6441L8.60718 14.493L10.7231 17.1239L11.7786 22.1009L13.2269 19.4303L12.5804 14.6284Z" fill="#459C6E"/>
<path d="M8.60825 14.4941L8.04401 16.0466L11.7797 22.102L10.7241 17.125L8.60825 14.4941Z" fill="#295C41"/>
<path d="M19.4199 14.6284L22.7231 12.6441L23.3931 14.493L21.2772 17.1239L20.2216 22.1009L18.7734 19.4303L19.4199 14.6284Z" fill="#459C6E"/>
<path d="M23.3934 14.4941L23.9576 16.0466L20.2219 22.102L21.2775 17.125L23.3934 14.4941Z" fill="#295C41"/>
<path d="M2.46589 6.81074C2.52403 4.90351 6.08465 0.986328 6.08465 0.986328C4.53808 2.62977 2.78218 3.91604 1.4891 5.77191C1.13094 6.28549 0.90535 6.93212 1.01931 7.53672C1.23561 8.67593 2.20309 9.45331 3.81246 9.60275C4.6497 9.67979 7.13588 9.58403 7.13588 9.58403L8.45455 8.12733C6.97309 8.23008 2.41705 8.40747 2.46589 6.81074Z" fill="#295C41"/>
<path d="M5.22932 6.07538C4.63627 5.78124 4.2153 5.16263 4.53394 4.13781C4.90604 2.93558 5.35491 2.05783 6.08515 0.986328C6.08515 0.986328 2.52453 4.90351 2.46639 6.81074C2.41755 8.40747 6.97359 8.23008 8.4574 8.12967L9.98772 6.43954C7.94804 6.43954 6.63867 6.77807 5.22932 6.07538Z" fill="#58C88D"/>
<path d="M29.5341 6.81074C29.476 4.90351 25.9153 0.986328 25.9153 0.986328C27.4619 2.62977 29.2178 3.91604 30.5108 5.77191C30.869 6.28549 31.0946 6.93212 30.9807 7.53672C30.7644 8.67593 29.7969 9.45331 28.1875 9.60275C27.3503 9.67979 24.8641 9.58403 24.8641 9.58403L23.5454 8.12733C25.0269 8.23008 29.5829 8.40747 29.5341 6.81074Z" fill="#295C41"/>
<path d="M26.7709 6.07538C27.3639 5.78124 27.7848 5.16263 27.4662 4.13781C27.0917 2.93558 26.6429 2.05783 25.9126 0.986328C25.9126 0.986328 29.4733 4.90351 29.5314 6.81074C29.5802 8.40747 25.0242 8.23008 23.5405 8.12967L22.0101 6.43954C24.0521 6.43954 25.3614 6.77807 26.7709 6.07538Z" fill="#58C88D"/>
</g>
</svg>
