<svg xmlns="http://www.w3.org/2000/svg" width="1588" height="1588" fill="none" xmlns:v="https://vecta.io/nano"><circle cx="794" cy="794" r="794" fill="#181818"/><g clip-path="url(#A)"><path d="M522.476 1118l110.011-190.586L742.497 737.5l109.34-190.586 18.112-30.198 8.049 30.198 33.54 125.492-37.565 65.094-110.01 189.914L654.623 1118h131.476L896.11 927.414l57.017-98.648 26.832 98.648L1030.94 1118H1149l-50.98-190.586-50.98-189.914-13.42-48.989 81.84-141.597H996.058l-4.024-14.092-41.59-155.69L945.078 357H830.372l-2.684 4.026-107.327 185.888L610.35 737.5 501.011 927.414 391 1118h131.476z" fill="#fff"/></g><defs><clipPath id="A"><path fill="#fff" transform="translate(391 357)" d="M0 0h758v761H0z"/></clipPath></defs></svg>