<svg xmlns="http://www.w3.org/2000/svg" xmlns:xlink="http://www.w3.org/1999/xlink" width="256" height="256" fill="none" xmlns:v="https://vecta.io/nano"><circle cx="128" cy="128" r="128" fill="#eaedf7"/><g fill="#6667ab"><path d="M140.883 41.484c0-1.789 2.169-2.678 3.425-1.404l84.261 85.504a7 7 0 0 1-.018 9.845L144.3 220.302c-1.258 1.267-3.42.376-3.42-1.409l.003-177.409z"/><path d="M126.3 39.81a1 1 0 0 1 1.5.866v108.311a1 1 0 0 1-1.5.866L38.5 99.161c-3.333-1.924-3.333-6.736 0-8.66l87.8-50.691z" fill-opacity=".5"/><use xlink:href="#B" fill-opacity=".5"/><use xlink:href="#B" y="34" fill-opacity=".5"/></g><defs ><path id="B" d="M126.3 75.81a1 1 0 0 1 1.5.866v108.311a1 1 0 0 1-1.5.866l-87.8-50.692c-3.333-1.924-3.333-6.735 0-8.66l87.8-50.691z"/></defs></svg>