<svg xmlns="http://www.w3.org/2000/svg" width="256" height="256" fill="none" xmlns:v="https://vecta.io/nano"><g clip-path="url(#A)"><path d="M128 256c70.692 0 128-57.308 128-128S198.692 0 128 0 0 57.308 0 128s57.308 128 128 128z" fill="#fff"/><g clip-path="url(#B)"><path fill-rule="evenodd" d="M140.296 37.775l60.784 30.988c8.816 4.625 14.384 13.412 14.384 23.587v14.338h-22.272V92.35c0-1.387-.928-2.775-2.32-3.7l-60.784-30.988c-.928-.462-2.32-.462-3.712 0L65.592 88.65c-1.392.462-2.32 1.85-2.32 3.7v14.338H41V92.35c0-9.712 5.568-18.962 14.384-23.587l60.784-30.988c7.424-3.7 16.24-3.7 24.128 0zm6.96 88.8c0-10.638-8.816-18.963-19.024-18.963-10.672 0-19.024 8.325-19.024 18.963s8.816 18.962 19.024 18.962 19.024-8.325 19.024-18.962zm43.152 39.775c1.392-.463 2.32-1.85 2.32-3.7v-14.338H215v14.338c0 9.713-5.568 18.963-14.384 23.588l-60.784 30.987c-3.712 1.85-7.888 2.775-12.064 2.775s-8.352-.925-12.064-2.775l-60.32-30.987C46.568 181.613 41 172.825 41 162.65v-14.338h22.272v14.338c0 1.388.928 2.775 2.32 3.7l51.504 25.9v-25.9c-17.632-5.088-30.16-20.813-30.16-39.775 0-22.663 18.56-41.625 41.76-41.625 22.736 0 41.76 18.5 41.76 41.625 0 18.962-12.992 35.15-30.16 39.775v25.9l50.112-25.9z" fill="#245ae5" fill-opacity=".9"/></g></g><defs><clipPath id="A"><path fill="#fff" d="M0 0h256v256H0z"/></clipPath><clipPath id="B"><path fill="#fff" transform="translate(41 35)" d="M0 0h174v185H0z"/></clipPath></defs></svg>