<svg xmlns="http://www.w3.org/2000/svg" width="255" height="256" fill="none" xmlns:v="https://vecta.io/nano"><path d="M127 255c70.14 0 127-56.86 127-127S197.14 1 127 1 0 57.86 0 128s56.86 127 127 127z" fill="#fff"/><path d="M197.339 85.719h-22.59c-2.57 0-5.14-1.096-6.984-3.103l-9.185-10.23c-2.754-2.918-7.158-3.287-10.281-.543l-.553.543-7.895 8.765a13.44 13.44 0 0 1-10.096 4.567H5.789C2.308 95.949-.078 106.537-1 117.32h116.982c2.017 0 4.034-.912 5.509-2.376l10.834-11.325c1.29-1.465 3.307-2.192 5.14-2.192h.369c2.017 0 4.045.912 5.509 2.376l9.185 10.23c1.649 2.007 4.219 3.102 6.984 3.102H255c-.922-10.772-3.123-21.37-6.799-31.6h-50.873l.011.184zM69.881 183.614c2.017 0 4.045-.912 5.509-2.376l10.834-11.326c1.29-1.464 3.308-2.191 5.141-2.191h.553c2.017 0 4.045.911 5.509 2.376l9.185 10.23c1.833 2.007 4.219 3.102 6.984 3.102H243.06c4.956-10.045 8.448-20.818 10.65-31.774H129.386c-2.57 0-5.141-1.096-6.789-3.103l-9.185-10.23c-1.291-1.464-3.308-2.376-5.51-2.376-2.017 0-4.034.912-5.324 2.376l-7.895 8.765c-2.57 2.919-6.246 4.568-10.281 4.568H1.017c2.017 10.956 5.693 21.729 10.465 31.959h58.399zM161.703 51.2c2.018 0 4.045-.911 5.509-2.376l10.834-11.325c1.291-1.464 3.308-2.191 5.141-2.191h.553c2.017 0 4.045.911 5.325 2.376l9.185 10.23c1.833 2.007 4.219 3.103 6.984 3.103h24.606C187.232-5.417 106.796-16.742 50.057 25.631c-9.728 7.301-18.36 15.708-25.528 25.385h137.186l-.011.184zm-49.582 164.014H78.514c-2.57 0-5.141-1.095-6.789-3.103l-9.185-10.229c-2.755-2.919-7.342-3.287-10.281-.543l-.553.543-7.895 8.949a13.44 13.44 0 0 1-10.097 4.568h-.553c48.302 51.507 129.648 54.425 181.442 6.389 2.202-2.007 4.403-4.198 6.431-6.389l-108.913-.185z" fill="#000"/></svg>