<svg xmlns="http://www.w3.org/2000/svg" width="256" height="256" fill="none" xmlns:v="https://vecta.io/nano"><path d="M128 240c61.856 0 112-50.144 112-112S189.856 16 128 16 16 66.144 16 128s50.144 112 112 112z" fill="#2d374b"/><path d="M145.203 149.542l-13.944 37.923c-.345 1.028-.345 2.17 0 3.312L155.5 251l27.5-10.877-33.303-90.581c-.807-2.056-3.688-2.056-4.494 0zm28.403-64.985c-.802-2.076-3.669-2.076-4.472 0l-13.876 38.283c-.344 1.038-.344 2.191 0 3.344L194.363 234l24.137-21-44.894-128.328v-.115z" fill="#12aaff"/><path fill-rule="evenodd" d="M256 128c0 70.692-57.308 128-128 128S0 198.692 0 128 57.308 0 128 0s128 57.308 128 128zm-16 0c0 61.856-50.144 112-112 112S16 189.856 16 128 66.144 16 128 16s112 50.144 112 112z" fill="#96bedc"/><path d="M76.046 245.017l6.952-1.398L75.433 206 39 213.326l1.658 8.245c10.341 9.657 22.284 17.619 35.388 23.446z" fill="#2d374b"/><path d="M95.084 251.694l68.894-190.488c.568-1.603-.569-3.206-2.16-3.206v.114h-26.48a4.81 4.81 0 0 0-4.433 3.092L66.148 240.021a127.17 127.17 0 0 0 28.936 11.673zM55.116 233.15l62.86-171.94c.432-1.208-.112-2.417-1.093-2.94a2.3 2.3 0 0 0-1.089-.27l-.115.114H88.918a4.86 4.86 0 0 0-4.48 3.096L30 210.195c7.309 8.716 15.757 16.445 25.116 22.955z" fill="#fff"/></svg>