<svg xmlns="http://www.w3.org/2000/svg" width="400" height="400" fill="none" xmlns:v="https://vecta.io/nano"><g clip-path="url(#A)"><path d="M400 0H0V400H400V0Z" fill="#ee1c25"/><g fill="#ff0"><path d="M117.595 97.773l52.901 162.812L32 159.961h171.19L64.695 260.584l52.9-162.812zm161.74-27.608l-5.01 56.843-29.359-48.931 52.513 22.33-55.609 12.801 37.465-43.042zm69.793 66.719l-26.675 50.444-8.07-56.489 39.733 40.957-56.219-9.781 51.231-25.131zm6.648 100.601l-44.933 35.174 15.677-54.867 19.568 53.603-47.339-31.864 57.027-2.046zm-77.596 42.217l-2.648 57.002-31.363-47.672 53.394 20.133-55.03 15.096 35.647-44.559z"/></g></g><defs><clipPath id="A"><rect width="400" height="400" rx="200" fill="#fff"/></clipPath></defs></svg>