<svg xmlns="http://www.w3.org/2000/svg" width="1588" height="1588" fill="none" xmlns:v="https://vecta.io/nano"><circle cx="794" cy="794" r="794" fill="#008de4"/><g clip-path="url(#A)" fill="#fff"><path d="M924.235 409H579.486l-28.591 159.778 311.178.369c153.287 0 198.477 55.719 197.187 147.97-.74 47.232-21.22 127.305-30.07 153.32-23.61 69.188-72.122 147.973-253.996 147.783l-302.508-.18L444.187 1178h344.011c121.373 0 172.836-14.21 227.622-39.3 121.19-56.27 193.31-175.828 222.27-331.916C1280.97 574.313 1227.48 409 924.235 409zM430.722 713.242c-90.384 0-103.296 58.856-111.781 94.465L304 873.204h353.05c90.384 0 103.296-58.855 111.781-94.464l14.941-65.498h-353.05z"/></g><defs><clipPath id="A"><path fill="#fff" transform="translate(304 409)" d="M0 0h947v769H0z"/></clipPath></defs></svg>