<svg xmlns="http://www.w3.org/2000/svg" width="400" height="400" fill="none" xmlns:v="https://vecta.io/nano"><circle cx="200" cy="200" r="200" fill="#e6007a"/><g clip-path="url(#A)" fill="#fff"><path d="M200.49 118.147c28.066 0 50.818-13.24 50.818-29.573S228.556 59 200.49 59s-50.818 13.241-50.818 29.574 22.752 29.573 50.818 29.573zm0 222.833c28.066 0 50.818-13.241 50.818-29.574s-22.752-29.573-50.818-29.573-50.818 13.24-50.818 29.573 22.752 29.574 50.818 29.574zm-70.818-181.896c14.033-24.32 13.942-50.66-.203-58.832s-36.989 4.919-51.021 29.239-13.942 50.66.203 58.832 36.988-4.918 51.021-29.239zm192.839 111.404c14.033-24.321 13.949-50.656-.187-58.823s-36.971 4.929-51.003 29.249-13.95 50.656.186 58.822 36.971-4.928 51.004-29.248zm-193.035 29.241c14.145-8.172 14.236-34.512.203-58.832s-36.876-37.411-51.021-29.239-14.236 34.513-.203 58.833 36.876 37.41 51.022 29.238zm192.861-111.4c14.135-8.166 14.219-34.502.186-58.822s-36.868-37.415-51.004-29.248-14.219 34.502-.186 58.822 36.868 37.415 51.004 29.248z"/></g><defs><clipPath id="A"><path fill="#fff" transform="translate(68 59)" d="M0 0h265v282H0z"/></clipPath></defs></svg>