<svg xmlns="http://www.w3.org/2000/svg" width="491" height="491" fill="none" xmlns:v="https://vecta.io/nano"><path d="M245.8 490.8C381.2 490.8 491 381 491 245.6S381.2.4 245.8.4.6 110.2.6 245.6C.7 381 110.4 490.8 245.8 490.8z" fill="#3ab83a"/><g fill="#fff"><path d="M245.8 82.1V203l102.1 45.6L245.8 82.1z" fill-opacity=".602"/><path d="M245.8 82.1L143.7 248.6 245.8 203V82.1z"/><path d="M245.8 326.9V409L348 267.6L245.8 326.9Z" fill-opacity=".602"/><path d="M245.8 409V326.9L143.7 267.6L245.8 409Z"/><path d="M245.8 307.9l102.1-59.3L245.8 203v104.9z" fill-opacity=".2"/><path d="M143.7 248.6l102.1 59.3V203l-102.1 45.6z" fill-opacity=".602"/></g></svg>