<svg xmlns="http://www.w3.org/2000/svg" width="400" height="400" fill="none" xmlns:v="https://vecta.io/nano"><path d="M0 200c0 110.457 89.543 200 200 200s200-89.543 200-200S310.457 0 200 0 0 89.543 0 200z" fill="#039"/><g fill="#fc0"><path d="M70.5 99l5.725 17.62h18.527l-14.989 10.89 5.725 17.62L70.5 134.24l-14.989 10.89 5.725-17.62-14.989-10.89h18.527L70.5 99zm-20 75l5.725 17.62h18.527l-14.989 10.89 5.725 17.62L50.5 209.24l-14.989 10.89 5.725-17.62-14.989-10.89h18.527L50.5 174zm20 74l5.725 17.62h18.527l-14.989 10.89 5.725 17.62L70.5 283.24l-14.989 10.89 5.725-17.62-14.989-10.89h18.527L70.5 248zm54 55l5.725 17.62h18.527l-14.989 10.89 5.726 17.62-14.989-10.89-14.989 10.89 5.726-17.62-14.989-10.89h18.527L124.5 303zm75 20l5.725 17.62h18.527l-14.989 10.89 5.726 17.62-14.989-10.89-14.989 10.89 5.726-17.62-14.989-10.89h18.527L199.5 323zm75-20l5.725 17.62h18.527l-14.989 10.89 5.726 17.62-14.989-10.89-14.989 10.89 5.726-17.62-14.989-10.89h18.527L274.5 303zm54-55l5.725 17.62h18.527l-14.989 10.89 5.726 17.62-14.989-10.89-14.989 10.89 5.726-17.62-14.989-10.89h18.527L328.5 248zm20-74l5.725 17.62h18.527l-14.989 10.89 5.726 17.62-14.989-10.89-14.989 10.89 5.726-17.62-14.989-10.89h18.527L348.5 174z"/><path d="M328.5 99l5.725 17.62h18.527l-14.989 10.89 5.726 17.62-14.989-10.89-14.989 10.89 5.726-17.62-14.989-10.89h18.527L328.5 99zm-54-55l5.725 17.62h18.527l-14.989 10.89 5.726 17.62L274.5 79.24l-14.989 10.89 5.726-17.62-14.989-10.89h18.527L274.5 44zm-75-20l5.725 17.62h18.527l-14.989 10.89 5.726 17.62L199.5 59.24l-14.989 10.89 5.726-17.62-14.989-10.89h18.527L199.5 24zm-75 20l5.725 17.62h18.527l-14.989 10.89 5.726 17.62L124.5 79.24l-14.989 10.89 5.726-17.62-14.989-10.89h18.527L124.5 44z"/></g></svg>