<svg xmlns="http://www.w3.org/2000/svg" width="256" height="256" fill="none" xmlns:v="https://vecta.io/nano"><g clip-path="url(#A)" fill-rule="evenodd"><path d="M128 256C57.6 256 0 198.4 0 127.36.64 56.96 57.6-.64 128.64 0 199.04.64 256 57.6 256 129.28 255.36 199.04 198.4 256 128 256z" fill="#0090ff"/><path d="M140.16 112.64l-3.84 20.48 36.48 5.12-2.56 9.6-35.84-5.12c-2.56 8.32-3.84 17.28-7.04 24.96-3.2 8.96-6.4 17.92-10.24 26.24-5.12 10.88-14.08 18.56-26.24 20.48-7.04 1.28-14.72.64-20.48-3.84-1.92-1.28-3.84-3.84-3.84-5.76 0-2.56 1.28-5.76 3.2-7.04 1.28-.64 4.48 0 6.4.64 1.92 1.92 3.84 4.48 5.12 7.04 3.84 5.12 8.96 5.76 14.08 1.92 5.76-5.12 8.96-12.16 10.88-19.2 3.84-15.36 7.68-30.08 10.88-45.44v-2.56l-33.92-5.12 1.28-9.6 35.2 5.12 4.48-19.84-36.48-5.76 1.28-10.24 37.76 5.12c1.28-3.84 1.92-7.04 3.2-10.24 3.2-11.52 6.4-23.04 14.08-33.28s16.64-16.64 30.08-16c5.76 0 11.52 1.92 15.36 6.4.64.64 1.92 1.92 1.92 3.2 0 2.56 0 5.76-1.92 7.68-2.56 1.92-5.76 1.28-8.32-1.28-1.92-1.92-3.2-3.84-5.12-5.76-3.84-5.12-9.6-5.76-14.08-1.28-3.2 3.2-6.4 7.68-8.32 12.16-4.48 13.44-7.68 27.52-12.16 41.6l35.2 5.12-2.56 9.6-33.92-5.12z" fill="#fff"/></g><defs><clipPath id="A"><path fill="#fff" d="M0 0h256v256H0z"/></clipPath></defs></svg>