<svg xmlns="http://www.w3.org/2000/svg" viewBox="0 0 256 256" xmlns:v="https://vecta.io/nano"><g transform="scale(2.56)"><circle cx="50" cy="50" r="50" fill="#00ef8b"/><g fill="#fff"><path d="M57.8 42.2h14.1v14.1H57.8z"/><path d="M43.7 61.6a5.34 5.34 0 0 1-5.3 5.3 5.34 5.34 0 0 1-5.3-5.3 5.34 5.34 0 0 1 5.3-5.3h5.3V42.2h-5.3C27.7 42.2 19 50.9 19 61.6S27.7 81 38.4 81s19.4-8.7 19.4-19.4h0v-5.3H43.7v5.3z"/><path d="M63.1 35.1H79V21H63.1c-10.7 0-19.4 8.7-19.4 19.4v1.8h14.1v-1.8a5.34 5.34 0 0 1 5.3-5.3z"/></g><path d="M57.8 42.2h0-14.1v14.1h14.1z" fill="#16ff99"/></g></svg>