<svg xmlns="http://www.w3.org/2000/svg" viewBox="0 0 32 32" xmlns:v="https://vecta.io/nano"><defs><mask id="A" x="10" y="6" width="93.1" height="20" maskUnits="userSpaceOnUse"><path d="M10,6h93.1V26H10Z" fill="#fff" fill-rule="evenodd"/></mask></defs><circle cx="16" cy="16" r="16" fill="#13b5ec"/><g mask="url(#A)"><path d="M17.2 12.9l3.6-2.1V15zm3.6 9L16 24.7l-4.8-2.8V17l4.8 2.8 4.8-2.8zm-9.6-11.1l3.6 2.1-3.6 2.1zm5.4 3.1l3.6 2.1-3.6 2.1zm-1.2 4.2L11.8 16l3.6-2.1zm4.8-8.3L16 12.2l-4.2-2.4L16 7.3zM10 9.4v13.1l6 3.4 6-3.4V9.4L16 6z" fill="#fff" fill-rule="evenodd"/></g></svg>