<svg xmlns="http://www.w3.org/2000/svg" width="256" height="256" fill="none" xmlns:v="https://vecta.io/nano"><path d="M128 256c70.692 0 128-57.308 128-128S198.692 0 128 0 0 57.308 0 128s57.308 128 128 128z" fill="#000"/><path d="M178.737 158.158c0-11.512-4.803-20.965-14.268-28.117-6.999-5.288-16.78-9.62-32.649-14.481-28.562-8.747-28.562-13.784-28.562-17.838 0-5.603 8.32-13.367 23.928-13.367 9.241 0 24.747 2.319 24.747 17.867h25.985c0-7.329-1.648-14.165-4.765-20.13L194 61.312 175.628 43 154.38 64.187c-7.706-3.766-16.929-5.724-27.185-5.724-9.558 0-18.344 1.837-25.92 5.371L80.381 43.009 62.009 61.321 81.833 81.08c-2.96 5.158-4.551 10.853-4.551 16.651 0 11.512 4.802 20.965 14.267 28.117 6.999 5.287 16.753 9.61 32.621 14.471 28.563 8.739 28.582 13.794 28.582 17.848 0 5.603-8.321 13.367-23.928 13.367-9.242 0-24.747-2.319-24.747-17.866H78.092c0 7.356 1.657 14.211 4.793 20.195L62 194.679l18.372 18.312 21.322-21.253c7.697 3.748 16.892 5.696 27.12 5.696 9.531 0 18.288-1.827 25.846-5.334l20.968 20.9L194 194.688l-19.861-19.796c2.988-5.194 4.598-10.899 4.598-16.734z" fill="#fff"/></svg>