<svg xmlns="http://www.w3.org/2000/svg" width="400" height="400" fill="none" xmlns:v="https://vecta.io/nano"><circle cx="200" cy="200" r="200" fill="#060716"/><g clip-path="url(#C)"><path d="M283.501 119c-18.005 0-37.72 9.821-58.515 29.192-9.812 9.101-18.454 19.012-24.756 26.85l21.155 24.147c6.032-7.568 14.584-17.84 24.576-27.12 18.455-17.299 30.518-20.813 37.45-20.813 25.926 0 46.991 21.804 46.991 48.744 0 26.67-21.065 48.474-46.991 48.744-1.261 0-2.701-.18-4.502-.54 7.562 3.513 15.754 6.036 23.406 6.036 47.532 0 56.894-32.886 57.434-35.229 1.351-6.037 2.161-12.344 2.161-18.831-.09-44.78-35.199-81.18-78.409-81.18z" fill="url(#A)"/><path d="M117.409 281c18.005 0 37.72-9.821 58.515-29.192 9.812-9.101 18.454-19.012 24.756-26.85l-21.155-24.147c-6.032 7.568-14.584 17.84-24.576 27.12-18.455 17.119-30.608 20.813-37.45 20.813-25.926 0-46.991-21.804-46.991-48.744 0-26.67 21.065-48.474 46.991-48.744 1.261 0 2.701.18 4.502.54-7.562-3.513-15.754-6.036-23.406-6.036-47.532-.09-56.894 32.796-57.434 35.229-1.35 6.037-2.16 12.344-2.16 18.831C39 244.6 74.109 281 117.409 281z" fill="url(#B)"/><path fill-rule="evenodd" d="M153.598 172.79c-5.221-5.046-30.607-25.679-54.913-26.4-43.391-1.081-56.084 30.454-57.254 34.509C49.803 145.58 80.77 119.18 117.5 119c29.977 0 60.314 29.463 82.73 56.042l.09-.09 21.155 24.147s12.603 14.867 25.927 27.931c5.221 5.046 30.517 25.408 54.823 26.129 44.561 1.261 56.894-32.076 57.524-34.598-8.192 35.589-39.249 62.079-76.158 62.259-29.978 0-60.315-29.463-82.821-56.042 0 .09-.09.09-.09.18l-21.155-24.147c.09 0-12.513-14.957-25.927-28.021z" fill="#29abe2"/></g><defs><linearGradient id="A" x1="241.357" y1="131.836" x2="352.434" y2="243.73" gradientUnits="userSpaceOnUse"><stop offset=".21" stop-color="#f15a24"/><stop offset=".684" stop-color="#fbb03b"/></linearGradient><linearGradient id="B" x1="159.581" y1="268.182" x2="48.505" y2="156.288" gradientUnits="userSpaceOnUse"><stop offset=".21" stop-color="#ed1e79"/><stop offset=".893" stop-color="#522785"/></linearGradient><clipPath id="C"><path fill="#fff" transform="translate(39 119)" d="M0 0h323v162H0z"/></clipPath></defs></svg>