<svg xmlns="http://www.w3.org/2000/svg" width="256" height="256" fill="none" xmlns:v="https://vecta.io/nano"><g clip-path="url(#B)"><path d="M128 256c70.692 0 128-57.308 128-128S198.692 0 128 0 0 57.308 0 128s57.308 128 128 128z" fill="#17b5cb"/><g clip-path="url(#C)"><mask id="A" maskUnits="userSpaceOnUse" x="41" y="57" width="174" height="141"><path d="M215 57H41V198H215V57Z" fill="#fff"/></mask><g mask="url(#A)"><path d="M196.348 57h18.276l-74.107 84.35c-1.877 2.122-2.002 5.366-.125 7.612l42.687 49.537h-19.028l-39.431-45.918-2.003-2.496c-1.878-2.121-1.753-5.49.125-7.612L196.348 57zm-41.184 91.962c-1.252-1.373-1.627-3.369-1.252-5.116.376-.998 1.002-1.996 1.753-2.745l4.882-5.366L215 198.499h-17.275l-42.561-49.537zm-95.137 49.537H41l58.334-67.256a5.68 5.68 0 0 0 0-7.486L41.501 57h18.276l58.209 67.256c1.502 1.996 1.752 4.866.125 6.738l-58.084 67.505zM91.823 57H74.298l53.952 62.265s.126-.125 6.134-7.238c1.628-1.871 2.003-4.242.125-6.114C123.243 94.434 91.823 57 91.823 57zm52.575 43.423L181.827 57h-17.775l-19.529 22.71-5.633 6.613c-1.877 2.121-2.002 5.366-.125 7.612l5.633 6.489zm-32.546 54.653l-37.429 43.423h17.65l19.528-22.71 5.633-6.613c1.878-2.121 2.003-5.365.126-7.611l-5.508-6.489z" fill="#fff"/></g></g></g><defs><clipPath id="B"><path fill="#fff" d="M0 0h256v256H0z"/></clipPath><clipPath id="C"><path fill="#fff" transform="translate(41 57)" d="M0 0h174v141H0z"/></clipPath></defs></svg>