<svg xmlns="http://www.w3.org/2000/svg" width="256" height="256" fill="none" xmlns:v="https://vecta.io/nano"><path d="M128 256c70.692 0 128-57.308 128-128S198.692 0 128 0 0 57.308 0 128s57.308 128 128 128z" fill="#14151a"/><path d="M63.734 71.507l3.293-3.892c.043-.043.171-.086.214-.128.085-.128.257-.214.385-.342l.086-.128 2.566-2.224c3.421-2.566 6.928-4.533 10.648-5.859 11.974-4.191 25.273-1.625 35.707 8.254 14.582 13.642 13.256 35.667 1.625 50.293-14.711 21.811-39.941 52.218-5.004 79.46 6.287 4.918 10.948 8.938 30.747 14.669-12.957 2.395-24.974 1.625-38.316-1.753-9.45-5.346-24.332-16.765-29.378-32.203-7.655-23.394 13.47-58.419 23.648-71.891 13.984-18.646-8.638-38.831-25.358-16.293-8.638 11.76-23.904 44.991-18.602 69.666 3.079 13.984 7.227 24.163 23.605 38.19-3.036-1.796-5.987-3.806-8.852-6.116-38.016-35.453-33.612-90.279-7.013-119.702z" fill="url(#A)"/><path d="M193.258 183.536l-3.292 3.892c-.043.043-.171.085-.214.128-.086.128-.257.214-.385.342l-.085.129c-.77.727-1.625 1.496-2.566 2.181-3.421 2.566-6.927 4.533-10.647 5.859-11.972 4.191-25.27 1.625-35.703-8.254-14.581-13.643-13.256-35.667-1.625-50.293 14.709-21.811 39.936-52.218 5.003-79.46-6.286-4.918-10.947-8.938-30.744-14.669 12.956-2.395 24.971-1.625 38.312 1.753 9.449 5.346 24.33 16.764 29.375 32.203 7.654 23.394-13.469 58.419-23.646 71.891-13.982 18.646 8.638 38.831 25.356 16.293 8.723-11.76 23.988-44.99 18.686-69.666-3.079-13.984-7.226-24.163-23.603-38.19 3.036 1.796 5.986 3.806 8.851 6.116 37.927 35.496 33.523 90.322 6.927 119.746z" fill="url(#B)"/><defs><linearGradient id="A" x1="42.994" y1="135.03" x2="214.046" y2="135.03" gradientUnits="userSpaceOnUse"><stop stop-color="#0082fa"/><stop offset="1" stop-color="#00f2fe"/></linearGradient><linearGradient id="B" x1="42.961" y1="120.012" x2="213.996" y2="120.012" gradientUnits="userSpaceOnUse"><stop stop-color="#0082fa"/><stop offset="1" stop-color="#00f2fe"/></linearGradient></defs></svg>