<svg xmlns="http://www.w3.org/2000/svg" width="400" height="400" fill="none" xmlns:v="https://vecta.io/nano"><circle cx="200" cy="200" r="200" fill="#fff"/><g fill="#000"><path d="M24.025 133.376l46.051-68.912 11.502 7.65-46.05 68.912-11.502-7.65zm17.254 11.475l46.05-68.912 11.502 7.65-46.051 68.912-11.502-7.65zm17.254 11.475l46.05-68.912 11.502 7.65-46.05 68.912-11.502-7.65zM277.19 301.781l46.051-68.912 11.502 7.65-46.05 68.912-11.503-7.65zm17.254 11.475l46.05-68.912 11.503 7.65-46.051 68.912-11.502-7.65zm17.253 11.475l46.051-68.912 11.502 7.65-46.05 68.912-11.503-7.65z"/><path d="M294.452 263.488l57.537 38.274z"/></g><path d="M294.452 263.488l57.537 38.274" stroke="#fff" stroke-width="12.5"/><path d="M127.593 152.527c12.216-18.28 31.204-30.975 52.787-35.291s43.995.1 62.303 12.277 31.013 31.116 35.321 52.652-.134 43.906-12.35 62.186l-138.061-91.824z" fill="#cd2e3a"/><path d="M127.619 152.507c-12.215 18.279-16.657 40.646-12.35 62.181s17.013 40.472 35.319 52.648 40.716 16.591 62.298 12.275 40.569-17.009 52.784-35.288a41.36 41.36 0 0 0 6.175-31.09c-2.154-10.767-8.507-20.236-17.66-26.324a41.54 41.54 0 0 0-57.541 11.506l-69.025-45.908z" fill="#0047a0"/><path d="M196.626 198.411c12.718-19.031 7.576-44.735-11.484-57.411s-44.82-7.525-57.537 11.505-7.576 44.735 11.484 57.411 44.82 7.525 57.537-11.505z" fill="#cd2e3a"/><g fill="#000"><path d="M70.075 332.382l-46.05-68.912 11.502-7.65 46.05 68.912-11.502 7.65zm17.254-11.475l-46.05-68.912 11.502-7.65 46.051 68.912-11.502 7.65zm17.254-11.475L58.532 240.52l11.502-7.65 46.051 68.912-11.502 7.65zm218.658-145.455L277.19 95.065l11.503-7.65 46.05 68.912-11.502 7.65zm17.253-11.475l-46.05-68.912 11.502-7.65 46.051 68.912-11.503 7.65zm17.254-11.475l-46.051-68.912 11.503-7.65 46.05 68.912-11.502 7.65z"/><path d="M61.425 288.367l17.261-11.482zm233.027-155.009l20.138-13.396zm37.399-24.878l17.261-11.483z"/></g><path d="M61.425 288.367l17.261-11.482m215.766-143.527l20.138-13.396m17.261-11.482l17.261-11.483" stroke="#fff" stroke-width="12.5"/></svg>