<svg xmlns="http://www.w3.org/2000/svg" xmlns:xlink="http://www.w3.org/1999/xlink" width="256" height="256" fill="none" xmlns:v="https://vecta.io/nano"><mask id="A" maskUnits="userSpaceOnUse" x="0" y="0" width="256" height="256"><path d="M128 0c70.656 0 128 57.344 128 128s-57.344 128-128 128S0 198.656 0 128 57.344 0 128 0z" fill="#fff"/></mask><g mask="url(#A)"><path d="M0 0L256 256M256 0L0 256" stroke="#000" stroke-miterlimit="22.9256"/></g><path d="M128 0c70.656 0 128 57.344 128 128s-57.344 128-128 128S0 198.656 0 128 57.344 0 128 0z" fill="url(#C)"/><mask id="B" maskUnits="userSpaceOnUse" x="58" y="118" width="140" height="108"><path d="M127.897 150.733L70.86 118.17l-1.536 2.355c-17.51 26.931-13.619 62.157 9.421 84.787 27.136 26.624 71.168 26.624 98.304 0 23.04-22.63 26.931-57.856 9.421-84.787l-1.536-2.355-57.037 32.563z" fill="#fff"/></mask><g mask="url(#B)"><path d="M127.897 227.328c38.4 0 69.529-31.129 69.529-69.53s-31.129-69.529-69.529-69.529-69.53 31.129-69.53 69.529 31.13 69.53 69.53 69.53z" fill="url(#D)"/></g><path d="M127.897 78.029l-49.152 28.057 49.152 28.058 49.152-28.058-49.152-28.057z" fill="url(#E)"/><path d="M128 85.299L70.86 118.17l57.037 32.563 56.935-32.563L128 85.299z" fill="url(#F)"/><path d="M127.897 30.72l-49.152 75.366 49.152 28.058V30.72z" fill="url(#G)"/><path d="M127.897 134.144l49.152-28.058-49.152-75.366v103.424z" fill="url(#H)"/><defs><linearGradient id="C" x1="128" y1="0" x2="128" y2="256" xlink:href="#I"><stop stop-color="#f89791"/><stop offset="1" stop-color="#f7c882"/></linearGradient><radialGradient id="D" cx="0" cy="0" r="1" gradientTransform="translate(127.765 214.708) rotate(-90.4664) scale(92.8534 110.676)" xlink:href="#I"><stop stop-color="#c5c6ab"/><stop offset="1" stop-color="#7985ab"/></radialGradient><radialGradient id="E" cx="0" cy="0" r="1" gradientTransform="translate(127.897 106.086) scale(2.4576)" xlink:href="#I"><stop stop-color="#06f" stop-opacity="0"/><stop offset="1" stop-color="#00c2ff" stop-opacity=".4"/></radialGradient><radialGradient id="F" cx="0" cy="0" r="1" gradientTransform="translate(127.846 118.016) scale(2.86802)" xlink:href="#I"><stop stop-color="#aee6f9" stop-opacity=".859"/><stop offset="1" stop-color="#c8d6dc"/></radialGradient><linearGradient id="G" x1="103.321" y1="25.6" x2="103.321" y2="128" xlink:href="#I"><stop stop-color="#77d4ff"/><stop offset="1" stop-color="#93d6f2" stop-opacity=".898"/></linearGradient><linearGradient id="H" x1="152.473" y1="25.6" x2="152.473" y2="128" xlink:href="#I"><stop stop-color="#506aac"/><stop offset="1" stop-color="#96cfef" stop-opacity=".82"/></linearGradient><linearGradient id="I" gradientUnits="userSpaceOnUse"/></defs></svg>