<svg xmlns="http://www.w3.org/2000/svg" width="256" height="256" fill="none" xmlns:v="https://vecta.io/nano"><g clip-path="url(#A)"><path d="M128 256c70.692 0 128-57.308 128-128S198.692 0 128 0 0 57.308 0 128s57.308 128 128 128z" fill="#dc2626"/><g fill="#fffdf7"><path d="M216.199 124.8l-25.015-8.545c-9.188-3.152-16.039-10.949-17.951-20.51l-10.57-52.448c-.265-1.335-1.433-2.297-2.814-2.297s-2.55.961-2.816 2.297l-10.568 52.448a27.36 27.36 0 0 1-17.952 20.51l-25.015 8.545c-1.169.374-1.912 1.496-1.912 2.724s.796 2.296 1.912 2.724l25.015 8.545c9.188 3.151 16.04 10.949 17.952 20.509l10.568 52.449c.266 1.335 1.435 2.296 2.816 2.296s2.549-.961 2.814-2.296l10.57-52.449c1.912-9.56 8.763-17.358 17.951-20.509l25.015-8.545c1.169-.374 1.912-1.496 1.912-2.724s-.797-2.297-1.912-2.724zM81.617 76.681l8.817 2.991c3.239 1.122 5.682 3.845 6.32 7.263l3.717 18.534c.107.481.532.801 1.01.801s.902-.32 1.009-.801l3.717-18.534c.691-3.365 3.081-6.142 6.374-7.263l8.817-2.991c.425-.16.69-.535.69-.962s-.265-.801-.69-.962l-8.817-2.991c-3.24-1.121-5.683-3.845-6.374-7.264L102.49 45.97c-.107-.481-.531-.801-1.009-.801s-.903.32-1.01.801l-3.717 18.533c-.69 3.365-3.08 6.142-6.32 7.264l-8.817 2.991c-.425.16-.69.534-.69.962s.266.801.69.962zm20.609 91.01l-11.843-4.005c-4.355-1.495-7.595-5.181-8.498-9.721l-4.993-24.835c-.106-.641-.69-1.069-1.328-1.069s-1.221.428-1.328 1.069l-4.992 24.835c-.903 4.54-4.143 8.226-8.498 9.721l-11.844 4.005c-.531.161-.903.695-.903 1.282s.372 1.122.903 1.282l11.844 4.006c4.355 1.495 7.595 5.181 8.498 9.721l4.992 24.835c.106.641.69 1.068 1.328 1.068s1.168-.481 1.328-1.068l4.993-24.835c.903-4.54 4.143-8.226 8.498-9.721l11.843-4.006c.531-.16.903-.694.903-1.282s-.372-1.121-.903-1.282z"/></g></g><defs><clipPath id="A"><path fill="#fff" d="M0 0h256v256H0z"/></clipPath></defs></svg>