<svg xmlns="http://www.w3.org/2000/svg" width="256" height="256" fill="none" xmlns:v="https://vecta.io/nano"><g clip-path="url(#B)"><path d="M128 256c70.692 0 128-57.308 128-128S198.692 0 128 0 0 57.308 0 128s57.308 128 128 128z" fill="#000"/><path fill-rule="evenodd" d="M66.495 210.482C41.381 191.719 25.122 161.757 25.122 128 25.122 71.185 71.185 25.122 128 25.122c46.907 0 98.108 28.039 110.494 70.94C224.659 48.101 180.44 13 128 13 64.492 13 13 64.492 13 128s51.492 115 115 115 115-51.492 115-115v-6.061h-6.324-.844c-.738 0-1.818-.026-3.188-.079-2.715-.079-6.483-.264-10.699-.632-8.617-.738-18.473-2.214-25.166-4.902-10.778-4.295-16.866-10.014-23.823-16.681l-.395-.395c-6.957-6.693-14.783-14.204-28.355-20.607-13.36-6.298-28.143-5.27-39-3.057-5.508 1.133-10.251 2.635-13.598 3.847-1.686.606-3.03 1.159-3.979 1.555-5.455 2.293-10.778 5.033-16.127 7.537l15.732 4.506c.184.053.474.158.87.29.764.263 1.897.659 3.268 1.212 2.741 1.107 6.351 2.793 9.908 5.086 5.613 3.61 10.277 8.143 12.175 13.729-11.911 1.555-23.085 6.799-31.464 11.727-5.06 2.978-9.276 5.955-12.227 8.195-1.476 1.107-2.662 2.056-3.452 2.715-.685.553-11.437 10.04-11.437 10.04s13.888 1.475 20.739 2.846c4.559.922 10.699 2.398 17.102 4.638 6.43 2.24 12.939 5.191 18.341 8.959s9.381 8.143 11.331 13.124c5.692 14.546.105 28.723-11.12 36.682-11.095 7.905-27.934 9.776-44.772-1.792zm39.239 17.998a47.25 47.25 0 0 0 12.569-6.298c15.258-10.857 23.296-30.726 15.364-50.965-3.11-7.958-9.065-14.045-15.68-18.657s-14.23-8.011-21.292-10.462c-4.638-1.607-9.118-2.872-13.018-3.821 1.397-.896 2.899-1.844 4.48-2.767 9.329-5.481 21.055-10.514 32.307-10.514 16.971 0 29.594 5.191 41.636 10.778 1.107.501 2.188 1.028 3.294 1.555 10.778 5.059 22.083 10.356 35.233 10.356 12.754 0 22.689-3.61 29.541-7.326-6.088 51.017-49.516 90.545-102.167 90.545-7.642 0-15.1-.843-22.267-2.424zm111.363-95.579c-4.533 1.555-10.014 2.662-16.444 2.662-10.303 0-19.184-4.137-30.436-9.381l-3.031-1.397c-11.278-5.218-24.296-10.752-41.267-11.753-2.266-11.226-10.778-18.921-18.077-23.585a49.61 49.61 0 0 0-2.425-1.476l2.24-.501c9.803-2.029 21.503-2.53 31.412 2.135 11.753 5.534 18.394 11.911 25.298 18.526l.237.237c7.115 6.825 14.625 13.966 27.722 19.21 7.247 2.899 16.681 4.454 24.771 5.323z" fill="url(#A)"/></g><defs><linearGradient id="A" x1="10.957" y1="130.148" x2="245.066" y2="125.87" gradientUnits="userSpaceOnUse"><stop stop-color="#29ccb9"/><stop offset=".495" stop-color="#0091ff"/><stop offset="1" stop-color="#ff66b7"/></linearGradient><clipPath id="B"><path fill="#fff" d="M0 0h256v256H0z"/></clipPath></defs></svg>