<svg xmlns="http://www.w3.org/2000/svg" width="400" height="400" fill="none" xmlns:v="https://vecta.io/nano"><g clip-path="url(#A)"><path d="M200 400c110.457 0 200-89.543 200-200S310.457 0 200 0 0 89.543 0 200s89.543 200 200 200z" fill="#f0f0f0"/><path d="M400 200c0-79.292-46.144-147.805-113.044-180.155v360.309C353.856 347.805 400 279.292 400 200z" fill="#ce1126"/><path d="M0 200c0 79.292 46.145 147.805 113.044 180.155V19.845C46.145 52.195 0 120.708 0 200z" fill="#006847"/><path d="M147.826 200c0 28.815 23.359 52.174 52.174 52.174s52.174-23.359 52.174-52.174v-17.392H147.826V200z" fill="#6da544"/><path d="M269.565 165.217h-52.174c0-9.605-7.787-17.391-17.392-17.391s-17.391 7.786-17.391 17.391h-52.174c0 9.606 8.366 17.391 17.97 17.391h-.579c0 9.606 7.786 17.392 17.391 17.392 0 9.605 7.786 17.391 17.392 17.391h34.783c9.605 0 17.391-7.786 17.391-17.391 9.605 0 17.391-7.786 17.391-17.392h-.579c9.605 0 17.971-7.785 17.971-17.391z" fill="#ff9811"/></g><defs><clipPath id="A"><path fill="#fff" d="M0 0h400v400H0z"/></clipPath></defs></svg>