<svg xmlns="http://www.w3.org/2000/svg" width="400" height="400" fill="none" xmlns:v="https://vecta.io/nano"><circle cx="200" cy="200" r="200" fill="#141414"/><g clip-path="url(#A)"><path d="M266.293 101.244l-45.905 68.2c-3.174 4.645 2.931 10.267 7.326 6.356l45.172-39.356c1.221-.977 2.93-.244 2.93 1.467v122.956c0 1.711-2.198 2.444-3.174 1.222L135.905 98.311C131.509 92.933 125.161 90 118.08 90h-4.884C100.499 90 90 100.511 90 113.467v173.066C90 299.489 100.499 310 113.441 310c8.057 0 15.627-4.156 20.022-11.244l45.904-68.2c3.175-4.645-2.93-10.267-7.325-6.356l-45.172 39.111c-1.221.978-2.93.245-2.93-1.467V139.133c0-1.711 2.198-2.444 3.174-1.222l136.737 163.778c4.395 5.378 10.988 8.311 17.825 8.311h4.883C299.501 310 310 299.489 310 286.533V113.467C310 100.511 299.501 90 286.559 90c-8.302 0-15.871 4.156-20.266 11.244z" fill="#fff"/></g><defs><clipPath id="A"><path fill="#fff" transform="translate(90 90)" d="M0 0h220v220H0z"/></clipPath></defs></svg>