<svg xmlns="http://www.w3.org/2000/svg" width="256" height="256" fill="none" xmlns:v="https://vecta.io/nano"><g clip-path="url(#A)"><path d="M128 256c70.692 0 128-57.308 128-128S198.692 0 128 0 0 57.308 0 128s57.308 128 128 128z" fill="#ff0420"/><path d="M74.143 175c-10.328 0-18.784-2.436-25.369-7.305C42.258 162.754 39 155.658 39 146.542c0-1.947.208-4.244.624-7.027 1.109-6.262 2.703-13.776 4.783-22.613C50.298 92.968 65.548 81 90.085 81c6.654 0 12.685 1.113 17.953 3.409 5.268 2.157 9.426 5.497 12.476 9.95 3.051 4.383 4.576 9.602 4.576 15.655 0 1.809-.209 4.105-.625 6.888-1.316 7.724-2.841 15.307-4.713 22.613-3.05 11.898-8.248 20.873-15.734 26.787-7.417 5.845-17.4 8.698-29.876 8.698zm1.872-18.786c4.852 0 8.942-1.461 12.338-4.314 3.466-2.853 5.961-7.236 7.417-13.219 2.01-8.211 3.535-15.308 4.574-21.431.347-1.809.555-3.688.555-5.635 0-7.932-4.09-11.898-12.338-11.898-4.852 0-9.011 1.46-12.477 4.313-3.396 2.853-5.822 7.236-7.278 13.22-1.594 5.845-3.119 12.942-4.713 21.431-.347 1.738-.555 3.548-.555 5.496-.069 8.071 4.159 12.037 12.477 12.037zm55.105 17.534c-.97 0-1.663-.279-2.218-.905-.415-.696-.554-1.461-.415-2.366l17.952-84.884c.139-.974.624-1.74 1.455-2.365a3.81 3.81 0 0 1 2.496-.905h34.588c9.635 0 17.329 2.018 23.151 5.984 5.892 4.036 8.872 9.811 8.872 17.395 0 2.157-.277 4.453-.762 6.818-2.148 10.02-6.516 17.395-13.17 22.196-6.515 4.801-15.457 7.167-26.824 7.167h-17.537l-5.961 28.596c-.208.974-.624 1.74-1.456 2.366-.762.626-1.594.905-2.495.905h-17.676v-.001zm46.025-49.888c3.674 0 6.793-.974 9.497-2.992 2.772-2.017 4.574-4.87 5.475-8.628.277-1.46.416-2.783.416-3.896 0-2.504-.762-4.453-2.217-5.774-1.457-1.392-4.021-2.088-7.556-2.088h-15.596l-4.921 23.379 14.902-.001z" fill="#fff"/></g><defs><clipPath id="A"><path fill="#fff" d="M0 0h256v256H0z"/></clipPath></defs></svg>