<svg xmlns="http://www.w3.org/2000/svg" width="256" height="256" fill="none" xmlns:v="https://vecta.io/nano"><g clip-path="url(#A)"><path d="M128 256c70.692 0 128-57.308 128-128S198.692 0 128 0 0 57.308 0 128s57.308 128 128 128z" fill="#e6dafe"/><g clip-path="url(#B)" fill="#110f23"><path d="M145.124 126.799c0 9.222-7.444 16.7-16.625 16.7v16.7c18.362 0 33.25-14.955 33.25-33.4s-14.888-33.401-33.25-33.401a32.93 32.93 0 0 0-16.625 4.472c-9.94 5.771-16.625 16.564-16.625 28.929V210.3l14.948 15.015 1.677 1.685V126.799c0-9.223 7.444-16.7 16.625-16.7s16.625 7.477 16.625 16.7zM128.5 60a65.93 65.93 0 0 0-33.25 8.943c-6.264 3.633-11.873 8.263-16.625 13.679C68.279 94.397 62 109.866 62 126.801v50.1l16.625 16.7v-66.8A50.08 50.08 0 0 1 95.25 89.458c4.797-4.305 10.429-7.704 16.625-9.895A49.3 49.3 0 0 1 128.5 76.7c27.543 0 49.875 22.433 49.875 50.101s-22.332 50.1-49.875 50.1v16.7c36.731 0 66.5-29.91 66.5-66.8S165.231 60 128.5 60z"/></g></g><defs><clipPath id="A"><path fill="#fff" d="M0 0h256v256H0z"/></clipPath><clipPath id="B"><path fill="#fff" transform="translate(62 60)" d="M0 0h133v167H0z"/></clipPath></defs></svg>