<svg xmlns="http://www.w3.org/2000/svg" width="256" height="256" fill="none" xmlns:v="https://vecta.io/nano"><g fill-rule="evenodd"><path d="M128 0c70.656 0 128 57.344 128 128s-57.344 128-128 128S0 198.656 0 128 57.344 0 128 0z" fill="#cf1011"/><path d="M128.198 98.05c16.691 0 30.31 13.516 30.31 30.31 0 16.691-13.516 30.31-30.31 30.31-16.691 0-30.31-13.516-30.31-30.31 0-16.691 13.516-30.31 30.31-30.31zm.717-48.948c9.523.102 18.944 1.946 27.75 5.325s16.999 8.294 24.167 14.643l.205.205c16.281 14.541 25.19 34.202 26.316 54.375 1.229 20.275-5.324 40.96-19.763 57.344l-.205.204c-14.54 16.282-34.201 25.191-54.374 26.317-20.275 1.229-40.96-5.325-57.344-19.763-16.384-14.541-25.395-34.304-26.522-54.579-1.229-20.275 5.325-40.96 19.763-57.344l6.861 6.042c-12.8 14.438-18.534 32.768-17.51 50.688 1.126 17.92 9.011 35.431 23.45 48.231s32.768 18.534 50.688 17.51c17.92-1.126 35.43-9.011 48.23-23.449l.205-.205c12.697-14.439 18.432-32.666 17.305-50.483-1.126-17.92-9.011-35.431-23.449-48.231l-.205-.205c-6.246-5.53-13.414-9.83-21.094-12.8-7.783-2.97-16.077-4.608-24.474-4.71l.102-9.216-.102.102z" fill="#fff"/></g><path d="M83.142 49.615c5.53 0 10.445 2.253 14.029 5.837s5.837 8.602 5.837 14.029c0 5.53-2.253 10.445-5.837 14.029s-8.602 5.837-14.029 5.837c-5.53 0-10.445-2.253-14.029-5.837s-5.837-8.602-5.837-14.029c0-5.53 2.253-10.445 5.837-14.029s8.602-5.837 14.029-5.837zm7.578 12.39c-1.946-1.946-4.608-3.174-7.578-3.174s-5.632 1.229-7.578 3.174-3.174 4.608-3.174 7.578 1.229 5.632 3.174 7.578 4.608 3.174 7.578 3.174 5.632-1.229 7.578-3.174 3.174-4.608 3.174-7.578-1.229-5.632-3.174-7.578z" fill="#fff"/></svg>