<svg xmlns="http://www.w3.org/2000/svg" width="256" height="256" fill="none" xmlns:v="https://vecta.io/nano"><g clip-path="url(#A)"><path d="M127 255c70.14 0 127-56.86 127-127S197.14 1 127 1 0 57.86 0 128s56.86 127 127 127z" fill="#fff"/><path fill-rule="evenodd" d="M127.738 255.835c37.961 0 72.203-16.442 95.701-42.63-10.882-9.47-27.383-10.074-39.063-.631l-2.176 1.867c-21.322 17.211-52.423 14.576-70.632-5.738-9.972-11.172-26.914-12.242-38.291-2.47l-25.674 21.85C69.53 245.596 97.408 256 127.738 256v-.165zm41.57-61.872c20.22-16.278 48.869-15.647 68.318 0C249.306 174.748 256 152.101 256 127.918c0-26.819-8.237-51.799-22.396-72.249-9.174-2.004-18.981.302-26.611 6.972l-2.176 1.867c-20.551 18.145-51.652 17.047-70.798-2.471-10.413-10.705-27.547-11.007-38.429-.769l-29.916 27.89-16.336-17.376 29.889-27.917c20.385-19.078 52.285-18.446 71.899 1.4 10.275 10.376 26.914 11.007 37.823 1.4l2.176-1.867c6.694-5.902 14.325-9.772 22.397-11.941C190.767 12.408 160.575 0 127.601 0 62.395 0 8.567 48.367.303 111.008c19.752-9.47 44.186-5.901 60.384 10.706 10.11 10.376 26.611 11.474 38.126 2.47l16.639-13.011c21.019-16.278 50.577-15.509 70.632 1.867l32.534 28.218-15.702 17.98-32.534-28.218c-11.35-9.937-28.319-10.377-40.137-1.098l-16.639 13.011c-21.156 16.443-51.183 14.411-70.026-4.639-10.909-11.145-28.65-11.474-39.999-.906L0 140.792c2.645 26.654 13.691 51.002 30.33 70.245l27.382-23.415c21.322-18.145 53.222-15.976 71.734 4.803 9.807 10.843 26.308 12.243 37.658 3.102l2.176-1.866v.302h.028z" fill="#7b230a"/></g><defs><clipPath id="A"><path fill="#fff" d="M0 0h256v256H0z"/></clipPath></defs></svg>