<svg xmlns="http://www.w3.org/2000/svg" width="400" height="400" fill="none" xmlns:v="https://vecta.io/nano"><mask id="A" maskUnits="userSpaceOnUse" x="0" y="0" width="400" height="400" mask-type="alpha"><path d="M200 400c110.457 0 200-89.543 200-200S310.457 0 200 0 0 89.543 0 200s89.543 200 200 200z" fill="#d9d9d9"/></mask><g mask="url(#A)"><path d="M0 0H600V400H0V0Z" fill="#fff"/><path d="M0 0H600V200H0V0Z" fill="#ed2939"/><path d="M183.611 176.222c40.654 0 73.611-32.957 73.611-73.611S224.265 29 183.611 29 110 61.957 110 102.611s32.957 73.611 73.611 73.611z" fill="#fff"/><path d="M216.944 176.222c40.655 0 73.611-32.957 73.611-73.611S257.599 29 216.944 29s-73.611 32.957-73.611 73.611 32.957 73.611 73.611 73.611z" fill="#ed2939"/><path d="M223.889 41.223l-11.266 34.673 29.495-21.429H205.66l29.495 21.429-11.266-34.673zm58.384 42.418h-36.457l29.494 21.429-11.265-34.672-11.266 34.673 29.494-21.429zm-94.468 68.635l29.495-21.429h-36.457l29.494 21.429-11.266-34.673-11.266 34.673zm72.167 0l-11.266-34.673-11.265 34.673 29.494-21.429h-36.457l29.494 21.429zm-94.467-68.635l29.494 21.429-11.266-34.672-11.266 34.673 29.495-21.429h-36.457z" fill="#fff"/></g></svg>