<svg xmlns="http://www.w3.org/2000/svg" width="400" height="400" fill="none" xmlns:v="https://vecta.io/nano"><circle cx="200" cy="200" r="200" fill="#0f1a38"/><g clip-path="url(#D)"><path d="M111.558 253.463a8.58 8.58 0 0 1 6.061-2.499h209.099c3.821 0 5.731 4.604 3.03 7.3l-41.306 41.237a8.58 8.58 0 0 1-6.06 2.499h-209.1c-3.821 0-5.731-4.604-3.03-7.3l41.306-41.237z" fill="url(#A)"/><path d="M111.558 99.499c1.647-1.578 3.821-2.499 6.061-2.499h209.099c3.821 0 5.731 4.604 3.03 7.3l-41.306 41.237a8.58 8.58 0 0 1-6.06 2.499h-209.1c-3.821 0-5.731-4.604-3.03-7.3l41.306-41.237z" fill="url(#B)"/><path d="M288.442 175.988c-1.581-1.579-3.755-2.499-6.06-2.499h-209.1c-3.821 0-5.731 4.603-3.03 7.3l41.306 41.237a8.58 8.58 0 0 0 6.061 2.499h209.099c3.821 0 5.731-4.604 3.03-7.301l-41.306-41.236z" fill="url(#C)"/></g><defs><linearGradient id="A" x1="306.743" y1="72.366" x2="162.411" y2="349.285" gradientUnits="userSpaceOnUse"><stop stop-color="#00ffa3"/><stop offset="1" stop-color="#dc1fff"/></linearGradient><linearGradient id="B" x1="243.466" y1="39.386" x2="99.134" y2="316.304" gradientUnits="userSpaceOnUse"><stop stop-color="#00ffa3"/><stop offset="1" stop-color="#dc1fff"/></linearGradient><linearGradient id="C" x1="274.903" y1="55.771" x2="130.571" y2="332.689" gradientUnits="userSpaceOnUse"><stop stop-color="#00ffa3"/><stop offset="1" stop-color="#dc1fff"/></linearGradient><clipPath id="D"><path fill="#fff" transform="translate(69 97)" d="M0 0h262v205H0z"/></clipPath></defs></svg>