<svg xmlns="http://www.w3.org/2000/svg" width="400" height="400" fill="none" xmlns:v="https://vecta.io/nano"><circle cx="200" cy="200" r="200" fill="#ff060a"/><g clip-path="url(#A)"><path d="M339.396 166.446c-12.984-11.989-30.946-30.297-45.575-43.281l-.866-.606c-1.44-1.156-3.064-2.064-4.804-2.683L85.508 83a6.06 6.06 0 0 0-2.51.952l-.822.649a9.65 9.65 0 0 0-2.251 3.636l-.216.563v3.073.476C98.19 143.81 171.162 312.391 185.531 351.95c.866 2.683 2.51 7.79 5.583 8.05h.693c1.645 0 8.656-9.262 8.656-9.262l138.024-168.191a40.88 40.88 0 0 0 4.328-6.406 10.43 10.43 0 0 0-.432-5.298c-.599-1.699-1.628-3.214-2.987-4.397zm-106.775 17.702l53.496-44.363 31.379 28.912-84.875 15.451zm-20.775-2.9l-92.102-75.482 149.017 27.484-56.915 47.998zm8.31 19.78l94.267-15.192L206.652 315.68l13.504-114.652zm-112.921-87.731l96.907 82.234-14.023 120.236-82.884-202.47z" fill="#fff"/></g><defs><clipPath id="A"><path fill="#fff" transform="translate(73 83)" d="M0 0h277v277H0z"/></clipPath></defs></svg>