<svg xmlns="http://www.w3.org/2000/svg" width="256" height="256" fill="none" xmlns:v="https://vecta.io/nano"><g clip-path="url(#A)"><path d="M128 256c70.692 0 128-57.308 128-128S198.692 0 128 0 0 57.308 0 128s57.308 128 128 128z" fill="#ff4a4a"/><g clip-path="url(#B)" fill="#fff"><path d="M156.439 153h-8.556c-1.584 0-2.931-1.279-2.931-2.958V127.34l-14.971 9.433a3.84 3.84 0 0 1-4.12 0l-14.892-9.433v22.702c0 1.599-1.268 2.958-2.931 2.958h-8.476c-1.584 0-2.931-1.279-2.931-2.958v-43.805c0-2.159 1.743-3.917 3.881-3.917.793 0 1.506.24 2.139.719l23.607 16.387a2.71 2.71 0 0 0 3.247 0l23.607-16.387c1.742-1.199 4.198-.719 5.386 1.039.476.64.634 1.439.713 2.159v43.805c.079 1.599-1.188 2.958-2.772 2.958zm-72.562-.08H30.803c-2.139 0-3.882-1.759-3.882-3.917v-44.045C27 103.279 28.268 102 29.931 102h8.555c1.584 0 2.931 1.279 2.931 2.958v33.493h32.162v-33.493c0-1.599 1.267-2.958 2.931-2.958h8.318c1.584 0 2.931 1.279 2.931 2.958v44.045c0 2.158-1.743 3.917-3.882 3.917zM172.123 102h53.074c2.139 0 3.882 1.759 3.882 3.917v44.045c0 1.599-1.268 2.958-2.852 2.958h-8.555c-1.585 0-2.931-1.279-2.931-2.958v-31.575a1.94 1.94 0 0 0-1.901-1.918h-28.28a1.94 1.94 0 0 0-1.902 1.918v31.575c0 1.599-1.267 2.958-2.931 2.958h-8.555c-1.584 0-2.931-1.279-2.931-2.958v-44.045c0-2.158 1.743-3.917 3.882-3.917zm22.26 23.741h8.476c1.585 0 2.931 1.279 2.931 2.958v8.713c0 1.599-1.267 2.958-2.931 2.958h-8.476c-1.584 0-2.931-1.279-2.931-2.958v-8.793c0-1.599 1.347-2.878 2.931-2.878z"/></g></g><defs><clipPath id="A"><path fill="#fff" d="M0 0h256v256H0z"/></clipPath><clipPath id="B"><path fill="#fff" transform="translate(27 102)" d="M0 0h202v51H0z"/></clipPath></defs></svg>