<svg xmlns="http://www.w3.org/2000/svg" width="400" height="400" fill="none" xmlns:v="https://vecta.io/nano"><mask id="A" maskUnits="userSpaceOnUse" x="0" y="0" width="400" height="400" mask-type="alpha"><path d="M200 400c110.457 0 200-89.543 200-200S310.457 0 200 0 0 89.543 0 200s89.543 200 200 200z" fill="#f0f0f0"/></mask><g mask="url(#A)"><path d="M200 400c110.457 0 200-89.543 200-200S310.457 0 200 0 0 89.543 0 200s89.543 200 200 200z" fill="#fff"/><path d="M238 240h427c0-27.679-4.923-54.493-14.097-80H238v80zm0-160h229.556c-15.671-30.633-35.708-57.709-59.07-80H238v80zm-341.982 320h607.964c17.509-24.592 31.088-51.473 40.018-80h-688c8.93 28.527 22.509 55.408 40.018 80z" fill="#d80027"/><path d="M93.069 12.164h24.605L94.787 28.791l8.742 26.904-22.885-16.627-22.886 16.627 7.552-23.242C45.159 49.239 27.497 68.904 12.942 90.817h7.884L6.258 101.4c-2.27 3.787-4.447 7.633-6.533 11.537l6.957 21.411-12.979-9.43c-3.226 6.835-6.177 13.825-8.83 20.96l7.664 23.591h28.289l-22.887 16.627L6.682 213l-22.886-16.627-13.709 9.96A272.62 272.62 0 0 0-32 240h270V-30c-53.338 0-103.059 15.472-144.931 42.164zM103.529 213l-22.885-16.627L57.758 213l8.742-26.904-22.887-16.627h28.289l8.741-26.904 8.741 26.904h28.289l-22.887 16.627L103.529 213zm-8.742-105.556l8.742 26.904-22.885-16.627-22.886 16.627 8.742-26.904-22.887-16.627h28.289l8.741-26.904 8.741 26.904h28.289l-22.887 16.627zM200.377 213l-22.885-16.627L154.606 213l8.742-26.904-22.887-16.627h28.289l8.742-26.904 8.741 26.904h28.289l-22.887 16.627L200.377 213zm-8.742-105.556l8.742 26.904-22.885-16.627-22.886 16.627 8.742-26.904-22.887-16.627h28.289l8.742-26.904 8.741 26.904h28.289l-22.887 16.627zm0-78.653l8.742 26.904-22.885-16.627-22.886 16.627 8.742-26.904-22.887-16.627h28.289l8.742-26.904 8.741 26.904h28.289l-22.887 16.627z" fill="#0052b4"/></g></svg>