<svg xmlns="http://www.w3.org/2000/svg" width="256" height="256" fill="none" xmlns:v="https://vecta.io/nano"><path d="M128.5 252c68.759 0 124.5-55.741 124.5-124.5S197.259 3 128.5 3 4 58.741 4 127.5 59.741 252 128.5 252z" fill="#fff"/><path d="M245.723 78.253a128.33 128.33 0 0 0-27.474-40.692c-11.84-11.85-25.243-21.017-40.433-27.5C161.954 3.354 145.201 0 128 0c-17.423 0-34.179 3.354-49.816 10.061a128.22 128.22 0 0 0-40.655 27.501 128.34 128.34 0 0 0-27.477 40.692C3.349 93.904 0 110.672 0 128.112c0 17.216 3.349 33.984 10.051 49.858a128.34 128.34 0 0 0 27.477 40.692c11.84 11.85 25.466 21.016 40.655 27.277C94.047 252.646 110.799 256 128 256s33.954-3.354 49.816-10.061c15.19-6.484 28.816-15.651 40.656-27.501a128.33 128.33 0 0 0 27.477-40.691C252.651 161.872 256 145.104 256 127.888s-3.575-33.984-10.277-49.635zM85.556 116.038c5.138-20.569 23.902-35.549 46.019-35.549h88.908c5.806 10.955 9.381 23.029 10.722 35.549H85.556zm145.649 24.147c-1.341 12.521-5.139 24.594-10.722 35.55h-88.908c-22.117 0-40.658-15.204-46.019-35.55h145.649zM54.507 54.554C74.164 34.879 100.3 24.147 128 24.147s53.836 10.732 73.493 30.407l1.789 1.789h-71.707c-19.212 0-37.084 7.378-50.709 21.017-10.721 10.732-17.649 24.147-19.883 38.679H24.795c2.682-23.252 12.956-44.716 29.711-61.484zM128 232.077c-27.7 0-53.836-10.732-73.493-30.407-16.756-16.769-27.029-38.456-29.711-61.485h36.188c2.459 14.533 9.384 27.948 19.883 38.68 13.626 13.638 31.498 21.016 50.709 21.016h71.707l-1.789 1.789C181.836 221.345 155.7 232.077 128 232.077z" fill="#000"/></svg>