<svg xmlns="http://www.w3.org/2000/svg" width="400" height="400" fill="none" xmlns:v="https://vecta.io/nano"><circle cx="200" cy="200" r="200" fill="#000"/><path d="M298.296 114.473l-33.128 16.883-159.971 81.508a96.12 96.12 0 0 1-.815-12.447c.022-16.608 4.381-32.922 12.645-47.326a95.31 95.31 0 0 1 34.471-34.796 95.27 95.27 0 0 1 47.194-13.077 95.28 95.28 0 0 1 47.456 12.096l18.962-9.665 2.828-1.444a116.38 116.38 0 0 0-59.286-21.849 116.37 116.37 0 0 0-61.964 12.351 116.41 116.41 0 0 0-46.385 42.914 116.47 116.47 0 0 0-17.141 60.832c0 2.965.112 5.919.337 8.861a21.18 21.18 0 0 1-11.501 20.47l-9.999 5.1v23.789l29.438-15.009 9.533-4.868 9.394-4.785 168.643-85.956 18.95-9.653 39.169-19.969V94.655l-38.831 19.818zm38.831 27.759L119.945 252.85l-18.95 9.676L62 282.402v23.765l38.727-19.736 33.128-16.884 160.134-81.624c.541 4.154.813 8.339.815 12.529-.011 16.627-4.368 32.962-12.64 47.384s-20.172 26.428-34.517 34.828-30.636 12.899-47.257 13.054-32.994-4.043-47.492-12.175l-1.164.617-20.556 10.48c17.366 12.612 37.88 20.176 59.274 21.856a116.37 116.37 0 0 0 61.959-12.334c19.121-9.746 35.176-24.591 46.392-42.893s17.156-39.35 17.163-60.817a120.21 120.21 0 0 0-.338-8.943c-.315-4.165.608-8.33 2.652-11.972s5.118-6.598 8.837-8.498l10.01-5.1v-23.707z" fill="#fff"/></svg>