<svg xmlns="http://www.w3.org/2000/svg" width="238" height="238" fill="none" xmlns:v="https://vecta.io/nano"><path d="M118.9 237.8c65.667 0 118.9-53.233 118.9-118.9S184.567 0 118.9 0 0 53.233 0 118.9s53.233 118.9 118.9 118.9z" fill="#23282f"/><path d="M171.8 55.7h21.6l-45 45.5a41.35 41.35 0 0 1-59 0l-45-45.5H66l34.2 34.6c10.1 10.3 26.8 10.4 37.1.3l.3-.3 34.2-34.6zm-106 126.5H44.2l45.3-45.8a41.35 41.35 0 0 1 59 0l45.3 45.8h-21.6l-34.4-34.8c-10.1-10.3-26.8-10.4-37.1-.3l-.3.3-34.6 34.8z" fill="#fff"/></svg>