<svg xmlns="http://www.w3.org/2000/svg" width="400" height="400" fill="none" xmlns:v="https://vecta.io/nano"><circle cx="200" cy="200" r="200" fill="#2c7df7"/><g clip-path="url(#A)"><path d="M225.482 342c-19.628 0-33.954-4.727-42.979-14.18a43.78 43.78 0 0 1-13.494-30.555c-.101-3.515.713-6.995 2.364-10.099 1.54-2.683 3.764-4.908 6.446-6.45a22.49 22.49 0 0 1 10.035-2.363c3.483 0 6.919.809 10.036 2.363 2.677 1.536 4.891 3.764 6.409 6.45 1.699 3.089 2.544 6.575 2.449 10.099.175 4.208-1.032 8.358-3.438 11.816-2.005 2.823-4.872 4.919-8.169 5.977a22.31 22.31 0 0 0 12.893 8.036c5.713 1.658 11.629 2.511 17.578 2.534a39.19 39.19 0 0 0 22.134-6.617c6.79-4.796 11.854-11.652 14.441-19.551a84.91 84.91 0 0 0 4.727-29.26 80.27 80.27 0 0 0-5.157-30.423 37.55 37.55 0 0 0-14.914-18.906c-6.424-4.065-13.882-6.198-21.485-6.144-6.625.561-13.013 2.729-18.61 6.316l-13.8 6.917v-6.917l62.018-83.178h-85.957v86.315a30.88 30.88 0 0 0 4.728 17.66 16.29 16.29 0 0 0 14.44 6.917 24.15 24.15 0 0 0 14.268-5.027c4.641-3.4 8.68-7.554 11.949-12.289a4.29 4.29 0 0 1 1.554-2.062c.575-.497 1.311-.772 2.072-.773a7.17 7.17 0 0 1 4.04 1.718 8.6 8.6 0 0 1 2.191 5.843 34.17 34.17 0 0 1-.773 4.297 41.61 41.61 0 0 1-14.743 18.299 36.58 36.58 0 0 1-20.679 6.28c-18.61 0-31.502-3.667-38.677-11-3.688-4.053-6.531-8.801-8.361-13.966a41.2 41.2 0 0 1-2.298-16.113v-86.099H95v-16.038h43.923V85.261L128.867 75.2V67h29.181l10.961 5.673v49.154l113.547-.345 11.305 11.344-69.625 69.948a46.76 46.76 0 0 1 13.15-3.18 57.01 57.01 0 0 1 25.448 7.262 52.26 52.26 0 0 1 21.92 19.558 69.01 69.01 0 0 1 9.886 23.59c1.476 6.634 2.268 13.402 2.363 20.197.046 12.969-2.895 25.775-8.595 37.425a54.89 54.89 0 0 1-25.788 25.782c-11.55 5.69-24.261 8.631-37.138 8.592z" fill="#fff"/></g><defs><clipPath id="A"><path fill="#fff" transform="translate(95 67)" d="M0 0h202v275H0z"/></clipPath></defs></svg>