<svg xmlns="http://www.w3.org/2000/svg" width="256" height="256" fill="none" xmlns:v="https://vecta.io/nano"><g clip-path="url(#A)"><path d="M128 256c70.692 0 128-57.308 128-128S198.692 0 128 0 0 57.308 0 128s57.308 128 128 128z" fill="#151832"/><g clip-path="url(#B)"><path d="M184.997 114.115l-23.033 10.272-61.103 31.108 61.103 29.384v-48.57l23.033-10.382v71.755l-23.033 10.271-89.967-43.067v-22.891l62.277-30.558-62.277-29.934V58.282l23.4-10.272 89.6 43.141v22.964z" fill="#49c1bf"/><path d="M71.997 58.282l89.967 43.14 23.033-10.271-89.6-43.141-23.4 10.272z" fill="#077a8f"/><path d="M161.966 101.325l23.033-10.272v22.965l-23.033 10.271v-22.964z" fill="#298e97"/><path d="M71.997 58.302v23.221l62.277 29.935-62.277 30.558v22.891l89.967 43.067v-23.038l-61.103-29.421 61.103-31.108v-22.964L71.997 58.302z" fill="#49c1bf"/><path d="M161.966 207.802l23.033-10.271v-71.754l-23.033 10.381v71.644z" fill="#298e97"/></g></g><defs><clipPath id="A"><path fill="#fff" d="M0 0h256v256H0z"/></clipPath><clipPath id="B"><path fill="#fff" transform="translate(72 48)" d="M0 0h113v160H0z"/></clipPath></defs></svg>