<svg width="317" height="152" viewBox="0 0 317 152" fill="none" xmlns="http://www.w3.org/2000/svg">
<mask id="mask0_3778_17556" style="mask-type:alpha" maskUnits="userSpaceOnUse" x="-7" y="0" width="344" height="156">
<rect x="-6.60376" width="343" height="156" fill="url(#paint0_radial_3778_17556)"/>
</mask>
<g mask="url(#mask0_3778_17556)">
<g filter="url(#filter0_f_3778_17556)">
<path d="M159.112 43.0358L159.055 43L132.736 59.4366V89.148L137.006 86.4958V61.8078L159.055 48.0221L181.103 61.8078V86.4958L185.374 89.148V59.4366L159.112 43.0358Z" fill="#79A482"/>
<path d="M158.557 52.9512L141.028 63.7497V83.6243L145.529 80.8208V66.2786L158.557 58.3474L171.586 66.2786V80.8208L176.086 83.6243V63.7497L158.613 52.9861L158.557 52.9512Z" fill="#79A482"/>
<path d="M149.695 68.484L149.642 68.5155L149.67 78.2424L154.186 75.4299V71.1035L158.556 68.4741L162.926 71.1035V75.4299L167.443 78.2424L167.47 68.5155L158.556 63.1973L149.695 68.484Z" fill="#79A482"/>
</g>
<path d="M159.112 43.0358L159.055 43L132.736 59.4366V89.148L137.006 86.4958V61.8078L159.055 48.0221L181.103 61.8078V86.4958L185.374 89.148V59.4366L159.112 43.0358Z" fill="#FFF7D8"/>
<path d="M158.557 52.9512L141.028 63.7497V83.6243L145.529 80.8208V66.2786L158.557 58.3474L171.586 66.2786V80.8208L176.086 83.6243V63.7497L158.613 52.9861L158.557 52.9512Z" fill="#FFF7D8"/>
<path d="M149.695 68.484L149.642 68.5155L149.67 78.2424L154.186 75.4299V71.1035L158.556 68.4741L162.926 71.1035V75.4299L167.443 78.2424L167.47 68.5155L158.556 63.1973L149.695 68.484Z" fill="#FFF7D8"/>
<g filter="url(#filter1_f_3778_17556)">
<path d="M211.858 22.7563L159.547 7.05365C158.816 6.83368 158.034 6.83368 157.302 7.05365L104.99 22.7563C103.338 23.2523 102.206 24.7743 102.206 26.5007V84.0769C102.206 91.5657 105.236 99.2318 111.211 106.862C115.775 112.69 122.089 118.541 129.978 124.255C143.23 133.853 156.279 139.741 156.828 139.987C157.336 140.215 157.88 140.329 158.424 140.329C158.968 140.329 159.513 140.215 160.021 139.987C160.57 139.741 173.619 133.853 186.871 124.255C194.759 118.541 201.073 112.69 205.637 106.862C211.612 99.232 214.642 91.566 214.642 84.0769V26.5007C214.643 24.7743 213.511 23.2523 211.858 22.7563ZM206.828 84.0769C206.828 97.3302 193.538 109.757 182.389 117.849C172.394 125.103 162.257 130.25 158.425 132.099C154.592 130.25 144.455 125.103 134.46 117.849C123.31 109.757 110.02 97.3302 110.02 84.0769V29.4093L158.424 14.8794L206.828 29.4093V84.0769Z" fill="#79A482"/>
</g>
<path d="M212.499 22.7563L160.049 7.05365C159.316 6.83368 158.533 6.83368 157.798 7.05365L105.348 22.7563C103.691 23.2523 102.556 24.7743 102.556 26.5007V84.0769C102.556 91.5657 105.594 99.2318 111.586 106.862C116.162 112.69 122.492 118.541 130.402 124.255C143.689 133.853 156.772 139.741 157.323 139.987C157.832 140.215 158.378 140.329 158.923 140.329C159.469 140.329 160.015 140.215 160.524 139.987C161.075 139.741 174.158 133.853 187.445 124.255C195.354 118.541 201.685 112.69 206.261 106.862C212.252 99.232 215.29 91.566 215.29 84.0769V26.5007C215.29 24.7743 214.156 23.2523 212.499 22.7563ZM207.456 84.0769C207.456 97.3302 194.13 109.757 182.952 117.849C172.93 125.103 162.766 130.25 158.924 132.099C155.081 130.25 144.917 125.103 134.895 117.849C123.717 109.757 110.391 97.3302 110.391 84.0769V29.4093L158.923 14.8794L207.456 29.4093V84.0769Z" fill="#99EDAC"/>
<g filter="url(#filter2_f_3778_17556)">
<path d="M303.874 68.9848L273.024 59.7242C272.592 59.5945 272.131 59.5945 271.699 59.7242L240.849 68.9848C239.874 69.2773 239.207 70.1749 239.207 71.193V105.148C239.207 109.565 240.994 114.086 244.518 118.586C247.209 122.022 250.933 125.473 255.585 128.843C263.4 134.504 271.096 137.976 271.42 138.121C271.719 138.255 272.04 138.322 272.361 138.322C272.682 138.322 273.003 138.255 273.303 138.121C273.627 137.976 281.322 134.504 289.137 128.843C293.79 125.473 297.513 122.022 300.205 118.586C303.729 114.086 305.515 109.565 305.515 105.148V71.193C305.516 70.1749 304.848 69.2773 303.874 68.9848ZM300.907 105.148C300.907 112.964 293.07 120.293 286.494 125.065C280.6 129.343 274.622 132.379 272.361 133.469C270.101 132.379 264.123 129.343 258.228 125.065C251.653 120.293 243.815 112.964 243.815 105.148V72.9083L272.361 64.3395L300.907 72.9083V105.148Z" fill="#79A482"/>
</g>
<path d="M304.757 68.9848L273.826 59.7242C273.393 59.5945 272.931 59.5945 272.498 59.7242L241.566 68.9848C240.589 69.2773 239.92 70.1749 239.92 71.193V105.148C239.92 109.565 241.711 114.086 245.245 118.586C247.943 122.022 251.677 125.473 256.341 128.843C264.177 134.504 271.893 137.976 272.218 138.121C272.518 138.255 272.84 138.322 273.162 138.322C273.484 138.322 273.805 138.255 274.106 138.121C274.43 137.976 282.146 134.504 289.982 128.843C294.647 125.473 298.38 122.022 301.079 118.586C304.612 114.086 306.404 109.565 306.404 105.148V71.193C306.404 70.1749 305.735 69.2773 304.757 68.9848ZM301.783 105.148C301.783 112.964 293.925 120.293 287.332 125.065C281.422 129.343 275.428 132.379 273.162 133.469C270.896 132.379 264.902 129.343 258.991 125.065C252.399 120.293 244.54 112.964 244.54 105.148V72.9083L273.162 64.3395L301.783 72.9083V105.148Z" fill="#99EDAC"/>
<g filter="url(#filter3_f_3778_17556)">
<path d="M273.36 77.7227L273.319 77.6973L254.638 89.364V110.453L257.67 108.571V91.0471L273.319 81.262L288.97 91.0471V108.571L292.001 110.453V89.364L273.36 77.7227Z" fill="#79A482"/>
<path d="M273.32 84.7607L260.845 92.4256V106.533L264.048 104.543V94.2206L273.32 88.591L282.593 94.2206V104.543L285.796 106.533V92.4256L273.361 84.7855L273.32 84.7607Z" fill="#79A482"/>
<path d="M267.016 95.7848L266.978 95.8071L266.998 102.711L270.212 100.715V97.6441L273.322 95.7778L276.432 97.6441V100.715L279.646 102.711L279.665 95.8071L273.322 92.0322L267.016 95.7848Z" fill="#79A482"/>
</g>
<path d="M273.36 77.7227L273.319 77.6973L254.638 89.364V110.453L257.67 108.571V91.0471L273.319 81.262L288.97 91.0471V108.571L292.001 110.453V89.364L273.36 77.7227Z" fill="#FFF7D8"/>
<path d="M273.32 84.7607L260.845 92.4256V106.533L264.048 104.543V94.2206L273.32 88.591L282.593 94.2206V104.543L285.796 106.533V92.4256L273.361 84.7855L273.32 84.7607Z" fill="#FFF7D8"/>
<path d="M267.016 95.7848L266.978 95.8071L266.998 102.711L270.212 100.715V97.6441L273.322 95.7778L276.432 97.6441V100.715L279.646 102.711L279.665 95.8071L273.322 92.0322L267.016 95.7848Z" fill="#FFF7D8"/>
<g filter="url(#filter4_f_3778_17556)">
<path d="M76.4745 68.9848L45.6243 59.7242C45.1928 59.5945 44.7321 59.5945 44.3002 59.7242L13.4497 68.9848C12.475 69.2773 11.8076 70.1749 11.8076 71.193V105.148C11.8076 109.565 13.5944 114.086 17.1184 118.586C19.81 122.022 23.5335 125.473 28.1858 128.843C36.0011 134.504 43.6968 137.976 44.0206 138.121C44.3201 138.255 44.641 138.322 44.9621 138.322C45.283 138.322 45.604 138.255 45.9036 138.121C46.2274 137.976 53.9229 134.504 61.7382 128.843C66.3903 125.473 70.1139 122.022 72.8054 118.586C76.3294 114.086 78.1163 109.565 78.1163 105.148V71.193C78.1164 70.1749 77.4491 69.2773 76.4745 68.9848ZM73.5081 105.148C73.5081 112.964 65.6703 120.293 59.0953 125.065C53.2006 129.343 47.2225 132.379 44.9622 133.469C42.702 132.379 36.7237 129.343 30.829 125.065C24.2538 120.293 16.4159 112.964 16.4159 105.148V72.9083L44.9621 64.3395L73.5081 72.9083V105.148Z" fill="#79A482"/>
</g>
<path d="M76.7575 68.9848L45.8258 59.7242C45.3932 59.5945 44.9312 59.5945 44.4981 59.7242L13.5661 68.9848C12.5889 69.2773 11.9197 70.1749 11.9197 71.193V105.148C11.9197 109.565 13.7112 114.086 17.2445 118.586C19.9432 122.022 23.6766 125.473 28.3412 128.843C36.1772 134.504 43.8932 137.976 44.2178 138.121C44.5182 138.255 44.8399 138.322 45.1618 138.322C45.4836 138.322 45.8055 138.255 46.1058 138.121C46.4305 137.976 54.1463 134.504 61.9823 128.843C66.6467 125.473 70.3801 122.022 73.0788 118.586C76.6121 114.086 78.4036 109.565 78.4036 105.148V71.193C78.4038 70.1749 77.7347 69.2773 76.7575 68.9848ZM73.7833 105.148C73.7833 112.964 65.9248 120.293 59.3324 125.065C53.4221 129.343 47.4282 132.379 45.162 133.469C42.8958 132.379 36.9017 129.343 30.9914 125.065C24.3988 120.293 16.5402 112.964 16.5402 105.148V72.9083L45.1618 64.3395L73.7833 72.9083V105.148Z" fill="#99EDAC"/>
<g filter="url(#filter5_f_3778_17556)">
<path d="M45.7235 77.7227L45.6828 77.6973L27.0017 89.364V110.453L30.0328 108.571V91.0471L45.6828 81.262L61.333 91.0471V108.571L64.3641 110.453V89.364L45.7235 77.7227Z" fill="#79A482"/>
<path d="M45.6837 84.7607L33.2087 92.4256V106.533L36.4116 104.543V94.2206L45.6837 88.591L54.9561 94.2206V104.543L58.159 106.533V92.4256L45.7238 84.7855L45.6837 84.7607Z" fill="#79A482"/>
<path d="M39.3753 95.7848L39.3376 95.8071L39.3569 102.711L42.5715 100.715V97.6441L45.6812 95.7778L48.7913 97.6441V100.715L52.0058 102.711L52.0248 95.8071L45.6812 92.0322L39.3753 95.7848Z" fill="#79A482"/>
</g>
<path d="M45.7235 77.7227L45.6828 77.6973L27.0017 89.364V110.453L30.0328 108.571V91.0471L45.6828 81.262L61.333 91.0471V108.571L64.3641 110.453V89.364L45.7235 77.7227Z" fill="#FFF7D8"/>
<path d="M45.6837 84.7607L33.2087 92.4256V106.533L36.4116 104.543V94.2206L45.6837 88.591L54.9561 94.2206V104.543L58.159 106.533V92.4256L45.7238 84.7855L45.6837 84.7607Z" fill="#FFF7D8"/>
<path d="M39.3753 95.7848L39.3376 95.8071L39.3569 102.711L42.5715 100.715V97.6441L45.6812 95.7778L48.7913 97.6441V100.715L52.0058 102.711L52.0248 95.8071L45.6812 92.0322L39.3753 95.7848Z" fill="#FFF7D8"/>
</g>
<defs>
<filter id="filter0_f_3778_17556" x="121.036" y="31.3" width="76.0376" height="69.548" filterUnits="userSpaceOnUse" color-interpolation-filters="sRGB">
<feFlood flood-opacity="0" result="BackgroundImageFix"/>
<feBlend mode="normal" in="SourceGraphic" in2="BackgroundImageFix" result="shape"/>
<feGaussianBlur stdDeviation="5.85" result="effect1_foregroundBlur_3778_17556"/>
</filter>
<filter id="filter1_f_3778_17556" x="91.3058" y="-4.01133" width="134.236" height="155.24" filterUnits="userSpaceOnUse" color-interpolation-filters="sRGB">
<feFlood flood-opacity="0" result="BackgroundImageFix"/>
<feBlend mode="normal" in="SourceGraphic" in2="BackgroundImageFix" result="shape"/>
<feGaussianBlur stdDeviation="5.45" result="effect1_foregroundBlur_3778_17556"/>
</filter>
<filter id="filter2_f_3778_17556" x="228.307" y="48.727" width="88.1087" height="100.495" filterUnits="userSpaceOnUse" color-interpolation-filters="sRGB">
<feFlood flood-opacity="0" result="BackgroundImageFix"/>
<feBlend mode="normal" in="SourceGraphic" in2="BackgroundImageFix" result="shape"/>
<feGaussianBlur stdDeviation="5.45" result="effect1_foregroundBlur_3778_17556"/>
</filter>
<filter id="filter3_f_3778_17556" x="246.334" y="69.3926" width="53.9718" height="49.3655" filterUnits="userSpaceOnUse" color-interpolation-filters="sRGB">
<feFlood flood-opacity="0" result="BackgroundImageFix"/>
<feBlend mode="normal" in="SourceGraphic" in2="BackgroundImageFix" result="shape"/>
<feGaussianBlur stdDeviation="4.15236" result="effect1_foregroundBlur_3778_17556"/>
</filter>
<filter id="filter4_f_3778_17556" x="0.907572" y="48.727" width="88.1087" height="100.495" filterUnits="userSpaceOnUse" color-interpolation-filters="sRGB">
<feFlood flood-opacity="0" result="BackgroundImageFix"/>
<feBlend mode="normal" in="SourceGraphic" in2="BackgroundImageFix" result="shape"/>
<feGaussianBlur stdDeviation="5.45" result="effect1_foregroundBlur_3778_17556"/>
</filter>
<filter id="filter5_f_3778_17556" x="18.697" y="69.3926" width="53.9718" height="49.3655" filterUnits="userSpaceOnUse" color-interpolation-filters="sRGB">
<feFlood flood-opacity="0" result="BackgroundImageFix"/>
<feBlend mode="normal" in="SourceGraphic" in2="BackgroundImageFix" result="shape"/>
<feGaussianBlur stdDeviation="4.15236" result="effect1_foregroundBlur_3778_17556"/>
</filter>
<radialGradient id="paint0_radial_3778_17556" cx="0" cy="0" r="1" gradientUnits="userSpaceOnUse" gradientTransform="translate(156 50.5) rotate(90) scale(252.5 192.332)">
<stop offset="0.159529" stop-color="white"/>
<stop offset="1" stop-color="#737373" stop-opacity="0"/>
</radialGradient>
</defs>
</svg>
