<svg
  width="54"
  height="19"
  viewBox="0 0 54 19"
  fill="none"
  xmlns="http://www.w3.org/2000/svg"
>
  <path
    d="M15.1273 10.1421L9.46278 15.8072C9.37489 15.895 9.25527 15.9448 9.13085 15.9448L3.06407 15.9448C2.64604 15.9448 2.43647 15.4393 2.73228 15.144C4.46469 13.4099 8.41042 9.46255 8.41042 9.46255C8.41042 9.46255 4.46414 5.51627 2.73228 3.78221C2.43633 3.48695 2.64604 2.98145 3.06407 2.98145L9.13085 2.98145C9.25541 2.98145 9.37489 3.03116 9.46278 3.11905L12.0336 5.68985L15.1273 8.78305C15.5022 9.15851 15.5022 9.7666 15.1273 10.1421Z"
    fill="#FFC843"
  />
  <path
    d="M11.5794 10.1421L5.91488 15.8072C5.82699 15.895 5.70751 15.9448 5.58309 15.9448L3.06407 15.9448C2.64604 15.9448 2.43647 15.4393 2.73228 15.144C4.46469 13.4099 8.41042 9.46255 8.41042 9.46255C8.41042 9.46255 4.46414 5.51627 2.73228 3.78221C2.43633 3.48695 2.64604 2.98145 3.06407 2.98145L5.58309 2.98145C5.70751 2.98145 5.82713 3.03116 5.91502 3.11905L11.5796 8.78291C11.9545 9.15851 11.9545 9.7666 11.5794 10.1421Z"
    fill="#FFA816"
  />
  <path
    d="M11.5777 10.1421L5.91313 15.8072C5.82524 15.895 5.70576 15.9448 5.58134 15.9448L4.10547 15.9448C4.22989 15.9448 4.34937 15.895 4.43726 15.8072L10.2656 9.97836C10.6405 9.60277 10.6405 9.3222 10.2656 8.94675L4.43726 3.11905C4.34937 3.03116 4.22989 2.98145 4.10547 2.98145L5.58134 2.98145C5.70576 2.98145 5.82524 3.03116 5.91313 3.11905L11.5777 8.78305C11.9527 9.15851 11.9527 9.7666 11.5777 10.1421Z"
    fill="#FFA816"
  />
  <path
    d="M15.3127 8.59656L12.219 5.50336L9.64824 2.93256C9.51173 2.79605 9.32277 2.71777 9.12982 2.71777L3.06303 2.71777C2.76077 2.71777 2.50122 2.89136 2.38559 3.17068C2.27023 3.44974 2.33121 3.75557 2.54462 3.96857C4.04192 5.46779 7.23289 8.6589 8.03654 9.46255C7.23482 10.2647 4.05208 13.4488 2.54489 14.9574C2.33121 15.1708 2.27023 15.4766 2.38559 15.7555C2.50122 16.0349 2.76077 16.2084 3.06303 16.2084L9.12982 16.2084C9.32277 16.2084 9.51173 16.1302 9.64824 15.9937L15.3128 10.3286C15.3128 10.3286 15.3128 10.3286 15.3128 10.3284C15.7896 9.85092 15.7896 9.07419 15.3127 8.59656ZM14.9397 9.95584L14.9398 9.9557L9.27525 15.6208C9.23694 15.6591 9.18393 15.6811 9.12982 15.6811L3.06303 15.6811C2.93546 15.6811 2.88519 15.5837 2.87297 15.5539C2.86061 15.5243 2.82752 15.4204 2.91774 15.3304C4.65015 13.5963 8.59589 9.64891 8.59589 9.64891C8.69888 9.54591 8.69888 9.37906 8.59589 9.27606C8.55634 9.23665 4.62982 5.31 2.91747 3.59558C2.82752 3.50577 2.86061 3.40195 2.87297 3.37215C2.88519 3.34235 2.93546 3.24512 3.06303 3.24512L9.12982 3.24512C9.18393 3.24512 9.23694 3.26709 9.27525 3.3054L11.8462 5.87634L14.9397 8.96927C15.2113 9.24132 15.2113 9.68379 14.9397 9.95584Z"
    fill="#FFA816"
  />
  <path
    d="M33.1273 10.1421L27.4628 15.8072C27.3749 15.895 27.2553 15.9448 27.1309 15.9448L21.0641 15.9448C20.646 15.9448 20.4365 15.4393 20.7323 15.144C22.4647 13.4099 26.4104 9.46255 26.4104 9.46255C26.4104 9.46255 22.4641 5.51627 20.7323 3.78221C20.4363 3.48695 20.646 2.98145 21.0641 2.98145L27.1309 2.98145C27.2554 2.98145 27.3749 3.03116 27.4628 3.11905L30.0336 5.68985L33.1273 8.78305C33.5022 9.15851 33.5022 9.7666 33.1273 10.1421Z"
    fill="#FFC843"
  />
  <path
    d="M29.5794 10.1421L23.9149 15.8072C23.827 15.895 23.7075 15.9448 23.5831 15.9448L21.0641 15.9448C20.646 15.9448 20.4365 15.4393 20.7323 15.144C22.4647 13.4099 26.4104 9.46255 26.4104 9.46255C26.4104 9.46255 22.4641 5.51627 20.7323 3.78221C20.4363 3.48695 20.646 2.98145 21.0641 2.98145L23.5831 2.98145C23.7075 2.98145 23.8271 3.03116 23.915 3.11905L29.5796 8.78291C29.9545 9.15851 29.9545 9.7666 29.5794 10.1421Z"
    fill="#FFA816"
  />
  <path
    d="M29.5777 10.1421L23.9131 15.8072C23.8252 15.895 23.7058 15.9448 23.5813 15.9448L22.1055 15.9448C22.2299 15.9448 22.3494 15.895 22.4373 15.8072L28.2656 9.97836C28.6405 9.60277 28.6405 9.3222 28.2656 8.94675L22.4373 3.11905C22.3494 3.03116 22.2299 2.98145 22.1055 2.98145L23.5813 2.98145C23.7058 2.98145 23.8252 3.03116 23.9131 3.11905L29.5777 8.78305C29.9527 9.15851 29.9527 9.7666 29.5777 10.1421Z"
    fill="#FFA816"
  />
  <path
    d="M33.3127 8.59656L30.219 5.50336L27.6482 2.93256C27.5117 2.79605 27.3228 2.71777 27.1298 2.71777L21.063 2.71777C20.7608 2.71777 20.5012 2.89136 20.3856 3.17068C20.2702 3.44974 20.3312 3.75557 20.5446 3.96857C22.0419 5.46779 25.2329 8.6589 26.0365 9.46255C25.2348 10.2647 22.0521 13.4488 20.5449 14.9574C20.3312 15.1708 20.2702 15.4766 20.3856 15.7555C20.5012 16.0349 20.7608 16.2084 21.063 16.2084L27.1298 16.2084C27.3228 16.2084 27.5117 16.1302 27.6482 15.9937L33.3128 10.3286C33.3128 10.3286 33.3128 10.3286 33.3128 10.3284C33.7896 9.85092 33.7896 9.07419 33.3127 8.59656ZM32.9397 9.95584L32.9398 9.9557L27.2753 15.6208C27.2369 15.6591 27.1839 15.6811 27.1298 15.6811L21.063 15.6811C20.9355 15.6811 20.8852 15.5837 20.873 15.5539C20.8606 15.5243 20.8275 15.4204 20.9177 15.3304C22.6501 13.5963 26.5959 9.64891 26.5959 9.64891C26.6989 9.54591 26.6989 9.37906 26.5959 9.27606C26.5563 9.23665 22.6298 5.31 20.9175 3.59558C20.8275 3.50577 20.8606 3.40195 20.873 3.37215C20.8852 3.34235 20.9355 3.24512 21.063 3.24512L27.1298 3.24512C27.1839 3.24512 27.2369 3.26709 27.2753 3.3054L29.8462 5.87634L32.9397 8.96927C33.2113 9.24132 33.2113 9.68379 32.9397 9.95584Z"
    fill="#FFA816"
  />
  <path
    d="M51.1273 10.1421L45.4628 15.8072C45.3749 15.895 45.2553 15.9448 45.1309 15.9448L39.0641 15.9448C38.646 15.9448 38.4365 15.4393 38.7323 15.144C40.4647 13.4099 44.4104 9.46255 44.4104 9.46255C44.4104 9.46255 40.4641 5.51627 38.7323 3.78221C38.4363 3.48695 38.646 2.98145 39.0641 2.98145L45.1309 2.98145C45.2554 2.98145 45.3749 3.03116 45.4628 3.11905L48.0336 5.68985L51.1273 8.78305C51.5022 9.15851 51.5022 9.7666 51.1273 10.1421Z"
    fill="#FFC843"
  />
  <path
    d="M47.5794 10.1421L41.9149 15.8072C41.827 15.895 41.7075 15.9448 41.5831 15.9448L39.0641 15.9448C38.646 15.9448 38.4365 15.4393 38.7323 15.144C40.4647 13.4099 44.4104 9.46255 44.4104 9.46255C44.4104 9.46255 40.4641 5.51627 38.7323 3.78221C38.4363 3.48695 38.646 2.98145 39.0641 2.98145L41.5831 2.98145C41.7075 2.98145 41.8271 3.03116 41.915 3.11905L47.5796 8.78291C47.9545 9.15851 47.9545 9.7666 47.5794 10.1421Z"
    fill="#FFA816"
  />
  <path
    d="M47.5777 10.1421L41.9131 15.8072C41.8252 15.895 41.7058 15.9448 41.5813 15.9448L40.1055 15.9448C40.2299 15.9448 40.3494 15.895 40.4373 15.8072L46.2656 9.97836C46.6405 9.60277 46.6405 9.3222 46.2656 8.94675L40.4373 3.11905C40.3494 3.03116 40.2299 2.98145 40.1055 2.98145L41.5813 2.98145C41.7058 2.98145 41.8252 3.03116 41.9131 3.11905L47.5777 8.78305C47.9527 9.15851 47.9527 9.7666 47.5777 10.1421Z"
    fill="#FFA816"
  />
  <path
    d="M51.3127 8.59656L48.219 5.50336L45.6482 2.93256C45.5117 2.79605 45.3228 2.71777 45.1298 2.71777L39.063 2.71777C38.7608 2.71777 38.5012 2.89136 38.3856 3.17068C38.2702 3.44974 38.3312 3.75557 38.5446 3.96857C40.0419 5.46779 43.2329 8.6589 44.0365 9.46255C43.2348 10.2647 40.0521 13.4488 38.5449 14.9574C38.3312 15.1708 38.2702 15.4766 38.3856 15.7555C38.5012 16.0349 38.7608 16.2084 39.063 16.2084L45.1298 16.2084C45.3228 16.2084 45.5117 16.1302 45.6482 15.9937L51.3128 10.3286C51.3128 10.3286 51.3128 10.3286 51.3128 10.3284C51.7896 9.85092 51.7896 9.07419 51.3127 8.59656ZM50.9397 9.95584L50.9398 9.9557L45.2753 15.6208C45.2369 15.6591 45.1839 15.6811 45.1298 15.6811L39.063 15.6811C38.9355 15.6811 38.8852 15.5837 38.873 15.5539C38.8606 15.5243 38.8275 15.4204 38.9177 15.3304C40.6501 13.5963 44.5959 9.64891 44.5959 9.64891C44.6989 9.54591 44.6989 9.37906 44.5959 9.27606C44.5563 9.23665 40.6298 5.31 38.9175 3.59558C38.8275 3.50577 38.8606 3.40195 38.873 3.37215C38.8852 3.34235 38.9355 3.24512 39.063 3.24512L45.1298 3.24512C45.1839 3.24512 45.2369 3.26709 45.2753 3.3054L47.8462 5.87634L50.9397 8.96927C51.2113 9.24132 51.2113 9.68379 50.9397 9.95584Z"
    fill="#FFA816"
  />
</svg>
