<svg width="20" height="20" viewBox="0 0 20 20" fill="none" xmlns="http://www.w3.org/2000/svg">
<path d="M9.99984 18.4C9.74984 18.4 9.49984 18.3417 9.2915 18.225C7.73317 17.375 4.9915 16.475 3.27484 16.25L3.03317 16.2167C1.9415 16.0834 1.0415 15.0584 1.0415 13.95V3.88338C1.0415 3.22505 1.29984 2.62505 1.77484 2.19171C2.24984 1.75838 2.8665 1.55005 3.5165 1.60838C5.34984 1.75005 8.1165 2.66671 9.68317 3.65005L9.88317 3.76671C9.9415 3.80005 10.0665 3.80005 10.1165 3.77505L10.2498 3.69171C11.8165 2.70838 14.5832 1.77505 16.4248 1.61671C16.4415 1.61671 16.5082 1.61671 16.5248 1.61671C17.1332 1.55838 17.7582 1.77505 18.2248 2.20838C18.6998 2.64171 18.9582 3.24171 18.9582 3.90005V13.9584C18.9582 15.075 18.0582 16.0917 16.9582 16.225L16.6832 16.2584C14.9665 16.4834 12.2165 17.3917 10.6915 18.2334C10.4915 18.35 10.2498 18.4 9.99984 18.4ZM3.3165 2.85005C3.04984 2.85005 2.80817 2.94171 2.6165 3.11671C2.40817 3.30838 2.2915 3.58338 2.2915 3.88338V13.95C2.2915 14.4417 2.7165 14.9167 3.1915 14.9834L3.4415 15.0167C5.3165 15.2667 8.1915 16.2084 9.85817 17.1167C9.93317 17.15 10.0415 17.1584 10.0832 17.1417C11.7498 16.2167 14.6415 15.2667 16.5248 15.0167L16.8082 14.9834C17.2832 14.925 17.7082 14.4417 17.7082 13.95V3.89171C17.7082 3.58338 17.5915 3.31671 17.3832 3.11671C17.1665 2.92505 16.8915 2.83338 16.5832 2.85005C16.5665 2.85005 16.4998 2.85005 16.4832 2.85005C14.8915 2.99171 12.3248 3.85005 10.9248 4.72505L10.7915 4.81671C10.3332 5.10005 9.68317 5.10005 9.2415 4.82505L9.0415 4.70838C7.6165 3.83338 5.04984 2.98338 3.4165 2.85005C3.38317 2.85005 3.34984 2.85005 3.3165 2.85005Z" fill="white"/>
<path d="M10 17.7C9.65833 17.7 9.375 17.4166 9.375 17.075V4.57495C9.375 4.23328 9.65833 3.94995 10 3.94995C10.3417 3.94995 10.625 4.23328 10.625 4.57495V17.075C10.625 17.425 10.3417 17.7 10 17.7Z" fill="white"/>
<path d="M6.4585 7.69995H4.5835C4.24183 7.69995 3.9585 7.41662 3.9585 7.07495C3.9585 6.73328 4.24183 6.44995 4.5835 6.44995H6.4585C6.80016 6.44995 7.0835 6.73328 7.0835 7.07495C7.0835 7.41662 6.80016 7.69995 6.4585 7.69995Z" fill="white"/>
<path d="M7.0835 10.2H4.5835C4.24183 10.2 3.9585 9.91662 3.9585 9.57495C3.9585 9.23328 4.24183 8.94995 4.5835 8.94995H7.0835C7.42516 8.94995 7.7085 9.23328 7.7085 9.57495C7.7085 9.91662 7.42516 10.2 7.0835 10.2Z" fill="white"/>
</svg>
