<svg width="173" height="43" viewBox="0 0 173 43" fill="none" xmlns="http://www.w3.org/2000/svg">
<mask id="mask0_38_14" style="mask-type:luminance" maskUnits="userSpaceOnUse" x="28" y="6" width="38" height="31">
<path d="M65.7678 6.14285H28.9107V36.8571H65.7678V6.14285Z" fill="white"/>
</mask>
<g mask="url(#mask0_38_14)">
<mask id="mask1_38_14" style="mask-type:luminance" maskUnits="userSpaceOnUse" x="28" y="6" width="38" height="31">
<path d="M65.7678 6.37082H28.9107V36.6334H65.7678V6.37082Z" fill="white"/>
</mask>
<g mask="url(#mask1_38_14)">
<path d="M50.3762 21.9495L50.1544 23.4423L47.5497 21.9019L44.9449 23.4423L44.7231 21.9495L47.5497 20.2522L50.3762 21.9495Z" fill="#459C6E"/>
<path d="M50.1438 30.1266L47.5503 31.0062L44.9567 30.1266L45.7201 28.6927L47.5503 29.4433L49.3803 28.6927L50.1438 30.1266Z" fill="#58C88D"/>
<path d="M47.5505 20.2476L50.377 21.9477L56.9059 17.2451L55.5894 15.7831C53.9081 17.3039 51.6317 18.2002 49.3638 18.2618L47.5505 17.1387L45.7373 18.2618C43.4693 18.2002 41.1929 17.3039 39.5115 15.7831L38.1951 17.2451L44.724 21.9477L47.5505 20.2476Z" fill="#459C6E"/>
<path d="M55.588 15.7848C53.904 17.3084 51.6303 18.1991 49.3624 18.2635L47.5491 17.1432L45.7359 18.2635C43.4679 18.1991 41.1944 17.3084 39.5103 15.7848C40.3524 14.8493 41.2253 13.8802 42.0673 12.9448L44.5149 12.1718L47.5491 14.3228L50.5834 12.1718L53.031 12.9448C53.8731 13.8802 54.746 14.8493 55.588 15.7848Z" fill="#58C88D"/>
<path d="M50.1558 23.4424L49.3811 28.6938L47.551 29.4445L45.7209 28.6938L44.9462 23.4424L47.551 21.9019L50.1558 23.4424Z" fill="#459C6E"/>
<path d="M52.1568 33.9523L50.2453 36.0696L47.5506 35.2378L44.8561 36.0696L42.9446 33.9523L44.9571 30.1264L47.5506 31.0058L50.1442 30.1264L52.1568 33.9523Z" fill="#295C41"/>
<path d="M50.2458 36.0692L49.7462 36.6322H45.3563L44.8566 36.0692L47.5513 35.2374L50.2458 36.0692Z" fill="#58C88D"/>
<path d="M43.4691 22.7349L39.5254 20.3542L38.7255 22.5725L41.2516 25.729L42.5119 31.7002L44.241 28.4962L43.4691 22.7349Z" fill="#459C6E"/>
<path d="M38.7267 22.5738L38.053 24.4364L42.5132 31.7016L41.2529 25.7303L38.7267 22.5738Z" fill="#295C41"/>
<path d="M51.635 22.7349L55.5786 20.3542L56.3786 22.5725L53.8524 25.729L52.5921 31.7002L50.863 28.4962L51.635 22.7349Z" fill="#459C6E"/>
<path d="M56.379 22.5738L57.0526 24.4364L52.5925 31.7016L53.8528 25.7303L56.379 22.5738Z" fill="#295C41"/>
<path d="M31.3932 13.3588C31.4626 11.0706 35.7137 6.37082 35.7137 6.37082C33.8672 8.34261 31.7708 9.88585 30.227 12.1124C29.7994 12.7286 29.53 13.5045 29.6661 14.2299C29.9243 15.5966 31.0794 16.5293 33.0009 16.7086C34.0005 16.8009 36.9688 16.6862 36.9688 16.6862L38.5431 14.9384C36.7745 15.0617 31.3349 15.2745 31.3932 13.3588Z" fill="#295C41"/>
<path d="M34.6926 12.4765C33.9845 12.1236 33.4819 11.3814 33.8623 10.1519C34.3066 8.7095 34.8425 7.65638 35.7144 6.37082C35.7144 6.37082 31.4633 11.0706 31.3938 13.3588C31.3355 15.2745 36.7751 15.0617 38.5466 14.9412L40.3737 12.9134C37.9385 12.9134 36.3752 13.3196 34.6926 12.4765Z" fill="#58C88D"/>
<path d="M63.7106 13.3588C63.6412 11.0706 59.39 6.37082 59.39 6.37082C61.2365 8.34261 63.333 9.88585 64.8768 12.1124C65.3044 12.7286 65.5738 13.5045 65.4377 14.2299C65.1794 15.5966 64.0243 16.5293 62.1028 16.7086C61.1033 16.8009 58.1349 16.6862 58.1349 16.6862L56.5606 14.9384C58.3294 15.0617 63.7689 15.2745 63.7106 13.3588Z" fill="#295C41"/>
<path d="M60.4115 12.4765C61.1195 12.1236 61.6221 11.3814 61.2417 10.1519C60.7946 8.7095 60.2587 7.65638 59.3868 6.37082C59.3868 6.37082 63.6379 11.0706 63.7073 13.3588C63.7656 15.2745 58.3261 15.0617 56.5546 14.9412L54.7275 12.9134C57.1654 12.9134 58.7287 13.3196 60.4115 12.4765Z" fill="#58C88D"/>
</g>
</g>
<path d="M81.2369 31.4821H70.6098V10.9036H80.7455C85.1377 10.9036 87.5027 12.47 87.5027 16.0328C87.5027 18.49 86.1205 20.0871 83.3869 20.425V20.7321C86.7041 20.9779 88.3319 23.0664 88.3319 25.8307C88.3319 29.3014 85.9362 31.4821 81.2369 31.4821ZM75.2169 15.05V19.0429H80.4384C82.1584 19.0429 82.8955 18.6743 82.8955 17.0464C82.8955 15.3879 82.1277 15.05 80.4384 15.05H75.2169ZM75.2169 22.79V27.3357H81.0834C82.7727 27.3357 83.6941 27.0286 83.6941 25.0936C83.6941 23.0971 82.8034 22.79 81.0834 22.79H75.2169ZM96.2667 31.7893C92.2125 31.7893 90.5232 29.1171 90.5232 25.8307V16.0328H95.0996V24.9093C95.0996 27.0593 95.8368 27.8271 98.1403 27.8271C100.352 27.8271 101.304 27.1207 101.304 24.7864V16.0328H105.881V31.4821H101.611V28.7793H101.457C100.597 30.5607 98.9696 31.7893 96.2667 31.7893ZM113.278 31.4821H108.702V10.9036H113.278V31.4821ZM120.777 31.4821H116.201V10.9036H120.777V31.4821Z" fill="white"/>
<path d="M128.278 31.4821H122.903L129.26 21.3157V21.0086L122.903 10.9036H128.339L132.915 18.2136H133.223L137.676 10.9036H143.051L136.724 20.9778V21.285L143.051 31.4821H137.615L133.038 24.1414H132.731L128.278 31.4821Z" fill="url(#paint0_linear_38_14)"/>
<defs>
<linearGradient id="paint0_linear_38_14" x1="106.464" y1="-6.89857e-06" x2="106.464" y2="43" gradientUnits="userSpaceOnUse">
<stop stop-color="#52BA84"/>
<stop offset="1" stop-color="#3F8A62"/>
</linearGradient>
</defs>
</svg>
