<svg width="26" height="35" viewBox="0 0 26 35" fill="none" xmlns="http://www.w3.org/2000/svg">
<g clip-path="url(#clip0_6641_289066)">
<path d="M9.97656 1.40615L11.2266 1.16357L11.1333 3.34056L10.6793 3.353L9.97656 1.40615Z" fill="url(#paint0_linear_6641_289066)"/>
<g style="mix-blend-mode:multiply" opacity="0.8">
<path d="M9.97656 1.40615L11.2266 1.16357L11.1333 3.34056L10.6793 3.353L9.97656 1.40615Z" fill="#D42F55"/>
</g>
<path d="M25.4858 23.1508C25.1748 29.4893 19.5778 34.4034 13.0169 34.4034C6.45592 34.4034 1.03303 29.5577 0.734522 23.3063C0.678552 22.199 0.510641 20.9363 0.703427 19.3937C1.96587 14.2681 7.1089 11.0583 13.0293 10.9775C19.497 10.8904 24.8888 14.8528 25.6101 20.6688C25.6226 21.3468 25.5231 22.4914 25.492 23.1445L25.4858 23.1508Z" fill="url(#paint1_linear_6641_289066)"/>
<path style="mix-blend-mode:multiply" opacity="0.8" d="M1.14062 23.5153C1.14062 23.5153 3.82097 33.517 12.5026 33.3678C21.3147 33.2185 24.2127 27.6081 24.8533 24.0067C25.5063 20.3058 1.14062 23.5091 1.14062 23.5091V23.5153Z" fill="url(#paint2_linear_6641_289066)"/>
<path style="mix-blend-mode:multiply" opacity="0.8" d="M1.33802 25.6132C1.73603 27.9332 4.34175 31.603 6.11414 32.2499C6.78578 32.4987 7.40145 32.337 7.92384 32.0073C8.35294 31.7398 5.62907 30.9499 3.66389 28.8849C1.67384 26.7887 1.27583 25.24 1.33802 25.6194V25.6132Z" fill="url(#paint3_linear_6641_289066)"/>
<path style="mix-blend-mode:multiply" opacity="0.8" d="M24.8018 25.4637C24.3665 27.8335 21.6364 31.5842 19.808 32.2435C19.1177 32.4923 18.4896 32.3368 17.9672 32.0071C17.5319 31.7397 20.3242 30.9311 22.364 28.8163C24.4411 26.6642 24.8764 25.0781 24.8018 25.4637Z" fill="url(#paint4_linear_6641_289066)"/>
<path d="M9.47122 7.87245C9.47122 7.87245 8.56326 2.9027 8.76848 2.37401C8.91773 1.94483 9.3655 1.61517 9.97495 1.37881C10.006 1.38503 10.771 2.82806 10.771 2.82806C10.771 2.82806 10.9886 1.08026 11.169 1.04294C13.2212 0.657299 15.8456 0.912317 16.1317 1.60273C16.256 1.90751 16.1317 7.46815 16.1317 7.46815L9.47744 7.86623L9.47122 7.87245Z" fill="url(#paint5_linear_6641_289066)"/>
<path style="mix-blend-mode:screen" opacity="0.4" d="M9.70965 1.74951C9.59771 1.78683 8.839 2.25333 8.86388 2.57677C8.88875 2.9002 9.36139 6.67572 9.64124 6.46424C9.92109 6.25276 11.5442 5.22025 12.2843 5.11451C13.0243 5.00877 11.0592 3.90784 10.8912 3.57818C10.7233 3.24852 9.95841 1.67487 9.70965 1.75573V1.74951Z" fill="url(#paint6_radial_6641_289066)"/>
<path style="mix-blend-mode:multiply" opacity="0.5" d="M16.1365 1.57406C16.0308 1.31904 15.6017 1.12 14.9985 0.995605C14.9985 3.76349 13.9972 6.35099 11.8828 7.6945L16.1365 7.43948C16.1365 7.43948 16.2609 1.87884 16.1365 1.57406Z" fill="url(#paint7_linear_6641_289066)"/>
<g style="mix-blend-mode:multiply" opacity="0.8">
<path d="M9.46885 7.89762C9.46885 7.89762 9.40666 5.66465 12.3358 5.43452C15.2835 5.19816 16.1231 7.49954 16.1231 7.49954L9.46885 7.89762Z" fill="#D42F55"/>
</g>
<path d="M11.2656 6.98774L11.6761 10.3652L13.7905 10.303L14.1263 6.882C13.0442 6.4777 12.099 6.57722 11.2656 6.98774Z" fill="url(#paint8_linear_6641_289066)"/>
<path style="mix-blend-mode:multiply" opacity="0.5" d="M11.2656 6.98774L11.3527 7.70925C12.2482 7.69681 13.3801 7.74657 13.9833 8.31881L14.1263 6.882C13.0442 6.4777 12.099 6.57722 11.2656 6.98774Z" fill="url(#paint9_linear_6641_289066)"/>
<path d="M25.5961 20.9533C25.2789 27.3914 19.6384 32.3802 13.0277 32.3926C6.46673 32.405 0.950557 27.4972 0.645831 21.1586C0.328667 14.4841 5.84483 8.7303 13.0339 8.61833C20.2851 8.50636 25.9257 14.1793 25.5899 20.9533H25.5961Z" fill="url(#paint10_linear_6641_289066)"/>
<path style="mix-blend-mode:multiply" opacity="0.8" d="M5.66406 23.9316C5.66406 23.9316 8.51232 30.8793 16.1367 28.4908C23.3879 26.2205 20.7138 18.6011 20.7138 18.6011L5.66406 23.9316Z" fill="url(#paint11_linear_6641_289066)"/>
<path style="mix-blend-mode:screen" d="M10.9938 9.50519C17.1754 8.31718 20.8072 11.7008 23.5063 13.8343C21.255 10.6434 17.4242 8.55976 13.0274 8.62196C6.49755 8.72148 1.33586 13.4922 0.695312 19.37C1.34208 15.1467 4.91795 10.6683 10.9938 9.50519Z" fill="url(#paint12_linear_6641_289066)"/>
<path style="mix-blend-mode:screen" opacity="0.4" d="M1.63483 24.5961C-0.286813 19.5141 1.54154 9.31888 13.2828 9.07006C27.095 8.78392 25.2418 23.4142 23.2206 24.5339C21.2181 25.6411 23.7555 13.02 12.7791 12.9702C1.98308 12.9205 5.62736 29.1805 1.63483 24.5961Z" fill="url(#paint13_radial_6641_289066)"/>
<path style="mix-blend-mode:screen" opacity="0.4" d="M23.7427 26.6737C21.5102 30.1195 17.5052 32.3898 13.0338 32.396C8.63703 32.4022 4.744 30.2252 2.54872 26.9162C2.21912 26.4186 3.73032 28.5085 6.32982 30.0884C8.13952 31.1893 10.6022 31.9295 12.8908 31.9233C15.1793 31.9171 17.7353 31.1582 19.6942 29.9702C22.3435 28.3593 24.0475 26.2072 23.749 26.6737H23.7427Z" fill="url(#paint14_radial_6641_289066)"/>
<path d="M21.0987 21.0097C20.9618 25.1836 17.3362 28.4742 13.0203 28.499C8.71682 28.5177 5.14095 25.2831 5.00414 21.1403C4.8611 16.8545 8.44319 13.228 13.0265 13.172C17.6223 13.1161 21.2479 16.6928 21.0987 21.0097Z" fill="url(#paint15_linear_6641_289066)"/>
<path style="mix-blend-mode:multiply" opacity="0.5" d="M14.7304 20.5127C14.7304 20.0089 14.4195 19.5797 13.9593 19.3993C13.9157 17.4027 13.7976 13.3722 13.5053 13.3784C13.213 13.3784 13.0451 17.4027 12.9767 19.4056C12.5165 19.5922 12.1931 20.0276 12.1993 20.5314C12.1993 21.029 12.5227 21.4519 12.9767 21.6261L12.4729 25.3892L14.2578 25.2896L13.9468 21.6137C14.4008 21.4271 14.7242 21.0041 14.7304 20.5065V20.5127Z" fill="url(#paint16_linear_6641_289066)"/>
<path d="M13.5151 20.515C13.5151 20.515 13.4218 13.3683 13.03 13.3745C12.6445 13.3807 12.4766 20.5275 12.4766 20.5275L12.9865 21.3983L13.5089 20.5212L13.5151 20.515Z" fill="url(#paint17_linear_6641_289066)"/>
<path d="M12.5567 21.2886L12.0156 25.4124L13.8004 25.3191L13.4584 21.3197L12.5567 21.2886Z" fill="url(#paint18_linear_6641_289066)"/>
<path d="M12.0156 25.3532L13.2718 24.98L13.8004 25.2599L12.0156 25.3532Z" fill="url(#paint19_linear_6641_289066)"/>
<path d="M14.2616 20.5125C14.2616 21.1718 13.6894 21.7129 12.9991 21.7191C12.3088 21.7254 11.7367 21.1967 11.7305 20.5373C11.7305 19.8656 12.2902 19.3182 12.9991 19.312C13.7019 19.312 14.2678 19.8469 14.2616 20.5187V20.5125Z" fill="url(#paint20_linear_6641_289066)"/>
<path d="M13.707 20.5111C13.707 20.8843 13.3898 21.1829 12.998 21.1891C12.6062 21.1891 12.2891 20.8967 12.2891 20.5236C12.2891 20.1504 12.6062 19.8394 12.998 19.8394C13.3898 19.8394 13.707 20.1379 13.707 20.5111Z" fill="url(#paint21_linear_6641_289066)"/>
<path style="mix-blend-mode:multiply" opacity="0.5" d="M13.6984 20.3594C13.5865 20.1479 13.3502 20.0111 13.0828 20.0048C12.691 20.0048 12.3738 20.3158 12.3676 20.689C12.3676 20.7326 12.3676 20.7761 12.3863 20.8196C12.3241 20.7263 12.293 20.6144 12.293 20.4962C12.293 20.123 12.6101 19.812 13.0081 19.812C13.3564 19.812 13.6425 20.0484 13.7047 20.3594H13.6984Z" fill="url(#paint22_linear_6641_289066)"/>
<g style="mix-blend-mode:multiply" opacity="0.8">
<path d="M21.1148 20.1824C21.1148 20.3192 21.1024 20.4436 21.09 20.5804C20.9967 16.4504 17.4643 13.1103 13.0116 13.16C8.59618 13.2098 5.1136 16.581 4.99544 20.6675C4.983 20.5556 4.97678 20.4374 4.97678 20.3254C4.83375 16.015 8.42827 12.0093 13.024 11.9534C17.6447 11.8912 21.2641 15.8471 21.1148 20.1886V20.1824Z" fill="#D42F55"/>
</g>
<g style="mix-blend-mode:soft-light">
<path d="M21.1157 20.2065C21.1157 20.275 21.4204 18.1788 20.2948 15.9583C19.2314 13.8622 17.0112 11.5546 12.913 11.7101C8.78985 11.8656 6.67542 14.1794 5.75502 16.2569C4.80975 18.3965 4.97144 20.4056 4.97144 20.3434C4.82841 16.033 8.42293 12.0273 13.0187 11.9713C17.6393 11.9091 21.2587 15.865 21.1095 20.2065H21.1157Z" fill="white"/>
</g>
<path style="mix-blend-mode:multiply" opacity="0.5" d="M5.07549 21.6796C4.75211 18.9428 6.09539 13.04 12.6501 12.6793C19.2857 12.3123 21.3068 18.4701 21.0581 21.126C19.2484 21.6049 16.282 16.5605 12.7123 16.6414C9.16753 16.7223 7.34539 21.7045 5.07549 21.6796Z" fill="url(#paint23_linear_6641_289066)"/>
<path style="mix-blend-mode:screen" opacity="0.4" d="M8.57492 32.7484C8.35104 32.8542 9.44557 34.1852 12.6545 34.1479C15.8759 34.1106 18.3697 32.3068 17.157 32.2384C16.6657 32.2135 15.0488 32.9723 13.1085 33.0221C10.2602 33.0905 8.7988 32.6427 8.57492 32.7484Z" fill="url(#paint24_radial_6641_289066)"/>
<g style="mix-blend-mode:multiply" opacity="0.5">
<path d="M11.2656 6.99725C11.2656 6.99725 12.0119 6.67382 12.6276 6.6987C13.2432 6.7298 14.1263 6.8853 14.1263 6.8853C14.1263 6.8853 13.5044 6.31306 12.5778 6.4188C11.6512 6.52454 11.2718 6.99103 11.2718 6.99103L11.2656 6.99725Z" fill="#D42F55"/>
</g>
<path style="mix-blend-mode:screen" opacity="0.4" d="M6.97804 27.287C6.22555 26.9076 7.83625 30.8448 11.4556 30.9816C15.0875 31.1123 18.7131 28.2511 16.9158 28.4563C15.1248 28.6616 12.5191 30.0735 6.98426 27.2932L6.97804 27.287Z" fill="url(#paint25_linear_6641_289066)"/>
<path d="M11.854 30.1291C12.9672 30.1291 13.3217 29.5942 11.5493 29.4076C9.77693 29.221 10.7409 30.1291 11.854 30.1291Z" fill="white"/>
<path style="mix-blend-mode:screen" opacity="0.4" d="M4.88087 13.2194C3.9356 14.0405 1.7341 15.6701 2.00774 19.004C2.26893 22.2633 3.60599 24.2536 4.004 23.7498C4.20301 23.501 3.61221 20.5652 3.96047 18.2514C4.32117 15.8691 5.64579 14.1462 6.01271 13.7917C6.74654 13.0826 6.08734 12.1745 4.88709 13.2194H4.88087Z" fill="url(#paint26_radial_6641_289066)"/>
<path d="M6.14143 12.2284C5.95487 11.6437 8.84666 10.0452 9.92875 10.1882C11.0108 10.3313 6.30934 12.7695 6.14143 12.2284Z" fill="white"/>
<path d="M9.27477 2.7835C8.56582 2.9701 9.3494 5.07867 9.72875 4.78633C10.1143 4.48777 9.77228 2.65288 9.27477 2.7835Z" fill="white"/>
<path style="mix-blend-mode:multiply" opacity="0.8" d="M5.04245 20.0474C4.9616 20.0474 5.11707 13.0126 12.6917 12.3595C19.3584 11.7873 21.1556 19.1144 20.9255 19.1641C20.6954 19.2077 17.7788 13.1992 12.9218 13.3671C10.285 13.4542 7.87827 15.1833 6.51633 16.9809C5.40314 18.4488 5.07976 20.0536 5.04866 20.0536L5.04245 20.0474Z" fill="url(#paint27_linear_6641_289066)"/>
<path style="mix-blend-mode:screen" opacity="0.72" d="M21.0987 21.0097C20.9618 25.1836 17.3362 28.4742 13.0203 28.499C8.71682 28.5177 5.14095 25.2831 5.00414 21.1403C4.8611 16.8545 8.44319 13.228 13.0265 13.172C17.6223 13.1161 21.2479 16.6928 21.0987 21.0097Z" fill="url(#paint28_radial_6641_289066)"/>
<path d="M11.39 13.1413C10.4758 13.0169 7.60267 14.1925 6.63874 15.9217C5.95466 17.1532 5.28301 19.6661 5.73078 21.4014C5.89869 22.0732 12.3104 13.2657 11.39 13.1351V13.1413Z" fill="white"/>
<path d="M6.99533 22.3283C6.57866 22.235 6.29881 23.591 6.81498 23.7403C7.33115 23.8833 8.05876 22.5709 6.99533 22.3283Z" fill="white"/>
<path d="M16.4202 14.4457C15.8418 14.315 15.1453 15.2418 16.0035 15.4409C16.8555 15.6399 18.6963 14.9681 16.4202 14.4457Z" fill="white"/>
<path style="mix-blend-mode:multiply" opacity="0.8" d="M3.14513 25.8842C3.08916 26.1454 6.97597 31.8554 12.9088 31.6999C18.9038 31.5444 23.4561 27.0784 24.3951 25.2809C25.3528 23.4584 21.0369 24.777 21.0369 24.777C21.0369 24.777 19.6563 29.0813 13.9163 28.453C8.20109 27.8248 5.71353 24.8952 5.71353 24.8952C5.71353 24.8952 3.35657 24.889 3.15135 25.878L3.14513 25.8842Z" fill="url(#paint29_linear_6641_289066)"/>
</g>
<defs>
<linearGradient id="paint0_linear_6641_289066" x1="9.53502" y1="5.06971" x2="10.5241" y2="2.445" gradientUnits="userSpaceOnUse">
<stop stop-color="#FCF800"/>
<stop offset="0.53" stop-color="#FC9700"/>
<stop offset="0.71" stop-color="#FE8500"/>
<stop offset="1" stop-color="#FC9700"/>
</linearGradient>
<linearGradient id="paint1_linear_6641_289066" x1="13.1101" y1="39.5228" x2="13.1101" y2="20.8306" gradientUnits="userSpaceOnUse">
<stop stop-color="#DE330E"/>
<stop offset="1" stop-color="#930000"/>
</linearGradient>
<linearGradient id="paint2_linear_6641_289066" x1="13.6531" y1="34.1639" x2="13.1803" y2="26.4823" gradientUnits="userSpaceOnUse">
<stop stop-color="#DE376D"/>
<stop offset="0.99" stop-color="white"/>
</linearGradient>
<linearGradient id="paint3_linear_6641_289066" x1="4.94499" y1="33.6556" x2="5.1254" y2="36.6474" gradientUnits="userSpaceOnUse">
<stop stop-color="#DE376D"/>
<stop offset="0.99" stop-color="white"/>
</linearGradient>
<linearGradient id="paint4_linear_6641_289066" x1="21.0642" y1="33.6927" x2="20.8776" y2="36.7529" gradientUnits="userSpaceOnUse">
<stop stop-color="#DE376D"/>
<stop offset="0.99" stop-color="white"/>
</linearGradient>
<linearGradient id="paint5_linear_6641_289066" x1="7.1951" y1="4.37061" x2="24.3406" y2="4.37061" gradientUnits="userSpaceOnUse">
<stop stop-color="#FCF800"/>
<stop offset="0.53" stop-color="#FC9700"/>
<stop offset="0.71" stop-color="#FE8500"/>
<stop offset="1" stop-color="#FC9700"/>
</linearGradient>
<radialGradient id="paint6_radial_6641_289066" cx="0" cy="0" r="1" gradientUnits="userSpaceOnUse" gradientTransform="translate(7.74448 2.54567) scale(4.24751 4.24823)">
<stop stop-color="#FFF261"/>
<stop offset="0.11" stop-color="#FAED5F"/>
<stop offset="0.23" stop-color="#ECE05A"/>
<stop offset="0.36" stop-color="#D6CB51"/>
<stop offset="0.5" stop-color="#B6AD45"/>
<stop offset="0.64" stop-color="#8E8636"/>
<stop offset="0.78" stop-color="#5C5723"/>
<stop offset="0.92" stop-color="#22210D"/>
<stop offset="1"/>
</radialGradient>
<linearGradient id="paint7_linear_6641_289066" x1="10.9811" y1="4.34194" x2="20.9127" y2="4.34194" gradientUnits="userSpaceOnUse">
<stop stop-color="#DE376D"/>
<stop offset="0.99" stop-color="white"/>
</linearGradient>
<linearGradient id="paint8_linear_6641_289066" x1="-0.0154681" y1="18.4822" x2="15.142" y2="6.59837" gradientUnits="userSpaceOnUse">
<stop stop-color="#FCF800"/>
<stop offset="0.53" stop-color="#FC9700"/>
<stop offset="0.71" stop-color="#FE8500"/>
<stop offset="1" stop-color="#FC9700"/>
</linearGradient>
<linearGradient id="paint9_linear_6641_289066" x1="12.7457" y1="7.31739" x2="11.2838" y2="11.41" gradientUnits="userSpaceOnUse">
<stop stop-color="#DE376D"/>
<stop offset="0.99" stop-color="white"/>
</linearGradient>
<linearGradient id="paint10_linear_6641_289066" x1="13.121" y1="3.89706" x2="13.121" y2="40.6097" gradientUnits="userSpaceOnUse">
<stop stop-color="#FCF800"/>
<stop offset="0.53" stop-color="#FC9700"/>
<stop offset="0.71" stop-color="#FE8500"/>
<stop offset="1" stop-color="#FC9700"/>
</linearGradient>
<linearGradient id="paint11_linear_6641_289066" x1="12.9526" y1="20.1685" x2="15.8516" y2="32.7886" gradientUnits="userSpaceOnUse">
<stop stop-color="#DE376D"/>
<stop offset="0.99" stop-color="white"/>
</linearGradient>
<linearGradient id="paint12_linear_6641_289066" x1="9.13437" y1="8.96406" x2="13.2649" y2="19.5935" gradientUnits="userSpaceOnUse">
<stop stop-color="#FFF261"/>
<stop offset="0.11" stop-color="#FAED5F"/>
<stop offset="0.23" stop-color="#ECE05A"/>
<stop offset="0.36" stop-color="#D6CB51"/>
<stop offset="0.5" stop-color="#B6AD45"/>
<stop offset="0.64" stop-color="#8E8636"/>
<stop offset="0.78" stop-color="#5C5723"/>
<stop offset="0.92" stop-color="#22210D"/>
<stop offset="1"/>
</linearGradient>
<radialGradient id="paint13_radial_6641_289066" cx="0" cy="0" r="1" gradientUnits="userSpaceOnUse" gradientTransform="translate(10.8948 9.33132) scale(22.7674 22.7728)">
<stop stop-color="#FFF261"/>
<stop offset="0.11" stop-color="#FAED5F"/>
<stop offset="0.23" stop-color="#ECE05A"/>
<stop offset="0.36" stop-color="#D6CB51"/>
<stop offset="0.5" stop-color="#B6AD45"/>
<stop offset="0.64" stop-color="#8E8636"/>
<stop offset="0.78" stop-color="#5C5723"/>
<stop offset="0.92" stop-color="#22210D"/>
<stop offset="1"/>
</radialGradient>
<radialGradient id="paint14_radial_6641_289066" cx="0" cy="0" r="1" gradientUnits="userSpaceOnUse" gradientTransform="translate(13.1395 29.5037) scale(7.7985 7.79983)">
<stop stop-color="#FFF261"/>
<stop offset="0.11" stop-color="#FAED5F"/>
<stop offset="0.23" stop-color="#ECE05A"/>
<stop offset="0.36" stop-color="#D6CB51"/>
<stop offset="0.5" stop-color="#B6AD45"/>
<stop offset="0.64" stop-color="#8E8636"/>
<stop offset="0.78" stop-color="#5C5723"/>
<stop offset="0.92" stop-color="#22210D"/>
<stop offset="1"/>
</radialGradient>
<linearGradient id="paint15_linear_6641_289066" x1="12.9457" y1="12.5313" x2="13.1012" y2="24.6797" gradientUnits="userSpaceOnUse">
<stop stop-color="#FFBDCA"/>
<stop offset="1" stop-color="#FFE8D3"/>
</linearGradient>
<linearGradient id="paint16_linear_6641_289066" x1="8.65453" y1="21.707" x2="1.5397" y2="24.928" gradientUnits="userSpaceOnUse">
<stop stop-color="#DE376D"/>
<stop offset="0.99" stop-color="white"/>
</linearGradient>
<linearGradient id="paint17_linear_6641_289066" x1="13.3099" y1="10.9239" x2="12.9864" y2="20.7265" gradientUnits="userSpaceOnUse">
<stop stop-color="#161236"/>
<stop offset="1" stop-color="#361E47"/>
</linearGradient>
<linearGradient id="paint18_linear_6641_289066" x1="13.1475" y1="21.5312" x2="13.0604" y2="22.9244" gradientUnits="userSpaceOnUse">
<stop stop-color="#161236"/>
<stop offset="1" stop-color="#361E47"/>
</linearGradient>
<linearGradient id="paint19_linear_6641_289066" x1="12.8738" y1="25.5522" x2="12.7432" y2="26.4106" gradientUnits="userSpaceOnUse">
<stop stop-color="#161236"/>
<stop offset="1" stop-color="#361E47"/>
</linearGradient>
<linearGradient id="paint20_linear_6641_289066" x1="10.0825" y1="26.6018" x2="11.14" y2="24.3939" gradientUnits="userSpaceOnUse">
<stop stop-color="#161236"/>
<stop offset="1" stop-color="#361E47"/>
</linearGradient>
<linearGradient id="paint21_linear_6641_289066" x1="12.9545" y1="18.3217" x2="13.0291" y2="21.9044" gradientUnits="userSpaceOnUse">
<stop stop-color="#FFBDCA"/>
<stop offset="1" stop-color="#FFE8D3"/>
</linearGradient>
<linearGradient id="paint22_linear_6641_289066" x1="12.7594" y1="19.9986" x2="13.2695" y2="21.0248" gradientUnits="userSpaceOnUse">
<stop stop-color="#DE376D"/>
<stop offset="0.99" stop-color="white"/>
</linearGradient>
<linearGradient id="paint23_linear_6641_289066" x1="13.415" y1="9.8181" x2="13.0418" y2="21.1633" gradientUnits="userSpaceOnUse">
<stop stop-color="#DE376D"/>
<stop offset="0.99" stop-color="white"/>
</linearGradient>
<radialGradient id="paint24_radial_6641_289066" cx="0" cy="0" r="1" gradientUnits="userSpaceOnUse" gradientTransform="translate(14.2092 36.7603) scale(4.15423 4.15493)">
<stop stop-color="#FFF261"/>
<stop offset="0.11" stop-color="#FAED5F"/>
<stop offset="0.23" stop-color="#ECE05A"/>
<stop offset="0.36" stop-color="#D6CB51"/>
<stop offset="0.5" stop-color="#B6AD45"/>
<stop offset="0.64" stop-color="#8E8636"/>
<stop offset="0.78" stop-color="#5C5723"/>
<stop offset="0.92" stop-color="#22210D"/>
<stop offset="1"/>
</radialGradient>
<linearGradient id="paint25_linear_6641_289066" x1="12.345" y1="26.4224" x2="11.5549" y2="31.305" gradientUnits="userSpaceOnUse">
<stop stop-color="#FFF261"/>
<stop offset="0.11" stop-color="#FAED5F"/>
<stop offset="0.23" stop-color="#ECE05A"/>
<stop offset="0.36" stop-color="#D6CB51"/>
<stop offset="0.5" stop-color="#B6AD45"/>
<stop offset="0.64" stop-color="#8E8636"/>
<stop offset="0.78" stop-color="#5C5723"/>
<stop offset="0.92" stop-color="#22210D"/>
<stop offset="1"/>
</linearGradient>
<radialGradient id="paint26_radial_6641_289066" cx="0" cy="0" r="1" gradientUnits="userSpaceOnUse" gradientTransform="translate(7.43062 19.3212) scale(11.0572 11.0591)">
<stop stop-color="#FFF261"/>
<stop offset="0.11" stop-color="#FAED5F"/>
<stop offset="0.23" stop-color="#ECE05A"/>
<stop offset="0.36" stop-color="#D6CB51"/>
<stop offset="0.5" stop-color="#B6AD45"/>
<stop offset="0.64" stop-color="#8E8636"/>
<stop offset="0.78" stop-color="#5C5723"/>
<stop offset="0.92" stop-color="#22210D"/>
<stop offset="1"/>
</radialGradient>
<linearGradient id="paint27_linear_6641_289066" x1="5.03001" y1="16.191" x2="20.938" y2="16.191" gradientUnits="userSpaceOnUse">
<stop stop-color="#DE376D"/>
<stop offset="0.99" stop-color="white"/>
</linearGradient>
<radialGradient id="paint28_radial_6641_289066" cx="0" cy="0" r="1" gradientUnits="userSpaceOnUse" gradientTransform="translate(12.3362 27.5722) scale(11.2251 11.2278)">
<stop offset="0.02" stop-color="#F1F9FE"/>
<stop offset="1"/>
</radialGradient>
<linearGradient id="paint29_linear_6641_289066" x1="13.4125" y1="39.1763" x2="13.7858" y2="27.1655" gradientUnits="userSpaceOnUse">
<stop stop-color="#DE376D"/>
<stop offset="0.99" stop-color="white"/>
</linearGradient>
<clipPath id="clip0_6641_289066">
<rect width="25" height="33.5341" fill="white" transform="translate(0.597656 0.843262)"/>
</clipPath>
</defs>
</svg>
