<svg width="24" height="25" viewBox="0 0 24 25" fill="none" xmlns="http://www.w3.org/2000/svg">
<path d="M15 23.1499H9C3.57 23.1499 1.25 20.8299 1.25 15.3999V9.3999C1.25 3.9699 3.57 1.6499 9 1.6499H15C20.43 1.6499 22.75 3.9699 22.75 9.3999V15.3999C22.75 20.8299 20.43 23.1499 15 23.1499ZM9 3.1499C4.39 3.1499 2.75 4.7899 2.75 9.3999V15.3999C2.75 20.0099 4.39 21.6499 9 21.6499H15C19.61 21.6499 21.25 20.0099 21.25 15.3999V9.3999C21.25 4.7899 19.61 3.1499 15 3.1499H9Z" fill="white"/>
<path d="M9 11.1499C7.48 11.1499 6.25 9.9199 6.25 8.3999C6.25 6.8799 7.48 5.6499 9 5.6499C10.52 5.6499 11.75 6.8799 11.75 8.3999C11.75 9.9199 10.52 11.1499 9 11.1499ZM9 7.1499C8.31 7.1499 7.75 7.7099 7.75 8.3999C7.75 9.0899 8.31 9.6499 9 9.6499C9.69 9.6499 10.25 9.0899 10.25 8.3999C10.25 7.7099 9.69 7.1499 9 7.1499Z" fill="white"/>
<path d="M2.66977 20.1C2.42977 20.1 2.18977 19.98 2.04977 19.77C1.81977 19.43 1.90977 18.96 2.25977 18.73L7.18977 15.42C8.26977 14.69 9.75977 14.78 10.7398 15.61L11.0698 15.9C11.5698 16.33 12.4198 16.33 12.9098 15.9L17.0698 12.33C18.1298 11.42 19.7998 11.42 20.8698 12.33L22.4998 13.73C22.8098 14 22.8498 14.47 22.5798 14.79C22.3098 15.1 21.8398 15.14 21.5198 14.87L19.8898 13.47C19.3898 13.04 18.5398 13.04 18.0398 13.47L13.8798 17.04C12.8198 17.95 11.1498 17.95 10.0798 17.04L9.74977 16.75C9.28977 16.36 8.52977 16.32 8.01977 16.67L3.08977 19.98C2.95977 20.06 2.80977 20.1 2.66977 20.1Z" fill="white"/>
</svg>
