<svg width="25" height="28" viewBox="0 0 25 28" fill="none" xmlns="http://www.w3.org/2000/svg">
<path d="M22.2924 19.3989V8.09025L12.5112 2.43701L2.71094 8.09025V19.3989L12.5027 25.0542L22.2924 19.3989ZM4.00588 19.1266C3.88076 19.0551 3.77684 18.9517 3.70475 18.8269C3.63265 18.7021 3.59495 18.5604 3.5955 18.4162V9.075C3.59517 8.9309 3.63296 8.78929 3.70504 8.66452C3.77711 8.53976 3.8809 8.43629 4.00588 8.36462L12.086 3.68549C12.2108 3.61343 12.3523 3.5755 12.4964 3.5755C12.6404 3.5755 12.782 3.61343 12.9067 3.68549L20.9868 8.36462C21.1115 8.43662 21.2151 8.54017 21.2871 8.66485C21.3591 8.78954 21.3971 8.93099 21.3972 9.075V18.4162C21.3973 18.5603 21.3594 18.7018 21.2874 18.8266C21.2153 18.9513 21.1117 19.0548 20.9868 19.1266L12.9067 23.8058C12.7816 23.8768 12.6402 23.9141 12.4964 23.9141C12.3525 23.9141 12.2111 23.8768 12.086 23.8058L4.00588 19.1266Z" fill="#FFCC00"/>
<path d="M19.7683 17.966V9.56906L12.5004 5.37061L5.23047 9.56906V17.966L12.5004 22.1623L19.7683 17.966Z" fill="#FFCC00"/>
<path d="M15.0588 12.903V15.8315L15.9242 16.3696V12.4181L12.4094 10.2573L8.89453 12.4181V16.3696L9.75994 15.8315V12.903L12.4094 11.293L15.0588 12.903Z" fill="#572721"/>
<path d="M16.0498 16.5947L14.9398 15.9057V12.9772L12.4116 11.4395L9.88551 12.9772V15.9057L8.77344 16.5947V12.354L12.4116 10.1167L16.0498 12.354V16.5947ZM9.02009 12.4901V16.1524L9.63886 15.7674V12.8368L12.4031 11.1524L15.1673 12.8368V15.7674L15.7861 16.1524V12.4901L12.384 10.4059L9.02009 12.4901Z" fill="#572721"/>
<path d="M13.3159 13.8784V14.7503L14.1835 15.2884L14.1898 13.3807L12.4122 12.3237L10.6367 13.3807L10.641 15.2884L11.5085 14.7503V13.8784L12.4122 13.3361L13.3159 13.8784Z" fill="#572721"/>
<path d="M14.3065 15.494L13.1923 14.8029V13.933L12.412 13.463L11.6316 13.933V14.8029L10.5195 15.494V13.295L12.4184 12.1636L14.3193 13.295L14.3065 15.494ZM13.439 14.6667L14.0599 15.0517V13.4354L12.4056 12.4507L10.7513 13.4354V15.0517L11.3722 14.6667V13.7927L12.3992 13.1759L13.4262 13.7927L13.439 14.6667Z" fill="#572721"/>
<path d="M16.8729 11.9933V16.9656L17.6873 17.4717V11.5381L12.4139 8.2417L7.14062 11.5381V17.4717L7.95713 16.9656V11.9933L12.4139 9.20298L16.8729 11.9933Z" fill="#572721"/>
<path d="M7.01562 17.7029V11.478L12.4123 8.10498L17.8089 11.478V17.7029L16.7458 17.0415V12.0692L12.4123 9.3555L8.0788 12.0692V17.0415L7.01562 17.7029ZM16.9945 16.9012L17.5623 17.2542V11.6162L12.4123 8.39422L7.26229 11.6162V17.2585L7.83215 16.9054V11.9331L12.4123 9.06414L16.9945 11.9331V16.9012Z" fill="#572721"/>
<path d="M12.5011 27.4432C12.3071 27.4435 12.1165 27.3929 11.9482 27.2965L1.05285 21.0031C0.884722 20.9062 0.745083 20.7667 0.648022 20.5987C0.550962 20.4307 0.499909 20.24 0.5 20.046V7.46335C0.499909 7.26929 0.550962 7.07863 0.648022 6.9106C0.745083 6.74257 0.884722 6.6031 1.05285 6.50626L11.9482 0.212826C12.1162 0.116563 12.3064 0.065918 12.5 0.065918C12.6936 0.065918 12.8838 0.116563 13.0518 0.212826L23.9493 6.50626C24.1169 6.60354 24.256 6.74316 24.3526 6.91113C24.4493 7.07911 24.5001 7.26954 24.5 7.46335V20.046C24.5001 20.2398 24.4493 20.4302 24.3526 20.5982C24.256 20.7662 24.1169 20.9058 23.9493 21.0031L13.0518 27.2965C12.8842 27.3926 12.6943 27.4432 12.5011 27.4432ZM2.70926 19.4079L12.5011 25.0633L22.2822 19.4079V8.09929L12.5011 2.44605L2.70926 8.09929V19.4079Z" fill="#572721"/>
<path d="M12.5024 23.91C12.3585 23.91 12.2171 23.8727 12.092 23.8015L4.01195 19.1224C3.88683 19.0509 3.78292 18.9474 3.71082 18.8226C3.63873 18.6978 3.60102 18.5561 3.60157 18.412V9.07714C3.60124 8.93304 3.63903 8.79142 3.71111 8.66666C3.78319 8.5419 3.88698 8.43843 4.01195 8.36676L12.092 3.68763C12.2168 3.61557 12.3584 3.57764 12.5024 3.57764C12.6465 3.57764 12.788 3.61557 12.9128 3.68763L20.9929 8.36676C21.1176 8.43876 21.2211 8.5423 21.2932 8.66699C21.3652 8.79168 21.4032 8.93313 21.4033 9.07714V18.4184C21.4034 18.5624 21.3655 18.704 21.2935 18.8287C21.2214 18.9534 21.1177 19.0569 20.9929 19.1288L12.9128 23.8079C12.7871 23.8766 12.6457 23.9118 12.5024 23.91ZM5.22397 17.9547L12.4939 22.1532L19.7724 17.9547V9.5493L12.5024 5.35085L5.22397 9.5493V17.9547Z" fill="#572721"/>
</svg>
