<svg width="7194" height="9368" viewBox="0 0 7194 9368" fill="none" xmlns="http://www.w3.org/2000/svg">
<g clip-path="url(#clip0_6356_21284)">
<path d="M3057.32 1439.1L3019.78 1405.48L2990.52 1446.51L2883.13 1597.08L2864.9 1622.65L2882.56 1648.62L2981.18 1793.67C2981.16 1794.46 2981.14 1795.27 2981.12 1796.12C2980.88 1806.72 2980.4 1822.15 2979.42 1841.17C2977.47 1879.28 2973.56 1931.53 2965.78 1988.27C2957.98 2045.15 2946.4 2105.62 2929.38 2160.48C2912.18 2215.92 2890.4 2262.36 2863.95 2293.79L2791.38 2380.04L2903.41 2367.65L3343.45 2319.02L3474.49 2304.54L3362.63 2236.09C3362.29 2235.85 3361.48 2235.27 3360.25 2234.31C3357.67 2232.28 3353.19 2228.51 3347.13 2222.51C3335.03 2210.51 3316.56 2189.5 3294.41 2155.41C3251.11 2088.77 3193.73 1972.14 3142.64 1775.62L3206.93 1612.57L3218.44 1583.37L3195.06 1562.44L3057.32 1439.1Z" fill="#EC9C1A" stroke="#572721" stroke-width="90.1973"/>
<path d="M4195.87 1446.51L4166.61 1405.48L4129.07 1439.1L3991.33 1562.44L3967.95 1583.37L3979.46 1612.57L4043.75 1775.62C3992.66 1972.14 3935.28 2088.77 3891.98 2155.41C3869.83 2189.5 3851.36 2210.51 3839.26 2222.51C3833.2 2228.51 3828.72 2232.28 3826.13 2234.31C3824.91 2235.27 3824.1 2235.85 3823.76 2236.09L3711.9 2304.54L3842.94 2319.02L4282.98 2367.65L4395.01 2380.04L4322.44 2293.79C4295.99 2262.36 4274.21 2215.92 4257.01 2160.48C4239.99 2105.62 4228.41 2045.15 4220.61 1988.27C4212.83 1931.53 4208.92 1879.28 4206.97 1841.17C4205.99 1822.15 4205.51 1806.72 4205.27 1796.12C4205.25 1795.27 4205.23 1794.46 4205.21 1793.67L4303.83 1648.62L4321.49 1622.65L4303.25 1597.08L4195.87 1446.51Z" fill="#EC9C1A" stroke="#572721" stroke-width="90.1973"/>
<path d="M3095.38 1772.33C3095.38 1772.33 3152.57 2010.05 3240.89 2154.01C3240.89 2154.01 3129.22 2297.19 2958.03 2215.1L2966.59 2194.87C2966.59 2194.87 3109.38 2197.2 3126.11 2076.2C3142.84 1955.19 3095.38 1772.33 3095.38 1772.33Z" fill="#E67D02"/>
<path d="M4073.09 1838.06C4073.09 1838.06 4019.79 2041.16 3948.2 2149.32C3948.2 2149.32 4061.42 2294.06 4229.11 2217.8L4218.99 2187.06C4218.99 2187.06 3950.92 2210.8 4073.09 1838.06Z" fill="#E67D02"/>
<path d="M4797.53 1383.63L4583.85 1499.2H4527.65L4553.14 1561.4L4616.32 1715.56C4522.77 1875.61 4438.52 1988.71 4363.28 2064.82C4284.84 2144.16 4218.89 2180.58 4165 2191.15C4064.15 2210.93 3977.32 2142.11 3901.61 2007.3C3827.67 1875.61 3776.36 1700.25 3743.49 1555.27C3727.16 1483.27 3715.58 1419.7 3708.09 1374.18C3704.35 1351.43 3701.63 1333.21 3699.86 1320.74C3699.6 1318.93 3699.36 1317.24 3699.15 1315.67L3835.58 1057.63L3850.26 1029.87L3829.31 1006.47L3630.11 783.922L3596.5 746.38L3562.9 783.922L3363.69 1006.47L3342.75 1029.87L3357.43 1057.63L3493.86 1315.67C3493.64 1317.23 3493.4 1318.93 3493.14 1320.74C3491.37 1333.21 3488.65 1351.43 3484.9 1374.18C3477.4 1419.72 3465.81 1483.3 3449.47 1555.32C3416.56 1700.33 3365.22 1875.73 3291.25 2007.44C3215.51 2142.29 3128.67 2211.11 3027.85 2191.32C2973.97 2180.74 2908.04 2144.31 2829.63 2064.94C2754.41 1988.8 2670.19 1875.67 2576.68 1715.57L2639.86 1561.4L2655.23 1523.91L2619.59 1504.63L2395.87 1383.63L2293.94 1328.5L2331.79 1438.02L2716.97 2552.73L2727.47 2583.1H2759.6H4433.8H4465.93L4476.42 2552.73L4861.61 1438.02L4899.46 1328.5L4797.53 1383.63Z" fill="url(#paint0_linear_6356_21284)" stroke="#572721" stroke-width="90.1973"/>
<path d="M2507.49 1808.12L2759.61 2538.03H4433.81L4664.92 1868.43C4664.92 1868.43 4443.92 2380.06 3674.72 2393.68C2905.52 2407.3 2692.69 2179.3 2507.1 1808.12H2507.49Z" fill="url(#paint1_linear_6356_21284)"/>
<path opacity="0.5" d="M3586.46 1267.29C3586.46 1267.29 3548.72 1521.75 3484.52 1766.09C3414.49 2033.38 3631.98 2293.28 3907.06 2265.66C3909.78 2265.66 3912.12 2265.27 3914.84 2264.88C3914.84 2264.88 3643.27 1868.02 3586.46 1267.29Z" fill="url(#paint2_linear_6356_21284)"/>
<path d="M3596.83 863.773L3450.15 1040.41L3590.99 1314.32L3743.9 1040.41L3596.83 863.773Z" fill="#EC9C1A"/>
<path d="M3596.87 891.055L3464.59 1047.07L3593.37 1267.29L3728.77 1042.79L3596.87 891.055Z" fill="url(#paint3_linear_6356_21284)"/>
<path d="M3464.59 1047.09L3593.37 1267.31L3728.77 1042.81C3728.77 1042.81 3628 1169.26 3596.87 1168.09C3565.36 1166.93 3464.98 1047.09 3464.98 1047.09H3464.59Z" fill="#F4AF03"/>
<path opacity="0.49" d="M3588.33 932.656C3588.33 932.656 3503.51 1028.37 3506.62 1034.59C3510.12 1040.82 3576.66 1074.67 3592.22 1073.89C3607.78 1073.11 3674.7 1047.82 3675.48 1029.54C3676.26 1011.25 3596.11 923.707 3588.33 932.656Z" fill="url(#paint4_linear_6356_21284)"/>
<path opacity="0.5" d="M2728.53 2018.62L2898.56 2538.03H3252.23L3165.08 2212.77C3165.08 2212.77 3004.39 2354.39 2728.53 2018.62Z" fill="url(#paint5_linear_6356_21284)"/>
<path opacity="0.5" d="M3252.2 2141.95L3359.59 2538.03H3509.38L3426.51 1808.12C3426.51 1808.12 3378.26 2007.72 3251.81 2142.34L3252.2 2141.95Z" fill="url(#paint6_linear_6356_21284)"/>
<path d="M4596.39 2858.05H4641.39V2813.05V2741.07C4641.39 2581.99 4512.3 2452.9 4353.21 2452.9H2840.09C2681.01 2452.9 2551.92 2581.99 2551.92 2741.07V2813.05V2858.05H2596.92H4596.39Z" fill="url(#paint7_linear_6356_21284)" stroke="#572721" stroke-width="90"/>
<path d="M2596.92 2711.15V2813.09H4596.39L4592.5 2697.15C4592.5 2697.15 3938.07 2793.25 3450.17 2786.63C2962.26 2780.02 2597.31 2711.15 2597.31 2711.15H2596.92Z" fill="#E67D02"/>
<path opacity="0.57" d="M4415.95 2551.59C4415.95 2576.1 4050.61 2605.28 3600.06 2605.28C3149.51 2605.28 2784.16 2562.48 2784.16 2537.97C2784.16 2513.46 3149.51 2497.9 3600.06 2497.9C4050.61 2497.9 4415.95 2527.08 4415.95 2551.59Z" fill="url(#paint8_linear_6356_21284)"/>
<path d="M2526.55 1718.6C2526.55 1718.6 3202.77 3050.8 3540.49 1306.96C3540.49 1306.96 3307.82 3135.62 2526.55 1718.6Z" fill="#FCED5C"/>
<path d="M4665.31 1718.6C4665.31 1718.6 3989.09 3050.8 3651.38 1306.96C3651.38 1306.96 3884.04 3135.62 4665.31 1718.6Z" fill="#FCED5C"/>
<path d="M2374.42 1423.3L2598.53 1544.3L2526.55 1718.61L2542.5 1553.25L2374.42 1423.3Z" fill="#FCED5C"/>
<path d="M4819 1423.3L4594.89 1544.3L4665.31 1718.61L4645.86 1571.15L4819 1423.3Z" fill="#FCED5C"/>
<path d="M30.9076 5762.53L30.8883 5762.56L30.8691 5762.59C-109.946 6007.05 -109.946 6307.98 30.8691 6552.44L30.8883 6552.48L30.9076 6552.51L1471.83 9048.09C1612.69 9292.62 1873.65 9443.47 2156.04 9443.47H5037.32C5319.71 9443.47 5580.67 9292.62 5721.53 9048.09L7162.45 6552.51L7162.47 6552.48L7162.49 6552.44C7303.31 6307.98 7303.31 6007.05 7162.49 5762.59L7162.47 5762.56L7162.45 5762.53L5721.53 3266.95C5580.67 3022.41 5319.71 2871.57 5037.32 2871.57H2156.04C1873.65 2871.57 1612.69 3022.41 1471.83 3266.95L30.9076 5762.53Z" fill="#E67D02" stroke="#572721" stroke-width="150"/>
<path d="M4970.15 3097.97H2224.1C1980.81 3097.97 1755.64 3228.02 1634 3438.96L260.327 5816.84C138.683 6027.78 138.683 6287.24 260.327 6498.18L1633.35 8876.06C1754.99 9086.99 1980.17 9217.05 2223.45 9217.05H4969.5C5212.79 9217.05 5437.96 9086.99 5559.6 8876.06L6932.63 6498.18C7054.27 6287.24 7054.27 6027.78 6932.63 5816.84L5559.6 3438.96C5437.96 3228.02 5212.79 3097.97 4969.5 3097.97H4970.15Z" fill="url(#paint9_linear_6356_21284)"/>
<path d="M963.631 5832.34C963.631 5832.34 2090.13 4250.96 2406.54 4140.97C2723.59 4031.62 4635.6 3953.97 4869.83 4027.73C5104.7 4101.5 5421.11 4404.96 5421.11 4404.96L5037.41 3625.27C5037.41 3625.27 2417.54 3444.1 1965.9 3843.33C1514.26 4242.55 962.984 5831.69 962.984 5831.69L963.631 5832.34Z" fill="#572721"/>
<path d="M4764.35 8938.89H2429.82C2159.35 8938.89 1907.65 8793.3 1772.42 8559.07L605.158 6537.06C469.926 6302.83 469.926 6011.67 605.158 5777.44L1772.42 3755.43C1907.65 3521.2 2159.35 3375.62 2429.82 3375.62H4764.35C5034.81 3375.62 5286.51 3521.2 5421.74 3755.43L6589.01 5777.44C6724.24 6011.67 6724.24 6302.83 6589.01 6537.06L5421.74 8559.07C5286.51 8793.3 5034.81 8938.89 4764.35 8938.89ZM2429.17 3736.02C2286.82 3736.02 2154.18 3812.37 2083 3935.95L915.739 5957.96C844.564 6080.9 844.564 6234.25 915.739 6357.83L2083 8379.84C2154.18 8502.78 2286.82 8579.78 2429.17 8579.78H4763.7C4906.05 8579.78 5038.69 8503.43 5109.87 8379.84L6277.13 6357.83C6348.31 6234.9 6348.31 6081.55 6277.13 5957.96L5109.87 3935.95C5038.69 3813.02 4906.05 3736.02 4763.7 3736.02H2429.17Z" fill="url(#paint10_linear_6356_21284)"/>
<path d="M2508.57 3742.38L2438.04 3374.86H3433.19L3386.6 3737.2L2508.57 3742.38Z" fill="url(#paint11_linear_6356_21284)"/>
<path d="M3525.88 3737.2L3615.17 3374.86H3999.51L3842.93 3735.91L3525.88 3737.2Z" fill="#EB9818"/>
<path d="M5697.27 8150.08C5697.27 8150.08 6014.32 8308.61 6066.73 8296.31C6119.14 8284.02 5752.91 8036.85 5752.91 8036.85L5697.27 8150.08Z" fill="#C66402"/>
<path d="M5807.22 7937.27L5752.87 8036.91C5752.87 8036.91 6091.92 8263.38 6066.68 8296.37C6066.68 8296.37 6144.97 8265.96 5794.92 8036.91L5807.22 7937.27Z" fill="#FDF15E"/>
<path d="M1221.74 7600.81C1221.74 7600.81 812.164 7694.63 786.93 7633.81C761.695 7572.99 1037.33 7295.4 1037.33 7295.4L1222.39 7600.81H1221.74Z" fill="#C66402"/>
<path d="M1280.62 7715.95L1169.33 7620.19C1169.33 7620.19 801.166 7681.01 787.578 7634.43C787.578 7634.43 1022.45 7640.9 1204.92 7571.66L1281.27 7716.6L1280.62 7715.95Z" fill="#FDF15E"/>
<path fill-rule="evenodd" clip-rule="evenodd" d="M1962.2 7498.54L2182.11 7304.61L2187.85 5626.57L3599.94 4817.73L5006.46 5636.22L5000.72 7312.94L5219.29 7509.69L5226.14 5510.39L3600.81 4564.58L1969.05 5499.24L1962.2 7498.54Z" fill="#572721"/>
<path fill-rule="evenodd" clip-rule="evenodd" d="M2469.74 7050.4L2689.65 6856.03L2693.11 5844.62L3597.89 5326.36L4499.11 5850.8L4495.65 6860.02L4714.22 7056.77L4718.78 5724.97L3598.76 5073.21L3036.53 5395.25L2474.31 5717.29L2469.74 7050.4Z" fill="#572721"/>
<path fill-rule="evenodd" clip-rule="evenodd" d="M2978.17 6600.94L3198.07 6406.57L3199.25 6062.67L3596.72 5835L3992.63 6065.38L3991.45 6409.73L4210.03 6603.84L4212.3 5939.56L3597.59 5581.84L2980.44 5935.34L2978.17 6600.94Z" fill="#572721"/>
</g>
<defs>
<linearGradient id="paint0_linear_6356_21284" x1="3426.87" y1="2631.77" x2="3680.54" y2="825.283" gradientUnits="userSpaceOnUse">
<stop stop-color="#EFAC28"/>
<stop offset="0.09" stop-color="#F0B42E"/>
<stop offset="0.47" stop-color="#F7D649"/>
<stop offset="0.79" stop-color="#FBEA5A"/>
<stop offset="1" stop-color="#FDF260"/>
</linearGradient>
<linearGradient id="paint1_linear_6356_21284" x1="3581.73" y1="1751.7" x2="3625.31" y2="2580.44" gradientUnits="userSpaceOnUse">
<stop stop-color="#F7D649"/>
<stop offset="1" stop-color="#E67D02"/>
</linearGradient>
<linearGradient id="paint2_linear_6356_21284" x1="3421.88" y1="1654.81" x2="4058.8" y2="1925.22" gradientUnits="userSpaceOnUse">
<stop stop-color="#FEF8A8"/>
<stop offset="0.21" stop-color="#FCEF8E"/>
<stop offset="0.55" stop-color="#F9E46A"/>
<stop offset="0.82" stop-color="#F8DD54"/>
<stop offset="1" stop-color="#F8DB4D"/>
</linearGradient>
<linearGradient id="paint3_linear_6356_21284" x1="3502.33" y1="995.716" x2="3687.53" y2="1162.63" gradientUnits="userSpaceOnUse">
<stop stop-color="#EC6C5B"/>
<stop offset="0.05" stop-color="#ED7454"/>
<stop offset="0.36" stop-color="#F4A530"/>
<stop offset="0.63" stop-color="#FAC916"/>
<stop offset="0.86" stop-color="#FDDF05"/>
<stop offset="1" stop-color="#FFE700"/>
</linearGradient>
<linearGradient id="paint4_linear_6356_21284" x1="3506.23" y1="1003.08" x2="3675.09" y2="1003.08" gradientUnits="userSpaceOnUse">
<stop stop-color="#ED3A95"/>
<stop offset="0.1" stop-color="#ED418E"/>
<stop offset="0.27" stop-color="#EF577C"/>
<stop offset="0.46" stop-color="#F37B60"/>
<stop offset="0.69" stop-color="#F8AD37"/>
<stop offset="0.94" stop-color="#FEEC05"/>
<stop offset="0.96" stop-color="#FFF002"/>
</linearGradient>
<linearGradient id="paint5_linear_6356_21284" x1="2728.53" y1="2278.52" x2="3252.23" y2="2278.52" gradientUnits="userSpaceOnUse">
<stop stop-color="#FEF8A8"/>
<stop offset="0.21" stop-color="#FCEF8E"/>
<stop offset="0.55" stop-color="#F9E46A"/>
<stop offset="0.82" stop-color="#F8DD54"/>
<stop offset="1" stop-color="#F8DB4D"/>
</linearGradient>
<linearGradient id="paint6_linear_6356_21284" x1="3252.2" y1="2173.07" x2="3509.38" y2="2173.07" gradientUnits="userSpaceOnUse">
<stop stop-color="#FEF8A8"/>
<stop offset="0.21" stop-color="#FCEF8E"/>
<stop offset="0.55" stop-color="#F9E46A"/>
<stop offset="0.82" stop-color="#F8DD54"/>
<stop offset="1" stop-color="#F8DB4D"/>
</linearGradient>
<linearGradient id="paint7_linear_6356_21284" x1="3595.68" y1="2830.17" x2="3601.91" y2="2484.67" gradientUnits="userSpaceOnUse">
<stop stop-color="#E67D02"/>
<stop offset="1" stop-color="#F7D649"/>
</linearGradient>
<linearGradient id="paint8_linear_6356_21284" x1="2784.16" y1="2551.59" x2="4415.95" y2="2551.59" gradientUnits="userSpaceOnUse">
<stop stop-color="#FEF8A8"/>
<stop offset="0.21" stop-color="#FCEF8E"/>
<stop offset="0.55" stop-color="#F9E46A"/>
<stop offset="0.82" stop-color="#F8DD54"/>
<stop offset="1" stop-color="#F8DB4D"/>
</linearGradient>
<linearGradient id="paint9_linear_6356_21284" x1="3597.12" y1="3097.97" x2="3597.12" y2="9217.05" gradientUnits="userSpaceOnUse">
<stop stop-color="#E77D02"/>
<stop offset="0.3" stop-color="#EA8D0F"/>
<stop offset="0.96" stop-color="#F0AE29"/>
</linearGradient>
<linearGradient id="paint10_linear_6356_21284" x1="3597.08" y1="8938.89" x2="3597.08" y2="3376.26" gradientUnits="userSpaceOnUse">
<stop stop-color="#FDF260"/>
<stop offset="0.22" stop-color="#FADC44"/>
<stop offset="0.55" stop-color="#F6C120"/>
<stop offset="0.82" stop-color="#F3B10A"/>
<stop offset="1" stop-color="#F3AB03"/>
</linearGradient>
<linearGradient id="paint11_linear_6356_21284" x1="3404.72" y1="3666.67" x2="2425.75" y2="3422.74" gradientUnits="userSpaceOnUse">
<stop stop-color="#EC9817"/>
<stop offset="0.17" stop-color="#EA9011"/>
<stop offset="0.62" stop-color="#E78205"/>
<stop offset="1" stop-color="#E67D02"/>
</linearGradient>
<clipPath id="clip0_6356_21284">
<rect width="7193.17" height="9367.88" fill="white"/>
</clipPath>
</defs>
</svg>
