<svg width="20" height="21" viewBox="0 0 20 21" fill="none" xmlns="http://www.w3.org/2000/svg">
<path d="M15.6372 6.28667H13.2842V5.50236C13.2842 4.87832 13.0364 4.27984 12.5951 3.83858C12.1538 3.39731 11.5553 3.14941 10.9313 3.14941H9.36266C8.73862 3.14941 8.14014 3.39731 7.69888 3.83858C7.25762 4.27984 7.00972 4.87832 7.00972 5.50236V6.28667H4.65677C4.03274 6.28667 3.43426 6.53457 2.993 6.97583C2.55174 7.41709 2.30383 8.01557 2.30383 8.63961V15.6984C2.30383 16.3225 2.55174 16.921 2.993 17.3622C3.43426 17.8035 4.03274 18.0513 4.65677 18.0513H15.6372C16.2612 18.0513 16.8597 17.8035 17.301 17.3622C17.7422 16.921 17.9901 16.3225 17.9901 15.6984V8.63961C17.9901 8.01557 17.7422 7.41709 17.301 6.97583C16.8597 6.53457 16.2612 6.28667 15.6372 6.28667ZM8.57834 5.50236C8.57834 5.29434 8.66097 5.09485 8.80807 4.94776C8.95515 4.80067 9.15464 4.71804 9.36266 4.71804H10.9313C11.1393 4.71804 11.3388 4.80067 11.4859 4.94776C11.633 5.09485 11.7156 5.29434 11.7156 5.50236V6.28667H8.57834V5.50236ZM16.4215 15.6984C16.4215 15.9064 16.3388 16.1059 16.1918 16.253C16.0447 16.4002 15.8452 16.4827 15.6372 16.4827H4.65677C4.44876 16.4827 4.24927 16.4002 4.10219 16.253C3.95509 16.1059 3.87247 15.9064 3.87247 15.6984V11.3847C5.86953 12.177 7.99849 12.5841 10.147 12.5847C12.2954 12.5834 14.4242 12.1762 16.4215 11.3847V15.6984ZM16.4215 9.66706C14.4438 10.5359 12.3072 10.9845 10.147 10.9845C7.98681 10.9845 5.85019 10.5359 3.87247 9.66706V8.63961C3.87247 8.43159 3.95509 8.23211 4.10219 8.08501C4.24927 7.93793 4.44876 7.8553 4.65677 7.8553H15.6372C15.8452 7.8553 16.0447 7.93793 16.1918 8.08501C16.3388 8.23211 16.4215 8.43159 16.4215 8.63961V9.66706Z" fill="#98989B"/>
</svg>
