<svg width="32" height="33" viewBox="0 0 32 33" fill="none" xmlns="http://www.w3.org/2000/svg">
<mask id="mask0_3_3197" style="mask-type:luminance" maskUnits="userSpaceOnUse" x="0" y="3" width="32" height="27">
<path d="M31.4353 3.98633H0.564697V29.2099H31.4353V3.98633Z" fill="white"/>
</mask>
<g mask="url(#mask0_3_3197)">
<path d="M18.3656 16.9697L18.1799 18.2139L15.9982 16.93L13.8165 18.2139L13.6308 16.9697L15.9982 15.5551L18.3656 16.9697Z" fill="#459C6E"/>
<path d="M18.1709 23.7878L15.9986 24.5208L13.8263 23.7878L14.4658 22.5926L15.9986 23.2182L17.5315 22.5926L18.1709 23.7878Z" fill="#58C88D"/>
<path d="M15.9988 15.5527L18.3663 16.9698L23.8347 13.0502L22.732 11.8316C21.3238 13.0992 19.4172 13.8462 17.5176 13.8976L15.9988 12.9614L14.4801 13.8976C12.5805 13.8462 10.6739 13.0992 9.26565 11.8316L8.16309 13.0502L13.6314 16.9698L15.9988 15.5527Z" fill="#459C6E"/>
<path d="M22.7309 11.8321C21.3204 13.1021 19.416 13.8444 17.5164 13.8981L15.9977 12.9643L14.479 13.8981C12.5794 13.8444 10.6752 13.1021 9.26453 11.8321C9.96989 11.0524 10.701 10.2447 11.4063 9.46501L13.4563 8.82068L15.9977 10.6136L18.5391 8.82068L20.5892 9.46501C21.2944 10.2447 22.0256 11.0524 22.7309 11.8321Z" fill="#58C88D"/>
<path d="M18.1809 18.2156L17.5321 22.5926L15.9992 23.2183L14.4664 22.5926L13.8175 18.2156L15.9992 16.9316L18.1809 18.2156Z" fill="#459C6E"/>
<path d="M19.857 26.9752L18.2559 28.74L15.999 28.0467L13.7421 28.74L12.1411 26.9752L13.8267 23.7864L15.999 24.5193L18.1713 23.7864L19.857 26.9752Z" fill="#295C41"/>
<path d="M18.2564 28.739L17.8379 29.2083H14.161L13.7426 28.739L15.9994 28.0457L18.2564 28.739Z" fill="#58C88D"/>
<path d="M12.5804 17.6284L9.27726 15.6441L8.60718 17.493L10.7231 20.1239L11.7786 25.1009L13.2269 22.4303L12.5804 17.6284Z" fill="#459C6E"/>
<path d="M8.60825 17.4941L8.04401 19.0466L11.7797 25.102L10.7241 20.125L8.60825 17.4941Z" fill="#295C41"/>
<path d="M19.4199 17.6284L22.7231 15.6441L23.3931 17.493L21.2772 20.1239L20.2216 25.1009L18.7734 22.4303L19.4199 17.6284Z" fill="#459C6E"/>
<path d="M23.3934 17.4941L23.9576 19.0466L20.2219 25.102L21.2775 20.125L23.3934 17.4941Z" fill="#295C41"/>
<path d="M2.46589 9.81074C2.52403 7.90351 6.08465 3.98633 6.08465 3.98633C4.53808 5.62977 2.78218 6.91604 1.4891 8.77191C1.13094 9.28549 0.90535 9.93212 1.01931 10.5367C1.23561 11.6759 2.20309 12.4533 3.81246 12.6027C4.6497 12.6798 7.13588 12.584 7.13588 12.584L8.45455 11.1273C6.97309 11.2301 2.41705 11.4075 2.46589 9.81074Z" fill="#295C41"/>
<path d="M5.22932 9.07538C4.63627 8.78124 4.2153 8.16263 4.53394 7.13781C4.90604 5.93558 5.35491 5.05783 6.08515 3.98633C6.08515 3.98633 2.52453 7.90351 2.46639 9.81074C2.41755 11.4075 6.97359 11.2301 8.4574 11.1297L9.98772 9.43954C7.94804 9.43954 6.63867 9.77807 5.22932 9.07538Z" fill="#58C88D"/>
<path d="M29.5341 9.81074C29.476 7.90351 25.9153 3.98633 25.9153 3.98633C27.4619 5.62977 29.2178 6.91604 30.5108 8.77191C30.869 9.28549 31.0946 9.93212 30.9807 10.5367C30.7644 11.6759 29.7969 12.4533 28.1875 12.6027C27.3503 12.6798 24.8641 12.584 24.8641 12.584L23.5454 11.1273C25.0269 11.2301 29.5829 11.4075 29.5341 9.81074Z" fill="#295C41"/>
<path d="M26.7709 9.07538C27.3639 8.78124 27.7848 8.16263 27.4662 7.13781C27.0917 5.93558 26.6429 5.05783 25.9126 3.98633C25.9126 3.98633 29.4733 7.90351 29.5314 9.81074C29.5802 11.4075 25.0242 11.2301 23.5405 11.1297L22.0101 9.43954C24.0521 9.43954 25.3614 9.77807 26.7709 9.07538Z" fill="#58C88D"/>
</g>
</svg>
