<svg width="16" height="18" viewBox="0 0 16 18" fill="none" xmlns="http://www.w3.org/2000/svg">
<path d="M13.2032 12.0936C12.7939 12.0936 12.3901 12.1878 12.0231 12.3689C11.6561 12.5499 11.3356 12.813 11.0865 13.1377L5.32355 9.8669C5.51719 9.30505 5.51719 8.69455 5.32355 8.13271L11.0865 4.86191C11.4887 5.38381 12.0698 5.73851 12.7179 5.85775C13.3659 5.97699 14.0352 5.85234 14.5969 5.50779C15.1585 5.16325 15.5729 4.62315 15.7604 3.99143C15.9478 3.3597 15.8949 2.68099 15.612 2.08588C15.3291 1.49078 14.836 1.02134 14.2278 0.767884C13.6195 0.514432 12.9391 0.49488 12.3173 0.712992C11.6955 0.931103 11.1763 1.37147 10.8597 1.94934C10.5431 2.52722 10.4513 3.20178 10.6022 3.84322L4.74104 7.16978C4.37428 6.77962 3.89875 6.50866 3.37612 6.39205C2.85349 6.27544 2.30788 6.31856 1.81005 6.51581C1.31222 6.71306 0.885149 7.05534 0.584221 7.49827C0.283293 7.94119 0.122395 8.46432 0.122395 8.9998C0.122395 9.53528 0.283293 10.0584 0.584221 10.5013C0.885149 10.9443 1.31222 11.2865 1.81005 11.4838C2.30788 11.681 2.85349 11.7242 3.37612 11.6076C3.89875 11.4909 4.37428 11.22 4.74104 10.8298L10.6022 14.1564C10.4758 14.6964 10.5207 15.2623 10.7304 15.7757C10.9402 16.2891 11.3046 16.7244 11.7729 17.0214C12.2413 17.3183 12.7905 17.4622 13.3443 17.433C13.8981 17.4037 14.4291 17.2029 14.8636 16.8583C15.2981 16.5136 15.6146 16.0424 15.7692 15.5098C15.9237 14.9772 15.9087 14.4097 15.7262 13.886C15.5437 13.3623 15.2028 12.9084 14.7507 12.5872C14.2986 12.266 13.7577 12.0935 13.2032 12.0936V12.0936ZM13.2032 1.6873C13.5091 1.6873 13.8082 1.77802 14.0626 1.948C14.3169 2.11797 14.5152 2.35956 14.6323 2.64221C14.7494 2.92487 14.78 3.23589 14.7203 3.53596C14.6606 3.83602 14.5133 4.11165 14.297 4.32798C14.0806 4.54432 13.805 4.69164 13.5049 4.75133C13.2049 4.81102 12.8938 4.78038 12.6112 4.6633C12.3285 4.54622 12.0869 4.34796 11.917 4.09358C11.747 3.83919 11.6563 3.54012 11.6563 3.23418C11.6567 2.82406 11.8199 2.43087 12.1099 2.14088C12.3998 1.85088 12.793 1.68776 13.2032 1.6873V1.6873ZM2.7969 10.5467C2.49096 10.5467 2.19189 10.456 1.93751 10.286C1.68312 10.116 1.48486 9.87442 1.36778 9.59177C1.2507 9.30911 1.22006 8.99809 1.27975 8.69802C1.33944 8.39796 1.48676 8.12233 1.7031 7.906C1.91943 7.68966 2.19506 7.54234 2.49512 7.48265C2.79519 7.42296 3.10621 7.4536 3.38887 7.57068C3.67152 7.68776 3.91311 7.88602 4.08308 8.1404C4.25306 8.39479 4.34378 8.69386 4.34378 8.9998C4.34332 9.40992 4.1802 9.80311 3.89021 10.0931C3.60021 10.3831 3.20702 10.5462 2.7969 10.5467V10.5467ZM13.2032 16.3123C12.8972 16.3123 12.5981 16.2216 12.3438 16.0516C12.0894 15.8816 11.8911 15.64 11.774 15.3574C11.6569 15.0747 11.6263 14.7637 11.686 14.4636C11.7457 14.1636 11.893 13.888 12.1093 13.6716C12.3257 13.4553 12.6013 13.308 12.9014 13.2483C13.2014 13.1886 13.5125 13.2192 13.7951 13.3363C14.0778 13.4534 14.3194 13.6516 14.4893 13.906C14.6593 14.1604 14.75 14.4595 14.75 14.7654C14.7496 15.1755 14.5865 15.5687 14.2965 15.8587C14.0065 16.1487 13.6133 16.3118 13.2032 16.3123V16.3123Z" fill="#FFCC00"/>
</svg>
