<svg width="124" height="41" viewBox="0 0 124 41" fill="none" xmlns="http://www.w3.org/2000/svg">
<g clipPath="url(#clip0_4680_3106)">
<path d="M20.7844 2.7824L20.7402 2.75488L0.5 15.3954V38.2449L3.78406 36.2052V17.2189L20.7402 6.61711L37.6967 17.2189V36.2052L40.9808 38.2449V15.3954L20.7844 2.7824Z" fill="#FFCD05"/>
<path d="M20.7388 10.4092L7.22266 18.7138V33.9982L10.6929 31.8422V20.6586L20.7388 14.5591L30.7851 20.6586V31.8422L34.2553 33.9982V18.7138L20.7823 10.436L20.7388 10.4092Z" fill="#FFCD05"/>
<path d="M13.908 22.3539L13.8672 22.3781L13.8881 29.8585L17.3709 27.6955V24.3683L20.7402 22.3462L24.1099 24.3683V27.6955L27.5927 29.8585L27.6133 22.3781L20.7402 18.2881L13.908 22.3539Z" fill="#FFCD05"/>
</g>
<mask id="path-4-outside-1_4680_3106" maskUnits="userSpaceOnUse" x="54.1908" y="9" width="70" height="24" fill="black">
<rect fill="white" x="54.1908" y="9" width="70" height="24"/>
<path d="M72.0227 14.438H66.128V31H62.4911V14.438H56.5964V11.4501H72.0227V14.438ZM81.4762 31H77.8258V11.4501H81.4762V31ZM102.564 12.7886C102.564 13.2032 102.447 13.5817 102.212 13.9242L92.1806 28.0932H102.334V31H87.4621V29.5669C87.4621 29.3866 87.4937 29.2154 87.5568 29.0531C87.6199 28.8819 87.701 28.7241 87.8001 28.5799L97.859 14.3434H88.0976V11.4501H102.564V12.7886ZM122.181 12.7886C122.181 13.2032 122.063 13.5817 121.829 13.9242L111.797 28.0932H121.951V31H107.079V29.5669C107.079 29.3866 107.11 29.2154 107.173 29.0531C107.237 28.8819 107.318 28.7241 107.417 28.5799L117.476 14.3434H107.714V11.4501H122.181V12.7886Z"/>
</mask>
<path d="M72.0227 14.438V16.128H73.7127V14.438H72.0227ZM66.128 14.438V12.748H64.438V14.438H66.128ZM66.128 31V32.69H67.818V31H66.128ZM62.4911 31H60.8011V32.69H62.4911V31ZM62.4911 14.438H64.1811V12.748H62.4911V14.438ZM56.5964 14.438H54.9064V16.128H56.5964V14.438ZM56.5964 11.4501V9.76008H54.9064V11.4501H56.5964ZM72.0227 11.4501H73.7127V9.76008H72.0227V11.4501ZM72.0227 12.748H66.128V16.128H72.0227V12.748ZM64.438 14.438V31H67.818V14.438H64.438ZM66.128 29.31H62.4911V32.69H66.128V29.31ZM64.1811 31V14.438H60.8011V31H64.1811ZM62.4911 12.748H56.5964V16.128H62.4911V12.748ZM58.2864 14.438V11.4501H54.9064V14.438H58.2864ZM56.5964 13.1401H72.0227V9.76008H56.5964V13.1401ZM70.3327 11.4501V14.438H73.7127V11.4501H70.3327ZM81.4762 31V32.69H83.1662V31H81.4762ZM77.8258 31H76.1358V32.69H77.8258V31ZM77.8258 11.4501V9.76008H76.1358V11.4501H77.8258ZM81.4762 11.4501H83.1662V9.76008H81.4762V11.4501ZM81.4762 29.31H77.8258V32.69H81.4762V29.31ZM79.5158 31V11.4501H76.1358V31H79.5158ZM77.8258 13.1401H81.4762V9.76008H77.8258V13.1401ZM79.7862 11.4501V31H83.1662V11.4501H79.7862ZM102.212 13.9242L103.592 14.9008L103.6 14.8897L103.607 14.8786L102.212 13.9242ZM92.1806 28.0932L90.8013 27.1166L88.9134 29.7832H92.1806V28.0932ZM102.334 28.0932H104.024V26.4032H102.334V28.0932ZM102.334 31V32.69H104.024V31H102.334ZM87.4621 31H85.7721V32.69H87.4621V31ZM87.5568 29.0531L89.1319 29.6657L89.1373 29.6516L89.1426 29.6374L87.5568 29.0531ZM87.8001 28.5799L86.4199 27.6047L86.4136 27.6136L86.4075 27.6225L87.8001 28.5799ZM97.859 14.3434L99.2393 15.3186L101.122 12.6534H97.859V14.3434ZM88.0976 14.3434H86.4076V16.0334H88.0976V14.3434ZM88.0976 11.4501V9.76008H86.4076V11.4501H88.0976ZM102.564 11.4501H104.254V9.76008H102.564V11.4501ZM100.874 12.7886C100.874 12.8622 100.86 12.9082 100.818 12.9699L103.607 14.8786C104.034 14.2552 104.254 13.5441 104.254 12.7886H100.874ZM100.833 12.9477L90.8013 27.1166L93.5599 29.0698L103.592 14.9008L100.833 12.9477ZM92.1806 29.7832H102.334V26.4032H92.1806V29.7832ZM100.644 28.0932V31H104.024V28.0932H100.644ZM102.334 29.31H87.4621V32.69H102.334V29.31ZM89.1521 31V29.5669H85.7721V31H89.1521ZM89.1521 29.5669C89.1521 29.5758 89.1513 29.5906 89.1478 29.6094C89.1443 29.6284 89.1389 29.6476 89.1319 29.6657L85.9817 28.4406C85.84 28.8051 85.7721 29.1847 85.7721 29.5669H89.1521ZM89.1426 29.6374C89.1591 29.5924 89.1766 29.5608 89.1928 29.5374L86.4075 27.6225C86.2253 27.8874 86.0806 28.1713 85.971 28.4689L89.1426 29.6374ZM89.1804 29.5551L99.2393 15.3186L96.4788 13.3681L86.4199 27.6047L89.1804 29.5551ZM97.859 12.6534H88.0976V16.0334H97.859V12.6534ZM89.7876 14.3434V11.4501H86.4076V14.3434H89.7876ZM88.0976 13.1401H102.564V9.76008H88.0976V13.1401ZM100.874 11.4501V12.7886H104.254V11.4501H100.874ZM121.829 13.9242L123.208 14.9008L123.216 14.8897L123.224 14.8786L121.829 13.9242ZM111.797 28.0932L110.418 27.1166L108.53 29.7832H111.797V28.0932ZM121.951 28.0932H123.641V26.4032H121.951V28.0932ZM121.951 31V32.69H123.641V31H121.951ZM107.079 31H105.389V32.69H107.079V31ZM107.173 29.0531L108.749 29.6657L108.754 29.6516L108.759 29.6374L107.173 29.0531ZM107.417 28.5799L106.037 27.6047L106.03 27.6136L106.024 27.6225L107.417 28.5799ZM117.476 14.3434L118.856 15.3186L120.739 12.6534H117.476V14.3434ZM107.714 14.3434H106.024V16.0334H107.714V14.3434ZM107.714 11.4501V9.76008H106.024V11.4501H107.714ZM122.181 11.4501H123.871V9.76008H122.181V11.4501ZM120.491 12.7886C120.491 12.8622 120.477 12.9082 120.434 12.9699L123.224 14.8786C123.65 14.2552 123.871 13.5441 123.871 12.7886H120.491ZM120.45 12.9477L110.418 27.1166L113.177 29.0698L123.208 14.9008L120.45 12.9477ZM111.797 29.7832H121.951V26.4032H111.797V29.7832ZM120.261 28.0932V31H123.641V28.0932H120.261ZM121.951 29.31H107.079V32.69H121.951V29.31ZM108.769 31V29.5669H105.389V31H108.769ZM108.769 29.5669C108.769 29.5758 108.768 29.5906 108.765 29.6094C108.761 29.6284 108.756 29.6476 108.749 29.6657L105.598 28.4406C105.457 28.8051 105.389 29.1847 105.389 29.5669H108.769ZM108.759 29.6374C108.776 29.5924 108.793 29.5608 108.809 29.5374L106.024 27.6225C105.842 27.8874 105.697 28.1713 105.588 28.4689L108.759 29.6374ZM108.797 29.5551L118.856 15.3186L116.095 13.3681L106.037 27.6047L108.797 29.5551ZM117.476 12.6534H107.714V16.0334H117.476V12.6534ZM109.404 14.3434V11.4501H106.024V14.3434H109.404ZM107.714 13.1401H122.181V9.76008H107.714V13.1401ZM120.491 11.4501V12.7886H123.871V11.4501H120.491Z" fill="white" mask="url(#path-4-outside-1_4680_3106)"/>
<defs>
<clipPath id="clip0_4680_3106">
<rect width="40.4808" height="35.49" fill="white" transform="translate(0.5 2.75488)"/>
</clipPath>
</defs>
</svg>
