<svg width="117" height="23" viewBox="0 0 117 23" fill="none" xmlns="http://www.w3.org/2000/svg">
<g clip-path="url(#clip0_4899_1518)">
<path d="M16.1517 3.50008H14.2744V0.917969H18.9193V18.0325H16.1517V3.50008Z" fill="#FFFDF7"/>
<path d="M34.3135 14.5614L40.6545 8.6154L40.6486 7.94679H34.3135V5.375H44.089V8.92096L37.7455 14.8297V15.4903H44.1352V18.0266H34.3135V14.5614Z" fill="#FFFDF7"/>
<path d="M27.285 5.62045C27.004 5.62045 26.9233 5.62335 26.7888 5.63974L30.4768 0.933594H27.1118L21.8097 7.86646C20.8418 9.19562 20.3643 10.3885 20.3643 12.0343C20.3643 15.526 23.127 18.3106 26.9736 18.3106C30.6926 18.3106 33.5583 15.6786 33.5583 12.0343C33.5583 8.38999 30.6943 5.62045 27.2852 5.62045H27.285ZM26.9583 15.8291C24.8153 15.8291 23.1866 14.0833 23.1866 11.9826C23.1866 9.88186 24.8277 8.13763 26.9704 8.13763C29.0884 8.13763 30.7592 9.88204 30.7592 11.9826C30.7592 14.0832 29.0764 15.8291 26.9583 15.8291Z" fill="#FFFDF7"/>
<path d="M102.468 15.4266V18H96.7945V7.90929H94.9268V5.33409H96.7945V0.875H99.5836V5.33409H102.418V7.90929H99.5836V15.4266H102.468Z" fill="#FFFDF7"/>
<path d="M110.215 5.08756C110.161 5.08391 110.107 5.0816 110.051 5.0816C110.012 5.08048 109.975 5.08048 109.937 5.0793C109.911 5.07812 109.885 5.07813 109.859 5.07813H109.819C107.883 5.08886 106.144 5.85867 104.936 7.15592C104.875 7.22222 104.813 7.29104 104.755 7.35963C104.721 7.39998 104.687 7.44025 104.654 7.48171C103.774 8.56688 103.238 9.9658 103.21 11.5674C103.208 11.6125 103.208 11.6574 103.208 11.7036V11.7297C103.221 15.5984 106.161 18.3006 109.8 18.3291C109.819 18.3303 109.84 18.3303 109.859 18.3303C109.907 18.3303 109.957 18.3303 110.005 18.3279C110.021 18.3291 110.035 18.3279 110.051 18.3268C113.635 18.2368 116.51 15.5939 116.51 11.7038C116.51 7.93801 113.722 5.2573 110.215 5.08797V5.08756ZM109.917 15.6065C107.755 15.6065 105.997 13.9164 105.943 11.8089C105.941 11.7756 105.941 11.7415 105.941 11.7082C105.941 11.6075 105.945 11.5067 105.954 11.4086C105.958 11.3424 105.964 11.2771 105.973 11.2121C105.974 11.2083 105.974 11.2048 105.974 11.2013C106.228 9.28817 107.897 7.8111 109.917 7.8111C112.114 7.8111 113.894 9.55603 113.894 11.7085C113.894 13.8607 112.114 15.6069 109.917 15.6069L109.917 15.6065Z" fill="#FFFDF7"/>
<path d="M59.7275 5.375H66.3056V7.95575H62.5151V18.0257H59.7278V5.375H59.7275Z" fill="#FFFDF7"/>
<path d="M80.582 5.375L74.6473 22.5001H69.065V19.904H72.6126L73.2613 18.0257H71.4703L71.141 17.0985L70.7887 16.1055L66.9893 5.375H70.0232L73.5279 15.0159H74.1831L77.7389 5.375H80.582Z" fill="#FFFDF7"/>
<path d="M11.4776 5.369V6.32825C11.476 6.32666 11.4743 6.325 11.4726 6.325H10.7994C10.0586 5.5283 8.78448 5.10178 7.76379 5.02293C7.75389 5.02293 7.74243 5.02134 7.73253 5.02134C7.54813 5.01325 7.36874 5.01172 7.19755 5.01172C3.79157 5.01172 0.688477 7.64325 0.688477 11.6895C0.688477 15.71 3.89527 18.2643 7.1695 18.2643C7.43292 18.2643 7.67825 18.261 7.90867 18.2499H7.91525C9.11534 18.126 10.0076 17.833 10.7994 16.9832H11.476V16.9864C11.476 16.9848 11.4776 16.9848 11.4776 16.9848V18.0101H14.2383V5.369H11.4776ZM7.39667 15.5411C5.23519 15.5411 3.47706 13.8494 3.42271 11.7426C3.42108 11.7088 3.42108 11.675 3.42108 11.6412C3.42108 11.5414 3.42597 11.44 3.4343 11.3418C3.43919 11.2758 3.44412 11.2115 3.45239 11.1455C3.45402 11.1423 3.45402 11.1391 3.45402 11.1342C3.70754 9.22211 5.37682 7.74463 7.39667 7.74463C9.59435 7.74463 11.3738 9.48933 11.3738 11.6412C11.3738 13.7947 9.59435 15.5411 7.39667 15.5411Z" fill="#FFFDF7"/>
<path d="M88.4372 5.07812H88.4207C87.0872 5.08137 85.5564 5.57548 84.7694 6.42209H84.0928V5.34694H81.3486V22.4753H84.1076V17.0304H84.7842C85.5695 17.8754 87.1202 18.3388 88.4503 18.3453C91.8299 18.313 94.8968 15.6896 94.8968 11.6675C94.8968 7.67103 91.6934 5.10708 88.4372 5.07812ZM92.1526 12.0151C92.1477 12.0811 92.141 12.1471 92.1329 12.2114C92.1312 12.2162 92.1312 12.2195 92.1312 12.2227C91.8776 14.1364 90.2084 15.6123 88.1885 15.6123C85.9926 15.6123 84.2114 13.8675 84.2114 11.7156C84.2114 9.56377 85.9926 7.81741 88.1885 7.81741C90.35 7.81741 92.1082 9.50738 92.1625 11.6143C92.1642 11.6481 92.1642 11.6819 92.1642 11.7156C92.1642 11.8171 92.1608 11.9169 92.1526 12.0151Z" fill="#FFFDF7"/>
<path d="M58.5054 12.9261C58.0757 15.4017 56.3177 17.2751 53.9636 17.988C53.3413 18.1924 52.6762 18.3099 51.9848 18.3277C51.9684 18.3277 51.9536 18.3292 51.9388 18.3277C51.891 18.3308 51.8416 18.3308 51.7955 18.3308C51.7757 18.3308 51.756 18.3308 51.7362 18.3292C50.8949 18.3228 50.0916 18.1666 49.3542 17.8849C46.796 16.9708 45.0361 14.6338 45.0361 11.69C45.0361 8.33416 47.461 5.67526 50.6809 5.16665L50.7155 5.16181C50.7929 5.14895 50.8719 5.13929 50.9493 5.13127C50.9937 5.12484 51.0366 5.12 51.0793 5.11516C51.1369 5.10873 51.1929 5.10555 51.2505 5.10071C51.3114 5.09588 51.3707 5.09104 51.4333 5.08779C51.4892 5.08455 51.5469 5.08455 51.6044 5.08296C51.6555 5.08137 51.7049 5.07812 51.7558 5.07812H51.8069C55.3331 5.07812 57.9373 7.22357 58.497 10.3589H55.5257C54.9757 8.87173 53.5388 7.81104 51.8513 7.81104C49.8628 7.81104 48.2182 9.28858 47.9679 11.2006C47.9679 11.2055 47.9679 11.2087 47.9664 11.212C47.9581 11.2779 47.9531 11.3423 47.9482 11.4083C47.94 11.5064 47.9351 11.6079 47.9351 11.7077C47.9351 11.7415 47.9351 11.7753 47.9368 11.8091C47.9679 13.0034 48.5376 14.064 49.4133 14.7577C50.108 15.2727 50.974 15.5657 51.8843 15.5657C52.309 15.5657 52.7124 15.511 53.0893 15.4064C54.2631 15.0185 55.1882 14.0946 55.5735 12.9261H58.5054Z" fill="#FFFDF7"/>
</g>
<defs>
<clipPath id="clip0_4899_1518">
<rect width="115.981" height="21.6665" fill="white" transform="translate(0.586914 0.75)"/>
</clipPath>
</defs>
</svg>
