<svg width="205" height="55" viewBox="0 0 205 55" fill="none" xmlns="http://www.w3.org/2000/svg">
<path d="M54.8019 1.35342C52.4914 1.34541 51.2378 1.39244 51.6529 1.47972C53.5544 1.87962 53.5059 1.55338 53.4264 12.2005C53.3507 22.3651 53.3575 22.2962 52.0739 22.4904C51.7196 22.5439 52.131 22.617 52.9906 22.6538C53.8505 22.6906 55.7984 22.8006 57.3194 22.8916C61.7781 23.1581 62.4077 23.1465 64.121 22.7875C70.2135 21.5113 74.0159 15.5209 72.6813 9.30298C72.1101 6.64269 70.0073 3.81582 67.7735 2.71302C65.5654 1.62274 64.5364 1.48972 57.4397 1.38314C56.4562 1.36837 55.5722 1.35609 54.8019 1.35342ZM58.6572 2.00721C61.856 1.92745 65.5066 3.204 67.4879 5.19448C70.5609 8.28148 71.3976 13.4956 69.4646 17.5349C68.6788 19.1768 66.875 20.8053 65.068 21.5022C62.5242 22.4833 57.3692 22.3309 56.2673 21.2422C56.0763 21.0533 55.9968 18.242 55.9968 11.6581V2.34154L57.3194 2.12609C57.7519 2.05749 58.2004 2.01861 58.6572 2.00721Z" fill="#FFFDF7"/>
<path d="M134.263 22.9112C132.652 22.4278 132.594 22.3327 132.594 20.1705C132.594 19.0713 132.702 18.1059 132.834 18.0251C132.979 17.937 133.075 18.2407 133.076 18.7837C133.077 20.8137 134.824 22.1856 137.406 22.1856C139.108 22.1856 140.018 21.7927 140.867 20.692C141.621 19.7148 141.861 18.3098 141.5 16.9846C141.201 15.8874 140.366 14.9747 136.639 11.6713C134.173 9.48612 133.315 8.04347 133.315 6.08358C133.315 2.89639 135.362 0.947297 138.726 0.931045C141.378 0.91823 143.24 1.23033 143.073 1.65956C142.997 1.85575 142.924 2.72966 142.911 3.60161C142.888 5.11286 142.876 5.14305 142.664 4.24786C142.263 2.55686 141.02 1.73963 138.847 1.73963C136.387 1.73963 135.001 2.94658 134.999 5.09171C134.998 6.53839 135.797 7.68802 138.125 9.59001C142.028 12.7787 142.989 13.9325 143.428 15.9557C144.026 18.7136 142.773 21.2438 140.216 22.4396C138.936 23.0383 138.456 23.1334 136.802 23.116C135.744 23.1049 134.602 23.0127 134.263 22.9112Z" fill="#FFFDF7"/>
<path d="M150.097 22.7706C148.736 22.3409 148.638 22.0746 148.923 19.5706C149.035 18.5899 149.141 18.1015 149.159 18.4851C149.221 19.8196 150.095 21.164 151.261 21.7223C152.773 22.4458 155.265 22.3206 156.337 21.4672C157.322 20.6827 157.849 19.5538 157.849 18.2314C157.849 16.623 157.272 15.6848 155.114 13.7894C150.691 9.90456 149.866 8.83661 149.574 6.61354C149.389 5.21034 149.667 4.13805 150.536 2.89813C151.768 1.13993 154.034 0.591331 157.91 1.11256L159.293 1.29852L159.276 3.12395C159.263 4.60158 159.213 4.8361 159.016 4.355C158.115 2.16466 157.313 1.67713 154.795 1.78948C153.261 1.85793 152.978 1.94653 152.326 2.56463C150.909 3.90709 150.872 6.08234 152.24 7.68965C152.587 8.09723 153.923 9.27328 155.21 10.3031C158.718 13.1117 159.774 14.692 159.774 17.136C159.774 19.4282 158.749 21.1694 156.701 22.3554C155.749 22.9072 155.275 23.0095 153.412 23.0652C151.965 23.1086 150.854 23.0099 150.097 22.7706Z" fill="#FFFDF7"/>
<path d="M40.4305 18.5675C38.0849 16.1772 34.351 12.2239 32.1336 9.78244C29.9161 7.34096 28.0129 5.33499 27.9044 5.32475C27.6572 5.30147 27.9476 18.473 28.2363 20.3844C28.3534 21.1588 28.5582 21.9002 28.6915 22.032C28.8248 22.1638 29.396 22.346 29.9608 22.4368C30.5946 22.5387 29.6987 22.6014 27.6208 22.6004C25.7689 22.5995 24.6326 22.5327 25.0956 22.4519C26.4713 22.2116 26.5097 21.8968 26.5249 10.7223C26.5357 2.88801 26.6017 0.828515 26.8391 0.920909C27.0045 0.985244 30.919 5.10035 35.5379 10.0656C40.157 15.0308 43.9721 19.058 44.0157 19.0149C44.0593 18.9718 44.0055 15.2234 43.8958 10.6851C43.6738 1.47356 43.7619 1.88141 41.917 1.52384C41.0994 1.36533 41.6397 1.3162 44.2151 1.31489C46.3781 1.3137 47.2945 1.38035 46.778 1.50106C46.3357 1.6044 45.8489 1.81268 45.6956 1.96391C45.4956 2.1616 45.3986 5.14221 45.35 12.569C45.2981 20.4954 45.2143 22.9009 44.989 22.9063C44.828 22.9103 42.7765 20.9578 40.4305 18.5675Z" fill="#FFFDF7"/>
<path d="M101.332 22.6614C99.811 22.5829 98.8602 22.4972 99.2194 22.4711C100.463 22.3808 100.49 22.1506 100.49 11.8828V2.41164L99.9226 1.95694C99.6104 1.70685 99.0151 1.47916 98.6 1.45097C98.0878 1.4162 108.7 1.1302 109.911 1.14615C109.933 1.14639 109.874 1.94883 109.779 2.92923C109.634 4.43564 109.579 4.5959 109.424 3.96377C109.084 2.57291 108.566 2.34587 105.517 2.25018L102.775 2.16415V10.7743H105.733C107.69 10.7743 108.788 10.679 108.976 10.4929C109.445 10.0294 109.503 10.3506 109.313 12.3323C109.149 14.036 109.113 14.1342 108.949 13.3329C108.849 12.8441 108.57 12.3403 108.33 12.2133C108.09 12.0863 106.733 11.9082 105.315 11.8175L102.737 11.6527L102.816 16.1702C102.875 19.5468 102.979 20.7863 103.224 21.0785C103.755 21.7104 105.26 21.9824 107.242 21.8048C109.322 21.6186 109.846 21.3039 110.37 19.9274L110.733 18.9764L110.604 20.4733C110.392 22.9447 110.449 22.9069 107.035 22.8518C105.42 22.8257 102.853 22.74 101.332 22.6614Z" fill="#FFFDF7"/>
<path d="M118.164 22.6614C116.643 22.5829 115.692 22.4972 116.051 22.4711C117.295 22.3808 117.323 22.1506 117.323 11.8828V2.41164L116.755 1.95694C116.442 1.70685 115.847 1.47916 115.432 1.45097C114.92 1.4162 125.532 1.1302 126.743 1.14615C126.765 1.14639 126.706 1.94883 126.611 2.92923C126.466 4.43564 126.411 4.5959 126.256 3.96377C125.91 2.54904 125.403 2.33434 122.408 2.33434H119.727L119.596 10.7743H122.383C123.921 10.7743 125.388 10.659 125.656 10.5172C125.923 10.3759 126.187 10.3047 126.242 10.359C126.297 10.4134 126.267 11.3047 126.175 12.3397C126.019 14.116 125.997 14.1712 125.789 13.3251C125.668 12.8321 125.38 12.3283 125.148 12.2055C124.916 12.0828 123.574 11.9087 122.166 11.8188L119.607 11.6552L119.621 15.6724C119.637 20.5451 119.812 21.2239 121.165 21.6618C122.405 22.0631 125.682 21.8115 126.363 21.2626C126.625 21.0513 127.003 20.4504 127.202 19.9274L127.565 18.9764L127.436 20.4733C127.224 22.9447 127.281 22.9069 123.868 22.8518C122.252 22.8257 119.685 22.74 118.164 22.6614Z" fill="#FFFDF7"/>
<path d="M167.466 22.6615C165.944 22.5829 164.984 22.4973 165.332 22.4712C166.621 22.3744 166.618 22.397 166.694 12.164L166.765 2.68989L166.164 2.09609C165.808 1.74368 165.241 1.48069 164.771 1.44913C164.335 1.41989 166.684 1.33965 169.991 1.27083C173.297 1.202 176.032 1.1568 176.068 1.17038C176.104 1.18396 176.06 1.96826 175.972 2.91325L175.81 4.63141L175.502 3.74442C175.332 3.25657 175.051 2.76961 174.877 2.66229C174.355 2.34112 172.748 2.18129 170.832 2.26015L169.029 2.3344L168.897 10.7743H171.684C173.222 10.7743 174.689 10.6591 174.957 10.5173C175.224 10.3759 175.498 10.3145 175.565 10.3807C175.632 10.447 175.597 11.3383 175.489 12.3614C175.367 13.5059 175.26 13.9226 175.21 13.4443C175.091 12.2897 174.45 12.0094 171.493 11.8205L168.908 11.6552L168.922 15.6725C168.93 18.1263 169.047 20.0132 169.222 20.521C169.619 21.6687 170.763 22.0284 173.317 21.8082C175.491 21.6207 176.266 21.1508 176.619 19.8048C176.789 19.1582 176.812 19.3345 176.727 20.6086C176.667 21.5063 176.493 22.3889 176.341 22.57C176.045 22.922 173.095 22.9524 167.466 22.6615Z" fill="#FFFDF7"/>
<path d="M197.531 18.8797C195.256 16.6035 191.446 12.6183 189.064 10.0237C186.681 7.42912 184.674 5.30627 184.604 5.30627C184.403 5.30627 184.793 19.8125 185.021 20.8478C185.275 21.9999 185.493 22.2138 186.633 22.432C187.203 22.5411 186.326 22.6029 184.3 22.5962C182.514 22.5903 181.405 22.5424 181.835 22.4896C182.317 22.4305 182.731 22.1947 182.917 21.8739C183.142 21.4854 183.236 18.748 183.292 11.0432L183.366 0.732422L183.983 1.2957C184.323 1.6055 188.17 5.6837 192.533 10.3583C196.896 15.033 200.535 18.8577 200.62 18.8577C201.014 18.8577 200.499 2.65955 200.088 2.10589C199.936 1.90162 199.325 1.6405 198.73 1.52561C197.884 1.36232 198.356 1.3155 200.894 1.31111C203.172 1.30716 203.925 1.36893 203.419 1.51806C202.079 1.9132 202.098 1.75812 202.073 12.1869C202.059 17.4903 201.963 22.0969 201.858 22.4238C201.677 22.9869 201.449 22.8001 197.531 18.8797Z" fill="#FFFDF7"/>
<path d="M11.5144 0.877253C11.2161 0.9031 10.6542 2.37673 7.6289 10.6099C5.84177 15.4735 4.18171 19.879 3.94633 20.402C3.39548 21.6261 2.71019 22.2147 1.58648 22.4302C1.03082 22.5368 1.97527 22.6066 4.05155 22.6085C6.23973 22.6104 7.13498 22.5461 6.6068 22.4228C5.64259 22.1978 5.34605 21.807 5.52458 20.9963C5.8388 19.5696 7.63629 14.4389 7.87692 14.2801C8.23169 14.0459 13.8376 14.0595 14.2124 14.2949C14.375 14.397 15.1443 16.1301 15.926 18.1509C16.9671 20.8422 17.2912 21.9397 17.1284 22.2445C16.9222 22.6307 17.1143 22.6604 19.8566 22.6383C22.2371 22.619 22.6244 22.571 21.8557 22.3931C19.9164 21.9441 19.741 21.6143 15.197 9.86693C13.3412 5.06922 11.7353 1.05623 11.6271 0.944121C11.5888 0.904378 11.557 0.873562 11.5144 0.877253ZM11.0033 5.14179C11.1944 5.20474 14.0073 12.717 14.0246 13.2102C14.028 13.3083 12.6985 13.3885 11.0635 13.3885H8.08735L9.43264 9.22802C10.1736 6.93935 10.8812 5.10155 11.0033 5.14179Z" fill="#FFFDF7"/>
<path d="M78.852 1.33916C77.0973 1.34967 76.2433 1.40264 76.6649 1.48775C77.1832 1.59237 77.7352 1.85541 77.8975 2.07468C78.5855 3.00496 78.6718 20.2928 77.9952 21.7554C77.7856 22.2086 77.4799 22.4249 76.9505 22.4909C76.5387 22.5423 77.8224 22.5863 79.8065 22.5875C81.7905 22.5887 82.9314 22.5248 82.3391 22.4464C80.7826 22.2402 80.6599 21.8662 80.6558 17.372L80.6481 13.6275H84.7442L85.8789 15.2175C87.9893 18.1568 90.6942 21.3971 91.508 21.9709C92.2316 22.4811 92.5871 22.5451 94.9578 22.5801C96.7437 22.6064 97.2515 22.5688 96.5209 22.4538C94.3628 22.1141 93.2618 21.1626 89.3286 16.2502L86.7357 13.0109L87.5699 12.0674C91.1594 8.01061 90.9733 3.62757 87.1415 1.88151C86.1648 1.43636 85.5559 1.38715 80.8886 1.34659C80.1177 1.33988 79.4368 1.33564 78.852 1.33916ZM82.8504 1.97809C86.0665 1.99417 88.0595 4.45398 87.8181 8.36747C87.7034 10.2254 87.1239 11.5356 86.1045 12.2531C85.3769 12.7653 83.3421 13.0383 82.2115 12.7732C81.9469 12.7111 81.487 12.6056 81.1893 12.5429C80.6487 12.4288 80.6481 12.4226 80.6481 7.34963V2.27527L81.3998 2.12668C81.9061 2.02655 82.3908 1.9758 82.8504 1.97809Z" fill="#FFFDF7"/>
<path d="M47.5155 31.9986C45.0613 32.0206 42.6417 32.6711 40.8641 33.96C39.3576 35.0526 37.6663 37.2068 37.0462 38.8263C34.5924 45.2377 37.7955 52.1796 44.0206 53.9455C45.7549 54.4374 50.093 54.2513 51.7392 53.6112C54.6959 52.4611 57.3408 49.6283 58.2777 46.6051C59.0007 44.2716 58.9957 40.7375 58.27 38.7447C57.6725 37.1038 56.4024 35.3258 55.1135 34.3166C53.1196 32.7555 50.2967 31.9739 47.5155 31.9986ZM46.4333 32.9052C46.7773 32.9025 47.1702 32.9083 47.6508 32.9272C49.6244 33.0054 50.1155 33.1133 51.2279 33.7149C55.1543 35.8382 57.1106 41.1112 55.9629 46.4639C55.2962 49.573 53.9081 51.4457 51.3785 52.6453C50.1637 53.221 49.65 53.3236 48.1318 53.3065C47.1396 53.2952 46.0575 53.2057 45.7267 53.1058C42.4535 52.1179 39.931 49.1394 39.1057 45.29C37.9312 39.8126 39.9387 34.8571 43.9454 33.3657C44.8421 33.032 45.401 32.9135 46.4333 32.9052Z" fill="#FFFDF7"/>
<path d="M94.4058 31.9986C91.9516 32.0206 89.5321 32.6711 87.7545 33.96C86.248 35.0526 84.5566 37.2068 83.9369 38.8263C81.483 45.2377 84.6858 52.1796 90.9112 53.9455C92.6452 54.4374 96.9833 54.2513 98.6295 53.6112C101.586 52.4611 104.231 49.6283 105.168 46.6051C105.891 44.2716 105.886 40.7375 105.16 38.7447C104.563 37.1038 103.293 35.3258 102.004 34.3166C100.01 32.7555 97.187 31.9739 94.4058 31.9986ZM93.3237 32.9052C93.6677 32.9025 94.0605 32.9083 94.5412 32.9272C96.5147 33.0054 97.0059 33.1133 98.1183 33.7149C102.045 35.8382 104.001 41.1112 102.853 46.4639C102.187 49.573 100.798 51.4457 98.2688 52.6453C97.0541 53.221 96.5404 53.3236 95.0221 53.3065C94.03 53.2952 92.9478 53.2057 92.6171 53.1058C89.3438 52.1179 86.8213 49.1394 85.9961 45.29C84.8215 39.8126 86.8291 34.8571 90.8358 33.3657C91.7325 33.032 92.2913 32.9135 93.3237 32.9052Z" fill="#FFFDF7"/>
<path d="M115.346 53.9825C115.285 53.819 114.2 50.2617 112.934 46.0774C109.676 35.3075 109.256 34.0092 108.862 33.5017C108.67 33.2539 107.995 32.9135 107.362 32.7451C106.296 32.4619 106.485 32.4408 109.94 32.4588C111.99 32.4698 113.378 32.5224 113.024 32.5759C111.948 32.7387 111.763 33.1674 112.081 34.7658C112.381 36.2746 116.164 49.8141 116.332 49.98C116.388 50.0347 116.471 50.035 116.518 49.9806C116.565 49.9262 118.025 46.0903 119.762 41.4565C122.754 33.4751 123.223 32.3834 123.529 32.6856C123.599 32.7555 125.016 36.6526 126.677 41.3456C128.338 46.0386 129.743 49.9238 129.799 49.9791C129.855 50.0344 129.948 50.0329 130.006 49.9754C130.33 49.6552 134.711 34.6298 134.711 33.839C134.711 33.0492 134.621 32.8729 134.17 32.7778C133.872 32.7149 133.412 32.6183 133.147 32.563C132.883 32.5077 134.128 32.461 135.913 32.4591C137.813 32.4573 138.852 32.5288 138.417 32.6315C138.009 32.728 137.547 32.8851 137.391 32.9807C136.77 33.3599 135.843 35.7582 132.927 44.5323C131.254 49.5666 129.779 53.8459 129.648 54.0421C129.441 54.3531 129.369 54.3449 129.084 53.9773C128.905 53.7457 127.992 51.392 127.056 48.7471C126.119 46.1019 124.793 42.3527 124.108 40.4152C123.423 38.4777 122.775 36.9798 122.669 37.0868C122.562 37.1937 121.108 40.9117 119.438 45.349C117.769 49.7863 116.297 53.6109 116.169 53.8483C115.898 54.3476 115.505 54.4118 115.346 53.9825Z" fill="#FFFDF7"/>
<path d="M176.669 53.7964C176.585 53.661 177.518 52.0297 178.742 50.1707C185.117 40.4916 189.348 33.9881 189.463 33.6911C189.569 33.4177 189.106 33.3602 186.861 33.3688C185.359 33.3743 183.006 33.4711 181.632 33.5836C179.324 33.7724 179.082 33.8406 178.432 34.4831C178.045 34.8657 177.577 35.5981 177.392 36.1108C176.978 37.2619 176.957 36.8781 177.303 34.4281L177.572 32.5264L185.06 32.6064C189.178 32.6504 192.578 32.7167 192.616 32.7537C192.654 32.7904 189.759 37.2805 186.183 42.7316C182.607 48.1827 179.681 52.6903 179.681 52.748C179.681 52.9127 189.39 52.8715 190.241 52.7031C191.241 52.5054 192.393 51.4189 192.579 50.4979C192.66 50.0937 192.834 49.7628 192.965 49.7628C193.201 49.7628 193.15 50.2409 192.641 52.7939L192.393 54.0421H184.608C179.507 54.0421 176.77 53.9574 176.669 53.7964Z" fill="#FFFDF7"/>
<path d="M12.4113 53.5962C13.7053 53.3221 13.7331 53.1 13.7369 42.9726C13.7396 35.9094 13.6685 33.5915 13.4398 33.2896C13.2745 33.0714 12.7063 32.7943 12.1772 32.6736C11.4481 32.5077 12.0882 32.4548 14.8227 32.4551C17.1942 32.4554 18.1458 32.5217 17.6001 32.6488C16.2324 32.9669 16.1454 33.2612 16.1454 37.564V41.4412H28.8916V37.564C28.8916 34.8363 28.8025 33.5664 28.591 33.2816C28.4257 33.0589 27.8034 32.7827 27.2082 32.6678C26.3844 32.5089 26.9875 32.4576 29.7334 32.4533C32.2228 32.4496 33.1173 32.5138 32.6196 32.6604C32.2228 32.7772 31.7628 33.0561 31.5975 33.2798C31.1626 33.8677 31.1709 51.9978 31.6064 52.8528C31.8392 53.3099 32.1579 53.4801 32.9856 53.5898C33.5778 53.6683 32.4388 53.7325 30.4548 53.7325C28.4707 53.7325 27.1371 53.6888 27.4911 53.6353C28.704 53.452 28.7654 53.1779 28.8483 47.5865L28.9253 42.3921H16.1454V47.1117C16.1454 53.1816 16.1898 53.3154 18.3099 53.6454C18.6405 53.697 17.2878 53.741 15.3037 53.7435C13.3196 53.7456 12.018 53.6796 12.4113 53.5962Z" fill="#FFFDF7"/>
<path d="M65.573 32.4374C62.8515 32.4536 61.3672 32.5336 61.9128 32.6378C63.7209 32.9837 63.6415 32.4942 63.6415 43.0539C63.6415 53.2503 63.6177 53.448 62.3789 53.6338C62.0151 53.6882 63.2867 53.7358 65.2046 53.7377C67.1225 53.7392 68.4213 53.7001 68.0906 53.6484C66.6468 53.4235 66.4459 53.3065 66.189 52.5787C66.0425 52.1631 65.926 50.2531 65.926 48.2917V44.7552L70.1349 44.8891L71.3372 46.5311C74.2316 50.4832 76.2787 52.8497 77.2143 53.3215C77.9972 53.7166 78.6003 53.7975 80.5287 53.7749C82.5872 53.7502 82.7353 53.7208 81.7162 53.5519C81.0751 53.4455 80.1482 53.1006 79.6567 52.7791C78.6451 52.1173 76.4808 49.7587 73.8174 46.4269L72.0061 44.1609L73.0583 42.9797C75.9622 39.7172 76.2907 36.2938 73.9225 34.0122C72.5368 32.6772 71.0838 32.4044 65.573 32.4374ZM68.3836 33.1356C70.2446 33.1906 71.5935 34.0437 72.4722 35.7062C73.0493 36.7983 73.1411 37.2569 73.1411 38.9231C73.1411 41.1158 72.5792 42.5855 71.4124 43.4255C70.8115 43.8584 68.6015 44.1982 67.9703 43.9528C67.838 43.9015 67.324 43.7897 66.8279 43.7078L65.926 43.5593V33.3883L67.0084 33.2248C67.4928 33.153 67.9542 33.123 68.3836 33.1356Z" fill="#FFFDF7"/>
<path d="M143.404 53.636C144.625 53.4508 144.691 52.8981 144.688 42.8306C144.685 34.2344 144.657 33.609 144.242 33.1558C143.998 32.8891 143.458 32.6288 143.042 32.5771C142.626 32.5255 143.855 32.4769 145.773 32.4696C147.969 32.4607 148.962 32.5252 148.456 32.6437C148.014 32.747 147.527 32.9554 147.374 33.1069C147.172 33.3062 147.095 36.0271 147.095 42.9739C147.095 51.9842 147.123 52.5953 147.542 53.053C147.787 53.3213 148.382 53.5819 148.865 53.6323C149.346 53.6828 148.172 53.7261 146.254 53.7283C144.336 53.7307 143.053 53.6892 143.404 53.636Z" fill="#FFFDF7"/>
<path d="M160.025 53.6338C160.404 53.5769 160.871 53.2637 161.107 52.9071C161.483 52.3397 161.522 51.3867 161.522 42.8788V33.4775L158.487 33.512C155.16 33.5499 154.65 33.7008 153.935 34.8595C153.485 35.5889 153.469 35.595 153.49 35.0227C153.502 34.6957 153.639 33.8933 153.794 33.2394C154.052 32.152 154.127 32.0609 154.673 32.1697C155.001 32.2351 158.922 32.2886 163.387 32.2886H171.503L171.489 34.0718C171.476 35.7655 171.462 35.8131 171.189 35.0254C170.788 33.868 170.085 33.6189 166.707 33.4396L163.782 33.2841L163.855 42.9253C163.923 51.926 163.957 52.5988 164.374 53.0538C164.619 53.3218 165.215 53.5824 165.696 53.6328C166.179 53.6833 164.95 53.7263 162.966 53.7288C160.982 53.7312 159.658 53.6884 160.025 53.6338Z" fill="#FFFDF7"/>
</svg>
