<svg width="111" height="21" viewBox="0 0 111 21" fill="none" xmlns="http://www.w3.org/2000/svg">
<g clip-path="url(#clip0_4899_1509)">
<mask id="mask0_4899_1509" style="mask-type:luminance" maskUnits="userSpaceOnUse" x="0" y="0" width="111" height="21">
<path d="M110.621 0.901367H0.686523V20.504H110.621V0.901367Z" fill="white"/>
</mask>
<g mask="url(#mask0_4899_1509)">
<path d="M22.8743 6.38628C18.8576 6.38628 15.7494 9.39106 15.7494 13.4451C15.7494 17.4992 18.8098 20.504 22.8743 20.504C26.9389 20.504 30.0471 17.4515 30.0471 13.4451C30.0471 9.43875 26.9867 6.38628 22.8743 6.38628ZM22.9222 17.5469C20.6269 17.5469 19.001 15.7822 19.001 13.3974C19.001 11.0127 20.6269 9.24797 22.9222 9.24797C25.2175 9.24797 26.8911 11.0127 26.8911 13.3974C26.8911 15.7822 25.1696 17.5469 22.9222 17.5469ZM30.9079 9.43875H32.8684V20.2178H36.0723V6.62476H30.9079V9.43875ZM7.76367 9.29567C9.43732 9.29567 10.7762 10.2973 11.2544 11.8235H14.6017C13.9801 8.58025 11.3022 6.33859 7.76367 6.33859C3.79473 6.38628 0.686523 9.39106 0.686523 13.4451C0.686523 17.4992 3.74691 20.504 7.81149 20.504C11.2544 20.504 13.9801 18.31 14.6017 15.0191H11.2544C10.7762 16.5453 9.43732 17.5946 7.81149 17.5946C5.5162 17.5946 3.89037 15.8299 3.89037 13.4451C3.89037 11.0604 5.46838 9.29567 7.76367 9.29567ZM91.2071 12.1097L88.864 11.7758C87.7642 11.6327 86.9512 11.2512 86.9512 10.3927C86.9512 9.43875 88.0032 8.96181 89.39 8.96181C90.9202 8.96181 91.9244 9.62953 92.1156 10.6788H95.176C94.8413 7.96021 92.7373 6.33859 89.4856 6.33859C86.1383 6.33859 83.8908 8.0556 83.8908 10.488C83.8908 12.7774 85.3254 14.1606 88.2902 14.5421L90.6333 14.876C91.7809 15.0191 92.4026 15.496 92.4026 16.3068C92.4026 17.4038 91.3027 17.8331 89.7725 17.8331C87.9076 17.8331 86.8556 17.0699 86.6643 15.9253H83.5561C83.843 18.5962 85.947 20.4563 89.7247 20.4563C93.1676 20.4563 95.5108 18.8823 95.5108 16.1637C95.5108 13.779 93.8371 12.5389 91.2071 12.1097ZM34.4943 1.04445C33.3466 1.04445 32.4381 1.90296 32.4381 3.04764C32.4381 4.19232 33.2988 5.05082 34.4943 5.05082C35.6419 5.05082 36.5505 4.19232 36.5505 3.04764C36.5505 1.90296 35.6419 1.04445 34.4943 1.04445ZM81.0696 11.2989C81.0696 8.34177 79.2524 6.38628 75.4748 6.38628C71.8884 6.38628 69.88 8.19869 69.4496 10.965H72.6057C72.7491 9.86801 73.6099 9.0095 75.427 9.0095C77.0528 9.0095 77.8179 9.72492 77.8179 10.5834C77.8179 11.7281 76.3833 12.0143 74.5662 12.2051C72.1275 12.4912 69.1149 13.302 69.1149 16.4499C69.1149 18.8823 70.932 20.4563 73.8489 20.4563C76.1442 20.4563 77.531 19.5024 78.2483 18.0238C78.3439 19.3593 79.3481 20.2178 80.7826 20.2178H82.6476V17.4038H81.0696V11.2989ZM77.9135 14.6852C77.9135 16.4976 76.3355 17.8331 74.375 17.8331C73.1795 17.8331 72.1753 17.3561 72.1753 16.2591C72.1753 14.9237 73.8011 14.5421 75.2835 14.399C76.7181 14.2559 77.4832 13.9698 77.9135 13.3497V14.6852ZM61.0814 6.38628C59.3121 6.38628 57.8297 7.1017 56.7777 8.34177V0.901367H53.6217V20.2178H56.7299V18.4531C57.7819 19.7409 59.3121 20.504 61.0814 20.504C64.9069 20.504 67.776 17.4992 67.776 13.4451C67.776 9.39106 64.8591 6.38628 61.0814 6.38628ZM60.6032 17.5469C58.3079 17.5469 56.6821 15.7822 56.6821 13.3974C56.6821 11.0127 58.3557 9.24797 60.651 9.24797C62.9463 9.24797 64.5721 11.0127 64.5721 13.3974C64.5721 15.8299 62.8985 17.5469 60.6032 17.5469ZM46.0185 6.38628C43.9623 6.38628 42.6234 7.24479 41.8105 8.38947V6.62476H38.6545V20.2178H41.8105V12.8251C41.8105 10.7265 43.1494 9.29567 45.11 9.29567C46.9271 9.29567 48.0747 10.5834 48.0747 12.4435V20.2178H51.2308V12.2051C51.2308 8.77103 49.4615 6.38628 46.0185 6.38628ZM110.621 13.0159C110.621 9.10489 107.752 6.38628 103.927 6.38628C99.8623 6.38628 96.8497 9.43875 96.8497 13.4451C96.8497 17.69 100.054 20.504 103.975 20.504C107.274 20.504 109.856 18.5485 110.526 15.7822H107.226C106.748 16.9745 105.6 17.69 104.022 17.69C101.966 17.69 100.436 16.4499 100.101 14.2082H110.621V13.0159ZM100.293 11.9666C100.819 10.0588 102.205 9.15259 103.879 9.15259C105.696 9.15259 107.035 10.1542 107.37 11.9666H100.293Z" fill="#FFFDF7"/>
</g>
</g>
<defs>
<clipPath id="clip0_4899_1509">
<rect width="109.935" height="19.6026" fill="white" transform="translate(0.663086 0.866211)"/>
</clipPath>
</defs>
</svg>
