<svg width="113" height="41" viewBox="0 0 113 41" fill="none" xmlns="http://www.w3.org/2000/svg">
<g clip-path="url(#clip0_4899_1456)">
<path d="M13.1643 0.564409C13.2179 0.75633 13.3073 1.15937 13.3608 1.48563C13.4323 1.79271 13.6109 2.3301 13.7717 2.67555C14.0753 3.2897 14.0753 3.2897 12.9679 5.76549C12.3606 7.10894 11.8604 8.35643 11.8604 8.50997C11.8604 8.74027 11.8247 8.74027 11.6997 8.50997C11.5746 8.29886 11.4853 8.4524 11.3067 9.04736C11.0924 9.81504 11.1102 9.87262 11.5925 10.41C12.307 11.2161 13.1643 11.2161 13.468 10.4292C13.7538 9.6615 14.0932 9.37362 15.2542 8.95139C16.5403 8.47158 17.5763 7.41602 17.5763 6.59075C17.5763 6.2453 17.487 5.80387 17.3798 5.57357C17.2191 5.2473 17.237 5.20891 17.5048 5.2665C17.8978 5.34326 18.5944 6.59075 18.7552 7.4736C18.9339 8.52917 18.0764 10.2565 16.8797 11.1969C15.2542 12.502 14.897 12.9242 14.1646 14.4788C13.6823 15.5151 13.4502 16.3019 13.3608 17.2041C13.2894 17.895 13.2001 18.4707 13.1643 18.4707C13.1286 18.4707 12.3963 17.8758 11.5389 17.1273C10.4493 16.1868 9.69911 15.3424 9.00248 14.2676L8.02007 12.7323H6.41247L0.553711 19.2576L1.05385 21.0808C1.60758 23.0769 1.5004 23.0001 2.87578 22.3668C3.55454 22.0789 3.55454 22.0405 2.91151 20.4283C2.71502 19.9293 2.46496 19.6222 2.28634 19.6222C1.83978 19.6222 2.14344 19.3728 2.85792 19.1425C3.21516 19.0273 4.16186 18.2596 5.16214 17.2424C6.10882 16.3212 6.91261 15.5727 6.93048 15.6111C7.01979 15.707 9.35973 20.4476 9.35973 20.5243C9.35973 20.5626 9.19897 20.5819 9.00248 20.5819C8.806 20.5819 8.28799 20.7737 7.84145 21.004C7.19842 21.3496 7.01979 21.5414 6.93048 22.0597C6.78758 22.9234 7.05552 23.6718 8.18083 25.4758C8.98462 26.7425 9.21683 27.2991 9.46689 28.585L9.77055 30.1588L10.7708 30.3891C11.3246 30.5042 12.6285 31.08 13.7002 31.6366C15.5757 32.6537 15.6293 32.6729 16.4152 32.4618C17.3084 32.2123 17.2904 32.2891 17.0225 30.6194L16.8261 29.4102L15.5579 28.988C14.5219 28.6617 14.2003 28.6234 13.7717 28.796C13.2537 29.0073 13.1643 28.9496 12.039 27.9901C10.8601 26.9536 10.6101 26.5122 9.59194 23.6911C9.41332 23.2112 10.4315 23.4798 13.7359 24.8041C15.5757 25.5526 17.1118 26.1284 17.1297 26.1092C17.1297 26.0709 17.2548 25.399 17.362 24.6123C17.487 23.7678 17.8084 22.6738 18.1479 21.9637C18.8087 20.5434 20.2913 18.8545 21.3809 18.2981C23.6137 17.1464 27.6684 17.2808 30.4906 18.6242L31.2586 18.989L32.2589 18.0678L31.4373 17.2999L30.6156 16.5132L31.0086 15.9373C31.3659 15.3808 31.3659 15.2848 31.1515 14.1141C31.0265 13.4424 30.9729 12.8282 31.0443 12.7706C31.0979 12.7131 31.4373 12.8858 31.8125 13.1545C32.4912 13.6727 32.9555 13.6727 32.5269 13.1353C32.4018 12.9434 31.205 11.4464 29.8833 9.77666C28.5614 8.12613 27.4184 6.51398 27.3111 6.2261C27.2218 5.93822 26.9896 5.4968 26.8288 5.2473C26.4181 4.63315 26.5252 4.55638 27.2575 4.94022C28.115 5.42003 27.6862 5.03619 26.0608 3.88466C25.2749 3.32808 24.3996 2.63717 24.096 2.34928C23.7387 1.98462 23.2207 1.73513 22.4884 1.58159C20.8451 1.23614 20.7022 1.17856 20.9879 0.986636C21.1308 0.890676 21.5238 0.813906 21.8632 0.794714C22.3634 0.794714 22.2741 0.737138 21.3809 0.526025C20.6129 0.353294 20.0769 0.31491 19.684 0.449255C18.6302 0.75633 15.7544 1.23614 15.3614 1.14017C15.1649 1.10179 14.5576 0.871484 14.0396 0.641177C13.1643 0.276526 13.0929 0.257334 13.1643 0.564409Z" fill="#FFFDF7"/>
<path d="M30.9678 1.05932C30.9678 1.1169 31.1285 1.25127 31.3251 1.36645C31.5216 1.48162 33.3633 2.74915 33.3633 2.71076C33.3633 2.65317 31.5216 1.28967 31.3251 1.17449C31.1285 1.05932 30.9678 1.02093 30.9678 1.05932Z" fill="#FFFDF7"/>
<path d="M7.57341 1.74538L6.94824 1.9373L8.46652 2.60902C9.30604 2.97368 10.4849 3.47267 11.1101 3.72218L12.2354 4.20197L12.5034 3.53026C12.6463 3.1656 12.7534 2.78176 12.7534 2.68579C12.7534 2.51306 9.07383 1.49588 8.50225 1.53426C8.34149 1.53426 7.91279 1.63022 7.57341 1.74538Z" fill="#FFFDF7"/>
<path d="M32.2298 1.86897C34.3019 3.51949 34.9627 4.11445 36.0345 5.26599C37.8207 7.16601 39.2497 9.33473 40.4821 11.9833C41.5896 14.3823 41.7503 14.3823 40.6966 11.9833C38.9103 7.9337 35.5165 3.80738 32.3191 1.84977C31.7832 1.52351 31.7832 1.52351 32.2298 1.86897Z" fill="#FFFDF7"/>
<path d="M49.7354 5.26747C49.0745 5.42101 48.8779 5.55536 48.8779 5.82405C48.8779 6.13112 49.0209 6.18869 49.6818 6.18869H50.4855V10.2958C50.4855 14.3454 50.4855 14.4221 50.0925 14.71C49.8782 14.8827 49.5032 15.0171 49.2888 15.0171C48.9852 15.0171 48.8779 15.1323 48.8779 15.4201C48.8779 15.804 48.9316 15.804 52.8613 15.7464L56.8624 15.6888L57.7197 15.1131C58.9166 14.3262 59.7025 13.1747 59.9525 11.812C60.4526 9.25944 59.4346 6.80285 57.3804 5.65131C56.5051 5.15232 56.3444 5.13312 53.5222 5.09473C51.8967 5.07555 50.1998 5.15232 49.7354 5.26747ZM55.4334 6.01597C56.1121 6.28465 56.8624 7.09072 57.3267 8.01195C57.9163 9.18267 57.8804 11.8888 57.2731 13.1938C56.5587 14.7292 55.0225 15.3818 53.6115 14.7292C53.2363 14.5757 52.9147 14.2494 52.8076 13.9615C52.6111 13.405 52.5576 6.13112 52.754 5.9392C52.9327 5.72808 54.8796 5.78566 55.4334 6.01597Z" fill="#FFFDF7"/>
<path d="M68.7183 5.39955C68.754 5.5339 69.0577 5.7642 69.397 5.87936L70.0222 6.09048V14.8997L69.3613 15.0724C68.9683 15.1684 68.6826 15.3603 68.6826 15.5138C68.6826 15.725 69.1827 15.7825 71.3798 15.7825C73.3624 15.7825 74.0591 15.725 74.0054 15.5522C73.9161 15.3027 73.6481 15.13 72.8801 14.8805L72.3442 14.727L72.2371 10.6006H73.3981C74.8986 10.6006 75.3809 10.8118 75.6309 11.5603C75.9882 12.7118 76.2739 12.136 76.3276 10.1592C76.3812 8.39353 76.3633 8.29758 76.006 8.29758C75.738 8.29758 75.6487 8.43192 75.6487 8.75819C75.6487 9.52587 75.0236 9.83296 73.5411 9.83296H72.2371L72.3442 6.09048H75.9167L76.2739 6.80059C76.4705 7.22281 76.7742 7.52988 76.9526 7.52988C77.2028 7.52988 77.2563 7.33796 77.2563 6.32078V5.13086H72.9695C69.4327 5.13086 68.6826 5.16924 68.7183 5.39955Z" fill="#FFFDF7"/>
<path d="M79.2015 5.52447C78.9335 6.25391 79.4338 7.11771 80.1127 7.1369C80.863 7.1369 81.4168 5.90838 80.8987 5.33252C80.738 5.15975 80.327 5.02539 79.9876 5.02539C79.4873 5.02539 79.3445 5.12136 79.2015 5.52447Z" fill="#FFFDF7"/>
<path d="M79.778 8.8287C79.5459 9.03982 79.0813 9.25093 78.742 9.32769C77.9918 9.48123 77.9561 9.88427 78.6706 10.0378L79.2064 10.153V12.552C79.2064 15.0662 79.1707 15.1621 78.2954 15.1621C78.1168 15.1621 77.9561 15.2965 77.9561 15.45C77.9561 15.6803 78.3133 15.7379 80.028 15.7379C81.5999 15.7379 82.0822 15.6803 82.0287 15.4884C81.9751 15.3732 81.7071 15.2197 81.4212 15.1621L80.9033 15.0662L80.9569 12.2257C80.9926 10.652 80.9748 9.17416 80.9212 8.90547C80.7783 8.34889 80.3496 8.31051 79.778 8.8287Z" fill="#FFFDF7"/>
<path d="M91.9402 8.83127C91.7079 9.04239 91.1899 9.31108 90.8149 9.42623C90.0289 9.69492 89.9217 9.98281 90.5112 10.2707C91.0292 10.5202 91.2079 11.3838 91.1542 13.3031C91.1006 14.8 91.0828 14.8768 90.6183 15.1263C89.7253 15.5677 90.0826 15.7405 91.9045 15.7405C93.7264 15.7405 94.1194 15.5485 93.2441 15.1263C92.7797 14.9152 92.7797 14.896 92.8332 12.6889L92.8868 10.4626L93.7264 10.0212C94.4051 9.65654 94.6374 9.61815 94.941 9.79089C95.5126 10.1171 95.6556 10.7697 95.6556 12.9768V14.992L95.1196 15.1839C94.1373 15.5677 94.566 15.7405 96.37 15.7405C97.7989 15.7405 98.1562 15.6829 98.1562 15.4718C98.1562 15.3182 97.9775 15.1647 97.7632 15.1263C97.3702 15.0687 97.3525 14.992 97.2631 12.4778C97.2095 11.0576 97.1023 9.77169 97.0309 9.63734C96.4772 8.73531 94.4051 8.58177 93.3691 9.38785L92.7975 9.81007V9.13834C92.7975 8.35146 92.5654 8.2747 91.9402 8.83127Z" fill="#FFFDF7"/>
<path d="M63.8038 8.86561C62.2855 9.30702 61.3389 10.6697 61.3389 12.4162C61.3389 14.5081 62.6249 15.9475 64.5004 15.9475C65.5722 15.9475 66.1973 15.7364 67.019 15.0455C67.4835 14.6808 67.5549 14.5081 67.4119 14.3162C67.2512 14.1051 67.0905 14.1243 66.4653 14.4313C65.5186 14.8728 65.1434 14.892 64.3933 14.4505C63.661 14.0283 63.1251 13.0495 63.1251 12.1475V11.4949L65.3936 11.6485L67.6442 11.7828L67.5192 11.1303C67.2155 9.46056 65.4293 8.36661 63.8038 8.86561ZM65.5007 9.84441C65.8759 10.3242 65.8937 10.8808 65.5186 11.0343C65.3579 11.0919 64.7504 11.1495 64.1611 11.1495H63.0894L63.1965 10.6121C63.268 10.3242 63.5181 9.90198 63.786 9.65248C64.3218 9.1343 65.0006 9.21107 65.5007 9.84441Z" fill="#FFFDF7"/>
<path d="M101.967 8.82933C100.663 9.19399 99.7703 9.98087 99.288 11.19C98.2877 13.7617 100.11 16.1608 102.896 15.9113C103.914 15.8153 104.54 15.4314 105.165 14.5486C105.433 14.1648 105.468 13.9728 105.326 13.8193C105.165 13.6466 104.968 13.7234 104.575 14.088C103.504 15.0668 102.414 15.0092 101.539 13.9345C100.074 12.1496 100.967 9.21317 102.896 9.40509C103.021 9.40509 103.325 9.76975 103.575 10.2112C103.986 10.8829 104.111 10.9789 104.611 10.9213C104.986 10.8829 105.2 10.7485 105.236 10.5182C105.343 9.8849 105.111 9.30914 104.665 9.07883C104.039 8.79095 102.61 8.63741 101.967 8.82933Z" fill="#FFFDF7"/>
<path d="M108.831 8.82296C107.349 9.28357 106.509 10.4351 106.402 12.1624C106.277 14.3887 107.545 15.9049 109.528 15.9241C110.6 15.9241 111.225 15.713 112.046 15.022C112.493 14.6574 112.582 14.4847 112.439 14.2927C112.279 14.0816 112.1 14.1008 111.421 14.4271C110.421 14.9069 109.635 14.7725 109.01 14.0432C108.385 13.3331 108.153 12.7957 108.153 12.0856V11.4715L112.618 11.7402V11.2796C112.618 10.6462 111.939 9.59064 111.278 9.18762C110.635 8.80376 109.492 8.63104 108.831 8.82296ZM110.385 9.68661C110.885 10.224 110.975 10.8381 110.546 11.0109C110.099 11.2028 108.367 11.1452 108.242 10.9341C108.099 10.6846 108.617 9.64822 108.992 9.41792C109.51 9.09165 109.921 9.16842 110.385 9.68661Z" fill="#FFFDF7"/>
<path d="M84.6016 9.24654C83.6727 9.74555 82.9404 10.6284 82.9404 11.2617C82.9404 11.7991 83.0297 11.8183 83.905 11.4345C84.3516 11.2233 84.5837 10.993 84.6553 10.6092C84.8339 9.82232 85.2446 9.41928 85.9056 9.41928C86.4415 9.41928 86.5129 9.49604 86.6915 10.2062C87.0309 11.5688 87.0845 11.5112 84.673 12.6819C83.7443 13.1426 83.387 13.4304 83.1727 13.9103C82.9404 14.4668 82.9225 14.6204 83.137 15.1002C83.3691 15.6184 83.4763 15.6567 84.5659 15.7143C85.5483 15.7527 85.8162 15.6951 86.3522 15.3113L86.9952 14.8507L87.3702 15.2921C87.8882 15.9446 88.9064 15.9254 89.2994 15.2729C89.4601 15.0042 89.5316 14.6587 89.478 14.486C89.3708 14.1789 89.3351 14.1789 89.0314 14.486C88.8707 14.6587 88.6564 14.7355 88.6027 14.6588C88.5314 14.6012 88.4777 13.6224 88.4777 12.49C88.4777 10.1486 88.2991 9.38089 87.6561 9.05462C86.9238 8.70916 85.4412 8.80513 84.6016 9.24654ZM86.8165 13.3921C86.7093 14.4092 86.2806 14.985 85.6019 14.985C85.2089 14.985 85.066 14.8699 84.9767 14.5052C84.9231 14.2365 84.9053 13.8911 84.9589 13.7375C85.1196 13.3345 86.5308 12.2789 86.7272 12.4133C86.8345 12.49 86.8701 12.9123 86.8165 13.3921Z" fill="#FFFDF7"/>
<path d="M40.6942 12.0788C40.6942 12.1939 41.6051 15.0307 41.7122 15.3378C42.1231 16.4702 42.5875 19.6944 42.5875 21.3641C42.5875 24.2047 41.8372 27.2754 40.6048 29.54C40.2653 30.1543 39.265 31.4401 38.3899 32.3996C37.0681 33.8199 36.4785 34.2997 35.2639 34.9522C33.0134 36.1422 31.6023 36.526 29.0479 36.6411C25.2434 36.8331 21.8496 35.9311 18.5986 33.8967L17.4912 33.2058L18.0092 33.8007C18.7237 34.6068 20.7778 36.1229 22.2246 36.8906C28.6729 40.3836 35.6569 39.0018 39.6403 33.4361C42.7661 29.0603 43.7307 22.4581 42.1409 16.2591C41.7479 14.7045 40.6942 11.5798 40.6942 12.0788Z" fill="#FFFDF7"/>
<path d="M53.6842 25.3167C49.2723 26.8713 48.808 33.6269 52.9698 35.6229C53.7735 36.0068 54.2023 36.0644 55.8813 36.0644C58.3998 36.0644 59.0787 35.7956 59.2572 34.7209C59.3287 34.2987 59.4358 33.7804 59.4894 33.531C59.6502 32.7824 58.9535 33.032 58.0069 34.0492C56.9709 35.1622 55.9885 35.5461 54.9167 35.2199C53.9344 34.9319 53.3984 34.4138 52.9341 33.2815C52.5947 32.4371 52.5589 32.0148 52.6125 30.4411C52.6841 28.2531 53.1662 26.9481 54.1665 26.3147C55.3276 25.5855 57.1673 26.0652 58.1676 27.3511C58.6499 27.946 59.3644 28.138 59.3644 27.639C59.3644 27.4854 59.2572 26.9481 59.1501 26.4682C58.8642 25.3552 58.6142 25.2399 56.2386 25.1249C54.9881 25.0672 54.2201 25.1249 53.6842 25.3167Z" fill="#FFFDF7"/>
<path d="M84.4085 25.3692C83.6583 25.9259 84.1227 27.3655 85.0338 27.3655C85.4091 27.3655 85.9806 26.636 85.9806 26.137C85.9806 25.3308 85.0518 24.8701 84.4085 25.3692Z" fill="#FFFDF7"/>
<path d="M108.045 25.2788C107.866 25.3939 107.384 25.6051 106.991 25.7202C106.152 25.9889 105.973 26.296 106.58 26.4686C106.973 26.5646 107.027 26.6989 107.134 28.0424C107.188 28.8677 107.241 30.691 107.241 32.1496C107.241 34.8748 107.134 35.3163 106.455 35.4506C106.259 35.4699 106.08 35.6234 106.027 35.7385C105.973 35.9305 106.437 35.988 107.938 35.988C109.545 35.988 109.92 35.9305 109.92 35.7192C109.92 35.5466 109.706 35.4122 109.438 35.3739L108.938 35.3163L108.849 30.2495C108.795 27.1212 108.688 25.1636 108.581 25.1253C108.491 25.0868 108.241 25.1636 108.045 25.2788Z" fill="#FFFDF7"/>
<path d="M91.3553 28.2149C91.0516 28.6372 90.5516 29.1171 90.2657 29.2706C89.6048 29.6352 89.5513 30.1341 90.1764 30.1341H90.623V32.5909C90.623 34.913 90.6409 35.0858 91.0339 35.4696C91.6055 36.0454 92.8915 36.0454 93.5524 35.4888C93.9454 35.1625 93.9811 35.0282 93.8204 34.8172C93.6774 34.6252 93.5524 34.5869 93.4095 34.7404C93.1415 35.0282 92.4628 34.9707 92.3378 34.6252C92.2842 34.4524 92.2306 33.3776 92.2306 32.2261V30.1341H93.0344C93.7131 30.1341 93.8381 30.0766 93.8381 29.7695C93.8381 29.4625 93.6954 29.3857 93.0881 29.3282C92.3914 29.2706 92.3199 29.2322 92.3735 28.7908C92.4271 28.1959 92.2663 27.4473 92.0698 27.4473C91.9985 27.4473 91.6769 27.7928 91.3553 28.2149Z" fill="#FFFDF7"/>
<path d="M73.3852 28.8479C72.903 29.0975 72.3849 29.3085 72.2778 29.3085C71.8848 29.3085 72.0278 29.8076 72.4742 30.0379C72.8851 30.2297 72.903 30.3257 73.028 33.1854C73.0815 34.7975 73.1174 36.7744 73.0815 37.5612C73.028 38.9815 73.0101 39.0007 72.4564 39.2885C71.4382 39.8067 71.7776 39.9602 73.9211 39.9794C75.5466 39.9987 75.9752 39.9411 75.9752 39.7491C75.9752 39.5956 75.8145 39.4804 75.6359 39.4804C74.9213 39.4804 74.7249 38.9815 74.7249 37.1773V35.4692L75.3857 35.7763C77.5292 36.736 79.9048 34.8935 79.9048 32.2834C79.9048 29.6924 77.9044 28.2915 75.5286 29.2127C75.1357 29.3662 74.7963 29.5005 74.7784 29.5005C74.7427 29.5005 74.7249 29.2318 74.7249 28.9247C74.7249 28.2338 74.5641 28.2338 73.3852 28.8479ZM76.8683 30.3257C77.9758 30.9207 78.4938 32.9743 77.8508 34.2986C77.5114 35.0086 77.0826 35.2581 76.1716 35.2581C74.9393 35.2581 74.7249 34.8551 74.7249 32.4753C74.7249 30.556 74.7427 30.441 75.1357 30.2682C75.7073 30.0187 76.3503 30.0379 76.8683 30.3257Z" fill="#FFFDF7"/>
<path d="M84.6373 28.9597C84.3516 29.1517 83.8335 29.382 83.5298 29.4396C82.8154 29.5931 82.7618 30.0345 83.4406 30.1305C83.9228 30.188 83.9228 30.2073 84.0121 31.9154C84.0657 32.8558 84.0657 33.9689 84.03 34.372C83.9764 35.0053 83.905 35.1204 83.4584 35.2164C83.1727 35.2739 82.9404 35.4467 82.9404 35.581C82.9404 35.7923 83.3513 35.8498 84.9053 35.8498C86.4949 35.8498 86.8701 35.7923 86.8701 35.581C86.8701 35.4084 86.6558 35.2739 86.3879 35.2356L85.8876 35.1781L85.8342 31.8579C85.7806 28.1921 85.7806 28.173 84.6373 28.9597Z" fill="#FFFDF7"/>
<path d="M64.6642 29.4713C63.7354 29.9703 63.003 30.8531 63.003 31.4865C63.003 32.0238 62.9852 32.0239 63.8782 31.64C64.4141 31.4097 64.6105 31.1986 64.6999 30.7956C64.8964 29.8743 65.9681 29.2219 66.4683 29.74C67.022 30.3542 66.9506 32.1391 66.3611 32.1391C66.2717 32.1391 65.611 32.4269 64.8785 32.7915C63.4318 33.5017 62.8959 34.2118 63.1102 35.1138C63.2531 35.7664 63.6818 35.9775 64.825 35.9775C65.7181 35.9775 66.4504 35.6704 66.7897 35.133C66.8613 35.0178 67.0934 35.1523 67.3613 35.4593C67.6472 35.7855 67.9866 35.9775 68.3082 35.9775C68.9155 35.9775 69.1298 35.8239 69.4155 35.2673C69.6835 34.7107 69.6656 34.4421 69.3441 34.4421C69.2012 34.4421 69.0762 34.5189 69.0762 34.634C69.0762 34.73 68.9512 34.826 68.8082 34.826C68.5939 34.826 68.5403 34.4614 68.5403 32.734C68.5403 29.5673 68.2723 29.0874 66.4861 29.0684C65.7538 29.0684 65.1821 29.2027 64.6642 29.4713ZM66.8077 34.0007C66.5219 35.2866 65.1644 35.6512 65.0035 34.4614C64.9321 33.9623 65.343 33.4057 66.129 32.8875C66.647 32.5229 66.6647 32.5229 66.8256 32.8875C66.9149 33.0986 66.897 33.5784 66.8077 34.0007Z" fill="#FFFDF7"/>
<path d="M98.8517 29.3754C97.9049 29.8168 97.0655 30.7763 97.0655 31.4097C97.0655 32.0431 97.0475 32.0239 97.9228 31.6592C98.4765 31.4097 98.6373 31.2179 98.7801 30.6613C98.9945 29.74 99.834 29.2987 100.441 29.7593C100.781 30.0086 100.834 30.2199 100.781 31.0259L100.727 31.9855L99.4767 32.5229C97.3869 33.4057 96.6368 34.4614 97.3512 35.5552C97.5834 35.9199 97.7798 35.9775 98.7624 35.9775C99.7269 35.9775 99.977 35.9007 100.441 35.4784L100.995 34.9795L101.37 35.4784C101.62 35.8239 101.906 35.9775 102.299 35.9775C102.978 35.9775 103.192 35.8432 103.478 35.229C103.656 34.8835 103.656 34.73 103.496 34.5572C103.335 34.4037 103.246 34.4037 103.192 34.5764C103.139 34.7107 103.013 34.826 102.871 34.826C102.71 34.826 102.621 34.2118 102.567 32.4077C102.496 30.0471 102.478 29.9703 101.995 29.529C101.602 29.1642 101.317 29.0684 100.495 29.0684C99.9413 29.0874 99.191 29.2219 98.8517 29.3754ZM100.441 34.8835C100.227 35.0755 99.834 35.2098 99.584 35.1713C99.191 35.1138 99.1196 34.9987 99.066 34.4037C99.0124 33.732 99.066 33.636 99.8697 33.0986L100.727 32.5037L100.781 33.5209C100.834 34.3846 100.781 34.5957 100.441 34.8835Z" fill="#FFFDF7"/>
</g>
<defs>
<clipPath id="clip0_4899_1456">
<rect width="112.049" height="39.735" fill="white" transform="translate(0.553711 0.349609)"/>
</clipPath>
</defs>
</svg>
