<svg width="122" height="38" viewBox="0 0 122 38" fill="none" xmlns="http://www.w3.org/2000/svg">
<g clip-path="url(#clip0_4899_1536)">
<path d="M104.422 2.09113C103.801 2.90143 103.209 4.00111 103.096 4.55094C102.983 5.21654 102.757 5.53488 102.446 5.53488C101.938 5.53488 101.289 6.05577 101.289 6.46093C101.289 6.57668 101.684 6.69244 102.136 6.69244H102.983V10.3098C102.983 13.9272 102.983 13.9272 102.277 14.1008C100.866 14.4481 101.628 14.7954 103.83 14.7954C105.636 14.7954 106.088 14.7085 106.088 14.3613C106.088 14.1008 105.834 13.9272 105.382 13.9272H104.676V6.69244H108.628V10.2809C108.628 13.6378 108.6 13.8983 108.064 14.0719C106.878 14.4481 107.584 14.7954 109.616 14.7954C111.705 14.7954 112.411 14.4481 111.028 14.1008L110.322 13.9272V0.615234H105.58L104.422 2.09113ZM108.628 3.94323V5.82426H104.676V4.57989C104.676 2.90143 105.1 2.40945 106.652 2.26476C107.358 2.20688 108.092 2.149 108.29 2.12006C108.515 2.09113 108.628 2.61202 108.628 3.94323Z" fill="#FFFDF7"/>
<path d="M41.4705 1.20413C41.5552 1.43564 41.9503 1.63822 42.3456 1.69609L43.1077 1.78291V13.8215L42.2609 13.9952C41.8092 14.1109 41.4141 14.3135 41.4141 14.4871C41.4141 14.9502 47.85 14.8633 49.4308 14.3714C51.1811 13.8215 52.5642 12.7219 53.3263 11.217C53.8344 10.2331 53.9756 9.53857 53.9756 7.54178C53.9756 4.50318 53.2699 2.99835 51.3222 1.81185C50.1365 1.08837 49.7695 1.05944 45.7048 0.94368C42.0915 0.827924 41.3576 0.885801 41.4705 1.20413ZM49.8543 2.70896C53.2982 5.05302 52.7053 12.1431 48.951 13.59C48.0759 13.9373 46.4386 13.9952 45.4507 13.7347C44.8014 13.5611 44.8014 13.5322 44.8014 7.86012C44.8014 4.70575 44.8861 2.04336 45.0272 1.92761C45.479 1.43564 48.7534 1.95655 49.8543 2.70896Z" fill="#FFFDF7"/>
<path d="M0.742188 1.84174C0.770416 2.21795 1.13738 4.18581 1.56081 6.26941C2.1536 9.04756 2.46411 10.0025 2.74639 9.94467C2.97223 9.88679 6.24669 8.49771 10.0011 6.81926C13.7836 5.16973 16.9452 3.80959 17.0016 3.80959C17.0582 3.80959 17.1146 8.61348 17.1146 14.517V25.2245H19.0905L19.147 14.5749L19.2317 3.8964L26.4299 6.99289C30.3818 8.7003 33.6563 10.0894 33.6846 10.0315C33.7693 10.0025 35.463 1.55235 35.463 1.2919C35.463 1.26296 27.6437 1.20508 18.1026 1.20508H0.742188V1.84174ZM14.2635 3.05717C14.2071 3.11505 11.7794 4.21475 8.84369 5.48806C3.79085 7.71637 3.56501 7.77425 3.42387 7.19546C2.91577 4.85139 2.71816 3.8964 2.71816 3.43339C2.71816 2.97036 3.16982 2.94142 8.56142 2.94142C11.7512 2.94142 14.32 2.99929 14.2635 3.05717ZM33.4023 3.57808C33.3176 3.95428 33.0917 4.9961 32.8942 5.89321C32.6966 6.81926 32.4425 7.57166 32.3013 7.57166C32.0473 7.57166 21.8569 3.25976 21.6593 3.05717C21.6029 2.99929 24.2281 2.94142 27.5307 2.94142H33.5434L33.4023 3.57808Z" fill="#FFFDF7"/>
<path d="M59.6343 6.3722C59.0697 7.00885 58.5616 7.52976 58.4769 7.52976C58.3922 7.52976 58.3357 7.06674 58.3357 6.51689C58.3357 5.38827 58.1946 5.35933 56.6138 5.85129C55.4 6.19857 55.0613 6.95097 56.2187 6.71946L56.9244 6.60371V10.2211C56.9244 13.8385 56.9244 13.8385 56.2187 14.0121C54.7507 14.3883 55.5694 14.7645 57.9123 14.7645C59.8035 14.7645 60.3117 14.6777 60.3117 14.3594C60.3117 14.0989 59.973 13.8963 59.4084 13.8385L58.4769 13.7516L58.3076 9.06353L59.3237 8.13748C59.8883 7.61657 60.7351 7.15355 61.1868 7.0378C61.8644 6.92203 62.0055 6.7484 62.0055 6.05386C62.0055 4.78055 60.9045 4.92524 59.6343 6.3722Z" fill="#FFFDF7"/>
<path d="M64.4804 6.02003C63.1538 6.62775 62.8432 6.91714 62.8432 7.46699C62.8432 8.01682 62.9843 8.13257 63.69 8.13257C64.3393 8.13257 64.5369 8.01682 64.5369 7.5538C64.5369 6.97501 65.4684 6.39623 66.3717 6.39623C67.0492 6.39623 67.6421 7.2644 67.6421 8.27728C67.6421 9.23227 67.6138 9.26121 65.412 10.0136C63.7183 10.5924 63.1255 10.9107 62.8715 11.4895C62.3634 12.6471 62.5045 13.3127 63.3796 14.2387C64.3957 15.2805 65.1861 15.3095 66.4 14.3545C67.5291 13.4863 67.8396 13.4574 68.0655 14.2387C68.2348 14.7307 68.4042 14.8175 69.1099 14.6728C69.5897 14.586 70.0697 14.4992 70.2109 14.4992C70.352 14.4992 70.4648 14.2966 70.4648 14.0651C70.4648 13.8336 70.2109 13.631 69.9284 13.631C69.1663 13.631 69.0535 13.1101 69.0535 9.60847C69.0535 7.52486 68.9405 6.33835 68.6865 5.99109C68.0936 5.15185 66.3152 5.15185 64.4804 6.02003ZM67.6421 11.2869C67.6421 12.705 66.5975 13.7178 65.2708 13.5731C64.5087 13.4863 64.3957 13.3705 64.311 12.5602C64.2265 11.6631 64.311 11.5763 65.7226 10.9107C66.5411 10.5345 67.3032 10.1873 67.4444 10.1873C67.5574 10.1583 67.6421 10.6792 67.6421 11.2869Z" fill="#FFFDF7"/>
<path d="M73.6561 5.82145C71.5108 6.92112 70.9745 9.1205 72.4987 10.6543L73.3456 11.5224L72.4987 12.1591C71.4543 12.8826 71.3979 13.3745 72.2447 14.2427L72.8376 14.8504L71.9625 15.6318C70.6075 16.7893 70.8334 18.4389 72.3859 19.0465C74.1926 19.7412 75.2087 19.6833 76.987 18.7862C78.9913 17.7443 79.81 16.7894 79.81 15.4581C79.81 14.0112 79.0196 13.606 76.2813 13.606C73.4867 13.606 73.0351 13.3745 73.769 12.3327C74.0795 11.9276 74.5594 11.5803 74.8417 11.5803C75.7451 11.5803 77.8057 10.4227 78.1727 9.75716C78.3703 9.40988 78.5678 8.59959 78.6526 7.96294C78.7937 7.03689 78.9631 6.77643 79.4711 6.71856C79.9228 6.63174 80.0922 6.42917 80.0922 5.90826C80.0922 5.09797 79.4147 4.98221 78.6526 5.67675C78.1727 6.11085 78.0597 6.11085 77.1565 5.67675C75.8862 5.06903 75.1239 5.09797 73.6561 5.82145ZM75.7168 6.25554C76.9589 6.74749 77.4104 9.52564 76.3661 10.2491C75.4628 10.8858 74.8135 10.8279 74.0231 9.98867C72.4142 8.36808 73.7125 5.47418 75.7168 6.25554ZM78.0316 15.516C78.5961 17.0209 76.4789 18.7572 74.5594 18.3809C73.5997 18.2074 72.4706 17.3681 72.4706 16.8183C72.4706 16.7025 72.7246 16.2395 73.0633 15.8054C73.5997 15.1109 73.7973 15.053 75.7451 15.053C77.4387 15.053 77.8904 15.1398 78.0316 15.516Z" fill="#FFFDF7"/>
<path d="M83.2827 5.98279C80.8268 7.22717 79.9799 10.0053 81.2502 12.6677C81.8995 14.0568 83.4239 15.0696 84.807 15.0696C85.9644 15.0407 87.771 14.1147 88.5896 13.1018C90.4527 10.8735 89.5494 6.73521 86.9806 5.63553C85.6538 5.05675 84.92 5.11462 83.2827 5.98279ZM86.3313 6.76415C88.2509 8.0664 88.5048 11.6838 86.8395 13.4201C86.1338 14.1147 85.8515 14.2304 85.1175 14.0857C84.0165 13.8542 83.2263 13.1597 82.7463 11.9732C81.9559 10.0921 82.464 7.51657 83.7908 6.56158C84.6658 5.92492 85.2022 5.98279 86.3313 6.76415Z" fill="#FFFDF7"/>
<path d="M95.0828 6.05556L93.8126 6.95267L93.5586 6.28707C93.3892 5.93981 93.248 5.59255 93.1916 5.53467C93.0505 5.33208 90.5664 6.14238 90.5664 6.40284C90.5664 6.54753 90.8768 6.66329 91.2721 6.66329H91.9778V10.2807C91.9778 13.8981 91.9778 13.8981 91.2721 14.0717C90.0019 14.39 90.8487 14.7662 92.8528 14.7662C94.7441 14.7662 95.3934 14.419 94.236 14.0427C93.7279 13.8691 93.6715 13.6087 93.6715 10.9173V7.96554L94.9134 7.24208C95.9861 6.66329 96.2684 6.60541 96.8895 6.8948C97.6233 7.21314 97.6233 7.27101 97.6233 10.5411C97.6233 13.2035 97.5388 13.8691 97.1999 14.0138C96.1555 14.419 96.8895 14.7662 98.7526 14.7662C100.7 14.7662 101.406 14.3611 100.051 14.0138C99.3736 13.8402 99.3736 13.7823 99.2606 10.136C99.176 5.96875 99.0066 5.59255 97.3129 5.33208C96.5508 5.21633 96.0708 5.38996 95.0828 6.05556Z" fill="#FFFDF7"/>
<path d="M111.711 6.66084C111.711 6.80553 111.993 6.97918 112.304 7.03705C112.812 7.09493 113.179 7.84735 114.393 11.0596C115.183 13.23 115.945 15.14 116.058 15.3136C116.143 15.4872 115.889 16.2107 115.465 16.9342C114.844 17.976 114.506 18.2364 113.913 18.2654C113.235 18.2654 113.122 18.3811 113.122 19.1336C113.122 19.9439 113.179 20.0017 114.223 20.0017H115.296L116.595 17.021C117.272 15.4004 118.457 12.4776 119.191 10.5097C120.236 7.70264 120.631 6.97918 121.055 6.97918C121.337 6.97918 121.591 6.83447 121.591 6.68978C121.591 6.51614 120.829 6.40039 119.897 6.40039C118.966 6.40039 118.203 6.51614 118.203 6.68978C118.203 6.83447 118.401 6.97918 118.655 6.97918C118.937 6.97918 119.022 7.15281 118.937 7.50007C118.824 7.78946 118.345 9.29429 117.836 10.8859L116.905 13.722L115.861 10.6834C114.647 7.18175 114.618 6.97918 115.381 6.97918C115.691 6.97918 115.945 6.83447 115.945 6.68978C115.945 6.51614 115.042 6.40039 113.828 6.40039C112.671 6.40039 111.711 6.51614 111.711 6.66084Z" fill="#FFFDF7"/>
<path d="M9.25 33.8702H27.0339V15.6387H22.5173V16.6515C22.5173 17.6643 22.5173 17.6643 23.7875 17.6643H25.0579V31.8445H10.9437V17.6643H13.7665V15.6387H9.25V33.8702Z" fill="#FFFDF7"/>
<path d="M46.5473 19.0898C43.5268 20.1895 42.0307 22.0416 41.8049 25.0223C41.579 27.7425 42.0871 29.3631 43.668 30.9837C45.7003 33.0673 47.7611 33.4725 50.8379 32.4018C52.9268 31.7072 53.1808 31.4757 53.4067 30.0287C53.5761 29.1027 53.5197 28.9581 53.068 28.9581C52.7574 28.9581 52.3623 29.3343 52.08 29.9709C51.459 31.3021 50.4145 31.9388 48.9467 31.9097C45.9262 31.8809 43.6962 29.1606 43.6962 25.5433C43.6962 23.4017 44.1197 22.1283 45.1641 20.942C47.1119 18.8294 51.0638 19.2056 52.0517 21.6076C52.6446 23.0545 53.2938 22.9098 53.2938 21.2892C53.2938 20.0738 53.2374 19.9579 52.1364 19.3792C50.4709 18.511 48.4102 18.3953 46.5473 19.0898Z" fill="#FFFDF7"/>
<path d="M95.2585 18.895C94.0446 19.2132 93.7905 19.9947 94.8915 19.9947H95.5972V25.8982C95.5972 31.7438 95.5972 31.8306 94.9762 31.9175C94.6373 31.9753 94.3269 32.178 94.2422 32.3515C94.1575 32.6409 94.6939 32.7278 96.2746 32.7278C98.4482 32.7278 99.4079 32.2647 97.8837 31.9753L97.0086 31.8018V25.1748C97.0086 20.0525 96.9238 18.5476 96.6699 18.5766C96.4723 18.6056 95.823 18.7503 95.2585 18.895Z" fill="#FFFDF7"/>
<path d="M75.0312 21.611C75.0312 22.5959 75.0594 22.6248 75.9635 22.538C76.7546 22.4511 76.8677 22.3351 76.9525 21.4952C77.0371 20.5972 77.009 20.5684 76.0483 20.5684C75.0594 20.5684 75.0312 20.5972 75.0312 21.611Z" fill="#FFFDF7"/>
<path d="M80.9487 21.6898C80.8075 22.0082 80.6664 22.5291 80.6664 22.8475C80.6664 23.2816 80.4405 23.4263 79.763 23.513C78.4646 23.6288 78.2669 24.6127 79.509 24.6127H80.3841V28.3458C80.3841 31.9053 80.4122 32.1369 81.0051 32.5421C81.8802 33.1787 82.614 33.1209 83.9126 32.2815C85.1264 31.5292 85.0981 31.4712 83.348 31.4424L82.2189 31.4134L82.0495 24.6127H83.4892C84.5618 24.6127 84.9005 24.497 84.9005 24.1786C84.9005 23.8604 84.5618 23.7445 83.4892 23.7445H82.0778V22.4423C82.0778 21.0244 81.5132 20.6481 80.9487 21.6898Z" fill="#FFFDF7"/>
<path d="M56.7284 24.0066C55.571 24.5854 55.2323 24.9037 55.2323 25.4247C55.2323 26.4085 56.559 26.3797 56.813 25.3668C56.926 24.8459 57.2364 24.6144 57.9422 24.4697C59.2689 24.2093 59.8052 24.73 59.6923 26.1771L59.6076 27.3347L57.6317 28.0291C56.559 28.4054 55.4863 28.9263 55.3169 29.1867C54.7523 29.9391 54.8653 31.5019 55.5146 32.1675C56.5307 33.2092 57.4058 33.2092 58.7608 32.1964L60.0029 31.2704L60.2005 32.0517C60.3697 32.7173 60.4827 32.7752 61.2449 32.6305C61.6966 32.5436 62.2611 32.4569 62.4587 32.4569C63.108 32.4569 62.9104 31.878 62.1764 31.5886C61.5271 31.3572 61.499 31.2125 61.4143 27.8266C61.3013 24.5275 61.2449 24.2671 60.6239 23.7462C59.7206 22.9937 58.4785 23.0806 56.7284 24.0066ZM59.7488 29.3604C59.7488 30.4311 59.6359 30.6626 58.9302 31.0967C57.7445 31.7913 56.9824 31.7333 56.5873 30.8651C56.305 30.2575 56.3331 30.026 56.7284 29.6208C57.0952 29.2735 59.0148 28.2897 59.6923 28.145C59.7206 28.116 59.7488 28.6659 59.7488 29.3604Z" fill="#FFFDF7"/>
<path d="M67.4178 24.0379C66.3734 24.9351 66.0064 24.9351 66.0064 24.0379C66.0064 23.4013 65.7524 23.3723 64.2844 23.8354C63.0425 24.2114 62.8447 24.6455 63.8893 24.6455H64.595V36.5106H63.8893C63.494 36.5106 63.1836 36.6263 63.1836 36.8C63.1836 36.9735 64.228 37.0894 65.7241 37.0894C67.2202 37.0894 68.2646 36.9735 68.2646 36.8C68.2646 36.6263 67.813 36.5106 67.2766 36.5106H66.2886V32.8931H67.7848C70.6358 32.8643 72.2731 31.2437 72.4425 28.3208C72.5836 26.0636 72.0472 24.5877 70.7487 23.7773C69.4784 22.996 68.5752 23.0539 67.4178 24.0379ZM70.2405 25.5717C70.9464 26.7582 71.0028 29.4784 70.3818 30.7518C69.6478 32.1987 68.0106 32.4881 66.7968 31.3594C66.3734 31.0121 66.2886 30.4334 66.2886 28.4367C66.2886 25.9767 66.3169 25.9479 67.2202 25.2823C68.5469 24.3273 69.5631 24.443 70.2405 25.5717Z" fill="#FFFDF7"/>
<path d="M87.4029 24.0044C86.076 24.6122 85.7656 24.9016 85.7656 25.4513C85.7656 26.0013 85.9068 26.1169 86.5842 26.1169C87.2334 26.1169 87.431 25.9723 87.5157 25.4513C87.6569 24.4963 89.6047 24.0334 90.1692 24.8147C90.3951 25.1041 90.5644 25.7697 90.5644 26.2906C90.5644 27.2166 90.5079 27.2456 88.3344 27.9979C86.4996 28.6057 86.0479 28.8951 85.7656 29.5607C85.3422 30.6026 85.6526 31.7601 86.5278 32.4836C87.4876 33.2649 88.1933 33.207 89.3224 32.3389C90.4515 31.4707 90.7621 31.4417 90.9878 32.223C91.1572 32.7151 91.3266 32.8018 92.0323 32.6571C92.5122 32.5704 92.992 32.4836 93.1331 32.4836C93.2743 32.4836 93.3873 32.281 93.3873 32.0495C93.3873 31.818 93.1331 31.6154 92.8509 31.6154C92.0887 31.6154 91.9759 31.0945 91.9759 27.5929C91.9759 25.5092 91.8629 24.3228 91.6089 23.9754C91.0161 23.1362 89.2377 23.1362 87.4029 24.0044ZM90.5644 29.2713C90.5644 30.2263 90.4232 30.5157 89.7175 31.0367C89.2094 31.4129 88.5603 31.6154 88.1086 31.5576C87.4593 31.4996 87.2899 31.326 87.2334 30.5157C87.1487 29.6186 87.2334 29.5317 88.6448 28.8661C89.4635 28.49 90.2257 28.1716 90.3668 28.1716C90.4798 28.1426 90.5644 28.6636 90.5644 29.2713Z" fill="#FFFDF7"/>
<path d="M74.5279 23.8357C73.3988 24.212 73.3424 24.5882 74.3868 24.7039L75.1491 24.7908L75.2336 28.3214C75.3184 31.7652 75.2902 31.8518 74.6974 31.9387C74.3304 31.9965 74.0198 32.1992 73.9353 32.3728C73.8505 32.6622 74.3868 32.749 75.9959 32.749C77.6049 32.749 78.1411 32.6622 78.0566 32.3728C77.9719 32.1992 77.6613 31.9965 77.3226 31.9387C76.7297 31.8518 76.7016 31.7362 76.7016 27.6558C76.7016 23.5175 76.7016 23.4885 76.0805 23.5175C75.7136 23.5464 75.0079 23.6911 74.5279 23.8357Z" fill="#FFFDF7"/>
</g>
<defs>
<clipPath id="clip0_4899_1536">
<rect width="121.253" height="36.4632" fill="white" transform="translate(0.742188 0.576172)"/>
</clipPath>
</defs>
</svg>
