<svg width="117" height="39" viewBox="0 0 117 39" fill="none" xmlns="http://www.w3.org/2000/svg">
<g clip-path="url(#clip0_4899_1483)">
<path fill-rule="evenodd" clip-rule="evenodd" d="M0.432096 5.22401V10.3748H2.51247H4.59285V5.22401V0.0732422H2.51247H0.432096V5.22401ZM10.9548 15.4093C7.62455 18.8248 7.50711 18.9642 7.10335 19.98C6.60049 21.2451 6.61672 22.9603 7.14383 24.2585C7.52741 25.2032 7.81055 25.5354 11.0579 28.8509L14.1496 32.0076L15.5627 30.563L16.9758 29.1184L13.9157 25.9774C10.6684 22.6442 10.7039 22.6873 10.7039 22.072C10.7039 21.4567 10.6684 21.4999 13.9155 18.1669L16.9754 15.0261L15.5793 13.5976C14.8114 12.8121 14.1676 12.1693 14.1486 12.1693C14.1296 12.1693 12.6924 13.6273 10.9548 15.4093ZM107.864 12.7744C105.173 13.3207 103.087 15.3134 102.389 18.0042C102.244 18.567 102.222 18.7849 102.221 19.7127C102.22 20.6555 102.239 20.8513 102.392 21.4406C102.788 22.9616 103.718 24.4219 104.842 25.2855C105.402 25.7157 107.181 26.7512 107.244 26.6833C107.307 26.6157 109.127 23.4238 109.174 23.3004C109.193 23.2501 108.857 23.0157 108.306 22.6951C106.762 21.7946 106.267 21.1256 106.217 19.8684C106.196 19.3373 106.216 19.151 106.334 18.7883C107.027 16.6614 109.67 16.068 111.207 17.6944C111.363 17.8601 111.624 18.2772 111.813 18.6659L112.146 19.3471H114.279C115.453 19.3471 116.413 19.3349 116.413 19.3199C116.413 19.305 116.263 18.9087 116.08 18.4393C115.289 16.4133 114.804 15.5809 113.899 14.6926C113.229 14.0343 112.796 13.7286 111.973 13.3313C111.015 12.8694 110.51 12.7578 109.262 12.7312C108.672 12.7187 108.043 12.7381 107.864 12.7744ZM88.068 12.845C83.9188 13.1669 80.4907 16.4168 79.8423 20.6431C79.7075 21.5221 79.7403 23.1462 79.909 23.933C80.669 27.4806 83.1864 30.1758 86.5568 31.0506C89.6132 31.8438 92.8241 30.9784 95.0803 28.7536C96.1801 27.6694 96.9331 26.4651 97.3903 25.0596C97.7734 23.8828 97.8516 23.3755 97.8511 22.072C97.8508 20.7582 97.7592 20.1661 97.3828 19.048C96.9131 17.6522 96.187 16.4908 95.1272 15.4394C93.2309 13.5584 90.7281 12.6386 88.068 12.845ZM0.448154 22.0887L0.464602 31.3434L2.52872 31.361L4.59285 31.3785V22.1062V12.8339H2.51228H0.431641L0.448154 22.0887ZM29.3623 12.9408C28.1843 13.1587 26.8008 13.744 25.7867 14.4534C25.1409 14.9051 24.1812 15.8558 23.6642 16.5557C23.1523 17.2489 22.4662 18.6432 22.2415 19.4468C21.8986 20.6733 21.8867 20.9045 21.8864 26.3422L21.886 31.3767H23.9633H26.0407L26.0637 26.3422C26.0841 21.8869 26.0993 21.26 26.1959 20.8929C26.709 18.9418 28.2184 17.518 30.1432 17.1692L30.7022 17.0679L31.7237 15.0253L32.7449 12.9827L32.5652 12.9369C32.4663 12.9118 31.8295 12.8794 31.1502 12.8649C30.227 12.8453 29.7752 12.8645 29.3623 12.9408ZM42.202 12.9407C41.0016 13.1597 39.7331 13.6877 38.6591 14.4155C38.3474 14.6267 37.7924 15.1096 37.3865 15.5232C36.044 16.8909 35.2623 18.3753 34.8485 20.3441C34.6812 21.1386 34.6812 23.0055 34.8485 23.8C35.2374 25.6507 36.0028 27.159 37.2119 28.4579C38.5483 29.8935 40.351 30.877 42.2502 31.2064C43.0565 31.3461 44.4234 31.3494 45.2495 31.2135C48.5952 30.663 51.3912 28.1876 52.4284 24.8574C52.7108 23.951 52.8314 23.1163 52.8314 22.072C52.8314 20.18 52.3498 18.5292 51.3457 16.98C50.6232 15.8654 49.8475 15.0779 48.7254 14.3195C47.6877 13.6182 46.4823 13.1345 45.2741 12.9342C44.5196 12.809 42.9049 12.8125 42.202 12.9407ZM64.7613 12.9269C61.3755 13.586 58.7366 15.9111 57.6751 19.1703C57.2187 20.5713 57.2213 20.5291 57.2205 26.2259L57.2199 31.3434H59.3003H61.3807L61.4135 26.2259L61.4465 21.1084L61.5979 20.6431C62.1459 18.9574 63.4214 17.7029 65.0539 17.2442C65.6361 17.0806 66.9409 17.0788 67.5222 17.2407C69.1587 17.6969 70.4223 18.9402 70.979 20.6431L71.1313 21.1084L71.1643 26.2259L71.1974 31.3434H73.2778H75.3582V26.2259C75.3582 21.5847 75.3472 21.0496 75.2417 20.477C74.6458 17.2496 72.5422 14.6382 69.5638 13.4287C68.5223 13.0058 67.8789 12.8872 66.4839 12.8617C65.6103 12.8456 65.075 12.8658 64.7613 12.9269ZM44.7565 17.1932C46.204 17.4989 47.4769 18.4995 48.1191 19.8367C48.5274 20.6869 48.6347 21.1516 48.6347 22.072C48.6347 22.9932 48.5274 23.4571 48.1177 24.3099C47.4737 25.6509 46.2098 26.644 44.7565 26.9509C43.1383 27.2925 41.5508 26.8042 40.3461 25.5945C39.2805 24.5247 38.7829 23.0996 38.9302 21.5409C39.0366 20.4159 39.5287 19.377 40.3472 18.5496C41.5398 17.3439 43.1395 16.8518 44.7565 17.1932ZM89.7173 17.1834C90.726 17.3807 91.5075 17.8113 92.2611 18.5852C92.8537 19.1937 93.1477 19.6626 93.4081 20.4154C93.7819 21.4952 93.7819 22.6489 93.4081 23.7287C93.1437 24.4932 92.8514 24.9559 92.2286 25.5961C91.3518 26.4977 90.3221 26.9681 89.073 27.0379C86.7731 27.1663 84.7298 25.6592 84.0919 23.3642C83.8855 22.6212 83.886 21.5217 84.0931 20.7761C84.3384 19.8927 84.7037 19.2643 85.37 18.5802C85.8194 18.1185 86.0755 17.9165 86.475 17.7078C87.6027 17.1191 88.5804 16.961 89.7173 17.1834ZM110.33 26.169C109.796 27.1053 109.352 27.9048 109.343 27.9458C109.334 27.9868 109.748 28.2674 110.264 28.5693C111.356 29.2092 111.703 29.5357 112.045 30.2413C112.279 30.7277 112.285 30.755 112.285 31.5061C112.285 32.2322 112.273 32.2984 112.077 32.723C111.516 33.9323 110.225 34.645 108.984 34.4308C107.946 34.2519 107.192 33.6278 106.678 32.523L106.393 31.9085H104.252H102.112L102.265 32.3239C103.079 34.5296 103.757 35.7362 104.676 36.6151C107.845 39.6455 112.856 39.0301 115.223 35.3198C115.645 34.6584 115.919 34.0139 116.136 33.1747C116.275 32.6355 116.3 32.3895 116.303 31.5429C116.306 30.4244 116.227 29.9529 115.87 28.9822C115.513 28.0109 115.106 27.3821 114.3 26.5578C113.574 25.8152 113.479 25.7479 111.598 24.6413L111.302 24.4668L110.33 26.169Z" fill="#FFFDF7"/>
</g>
<defs>
<clipPath id="clip0_4899_1483">
<rect width="115.981" height="38.577" fill="white" transform="translate(0.431641 0.0693359)"/>
</clipPath>
</defs>
</svg>
