<svg width="122" height="33" viewBox="0 0 122 33" fill="none" xmlns="http://www.w3.org/2000/svg">
<path fill-rule="evenodd" clip-rule="evenodd" d="M16.9407 32.7963C26.2871 32.7963 33.8746 25.6291 33.8746 16.8078C33.8746 7.9866 26.2871 0.819336 16.9407 0.819336C7.59437 0.819336 0.00683594 7.9866 0.00683594 16.8078C0.00683594 25.6291 7.59437 32.7963 16.9407 32.7963ZM19.1291 11.1312L24.835 7.98659V12.6423V14.5208C24.835 16.1953 23.8943 17.7471 22.3604 18.5843L17.1657 21.4431V21.6473V26.3029L11.4597 23.1379C9.92585 22.3007 8.98507 20.7488 8.98507 19.0744V17.1346V12.5606L14.6911 15.7052C15.5705 16.1748 16.2454 16.8895 16.6749 17.7267V17.155V15.2151C16.6544 13.5203 17.5952 11.9684 19.1291 11.1312Z" fill="#FFFDF7"/>
<path d="M40.9834 24.0818V9.33887H43.9693L50.4934 18.7114C50.8411 19.2832 51.066 19.6507 51.1683 19.8753V9.33887H54.0315V24.0818H51.0456L44.5215 14.6479C44.1738 14.0762 43.9489 13.7087 43.8466 13.484V24.0818H40.9834ZM66.5069 24.0818H63.6437C63.296 23.653 63.112 23.1016 63.112 22.4278C62.3348 23.7346 61.1077 24.3881 59.4103 24.3881C58.3059 24.3881 57.406 24.1022 56.7106 23.51C56.0357 22.8974 55.6881 22.1215 55.6881 21.1209C55.6881 20.1204 56.0562 19.3444 56.772 18.7931C57.5083 18.2214 58.4695 17.8538 59.6352 17.67L62.9688 17.18V16.7716C62.9688 15.7098 62.2939 15.1993 60.9441 15.1993C60.3101 15.1993 59.8193 15.3014 59.4716 15.526C59.1239 15.7506 58.9603 16.0365 58.9603 16.3632C58.9603 16.4449 58.9808 16.5265 59.0012 16.6082L56.4857 17.4046C56.3425 17.1187 56.2812 16.8328 56.2812 16.5265C56.2812 15.6689 56.7106 14.9338 57.5492 14.3008C58.3877 13.6474 59.533 13.3411 60.9441 13.3411C62.5189 13.3411 63.7255 13.6474 64.5436 14.2804C65.3821 14.9134 65.7911 15.8527 65.7911 17.1187V21.4885C65.7502 22.5503 65.9957 23.4079 66.5069 24.0818ZM60.0647 22.2236C60.9032 22.2236 61.5986 21.9581 62.1303 21.4477C62.6621 20.9167 62.9279 20.1612 62.9279 19.2015V19.0177L60.2488 19.4465C59.0217 19.6507 58.3877 20.1612 58.3877 20.978C58.3877 21.3864 58.5308 21.6927 58.8376 21.9173C59.1648 22.1215 59.5534 22.2236 60.0647 22.2236ZM70.4541 16.1998C70.4541 16.8533 71.3335 17.3433 73.0719 17.67C74.3603 17.9151 75.3011 18.303 75.8942 18.834C76.4873 19.3444 76.7941 20.0183 76.7941 20.8963C76.7941 21.9173 76.4055 22.7341 75.6079 23.4079C74.8103 24.0614 73.7468 24.3676 72.4174 24.3676C71.129 24.3676 70.0655 24.0818 69.227 23.4896C68.3885 22.8974 67.7749 22.1419 67.3455 21.2435L69.5951 19.8958C69.8405 20.59 70.2087 21.1414 70.6791 21.5293C71.1699 21.9377 71.763 22.1419 72.4379 22.1419C72.9083 22.1419 73.2969 22.0398 73.6445 21.856C73.9922 21.6519 74.1763 21.366 74.1763 20.9984C74.1763 20.6513 73.9922 20.3858 73.6241 20.2021C73.256 19.9979 72.6424 19.8141 71.8243 19.6507C69.2474 19.1811 67.959 18.0784 67.959 16.3836C67.959 15.4443 68.368 14.7092 69.1656 14.1783C69.9633 13.627 70.9449 13.3615 72.0902 13.3615C73.256 13.3615 74.1967 13.5657 74.9125 13.9945C75.6283 14.4233 76.2214 15.0768 76.6714 15.9956L74.6262 17.1187C74.1149 15.8935 73.2969 15.281 72.1311 15.281C71.0063 15.281 70.4541 15.5872 70.4541 16.1998ZM86.6108 19.9774L88.881 21.366C87.8175 23.3671 86.0791 24.3881 83.7067 24.3881C82.0501 24.3881 80.639 23.8776 79.5346 22.877C78.4302 21.856 77.878 20.5084 77.878 18.8748C77.878 17.2412 78.4507 15.914 79.5755 14.893C80.7003 13.872 82.091 13.3615 83.7067 13.3615C84.9338 13.3615 85.9768 13.6065 86.8562 14.117C87.7561 14.6071 88.3901 15.3014 88.7787 16.1998L86.4881 17.6292C85.9155 16.4449 84.9747 15.8323 83.7067 15.8323C82.8682 15.8323 82.1524 16.1182 81.5797 16.6695C81.0275 17.2208 80.7617 17.9559 80.7617 18.8544C80.7617 19.7733 81.0275 20.5084 81.5797 21.0597C82.1319 21.611 82.8273 21.8765 83.7067 21.8765C84.4225 21.8765 84.9952 21.7131 85.4451 21.4068C85.895 21.1005 86.2836 20.6105 86.6108 19.9774ZM100.927 19.4874H92.3986C92.4804 20.2837 92.8076 20.9167 93.3598 21.4068C93.912 21.8765 94.6074 22.1011 95.4255 22.1011C96.7957 22.1011 97.8183 21.4681 98.4932 20.1816L100.6 21.3251C99.5567 23.3671 97.8183 24.3881 95.405 24.3881C93.8302 24.3881 92.4804 23.8776 91.3556 22.8566C90.2512 21.8152 89.699 20.4879 89.699 18.8748C89.699 17.2412 90.2512 15.914 91.376 14.893C92.5009 13.872 93.8916 13.3615 95.5277 13.3615C97.1025 13.3615 98.3909 13.8516 99.4135 14.8317C100.416 15.7914 100.927 17.0575 100.927 18.5889V19.4874ZM95.4459 15.3626C94.7096 15.3626 94.0756 15.5668 93.5235 15.9956C92.9917 16.404 92.6236 16.9145 92.3986 17.5475H98.3296C98.1864 16.8533 97.8796 16.3223 97.3684 15.9548C96.8775 15.5668 96.2231 15.3626 95.4459 15.3626ZM113.177 16.9554V24.0818H110.355V18.058C110.355 16.5674 109.598 15.8323 108.105 15.8323C107.369 15.8323 106.735 16.0977 106.244 16.6491C105.774 17.2004 105.529 17.9151 105.529 18.7727V24.0818H102.706V13.627H105.529V15.3218C106.428 13.9945 107.676 13.3411 109.271 13.3411C110.437 13.3411 111.378 13.6678 112.093 14.3212C112.809 14.9951 113.177 15.8731 113.177 16.9554ZM114.118 15.7914V13.6474H115.836V10.8295H118.658V13.6474H121.051V15.7914H118.638V20.5492C118.638 21.5293 119.108 22.0194 120.049 22.0194C120.376 22.0194 120.683 21.9786 120.99 21.8969L121.256 24.0818C120.683 24.286 120.07 24.3676 119.374 24.3676C117.002 24.3676 115.816 23.265 115.816 21.0393V15.771H114.118V15.7914Z" fill="#FFFDF7"/>
</svg>
