<svg width="119" height="29" viewBox="0 0 119 29" fill="none" xmlns="http://www.w3.org/2000/svg">
<path d="M24.3478 8.84066L9.43719 0.198242L7.56069 1.26583V3.42644L5.68419 2.35885L3.80769 3.42644V5.58704L1.93119 4.51945L0.0546875 5.58704V22.8465L1.93119 23.9141L3.80769 22.8465V25.0071L5.68419 26.0747L7.56069 25.0071V27.1677L9.43719 28.2353L24.3478 19.5928V17.4831L22.4713 16.4155L24.3478 15.3479V13.1619L22.4713 12.0943L24.3478 11.0267V8.84066ZM3.83305 20.7113L1.95655 21.7789V6.68005L3.83305 7.74765V20.7113ZM9.43719 21.8043V19.6437L16.8925 15.3225L18.769 16.3901L9.43719 21.8043ZM15.016 14.2549L9.43719 17.4831V11.0013L15.016 14.2549ZM16.8925 13.1619L9.43719 8.84066V6.68005L18.769 12.0689L16.8925 13.1619ZM5.70955 4.51945L7.58605 5.58704V7.74765L5.70955 6.68005V4.51945ZM5.70955 8.84066L7.58605 9.90825V18.5507L5.70955 19.6183V8.84066ZM5.70955 21.8043L7.58605 20.7367V22.8973L5.70955 23.9649V21.8043ZM22.4713 18.5507L9.41183 26.1001V23.9395L20.5948 17.4577L22.4713 18.5507ZM22.4713 14.2549L20.5948 15.3225L18.7183 14.2549L20.5948 13.1873L22.4713 14.2549ZM20.6201 11.0013L9.43719 4.51945V2.35885L22.4966 9.90825L20.6201 11.0013Z" fill="#FFFDF7"/>
<path d="M32.0148 21.8108H29.8594V6.71194H36.4271C39.4447 6.71194 41.2705 8.5421 41.2705 11.2365C41.2705 13.9309 39.4447 15.7611 36.4271 15.7611H32.0148V21.8108ZM39.1404 11.2365C39.1404 9.73679 38.2783 8.5421 36.4525 8.5421H32.0402V13.9309H36.4525C38.2783 13.9309 39.1404 12.7362 39.1404 11.2365ZM42.082 13.4988C42.2849 11.694 43.8063 10.2706 46.8493 10.2706C48.7005 10.2706 50.2727 10.779 51.0588 12.1007C51.4138 12.6854 51.5913 13.4734 51.5913 14.363V21.8108H49.5119V20.4127C48.878 21.277 47.5847 22.1412 45.7336 22.1412C43.4513 22.1412 41.5241 20.9465 41.5241 18.4809C41.5241 16.549 42.8427 15.151 45.6321 14.9222L49.5119 14.5918V14.3884C49.5119 12.8887 48.878 11.8974 46.824 11.8974C45.1757 11.8974 44.3135 12.5329 44.1867 13.5242L42.082 13.4988ZM49.5373 16.9558V16.0915L45.8857 16.422C44.3896 16.5491 43.6288 17.2862 43.6288 18.4809C43.6288 19.9806 44.6939 20.5398 45.9871 20.5398C47.9144 20.5144 49.5373 19.218 49.5373 16.9558ZM57.9562 12.3041C56.46 12.3041 55.4711 13.1683 55.4711 15.1002V21.8108H53.3917V10.5756H55.4711V11.872C56.0036 10.9061 56.8658 10.3723 58.4887 10.3723H59.0719V12.3041H57.9562ZM59.7059 13.4988C59.9087 11.694 61.4302 10.2706 64.4732 10.2706C66.3243 10.2706 67.8966 10.779 68.6827 12.1007C69.0377 12.6854 69.2152 13.4734 69.2152 14.363V21.8108H67.1358V20.4127C66.5019 21.277 65.2086 22.1412 63.3574 22.1412C61.0752 22.1412 59.148 20.9465 59.148 18.4809C59.148 16.549 60.4666 15.151 63.256 14.9222L67.1358 14.5918V14.3884C67.1358 12.8887 66.5019 11.8974 64.4479 11.8974C62.7996 11.8974 61.9374 12.5329 61.8106 13.5242L59.7059 13.4988ZM67.1612 16.9558V16.0915L63.5096 16.422C62.0135 16.5491 61.2527 17.2862 61.2527 18.4809C61.2527 19.9806 62.3178 20.5398 63.611 20.5398C65.5382 20.5144 67.1612 19.218 67.1612 16.9558ZM79.3838 20.2856C78.7498 21.3532 77.4566 22.1158 75.7322 22.1158C72.3849 22.1158 70.5338 19.4214 70.5338 16.1932C70.5338 12.965 72.3596 10.2706 75.7322 10.2706C77.4566 10.2706 78.7498 11.0332 79.3838 12.1007V6.71194H81.4378V21.8108H79.3584L79.3838 20.2856ZM76.0619 11.9737C73.805 11.9737 72.6132 13.8038 72.6132 16.1932C72.6132 18.5571 73.805 20.4127 76.0619 20.4127C78.3187 20.4127 79.5106 18.4809 79.5106 16.1932C79.4852 13.9309 78.3187 11.9737 76.0619 11.9737ZM89.4256 20.0823V21.8108H82.7818V20.0823H85.064V12.3041H82.7818V10.5756H87.118V20.0823H89.4256ZM87.1434 8.84713H85.064V6.68652H87.1434V8.84713ZM98.1234 20.0823C97.6923 20.7177 96.5005 21.7091 94.5733 21.7091C91.4289 21.7091 89.3749 19.1164 89.3749 15.9898C89.3749 12.8633 91.4289 10.2706 94.5733 10.2706C96.5005 10.2706 97.6923 11.2365 98.1234 11.8974V10.601H100.203V20.6415C100.203 24.2001 98.1488 26.0303 94.903 26.0303C92.3925 26.0303 90.5667 24.7339 90.1356 22.8021H92.2911C92.4939 23.5901 93.28 24.4289 94.903 24.4289C97.2613 24.4289 98.1234 22.9292 98.1234 20.6415V20.0823ZM94.7762 11.9737C92.7221 11.9737 91.4289 13.8038 91.4289 15.9644C91.4289 18.125 92.7221 19.9552 94.7762 19.9552C96.9316 19.9552 98.2249 18.125 98.2249 15.9644C98.2249 13.8292 96.9316 11.9737 94.7762 11.9737ZM104.159 11.872C104.793 10.6773 106.086 10.2452 107.379 10.2452C108.875 10.2452 110.295 10.8806 110.929 12.177C111.563 10.9823 112.755 10.2452 114.708 10.2452C117.066 10.2452 118.79 11.6432 118.79 14.4647V21.8108H116.711V14.7951C116.711 12.965 115.95 11.9991 114.251 11.9991C112.856 11.9991 111.462 12.8633 111.462 15.1256V21.8108H109.408V14.7951C109.408 12.965 108.647 11.9991 106.948 11.9991C105.553 11.9991 104.159 12.8633 104.159 15.1256V21.8108H102.079V10.5756H104.159V11.872Z" fill="#FFFDF7"/>
</svg>
